G75*
%MOIN*%
%OFA0B0*%
%FSLAX24Y24*%
%IPPOS*%
%LPD*%
%AMOC8*
5,1,8,0,0,1.08239X$1,22.5*
%
%ADD10C,0.0000*%
D10*
X000150Y000343D02*
X000150Y012154D01*
X017473Y012154D01*
X017473Y000343D01*
X000150Y000343D01*
X002473Y001602D02*
X002475Y001652D01*
X002481Y001702D01*
X002491Y001751D01*
X002505Y001799D01*
X002522Y001846D01*
X002543Y001891D01*
X002568Y001935D01*
X002596Y001976D01*
X002628Y002015D01*
X002662Y002052D01*
X002699Y002086D01*
X002739Y002116D01*
X002781Y002143D01*
X002825Y002167D01*
X002871Y002188D01*
X002918Y002204D01*
X002966Y002217D01*
X003016Y002226D01*
X003065Y002231D01*
X003116Y002232D01*
X003166Y002229D01*
X003215Y002222D01*
X003264Y002211D01*
X003312Y002196D01*
X003358Y002178D01*
X003403Y002156D01*
X003446Y002130D01*
X003487Y002101D01*
X003526Y002069D01*
X003562Y002034D01*
X003594Y001996D01*
X003624Y001956D01*
X003651Y001913D01*
X003674Y001869D01*
X003693Y001823D01*
X003709Y001775D01*
X003721Y001726D01*
X003729Y001677D01*
X003733Y001627D01*
X003733Y001577D01*
X003729Y001527D01*
X003721Y001478D01*
X003709Y001429D01*
X003693Y001381D01*
X003674Y001335D01*
X003651Y001291D01*
X003624Y001248D01*
X003594Y001208D01*
X003562Y001170D01*
X003526Y001135D01*
X003487Y001103D01*
X003446Y001074D01*
X003403Y001048D01*
X003358Y001026D01*
X003312Y001008D01*
X003264Y000993D01*
X003215Y000982D01*
X003166Y000975D01*
X003116Y000972D01*
X003065Y000973D01*
X003016Y000978D01*
X002966Y000987D01*
X002918Y001000D01*
X002871Y001016D01*
X002825Y001037D01*
X002781Y001061D01*
X002739Y001088D01*
X002699Y001118D01*
X002662Y001152D01*
X002628Y001189D01*
X002596Y001228D01*
X002568Y001269D01*
X002543Y001313D01*
X002522Y001358D01*
X002505Y001405D01*
X002491Y001453D01*
X002481Y001502D01*
X002475Y001552D01*
X002473Y001602D01*
X002394Y003965D02*
X002396Y003986D01*
X002402Y004006D01*
X002411Y004026D01*
X002423Y004043D01*
X002438Y004057D01*
X002456Y004069D01*
X002476Y004077D01*
X002496Y004082D01*
X002517Y004083D01*
X002538Y004080D01*
X002558Y004074D01*
X002577Y004063D01*
X002594Y004050D01*
X002607Y004034D01*
X002618Y004016D01*
X002626Y003996D01*
X002630Y003976D01*
X002630Y003954D01*
X002626Y003934D01*
X002618Y003914D01*
X002607Y003896D01*
X002594Y003880D01*
X002577Y003867D01*
X002558Y003856D01*
X002538Y003850D01*
X002517Y003847D01*
X002496Y003848D01*
X002476Y003853D01*
X002456Y003861D01*
X002438Y003873D01*
X002423Y003887D01*
X002411Y003904D01*
X002402Y003924D01*
X002396Y003944D01*
X002394Y003965D01*
X002394Y008531D02*
X002396Y008552D01*
X002402Y008572D01*
X002411Y008592D01*
X002423Y008609D01*
X002438Y008623D01*
X002456Y008635D01*
X002476Y008643D01*
X002496Y008648D01*
X002517Y008649D01*
X002538Y008646D01*
X002558Y008640D01*
X002577Y008629D01*
X002594Y008616D01*
X002607Y008600D01*
X002618Y008582D01*
X002626Y008562D01*
X002630Y008542D01*
X002630Y008520D01*
X002626Y008500D01*
X002618Y008480D01*
X002607Y008462D01*
X002594Y008446D01*
X002577Y008433D01*
X002558Y008422D01*
X002538Y008416D01*
X002517Y008413D01*
X002496Y008414D01*
X002476Y008419D01*
X002456Y008427D01*
X002438Y008439D01*
X002423Y008453D01*
X002411Y008470D01*
X002402Y008490D01*
X002396Y008510D01*
X002394Y008531D01*
X002473Y010894D02*
X002475Y010944D01*
X002481Y010994D01*
X002491Y011043D01*
X002505Y011091D01*
X002522Y011138D01*
X002543Y011183D01*
X002568Y011227D01*
X002596Y011268D01*
X002628Y011307D01*
X002662Y011344D01*
X002699Y011378D01*
X002739Y011408D01*
X002781Y011435D01*
X002825Y011459D01*
X002871Y011480D01*
X002918Y011496D01*
X002966Y011509D01*
X003016Y011518D01*
X003065Y011523D01*
X003116Y011524D01*
X003166Y011521D01*
X003215Y011514D01*
X003264Y011503D01*
X003312Y011488D01*
X003358Y011470D01*
X003403Y011448D01*
X003446Y011422D01*
X003487Y011393D01*
X003526Y011361D01*
X003562Y011326D01*
X003594Y011288D01*
X003624Y011248D01*
X003651Y011205D01*
X003674Y011161D01*
X003693Y011115D01*
X003709Y011067D01*
X003721Y011018D01*
X003729Y010969D01*
X003733Y010919D01*
X003733Y010869D01*
X003729Y010819D01*
X003721Y010770D01*
X003709Y010721D01*
X003693Y010673D01*
X003674Y010627D01*
X003651Y010583D01*
X003624Y010540D01*
X003594Y010500D01*
X003562Y010462D01*
X003526Y010427D01*
X003487Y010395D01*
X003446Y010366D01*
X003403Y010340D01*
X003358Y010318D01*
X003312Y010300D01*
X003264Y010285D01*
X003215Y010274D01*
X003166Y010267D01*
X003116Y010264D01*
X003065Y010265D01*
X003016Y010270D01*
X002966Y010279D01*
X002918Y010292D01*
X002871Y010308D01*
X002825Y010329D01*
X002781Y010353D01*
X002739Y010380D01*
X002699Y010410D01*
X002662Y010444D01*
X002628Y010481D01*
X002596Y010520D01*
X002568Y010561D01*
X002543Y010605D01*
X002522Y010650D01*
X002505Y010697D01*
X002491Y010745D01*
X002481Y010794D01*
X002475Y010844D01*
X002473Y010894D01*
M02*
