G75*
%MOIN*%
%OFA0B0*%
%FSLAX24Y24*%
%IPPOS*%
%LPD*%
%AMOC8*
5,1,8,0,0,1.08239X$1,22.5*
%
%ADD10C,0.0000*%
%ADD11C,0.0280*%
%ADD12C,0.0197*%
%ADD13C,0.0050*%
%ADD14C,0.0100*%
%ADD15C,0.0200*%
%ADD16C,0.0212*%
%ADD17C,0.0080*%
D10*
X000229Y000343D02*
X000229Y012154D01*
X017552Y012154D01*
X017552Y000343D01*
X000229Y000343D01*
X002552Y001602D02*
X002554Y001652D01*
X002560Y001702D01*
X002570Y001751D01*
X002584Y001799D01*
X002601Y001846D01*
X002622Y001891D01*
X002647Y001935D01*
X002675Y001976D01*
X002707Y002015D01*
X002741Y002052D01*
X002778Y002086D01*
X002818Y002116D01*
X002860Y002143D01*
X002904Y002167D01*
X002950Y002188D01*
X002997Y002204D01*
X003045Y002217D01*
X003095Y002226D01*
X003144Y002231D01*
X003195Y002232D01*
X003245Y002229D01*
X003294Y002222D01*
X003343Y002211D01*
X003391Y002196D01*
X003437Y002178D01*
X003482Y002156D01*
X003525Y002130D01*
X003566Y002101D01*
X003605Y002069D01*
X003641Y002034D01*
X003673Y001996D01*
X003703Y001956D01*
X003730Y001913D01*
X003753Y001869D01*
X003772Y001823D01*
X003788Y001775D01*
X003800Y001726D01*
X003808Y001677D01*
X003812Y001627D01*
X003812Y001577D01*
X003808Y001527D01*
X003800Y001478D01*
X003788Y001429D01*
X003772Y001381D01*
X003753Y001335D01*
X003730Y001291D01*
X003703Y001248D01*
X003673Y001208D01*
X003641Y001170D01*
X003605Y001135D01*
X003566Y001103D01*
X003525Y001074D01*
X003482Y001048D01*
X003437Y001026D01*
X003391Y001008D01*
X003343Y000993D01*
X003294Y000982D01*
X003245Y000975D01*
X003195Y000972D01*
X003144Y000973D01*
X003095Y000978D01*
X003045Y000987D01*
X002997Y001000D01*
X002950Y001016D01*
X002904Y001037D01*
X002860Y001061D01*
X002818Y001088D01*
X002778Y001118D01*
X002741Y001152D01*
X002707Y001189D01*
X002675Y001228D01*
X002647Y001269D01*
X002622Y001313D01*
X002601Y001358D01*
X002584Y001405D01*
X002570Y001453D01*
X002560Y001502D01*
X002554Y001552D01*
X002552Y001602D01*
X002474Y003965D02*
X002476Y003986D01*
X002482Y004006D01*
X002491Y004026D01*
X002503Y004043D01*
X002518Y004057D01*
X002536Y004069D01*
X002556Y004077D01*
X002576Y004082D01*
X002597Y004083D01*
X002618Y004080D01*
X002638Y004074D01*
X002657Y004063D01*
X002674Y004050D01*
X002687Y004034D01*
X002698Y004016D01*
X002706Y003996D01*
X002710Y003976D01*
X002710Y003954D01*
X002706Y003934D01*
X002698Y003914D01*
X002687Y003896D01*
X002674Y003880D01*
X002657Y003867D01*
X002638Y003856D01*
X002618Y003850D01*
X002597Y003847D01*
X002576Y003848D01*
X002556Y003853D01*
X002536Y003861D01*
X002518Y003873D01*
X002503Y003887D01*
X002491Y003904D01*
X002482Y003924D01*
X002476Y003944D01*
X002474Y003965D01*
X002474Y008531D02*
X002476Y008552D01*
X002482Y008572D01*
X002491Y008592D01*
X002503Y008609D01*
X002518Y008623D01*
X002536Y008635D01*
X002556Y008643D01*
X002576Y008648D01*
X002597Y008649D01*
X002618Y008646D01*
X002638Y008640D01*
X002657Y008629D01*
X002674Y008616D01*
X002687Y008600D01*
X002698Y008582D01*
X002706Y008562D01*
X002710Y008542D01*
X002710Y008520D01*
X002706Y008500D01*
X002698Y008480D01*
X002687Y008462D01*
X002674Y008446D01*
X002657Y008433D01*
X002638Y008422D01*
X002618Y008416D01*
X002597Y008413D01*
X002576Y008414D01*
X002556Y008419D01*
X002536Y008427D01*
X002518Y008439D01*
X002503Y008453D01*
X002491Y008470D01*
X002482Y008490D01*
X002476Y008510D01*
X002474Y008531D01*
X002552Y010894D02*
X002554Y010944D01*
X002560Y010994D01*
X002570Y011043D01*
X002584Y011091D01*
X002601Y011138D01*
X002622Y011183D01*
X002647Y011227D01*
X002675Y011268D01*
X002707Y011307D01*
X002741Y011344D01*
X002778Y011378D01*
X002818Y011408D01*
X002860Y011435D01*
X002904Y011459D01*
X002950Y011480D01*
X002997Y011496D01*
X003045Y011509D01*
X003095Y011518D01*
X003144Y011523D01*
X003195Y011524D01*
X003245Y011521D01*
X003294Y011514D01*
X003343Y011503D01*
X003391Y011488D01*
X003437Y011470D01*
X003482Y011448D01*
X003525Y011422D01*
X003566Y011393D01*
X003605Y011361D01*
X003641Y011326D01*
X003673Y011288D01*
X003703Y011248D01*
X003730Y011205D01*
X003753Y011161D01*
X003772Y011115D01*
X003788Y011067D01*
X003800Y011018D01*
X003808Y010969D01*
X003812Y010919D01*
X003812Y010869D01*
X003808Y010819D01*
X003800Y010770D01*
X003788Y010721D01*
X003772Y010673D01*
X003753Y010627D01*
X003730Y010583D01*
X003703Y010540D01*
X003673Y010500D01*
X003641Y010462D01*
X003605Y010427D01*
X003566Y010395D01*
X003525Y010366D01*
X003482Y010340D01*
X003437Y010318D01*
X003391Y010300D01*
X003343Y010285D01*
X003294Y010274D01*
X003245Y010267D01*
X003195Y010264D01*
X003144Y010265D01*
X003095Y010270D01*
X003045Y010279D01*
X002997Y010292D01*
X002950Y010308D01*
X002904Y010329D01*
X002860Y010353D01*
X002818Y010380D01*
X002778Y010410D01*
X002741Y010444D01*
X002707Y010481D01*
X002675Y010520D01*
X002647Y010561D01*
X002622Y010605D01*
X002601Y010650D01*
X002584Y010697D01*
X002570Y010745D01*
X002560Y010794D01*
X002554Y010844D01*
X002552Y010894D01*
D11*
X006490Y011209D02*
X006492Y011221D01*
X006497Y011232D01*
X006506Y011241D01*
X006517Y011246D01*
X006529Y011248D01*
X006541Y011246D01*
X006552Y011241D01*
X006561Y011232D01*
X006566Y011221D01*
X006568Y011209D01*
X006566Y011197D01*
X006561Y011186D01*
X006552Y011177D01*
X006541Y011172D01*
X006529Y011170D01*
X006517Y011172D01*
X006506Y011177D01*
X006497Y011186D01*
X006492Y011197D01*
X006490Y011209D01*
D12*
X011056Y008571D03*
D13*
X011579Y008768D02*
X011715Y008768D01*
X012277Y009269D02*
X012277Y009280D01*
X012609Y009834D02*
X012742Y009834D01*
X012775Y009868D01*
X012775Y009934D01*
X012742Y009968D01*
X012775Y010064D02*
X012775Y010198D01*
X012775Y010131D02*
X012575Y010131D01*
X012642Y010064D01*
X012609Y009968D02*
X012575Y009934D01*
X012575Y009868D01*
X012609Y009834D01*
X013184Y009449D02*
X013217Y009482D01*
X013351Y009349D01*
X013384Y009382D01*
X013384Y009449D01*
X013351Y009482D01*
X013217Y009482D01*
X013184Y009449D02*
X013184Y009382D01*
X013217Y009349D01*
X013351Y009349D01*
X013351Y009252D02*
X013384Y009219D01*
X013384Y009152D01*
X013351Y009118D01*
X013284Y009185D02*
X013284Y009219D01*
X013317Y009252D01*
X013351Y009252D01*
X013284Y009219D02*
X013250Y009252D01*
X013217Y009252D01*
X013184Y009219D01*
X013184Y009152D01*
X013217Y009118D01*
X013217Y009022D02*
X013184Y008988D01*
X013184Y008922D01*
X013217Y008888D01*
X013351Y008888D01*
X013384Y008922D01*
X013384Y008988D01*
X013351Y009022D01*
X013589Y009011D02*
X013589Y008911D01*
X013789Y008911D01*
X013722Y008911D02*
X013722Y009011D01*
X013689Y009045D01*
X013622Y009045D01*
X013589Y009011D01*
X013622Y009141D02*
X013589Y009175D01*
X013589Y009241D01*
X013622Y009275D01*
X013656Y009275D01*
X013789Y009141D01*
X013789Y009275D01*
X013954Y009298D02*
X013954Y009398D01*
X013987Y009431D01*
X014054Y009431D01*
X014087Y009398D01*
X014087Y009298D01*
X014087Y009365D02*
X014154Y009431D01*
X014154Y009528D02*
X014120Y009528D01*
X013987Y009661D01*
X013954Y009661D01*
X013954Y009528D01*
X013954Y009298D02*
X014154Y009298D01*
X014400Y009293D02*
X014400Y009393D01*
X014433Y009426D01*
X014500Y009426D01*
X014533Y009393D01*
X014533Y009293D01*
X014600Y009293D02*
X014400Y009293D01*
X014533Y009360D02*
X014600Y009426D01*
X014566Y009523D02*
X014533Y009523D01*
X014500Y009557D01*
X014500Y009623D01*
X014533Y009657D01*
X014566Y009657D01*
X014600Y009623D01*
X014600Y009557D01*
X014566Y009523D01*
X014500Y009557D02*
X014466Y009523D01*
X014433Y009523D01*
X014400Y009557D01*
X014400Y009623D01*
X014433Y009657D01*
X014466Y009657D01*
X014500Y009623D01*
X015167Y009598D02*
X015201Y009564D01*
X015234Y009564D01*
X015267Y009598D01*
X015267Y009698D01*
X015201Y009698D02*
X015167Y009665D01*
X015167Y009598D01*
X015201Y009698D02*
X015334Y009698D01*
X015368Y009665D01*
X015368Y009598D01*
X015334Y009564D01*
X015368Y009468D02*
X015301Y009401D01*
X015301Y009434D02*
X015301Y009334D01*
X015368Y009334D02*
X015167Y009334D01*
X015167Y009434D01*
X015201Y009468D01*
X015267Y009468D01*
X015301Y009434D01*
X016331Y008530D02*
X016365Y008564D01*
X016431Y008564D01*
X016465Y008530D01*
X016561Y008530D02*
X016595Y008564D01*
X016662Y008564D01*
X016695Y008530D01*
X016695Y008497D01*
X016561Y008364D01*
X016695Y008364D01*
X016792Y008364D02*
X016792Y008397D01*
X016925Y008530D01*
X016925Y008564D01*
X016792Y008564D01*
X016465Y008397D02*
X016431Y008364D01*
X016365Y008364D01*
X016331Y008397D01*
X016331Y008530D01*
X015973Y008150D02*
X015907Y008150D01*
X015873Y008117D01*
X015873Y008084D01*
X015907Y008050D01*
X015973Y008050D01*
X016007Y008017D01*
X016007Y007984D01*
X015973Y007950D01*
X015907Y007950D01*
X015873Y007984D01*
X015873Y008017D01*
X015907Y008050D01*
X015973Y008050D02*
X016007Y008084D01*
X016007Y008117D01*
X015973Y008150D01*
X015776Y008117D02*
X015743Y008150D01*
X015676Y008150D01*
X015643Y008117D01*
X015546Y008117D02*
X015513Y008150D01*
X015446Y008150D01*
X015413Y008117D01*
X015413Y007984D01*
X015446Y007950D01*
X015513Y007950D01*
X015546Y007984D01*
X015643Y007950D02*
X015776Y008084D01*
X015776Y008117D01*
X015776Y007950D02*
X015643Y007950D01*
X015915Y007766D02*
X015915Y007632D01*
X016015Y007632D01*
X015982Y007699D01*
X015982Y007732D01*
X016015Y007766D01*
X016082Y007766D01*
X016115Y007732D01*
X016115Y007666D01*
X016082Y007632D01*
X016115Y007536D02*
X016115Y007402D01*
X015915Y007402D01*
X016321Y006852D02*
X016288Y006818D01*
X016288Y006685D01*
X016321Y006651D01*
X016388Y006651D01*
X016421Y006685D01*
X016518Y006651D02*
X016652Y006785D01*
X016652Y006818D01*
X016618Y006852D01*
X016551Y006852D01*
X016518Y006818D01*
X016421Y006818D02*
X016388Y006852D01*
X016321Y006852D01*
X016518Y006651D02*
X016652Y006651D01*
X016748Y006685D02*
X016782Y006651D01*
X016848Y006651D01*
X016882Y006685D01*
X016882Y006718D01*
X016848Y006752D01*
X016748Y006752D01*
X016748Y006685D01*
X016748Y006752D02*
X016815Y006818D01*
X016882Y006852D01*
X016885Y006544D02*
X016752Y006544D01*
X016752Y006444D01*
X016818Y006478D01*
X016852Y006478D01*
X016885Y006444D01*
X016885Y006377D01*
X016852Y006344D01*
X016785Y006344D01*
X016752Y006377D01*
X016655Y006344D02*
X016521Y006344D01*
X016655Y006478D01*
X016655Y006511D01*
X016622Y006544D01*
X016555Y006544D01*
X016521Y006511D01*
X016425Y006511D02*
X016391Y006544D01*
X016325Y006544D01*
X016291Y006511D01*
X016291Y006377D01*
X016325Y006344D01*
X016391Y006344D01*
X016425Y006377D01*
X016122Y005753D02*
X015922Y005753D01*
X016022Y005653D01*
X016022Y005786D01*
X016122Y005556D02*
X016122Y005422D01*
X015922Y005422D01*
X015366Y005399D02*
X015366Y005365D01*
X015333Y005332D01*
X015266Y005332D01*
X015233Y005365D01*
X015299Y005432D02*
X015333Y005432D01*
X015366Y005399D01*
X015333Y005432D02*
X015366Y005466D01*
X015366Y005499D01*
X015333Y005532D01*
X015266Y005532D01*
X015233Y005499D01*
X015136Y005532D02*
X015136Y005365D01*
X015103Y005332D01*
X015036Y005332D01*
X015002Y005365D01*
X015002Y005532D01*
X014756Y004867D02*
X014789Y004834D01*
X014789Y004767D01*
X014756Y004734D01*
X014689Y004801D02*
X014689Y004834D01*
X014722Y004867D01*
X014756Y004867D01*
X014689Y004834D02*
X014655Y004867D01*
X014622Y004867D01*
X014589Y004834D01*
X014589Y004767D01*
X014622Y004734D01*
X014622Y004637D02*
X014589Y004604D01*
X014589Y004537D01*
X014622Y004504D01*
X014622Y004407D02*
X014589Y004374D01*
X014589Y004307D01*
X014622Y004274D01*
X014756Y004274D01*
X014789Y004307D01*
X014789Y004374D01*
X014756Y004407D01*
X014789Y004504D02*
X014655Y004637D01*
X014622Y004637D01*
X014789Y004637D02*
X014789Y004504D01*
X014005Y004500D02*
X013872Y004634D01*
X013838Y004634D01*
X013805Y004600D01*
X013805Y004534D01*
X013838Y004500D01*
X013838Y004403D02*
X013805Y004370D01*
X013805Y004303D01*
X013838Y004270D01*
X013972Y004270D01*
X014005Y004303D01*
X014005Y004370D01*
X013972Y004403D01*
X014005Y004500D02*
X014005Y004634D01*
X014005Y004730D02*
X013872Y004864D01*
X013838Y004864D01*
X013805Y004831D01*
X013805Y004764D01*
X013838Y004730D01*
X014005Y004730D02*
X014005Y004864D01*
X013545Y004821D02*
X013545Y004788D01*
X013512Y004754D01*
X013445Y004754D01*
X013412Y004788D01*
X013412Y004821D01*
X013445Y004855D01*
X013512Y004855D01*
X013545Y004821D01*
X013512Y004754D02*
X013545Y004721D01*
X013545Y004688D01*
X013512Y004654D01*
X013445Y004654D01*
X013412Y004688D01*
X013412Y004721D01*
X013445Y004754D01*
X013315Y004654D02*
X013182Y004654D01*
X013248Y004654D02*
X013248Y004855D01*
X013182Y004788D01*
X013085Y004821D02*
X013052Y004855D01*
X012985Y004855D01*
X012951Y004821D01*
X012951Y004688D01*
X012985Y004654D01*
X013052Y004654D01*
X013085Y004688D01*
X012582Y005381D02*
X012582Y005414D01*
X012716Y005548D01*
X012716Y005581D01*
X012582Y005581D01*
X012419Y005581D02*
X012352Y005514D01*
X012419Y005581D02*
X012419Y005381D01*
X012485Y005381D02*
X012352Y005381D01*
X012255Y005414D02*
X012222Y005381D01*
X012155Y005381D01*
X012122Y005414D01*
X012122Y005548D01*
X012155Y005581D01*
X012222Y005581D01*
X012255Y005548D01*
X012127Y005742D02*
X011994Y005742D01*
X012127Y005875D01*
X012127Y005908D01*
X012094Y005942D01*
X012027Y005942D01*
X011994Y005908D01*
X011897Y005742D02*
X011764Y005742D01*
X011764Y005942D01*
X011750Y006244D02*
X011617Y006244D01*
X011617Y006444D01*
X011643Y006611D02*
X011609Y006645D01*
X011609Y006778D01*
X011643Y006811D01*
X011709Y006811D01*
X011743Y006778D01*
X011840Y006811D02*
X011973Y006811D01*
X011973Y006778D01*
X011840Y006645D01*
X011840Y006611D01*
X011743Y006645D02*
X011709Y006611D01*
X011643Y006611D01*
X011847Y006378D02*
X011914Y006444D01*
X011914Y006244D01*
X011847Y006244D02*
X011981Y006244D01*
X012470Y006184D02*
X012470Y006117D01*
X012503Y006083D01*
X012503Y005987D02*
X012470Y005953D01*
X012470Y005887D01*
X012503Y005853D01*
X012637Y005853D01*
X012670Y005887D01*
X012670Y005953D01*
X012637Y005987D01*
X012670Y006083D02*
X012537Y006217D01*
X012503Y006217D01*
X012470Y006184D01*
X012503Y006314D02*
X012470Y006347D01*
X012470Y006414D01*
X012503Y006447D01*
X012637Y006314D01*
X012670Y006347D01*
X012670Y006414D01*
X012637Y006447D01*
X012503Y006447D01*
X012503Y006314D02*
X012637Y006314D01*
X012670Y006217D02*
X012670Y006083D01*
X012966Y005934D02*
X013066Y005934D01*
X013100Y005901D01*
X013100Y005834D01*
X013066Y005801D01*
X012966Y005801D01*
X013033Y005801D02*
X013100Y005734D01*
X013197Y005767D02*
X013230Y005734D01*
X013297Y005734D01*
X013330Y005767D01*
X013330Y005834D01*
X013297Y005867D01*
X013263Y005867D01*
X013197Y005834D01*
X013197Y005934D01*
X013330Y005934D01*
X012966Y005934D02*
X012966Y005734D01*
X012984Y006412D02*
X012984Y006612D01*
X013084Y006612D01*
X013117Y006578D01*
X013117Y006512D01*
X013084Y006478D01*
X012984Y006478D01*
X013050Y006478D02*
X013117Y006412D01*
X013214Y006512D02*
X013347Y006512D01*
X013314Y006412D02*
X013314Y006612D01*
X013214Y006512D01*
X011970Y007002D02*
X011970Y007036D01*
X011936Y007069D01*
X011836Y007069D01*
X011836Y007002D01*
X011870Y006969D01*
X011936Y006969D01*
X011970Y007002D01*
X011903Y007136D02*
X011836Y007069D01*
X011903Y007136D02*
X011970Y007169D01*
X011740Y007136D02*
X011706Y007169D01*
X011640Y007169D01*
X011606Y007136D01*
X011606Y007002D01*
X011640Y006969D01*
X011706Y006969D01*
X011740Y007002D01*
X011782Y007687D02*
X011849Y007687D01*
X011882Y007721D01*
X011979Y007721D02*
X012013Y007687D01*
X012079Y007687D01*
X012113Y007721D01*
X012113Y007787D01*
X012079Y007821D01*
X012046Y007821D01*
X011979Y007787D01*
X011979Y007887D01*
X012113Y007887D01*
X011882Y007854D02*
X011849Y007887D01*
X011782Y007887D01*
X011749Y007854D01*
X011749Y007721D01*
X011782Y007687D01*
X012597Y007790D02*
X012631Y007757D01*
X012764Y007757D01*
X012798Y007790D01*
X012798Y007857D01*
X012764Y007890D01*
X012798Y007987D02*
X012664Y008120D01*
X012631Y008120D01*
X012597Y008087D01*
X012597Y008020D01*
X012631Y007987D01*
X012631Y007890D02*
X012597Y007857D01*
X012597Y007790D01*
X012798Y007987D02*
X012798Y008120D01*
X012798Y008217D02*
X012798Y008350D01*
X012798Y008284D02*
X012597Y008284D01*
X012664Y008217D01*
X013288Y008095D02*
X013321Y008029D01*
X013388Y007962D01*
X013388Y008062D01*
X013421Y008095D01*
X013455Y008095D01*
X013488Y008062D01*
X013488Y007995D01*
X013455Y007962D01*
X013388Y007962D01*
X013388Y007865D02*
X013421Y007832D01*
X013421Y007732D01*
X013421Y007798D02*
X013488Y007865D01*
X013388Y007865D02*
X013321Y007865D01*
X013288Y007832D01*
X013288Y007732D01*
X013488Y007732D01*
X013815Y007722D02*
X013815Y007822D01*
X013849Y007855D01*
X013915Y007855D01*
X013949Y007822D01*
X013949Y007722D01*
X014015Y007722D02*
X013815Y007722D01*
X013949Y007789D02*
X014015Y007855D01*
X013982Y007952D02*
X014015Y007985D01*
X014015Y008052D01*
X013982Y008085D01*
X013949Y008085D01*
X013915Y008052D01*
X013915Y008019D01*
X013915Y008052D02*
X013882Y008085D01*
X013849Y008085D01*
X013815Y008052D01*
X013815Y007985D01*
X013849Y007952D01*
X014573Y007990D02*
X014607Y007957D01*
X014674Y007957D01*
X014707Y007990D01*
X014804Y007957D02*
X014937Y008090D01*
X014937Y008123D01*
X014904Y008157D01*
X014837Y008157D01*
X014804Y008123D01*
X014707Y008123D02*
X014674Y008157D01*
X014607Y008157D01*
X014573Y008123D01*
X014573Y007990D01*
X014804Y007957D02*
X014937Y007957D01*
X015034Y007990D02*
X015067Y007957D01*
X015134Y007957D01*
X015167Y007990D01*
X015167Y008123D01*
X015134Y008157D01*
X015067Y008157D01*
X015034Y008123D01*
X015034Y008090D01*
X015067Y008057D01*
X015167Y008057D01*
X013789Y009045D02*
X013722Y008978D01*
X011855Y010077D02*
X011721Y010077D01*
X011855Y010211D01*
X011855Y010244D01*
X011822Y010278D01*
X011755Y010278D01*
X011721Y010244D01*
X011625Y010278D02*
X011491Y010077D01*
X011625Y010077D02*
X011491Y010278D01*
X011579Y009791D02*
X011715Y009791D01*
X011017Y009280D02*
X011017Y009269D01*
X010335Y009314D02*
X010201Y009447D01*
X010168Y009447D01*
X010135Y009414D01*
X010135Y009347D01*
X010168Y009314D01*
X010168Y009217D02*
X010135Y009184D01*
X010135Y009117D01*
X010168Y009084D01*
X010301Y009084D01*
X010335Y009117D01*
X010335Y009184D01*
X010301Y009217D01*
X010335Y009314D02*
X010335Y009447D01*
X010101Y010529D02*
X009901Y010529D01*
X009901Y010629D01*
X009934Y010663D01*
X010001Y010663D01*
X010034Y010629D01*
X010034Y010529D01*
X010034Y010596D02*
X010101Y010663D01*
X010101Y010759D02*
X010101Y010893D01*
X010101Y010826D02*
X009901Y010826D01*
X009967Y010759D01*
X009934Y010989D02*
X009901Y011023D01*
X009901Y011090D01*
X009934Y011123D01*
X009967Y011123D01*
X010101Y010989D01*
X010101Y011123D01*
X007344Y011181D02*
X007211Y011181D01*
X007278Y011181D02*
X007278Y011381D01*
X007211Y011315D01*
X007114Y011348D02*
X007081Y011381D01*
X007014Y011381D01*
X006981Y011348D01*
X006981Y011215D01*
X007014Y011181D01*
X007081Y011181D01*
X007114Y011215D01*
X006894Y011181D02*
X006827Y011181D01*
X006861Y011181D02*
X006861Y011381D01*
X006894Y011381D02*
X006827Y011381D01*
X005446Y010333D02*
X005446Y010200D01*
X005446Y010267D02*
X005246Y010267D01*
X005312Y010200D01*
X005446Y010103D02*
X005446Y009970D01*
X005446Y010036D02*
X005246Y010036D01*
X005312Y009970D01*
X005279Y009873D02*
X005346Y009873D01*
X005379Y009840D01*
X005379Y009739D01*
X005446Y009739D02*
X005246Y009739D01*
X005246Y009840D01*
X005279Y009873D01*
X005379Y009806D02*
X005446Y009873D01*
X005790Y008680D02*
X005890Y008680D01*
X005923Y008647D01*
X005923Y008580D01*
X005890Y008547D01*
X005790Y008547D01*
X005857Y008547D02*
X005923Y008480D01*
X006020Y008480D02*
X006154Y008480D01*
X006087Y008480D02*
X006087Y008680D01*
X006020Y008613D01*
X006250Y008647D02*
X006250Y008513D01*
X006384Y008647D01*
X006384Y008513D01*
X006350Y008480D01*
X006284Y008480D01*
X006250Y008513D01*
X006250Y008647D02*
X006284Y008680D01*
X006350Y008680D01*
X006384Y008647D01*
X005790Y008680D02*
X005790Y008480D01*
X006268Y006141D02*
X006235Y006108D01*
X006235Y005974D01*
X006268Y005941D01*
X006335Y005941D01*
X006368Y005974D01*
X006465Y005941D02*
X006599Y005941D01*
X006532Y005941D02*
X006532Y006141D01*
X006465Y006074D01*
X006368Y006108D02*
X006335Y006141D01*
X006268Y006141D01*
X006695Y006108D02*
X006695Y005974D01*
X006829Y006108D01*
X006829Y005974D01*
X006795Y005941D01*
X006729Y005941D01*
X006695Y005974D01*
X006695Y006108D02*
X006729Y006141D01*
X006795Y006141D01*
X006829Y006108D01*
X006777Y005808D02*
X006777Y005607D01*
X006711Y005607D02*
X006844Y005607D01*
X006711Y005741D02*
X006777Y005808D01*
X006547Y005808D02*
X006547Y005607D01*
X006481Y005607D02*
X006614Y005607D01*
X006481Y005741D02*
X006547Y005808D01*
X006384Y005774D02*
X006350Y005808D01*
X006284Y005808D01*
X006250Y005774D01*
X006250Y005641D01*
X006284Y005607D01*
X006350Y005607D01*
X006384Y005641D01*
X006343Y005440D02*
X006276Y005440D01*
X006243Y005406D01*
X006243Y005273D01*
X006276Y005240D01*
X006343Y005240D01*
X006376Y005273D01*
X006473Y005240D02*
X006606Y005240D01*
X006540Y005240D02*
X006540Y005440D01*
X006473Y005373D01*
X006376Y005406D02*
X006343Y005440D01*
X006703Y005406D02*
X006736Y005440D01*
X006803Y005440D01*
X006836Y005406D01*
X006836Y005373D01*
X006703Y005240D01*
X006836Y005240D01*
X006316Y005016D02*
X006316Y004949D01*
X006282Y004915D01*
X006216Y004949D02*
X006216Y005049D01*
X006282Y005049D02*
X006149Y005049D01*
X006116Y005016D01*
X006116Y004949D01*
X006149Y004915D01*
X006182Y004915D01*
X006216Y004949D01*
X006282Y005049D02*
X006316Y005016D01*
X006316Y004819D02*
X006316Y004685D01*
X006316Y004752D02*
X006116Y004752D01*
X006182Y004685D01*
X006149Y004588D02*
X006116Y004555D01*
X006116Y004488D01*
X006149Y004455D01*
X006282Y004455D01*
X006316Y004488D01*
X006316Y004555D01*
X006282Y004588D01*
X007573Y004036D02*
X007573Y003836D01*
X007573Y003903D02*
X007673Y003903D01*
X007706Y003936D01*
X007706Y004003D01*
X007673Y004036D01*
X007573Y004036D01*
X007639Y003903D02*
X007706Y003836D01*
X007803Y003836D02*
X007936Y003836D01*
X007869Y003836D02*
X007869Y004036D01*
X007803Y003970D01*
X008090Y004020D02*
X008224Y003820D01*
X008320Y003820D02*
X008454Y003820D01*
X008387Y003820D02*
X008387Y004020D01*
X008320Y003954D01*
X008224Y004020D02*
X008090Y003820D01*
X008379Y003610D02*
X008851Y003610D01*
X008851Y002980D02*
X008379Y002980D01*
X007739Y002771D02*
X007539Y002771D01*
X007639Y002671D01*
X007639Y002804D01*
X007705Y002574D02*
X007739Y002541D01*
X007739Y002474D01*
X007705Y002440D01*
X007572Y002440D01*
X007539Y002474D01*
X007539Y002541D01*
X007572Y002574D01*
X009313Y002545D02*
X009313Y002478D01*
X009346Y002445D01*
X009480Y002445D01*
X009513Y002478D01*
X009513Y002545D01*
X009480Y002578D01*
X009480Y002675D02*
X009513Y002709D01*
X009513Y002775D01*
X009480Y002809D01*
X009446Y002809D01*
X009413Y002775D01*
X009413Y002742D01*
X009413Y002775D02*
X009380Y002809D01*
X009346Y002809D01*
X009313Y002775D01*
X009313Y002709D01*
X009346Y002675D01*
X009346Y002578D02*
X009313Y002545D01*
X010264Y002524D02*
X010331Y002457D01*
X010264Y002524D02*
X010464Y002524D01*
X010464Y002590D02*
X010464Y002457D01*
X010431Y002360D02*
X010464Y002327D01*
X010464Y002260D01*
X010431Y002227D01*
X010298Y002227D01*
X010264Y002260D01*
X010264Y002327D01*
X010298Y002360D01*
X010264Y002687D02*
X010364Y002687D01*
X010331Y002754D01*
X010331Y002787D01*
X010364Y002821D01*
X010431Y002821D01*
X010464Y002787D01*
X010464Y002721D01*
X010431Y002687D01*
X010264Y002687D02*
X010264Y002821D01*
X010651Y002499D02*
X010751Y002399D01*
X010751Y002532D01*
X010851Y002499D02*
X010651Y002499D01*
X010651Y002235D02*
X010851Y002235D01*
X010851Y002169D02*
X010851Y002302D01*
X010987Y002314D02*
X010987Y002248D01*
X011021Y002214D01*
X011154Y002214D01*
X011187Y002248D01*
X011187Y002314D01*
X011154Y002348D01*
X011187Y002445D02*
X011187Y002578D01*
X011187Y002511D02*
X010987Y002511D01*
X011054Y002445D01*
X011021Y002348D02*
X010987Y002314D01*
X010818Y002072D02*
X010851Y002039D01*
X010851Y001972D01*
X010818Y001939D01*
X010684Y001939D01*
X010651Y001972D01*
X010651Y002039D01*
X010684Y002072D01*
X010718Y002169D02*
X010651Y002235D01*
X011021Y002675D02*
X010987Y002708D01*
X010987Y002775D01*
X011021Y002808D01*
X011054Y002808D01*
X011087Y002775D01*
X011121Y002808D01*
X011154Y002808D01*
X011187Y002775D01*
X011187Y002708D01*
X011154Y002675D01*
X011087Y002741D02*
X011087Y002775D01*
X011611Y003341D02*
X011678Y003341D01*
X011711Y003374D01*
X011808Y003374D02*
X011841Y003341D01*
X011908Y003341D01*
X011941Y003374D01*
X011941Y003507D01*
X011908Y003541D01*
X011841Y003541D01*
X011808Y003507D01*
X011808Y003474D01*
X011841Y003441D01*
X011941Y003441D01*
X011711Y003507D02*
X011678Y003541D01*
X011611Y003541D01*
X011578Y003507D01*
X011578Y003374D01*
X011611Y003341D01*
X011618Y003733D02*
X011685Y003733D01*
X011719Y003767D01*
X011815Y003767D02*
X011815Y003800D01*
X011849Y003833D01*
X011915Y003833D01*
X011949Y003800D01*
X011949Y003767D01*
X011915Y003733D01*
X011849Y003733D01*
X011815Y003767D01*
X011849Y003833D02*
X011815Y003867D01*
X011815Y003900D01*
X011849Y003933D01*
X011915Y003933D01*
X011949Y003900D01*
X011949Y003867D01*
X011915Y003833D01*
X011719Y003900D02*
X011685Y003933D01*
X011618Y003933D01*
X011585Y003900D01*
X011585Y003767D01*
X011618Y003733D01*
X011615Y004114D02*
X011748Y004114D01*
X011681Y004114D02*
X011681Y004314D01*
X011615Y004247D01*
X011518Y004281D02*
X011485Y004314D01*
X011418Y004314D01*
X011384Y004281D01*
X011384Y004147D01*
X011418Y004114D01*
X011485Y004114D01*
X011518Y004147D01*
X011845Y004147D02*
X011878Y004114D01*
X011945Y004114D01*
X011978Y004147D01*
X011978Y004181D01*
X011945Y004214D01*
X011845Y004214D01*
X011845Y004147D01*
X011845Y004214D02*
X011912Y004281D01*
X011978Y004314D01*
X014195Y003910D02*
X014229Y003944D01*
X014262Y003944D01*
X014296Y003910D01*
X014329Y003944D01*
X014362Y003944D01*
X014396Y003910D01*
X014396Y003843D01*
X014362Y003810D01*
X014296Y003877D02*
X014296Y003910D01*
X014195Y003910D02*
X014195Y003843D01*
X014229Y003810D01*
X014396Y003713D02*
X014396Y003580D01*
X014195Y003580D01*
X016336Y004471D02*
X016369Y004438D01*
X016436Y004438D01*
X016469Y004471D01*
X016566Y004438D02*
X016699Y004571D01*
X016699Y004604D01*
X016666Y004638D01*
X016599Y004638D01*
X016566Y004604D01*
X016469Y004604D02*
X016436Y004638D01*
X016369Y004638D01*
X016336Y004604D01*
X016336Y004471D01*
X016566Y004438D02*
X016699Y004438D01*
X016796Y004538D02*
X016929Y004538D01*
X016896Y004438D02*
X016896Y004638D01*
X016796Y004538D01*
X010565Y008115D02*
X010432Y008115D01*
X010499Y008115D02*
X010499Y008315D01*
X010432Y008248D01*
X010335Y008315D02*
X010335Y008148D01*
X010302Y008115D01*
X010235Y008115D01*
X010202Y008148D01*
X010202Y008315D01*
X001630Y006318D02*
X001630Y006184D01*
X001630Y006251D02*
X001429Y006251D01*
X001496Y006184D01*
X001429Y006088D02*
X001429Y006021D01*
X001429Y006054D02*
X001596Y006054D01*
X001630Y006021D01*
X001630Y005987D01*
X001596Y005954D01*
X004123Y001696D02*
X004123Y001530D01*
X004156Y001496D01*
X004223Y001496D01*
X004256Y001530D01*
X004256Y001696D01*
X004353Y001596D02*
X004487Y001596D01*
X004453Y001496D02*
X004453Y001696D01*
X004353Y001596D01*
D14*
X008033Y004445D02*
X011521Y004445D01*
X011521Y007933D01*
X008033Y007933D01*
X008033Y004445D01*
X011243Y008169D02*
X011245Y008183D01*
X011251Y008197D01*
X011260Y008208D01*
X011272Y008216D01*
X011285Y008221D01*
X011300Y008222D01*
X011314Y008219D01*
X011327Y008212D01*
X011337Y008202D01*
X011345Y008190D01*
X011349Y008176D01*
X011349Y008162D01*
X011345Y008148D01*
X011337Y008136D01*
X011327Y008126D01*
X011314Y008119D01*
X011300Y008116D01*
X011285Y008117D01*
X011272Y008122D01*
X011260Y008130D01*
X011251Y008141D01*
X011245Y008155D01*
X011243Y008169D01*
D15*
X013328Y007481D03*
D16*
X001920Y008761D03*
D17*
X005002Y004192D02*
X005002Y001612D01*
X006402Y001612D01*
X006402Y004192D01*
X005002Y004192D01*
X014619Y002444D02*
X014619Y002231D01*
X014619Y002391D02*
X014833Y002391D01*
X014833Y002444D02*
X014833Y002231D01*
X014988Y002231D02*
X015201Y002231D01*
X015094Y002231D02*
X015094Y002551D01*
X014988Y002444D01*
X014833Y002444D02*
X014726Y002551D01*
X014619Y002444D01*
X015505Y002902D02*
X015505Y002980D01*
X016056Y002980D01*
X016056Y002902D01*
X015505Y002902D01*
X015505Y001878D01*
X016056Y001878D01*
X016607Y001878D02*
X017159Y001878D01*
X017159Y002902D01*
X017159Y002980D01*
X016607Y002980D01*
X016607Y002902D01*
X017159Y002902D01*
X017119Y002941D02*
X016607Y002941D01*
X016056Y002941D02*
X015544Y002941D01*
X015505Y010067D02*
X015505Y010146D01*
X016056Y010146D01*
X016056Y010067D01*
X015505Y010067D01*
X015544Y010106D02*
X016056Y010106D01*
X016607Y010106D02*
X017119Y010106D01*
X017159Y010067D02*
X017159Y010146D01*
X017159Y011169D01*
X016607Y011169D01*
X016056Y011169D02*
X015505Y011169D01*
X015505Y010146D01*
X015351Y010497D02*
X015138Y010497D01*
X015351Y010710D01*
X015351Y010764D01*
X015298Y010817D01*
X015191Y010817D01*
X015138Y010764D01*
X014983Y010710D02*
X014876Y010817D01*
X014769Y010710D01*
X014769Y010497D01*
X014983Y010497D02*
X014983Y010710D01*
X014983Y010657D02*
X014769Y010657D01*
X016607Y010146D02*
X016607Y010067D01*
X017159Y010067D01*
X017159Y010146D02*
X016607Y010146D01*
M02*
