%
M48
M72
T01C0.0100
T02C0.0236
T03C0.0280
T04C0.1200
%
T01
X2325Y4197
X2325Y4497
X1875Y5197
X2125Y5397
X1875Y5597
X2125Y5797
X1875Y5997
X2125Y6197
X1875Y6397
X2125Y6597
X1875Y6797
X2125Y6997
X1875Y7197
X2125Y7397
X1875Y7597
X2125Y7797
X1875Y7997
X3844Y9616
X5475Y9047
X5976Y9390
X7575Y8397
X7825Y8597
X8275Y8597
X8175Y8297
X8395Y7997
X8275Y7697
X8315Y7347
X8325Y7047
X8305Y6747
X8225Y6397
X8625Y5747
X8625Y5297
X9925Y4797
X10025Y4497
X10375Y4747
X10625Y4447
X10825Y4797
X11275Y4447
X11675Y4447
X12025Y4497
X11475Y4797
X12575Y5747
X12575Y6047
X12575Y6347
X11325Y6727
X10475Y6627
X10105Y6627
X9735Y6627
X10105Y6987
X10105Y6257
X12575Y7947
X13825Y7397
X14904Y7464
X15160Y7464
X15415Y7464
X15415Y7208
X15160Y7208
X14904Y7208
X14904Y6953
X15160Y6953
X15415Y6953
X15671Y6953
X15671Y7208
X15671Y7464
X15927Y7464
X15927Y7208
X15927Y6953
X15927Y6697
X15671Y6697
X15415Y6697
X15160Y6697
X14904Y6697
X15125Y6097
X16495Y6102
X16505Y6362
X16520Y6622
X17145Y6427
X17155Y6152
X17155Y5877
X16515Y5842
X16520Y5582
X16550Y5322
X16560Y5062
X16740Y4872
X16965Y4737
X17220Y4682
X17135Y5282
X15125Y4597
X13975Y3969
X11478Y3350
X8325Y2197
X8325Y1947
X8325Y1697
X6625Y6347
X6375Y6597
X6125Y6297
X5875Y6597
X6825Y7047
X6825Y7297
X7025Y7597
X7025Y7947
X7275Y8197
X8625Y8747
X9025Y8847
X9325Y8697
X9575Y8847
X9825Y8647
X10025Y8897
X10275Y8697
X9475Y9297
X10325Y9547
X11289Y9209
X11475Y10347
X10425Y10347
X13525Y9247
X13825Y8647
X14904Y7720
X15160Y7720
X15415Y7720
X15671Y7720
X15927Y7720
X16520Y7762
X16525Y8027
X16500Y8287
X16515Y8547
X17170Y8362
X17170Y8062
X17220Y7402
X17055Y7207
X17220Y7017
X16795Y7217
X16530Y7217
X15425Y8497
X16550Y9177
X16550Y9437
X16550Y9697
X16535Y9957
X16390Y10177
X16320Y10422
X16320Y10682
X16810Y10757
X16815Y10497
X16945Y10272
X17040Y10037
X17040Y9777
X17040Y9517
X17040Y9257
X17040Y8997
X16125Y9947
X15314Y9853
X16245Y11387
X16220Y11647
X16405Y11867
X16665Y11892
X16885Y11707
X16915Y11447
X6626Y11590
X6626Y11940
X6626Y11090
X5476Y11090
X4976Y11090
X4076Y11090
X5625Y8197
T02
X3434Y8980
X3434Y4413
T03
X17140Y2641
T04
X2345Y2051
X2345Y11342
M30
