G75*
%MOIN*%
%OFA0B0*%
%FSLAX24Y24*%
%IPPOS*%
%LPD*%
%AMOC8*
5,1,8,0,0,1.08239X$1,22.5*
%
%ADD10C,0.0000*%
%ADD11C,0.1300*%
%ADD12C,0.0560*%
%ADD13R,0.0591X0.0512*%
%ADD14R,0.0276X0.0237*%
%ADD15R,0.0237X0.0276*%
%ADD16R,0.0500X0.0974*%
%ADD17R,0.0154X0.0229*%
%ADD18R,0.0150X0.0209*%
%ADD19R,0.1179X0.1220*%
%ADD20C,0.0140*%
%ADD21R,0.0200X0.0200*%
%ADD22R,0.0200X0.0300*%
%ADD23R,0.0237X0.0237*%
%ADD24R,0.1300X0.1300*%
%ADD25R,0.0197X0.0197*%
%ADD26R,0.0166X0.0197*%
%ADD27R,0.0197X0.0166*%
%ADD28R,0.0180X0.0170*%
%ADD29R,0.0170X0.0180*%
%ADD30R,0.0227X0.0276*%
%ADD31R,0.0276X0.0227*%
%ADD32C,0.0276*%
%ADD33R,0.0749X0.0355*%
%ADD34R,0.1064X0.0158*%
%ADD35R,0.0434X0.0749*%
%ADD36R,0.0920X0.0520*%
%ADD37R,0.0906X0.1457*%
%ADD38R,0.0906X0.0276*%
%ADD39R,0.0453X0.0906*%
%ADD40R,0.0434X0.0355*%
%ADD41C,0.0050*%
D10*
X000229Y000343D02*
X000229Y012154D01*
X017552Y012154D01*
X017552Y000343D01*
X000229Y000343D01*
X002552Y001602D02*
X002554Y001652D01*
X002560Y001702D01*
X002570Y001751D01*
X002584Y001799D01*
X002601Y001846D01*
X002622Y001891D01*
X002647Y001935D01*
X002675Y001976D01*
X002707Y002015D01*
X002741Y002052D01*
X002778Y002086D01*
X002818Y002116D01*
X002860Y002143D01*
X002904Y002167D01*
X002950Y002188D01*
X002997Y002204D01*
X003045Y002217D01*
X003095Y002226D01*
X003144Y002231D01*
X003195Y002232D01*
X003245Y002229D01*
X003294Y002222D01*
X003343Y002211D01*
X003391Y002196D01*
X003437Y002178D01*
X003482Y002156D01*
X003525Y002130D01*
X003566Y002101D01*
X003605Y002069D01*
X003641Y002034D01*
X003673Y001996D01*
X003703Y001956D01*
X003730Y001913D01*
X003753Y001869D01*
X003772Y001823D01*
X003788Y001775D01*
X003800Y001726D01*
X003808Y001677D01*
X003812Y001627D01*
X003812Y001577D01*
X003808Y001527D01*
X003800Y001478D01*
X003788Y001429D01*
X003772Y001381D01*
X003753Y001335D01*
X003730Y001291D01*
X003703Y001248D01*
X003673Y001208D01*
X003641Y001170D01*
X003605Y001135D01*
X003566Y001103D01*
X003525Y001074D01*
X003482Y001048D01*
X003437Y001026D01*
X003391Y001008D01*
X003343Y000993D01*
X003294Y000982D01*
X003245Y000975D01*
X003195Y000972D01*
X003144Y000973D01*
X003095Y000978D01*
X003045Y000987D01*
X002997Y001000D01*
X002950Y001016D01*
X002904Y001037D01*
X002860Y001061D01*
X002818Y001088D01*
X002778Y001118D01*
X002741Y001152D01*
X002707Y001189D01*
X002675Y001228D01*
X002647Y001269D01*
X002622Y001313D01*
X002601Y001358D01*
X002584Y001405D01*
X002570Y001453D01*
X002560Y001502D01*
X002554Y001552D01*
X002552Y001602D01*
X002474Y003965D02*
X002476Y003986D01*
X002482Y004006D01*
X002491Y004026D01*
X002503Y004043D01*
X002518Y004057D01*
X002536Y004069D01*
X002556Y004077D01*
X002576Y004082D01*
X002597Y004083D01*
X002618Y004080D01*
X002638Y004074D01*
X002657Y004063D01*
X002674Y004050D01*
X002687Y004034D01*
X002698Y004016D01*
X002706Y003996D01*
X002710Y003976D01*
X002710Y003954D01*
X002706Y003934D01*
X002698Y003914D01*
X002687Y003896D01*
X002674Y003880D01*
X002657Y003867D01*
X002638Y003856D01*
X002618Y003850D01*
X002597Y003847D01*
X002576Y003848D01*
X002556Y003853D01*
X002536Y003861D01*
X002518Y003873D01*
X002503Y003887D01*
X002491Y003904D01*
X002482Y003924D01*
X002476Y003944D01*
X002474Y003965D01*
X002474Y008531D02*
X002476Y008552D01*
X002482Y008572D01*
X002491Y008592D01*
X002503Y008609D01*
X002518Y008623D01*
X002536Y008635D01*
X002556Y008643D01*
X002576Y008648D01*
X002597Y008649D01*
X002618Y008646D01*
X002638Y008640D01*
X002657Y008629D01*
X002674Y008616D01*
X002687Y008600D01*
X002698Y008582D01*
X002706Y008562D01*
X002710Y008542D01*
X002710Y008520D01*
X002706Y008500D01*
X002698Y008480D01*
X002687Y008462D01*
X002674Y008446D01*
X002657Y008433D01*
X002638Y008422D01*
X002618Y008416D01*
X002597Y008413D01*
X002576Y008414D01*
X002556Y008419D01*
X002536Y008427D01*
X002518Y008439D01*
X002503Y008453D01*
X002491Y008470D01*
X002482Y008490D01*
X002476Y008510D01*
X002474Y008531D01*
X002552Y010894D02*
X002554Y010944D01*
X002560Y010994D01*
X002570Y011043D01*
X002584Y011091D01*
X002601Y011138D01*
X002622Y011183D01*
X002647Y011227D01*
X002675Y011268D01*
X002707Y011307D01*
X002741Y011344D01*
X002778Y011378D01*
X002818Y011408D01*
X002860Y011435D01*
X002904Y011459D01*
X002950Y011480D01*
X002997Y011496D01*
X003045Y011509D01*
X003095Y011518D01*
X003144Y011523D01*
X003195Y011524D01*
X003245Y011521D01*
X003294Y011514D01*
X003343Y011503D01*
X003391Y011488D01*
X003437Y011470D01*
X003482Y011448D01*
X003525Y011422D01*
X003566Y011393D01*
X003605Y011361D01*
X003641Y011326D01*
X003673Y011288D01*
X003703Y011248D01*
X003730Y011205D01*
X003753Y011161D01*
X003772Y011115D01*
X003788Y011067D01*
X003800Y011018D01*
X003808Y010969D01*
X003812Y010919D01*
X003812Y010869D01*
X003808Y010819D01*
X003800Y010770D01*
X003788Y010721D01*
X003772Y010673D01*
X003753Y010627D01*
X003730Y010583D01*
X003703Y010540D01*
X003673Y010500D01*
X003641Y010462D01*
X003605Y010427D01*
X003566Y010395D01*
X003525Y010366D01*
X003482Y010340D01*
X003437Y010318D01*
X003391Y010300D01*
X003343Y010285D01*
X003294Y010274D01*
X003245Y010267D01*
X003195Y010264D01*
X003144Y010265D01*
X003095Y010270D01*
X003045Y010279D01*
X002997Y010292D01*
X002950Y010308D01*
X002904Y010329D01*
X002860Y010353D01*
X002818Y010380D01*
X002778Y010410D01*
X002741Y010444D01*
X002707Y010481D01*
X002675Y010520D01*
X002647Y010561D01*
X002622Y010605D01*
X002601Y010650D01*
X002584Y010697D01*
X002570Y010745D01*
X002560Y010794D01*
X002554Y010844D01*
X002552Y010894D01*
D11*
X003182Y010894D03*
X003182Y001602D03*
D12*
X000505Y000618D02*
X000505Y011878D01*
X014993Y011878D01*
X017277Y009476D02*
X017277Y003492D01*
X014993Y000618D02*
X000505Y000618D01*
D13*
X011214Y008965D03*
X011214Y009594D03*
X012080Y009594D03*
X012080Y008965D03*
D14*
X012670Y009083D03*
X012670Y009476D03*
X010623Y009476D03*
X010623Y009083D03*
X009599Y010618D03*
X009599Y011012D03*
X005348Y011012D03*
X005348Y010618D03*
X006607Y004988D03*
X006607Y004594D03*
X007631Y003492D03*
X007631Y003098D03*
X009599Y003138D03*
X009599Y003531D03*
X010229Y003492D03*
X010623Y003492D03*
X011017Y003492D03*
X011017Y003098D03*
X010623Y003098D03*
X010229Y003098D03*
D15*
X012237Y003453D03*
X012631Y003453D03*
X012631Y003846D03*
X012237Y003846D03*
X012237Y004358D03*
X012631Y004358D03*
X012631Y004752D03*
X012237Y004752D03*
X012237Y005146D03*
X012631Y005146D03*
X012513Y006720D03*
X012119Y006720D03*
X012119Y007075D03*
X012119Y007429D03*
X012513Y007429D03*
X012513Y007075D03*
X007592Y004280D03*
X007198Y004280D03*
X007080Y004752D03*
X007474Y004752D03*
X007474Y005146D03*
X007080Y005146D03*
X007080Y005539D03*
X007474Y005539D03*
X005426Y008571D03*
X005033Y008571D03*
D16*
X010487Y006191D03*
D17*
X010811Y005819D03*
D18*
X010812Y006573D03*
D19*
X009284Y006092D03*
D20*
X008345Y006091D02*
X008165Y006091D01*
X008165Y006287D02*
X008345Y006287D01*
X008341Y006484D02*
X008161Y006484D01*
X008161Y006681D02*
X008341Y006681D01*
X008341Y006878D02*
X008161Y006878D01*
X008161Y007075D02*
X008341Y007075D01*
X008341Y007272D02*
X008161Y007272D01*
X008161Y007469D02*
X008341Y007469D01*
X008497Y007625D02*
X008497Y007805D01*
X008694Y007805D02*
X008694Y007625D01*
X008891Y007625D02*
X008891Y007805D01*
X009088Y007805D02*
X009088Y007625D01*
X009285Y007625D02*
X009285Y007805D01*
X009481Y007805D02*
X009481Y007625D01*
X009678Y007621D02*
X009678Y007801D01*
X009875Y007801D02*
X009875Y007621D01*
X010072Y007625D02*
X010072Y007805D01*
X010269Y007805D02*
X010269Y007625D01*
X010466Y007625D02*
X010466Y007805D01*
X010662Y007805D02*
X010662Y007625D01*
X010859Y007625D02*
X010859Y007805D01*
X011056Y007805D02*
X011056Y007625D01*
X011212Y007469D02*
X011392Y007469D01*
X011392Y007272D02*
X011212Y007272D01*
X011212Y007075D02*
X011392Y007075D01*
X011392Y006878D02*
X011212Y006878D01*
X011212Y006681D02*
X011392Y006681D01*
X011392Y006484D02*
X011212Y006484D01*
X011212Y006287D02*
X011392Y006287D01*
X011392Y006091D02*
X011212Y006091D01*
X011212Y005893D02*
X011392Y005893D01*
X011392Y005697D02*
X011212Y005697D01*
X011212Y005500D02*
X011392Y005500D01*
X011392Y005303D02*
X011212Y005303D01*
X011212Y005106D02*
X011392Y005106D01*
X011392Y004909D02*
X011212Y004909D01*
X011056Y004753D02*
X011056Y004573D01*
X010859Y004573D02*
X010859Y004753D01*
X010662Y004753D02*
X010662Y004573D01*
X010466Y004573D02*
X010466Y004753D01*
X010269Y004753D02*
X010269Y004573D01*
X010072Y004573D02*
X010072Y004753D01*
X009875Y004749D02*
X009875Y004569D01*
X009678Y004569D02*
X009678Y004749D01*
X009481Y004753D02*
X009481Y004573D01*
X009285Y004573D02*
X009285Y004753D01*
X009088Y004753D02*
X009088Y004573D01*
X008891Y004573D02*
X008891Y004753D01*
X008694Y004753D02*
X008694Y004573D01*
X008497Y004573D02*
X008497Y004753D01*
X008341Y004909D02*
X008161Y004909D01*
X008161Y005106D02*
X008341Y005106D01*
X008341Y005303D02*
X008161Y005303D01*
X008161Y005500D02*
X008341Y005500D01*
X008341Y005697D02*
X008161Y005697D01*
X008161Y005894D02*
X008341Y005894D01*
D21*
X010072Y005500D03*
X010466Y005500D03*
X010859Y005500D03*
X010859Y005106D03*
X010466Y005106D03*
X010072Y005106D03*
D22*
X010958Y006189D03*
D23*
X010490Y006386D03*
X009285Y006091D03*
D24*
X014560Y006602D03*
D25*
X013694Y005736D03*
X015426Y005736D03*
X015426Y007469D03*
X013694Y007469D03*
D26*
X013993Y007469D03*
X014277Y007469D03*
X014560Y007469D03*
X014844Y007469D03*
X015127Y007469D03*
X015127Y005736D03*
X014844Y005736D03*
X014560Y005736D03*
X014277Y005736D03*
X013993Y005736D03*
D27*
X013694Y006035D03*
X013694Y006319D03*
X013694Y006602D03*
X013694Y006886D03*
X013694Y007169D03*
X015426Y007154D03*
X015426Y006886D03*
X015426Y006602D03*
X015426Y006319D03*
X015426Y006035D03*
D28*
X013257Y006088D03*
X013257Y006288D03*
X013029Y006288D03*
X013029Y006088D03*
X012351Y006088D03*
X012351Y006288D03*
X012123Y006288D03*
X012123Y006088D03*
D29*
X012788Y006075D03*
X012788Y006303D03*
X014009Y005260D03*
X014009Y005032D03*
X014560Y005032D03*
X014560Y005260D03*
D30*
X016354Y004949D03*
X016704Y004949D03*
X016704Y006130D03*
X016354Y006130D03*
X016354Y007075D03*
X016704Y007075D03*
X016704Y008098D03*
X016354Y008098D03*
X015680Y008374D03*
X015330Y008374D03*
X015030Y008374D03*
X014680Y008374D03*
D31*
X014481Y008671D03*
X014481Y009021D03*
X014048Y009021D03*
X014048Y008671D03*
X013694Y008667D03*
X013694Y008317D03*
X013340Y008317D03*
X013340Y008667D03*
X014225Y008332D03*
X014225Y007982D03*
X013379Y007250D03*
X013025Y007254D03*
X013025Y007604D03*
X013379Y006900D03*
X015269Y008671D03*
X015269Y009021D03*
X016332Y007762D03*
X016332Y007412D03*
X016332Y005754D03*
X016332Y005404D03*
X014285Y004730D03*
X014285Y004380D03*
D32*
X002592Y003965D03*
X002592Y008531D03*
D33*
X003182Y008807D03*
X003182Y003689D03*
D34*
X002277Y004378D03*
X002277Y004575D03*
X002277Y004772D03*
X002277Y004969D03*
X002277Y005165D03*
X002277Y005362D03*
X002277Y005559D03*
X002277Y005756D03*
X002277Y005953D03*
X002277Y006150D03*
X002277Y006346D03*
X002277Y006543D03*
X002277Y006740D03*
X002277Y006937D03*
X002277Y007134D03*
X002277Y007331D03*
X002277Y007528D03*
X002277Y007724D03*
X002277Y007921D03*
X002277Y008118D03*
X004088Y008118D03*
X004088Y007921D03*
X004088Y007724D03*
X004088Y007528D03*
X004088Y007331D03*
X004088Y007134D03*
X004088Y006937D03*
X004088Y006740D03*
X004088Y006543D03*
X004088Y006346D03*
X004088Y006150D03*
X004088Y005953D03*
X004088Y005756D03*
X004088Y005559D03*
X004088Y005362D03*
X004088Y005165D03*
X004088Y004969D03*
X004088Y004772D03*
X004088Y004575D03*
X004088Y004378D03*
D35*
X008123Y003295D03*
X009107Y003295D03*
D36*
X006922Y002902D03*
X006922Y003812D03*
X006922Y001992D03*
D37*
X004482Y002902D03*
D38*
X006529Y009356D03*
X006529Y009856D03*
X006529Y010356D03*
X006529Y010856D03*
X008576Y010856D03*
X008576Y010356D03*
X008576Y009856D03*
X008576Y009356D03*
D39*
X015790Y010657D03*
X016873Y010657D03*
X016873Y002390D03*
X015790Y002390D03*
D40*
X016332Y002990D03*
X016332Y010057D03*
D41*
X014865Y003565D02*
X014796Y003571D01*
X014728Y003565D01*
X014662Y003547D01*
X014599Y003518D01*
X014543Y003479D01*
X014495Y003430D01*
X014455Y003374D01*
X014426Y003312D01*
X014409Y003246D01*
X014403Y003177D01*
X014409Y003109D01*
X014426Y003043D01*
X014455Y002980D01*
X014495Y002924D01*
X014543Y002876D01*
X014599Y002836D01*
X014662Y002807D01*
X014728Y002789D01*
X014796Y002783D01*
X014865Y002789D01*
X014931Y002807D01*
X014993Y002836D01*
X015049Y002876D01*
X015098Y002924D01*
X015137Y002980D01*
X015166Y003043D01*
X015184Y003109D01*
X015190Y003177D01*
X015184Y003246D01*
X015166Y003312D01*
X015137Y003374D01*
X015098Y003430D01*
X015049Y003479D01*
X014993Y003518D01*
X014931Y003547D01*
X014865Y003565D01*
X014963Y003532D02*
X014629Y003532D01*
X014550Y003484D02*
X015043Y003484D01*
X015093Y003435D02*
X014500Y003435D01*
X014464Y003387D02*
X015129Y003387D01*
X015154Y003338D02*
X014439Y003338D01*
X014420Y003290D02*
X015172Y003290D01*
X015184Y003241D02*
X014408Y003241D01*
X014404Y003193D02*
X015189Y003193D01*
X015187Y003144D02*
X014406Y003144D01*
X014412Y003096D02*
X015180Y003096D01*
X015168Y003047D02*
X014425Y003047D01*
X014447Y002999D02*
X015146Y002999D01*
X015116Y002950D02*
X014477Y002950D01*
X014517Y002902D02*
X015075Y002902D01*
X015017Y002853D02*
X014575Y002853D01*
X014672Y002805D02*
X014921Y002805D01*
X003340Y002862D02*
X003334Y002794D01*
X003316Y002728D01*
X003287Y002665D01*
X003248Y002609D01*
X003199Y002561D01*
X003143Y002521D01*
X003081Y002492D01*
X003014Y002474D01*
X002946Y002469D01*
X002878Y002474D01*
X002811Y002492D01*
X002749Y002521D01*
X002693Y002561D01*
X002644Y002609D01*
X002605Y002665D01*
X002576Y002728D01*
X002558Y002794D01*
X002552Y002862D01*
X002558Y002931D01*
X002576Y002997D01*
X002605Y003059D01*
X002644Y003115D01*
X002693Y003164D01*
X002749Y003203D01*
X002811Y003232D01*
X002878Y003250D01*
X002946Y003256D01*
X003014Y003250D01*
X003081Y003232D01*
X003143Y003203D01*
X003199Y003164D01*
X003248Y003115D01*
X003287Y003059D01*
X003316Y002997D01*
X003334Y002931D01*
X003340Y002862D01*
X003339Y002853D02*
X002553Y002853D01*
X002556Y002902D02*
X003336Y002902D01*
X003328Y002950D02*
X002563Y002950D01*
X002577Y002999D02*
X003315Y002999D01*
X003293Y003047D02*
X002599Y003047D01*
X002631Y003096D02*
X003261Y003096D01*
X003219Y003144D02*
X002673Y003144D01*
X002734Y003193D02*
X003158Y003193D01*
X003048Y003241D02*
X002844Y003241D01*
X002557Y002805D02*
X003335Y002805D01*
X003324Y002756D02*
X002568Y002756D01*
X002585Y002708D02*
X003307Y002708D01*
X003282Y002659D02*
X002609Y002659D01*
X002643Y002611D02*
X003248Y002611D01*
X003200Y002562D02*
X002691Y002562D01*
X002766Y002514D02*
X003126Y002514D01*
X001518Y010663D02*
X001585Y010681D01*
X001647Y010710D01*
X001703Y010750D01*
X001751Y010798D01*
X001791Y010854D01*
X001820Y010917D01*
X001838Y010983D01*
X001844Y011051D01*
X001838Y011120D01*
X001820Y011186D01*
X001791Y011248D01*
X001751Y011304D01*
X001703Y011353D01*
X001647Y011392D01*
X001585Y011421D01*
X001518Y011439D01*
X001450Y011445D01*
X001382Y011439D01*
X001315Y011421D01*
X001253Y011392D01*
X001197Y011353D01*
X001148Y011304D01*
X001109Y011248D01*
X001080Y011186D01*
X001062Y011120D01*
X001056Y011051D01*
X001062Y010983D01*
X001080Y010917D01*
X001109Y010854D01*
X001148Y010798D01*
X001197Y010750D01*
X001253Y010710D01*
X001315Y010681D01*
X001382Y010663D01*
X001450Y010657D01*
X001518Y010663D01*
X001496Y010662D02*
X001403Y010662D01*
X001253Y010710D02*
X001646Y010710D01*
X001712Y010759D02*
X001188Y010759D01*
X001142Y010807D02*
X001758Y010807D01*
X001791Y010856D02*
X001108Y010856D01*
X001086Y010904D02*
X001814Y010904D01*
X001829Y010953D02*
X001070Y010953D01*
X001061Y011001D02*
X001839Y011001D01*
X001843Y011050D02*
X001056Y011050D01*
X001060Y011098D02*
X001839Y011098D01*
X001830Y011147D02*
X001069Y011147D01*
X001084Y011195D02*
X001816Y011195D01*
X001793Y011244D02*
X001107Y011244D01*
X001140Y011292D02*
X001760Y011292D01*
X001715Y011341D02*
X001185Y011341D01*
X001249Y011389D02*
X001651Y011389D01*
X001523Y011438D02*
X001377Y011438D01*
M02*
