G75*
%MOIN*%
%OFA0B0*%
%FSLAX24Y24*%
%IPPOS*%
%LPD*%
%AMOC8*
5,1,8,0,0,1.08239X$1,22.5*
%
%ADD10C,0.0160*%
%ADD11C,0.0560*%
%ADD12C,0.0000*%
%ADD13C,0.0316*%
%ADD14R,0.0198X0.1104*%
%ADD15C,0.0260*%
%ADD16C,0.2080*%
D10*
X001085Y000791D02*
X001085Y012602D01*
X020770Y012602D01*
X020770Y000791D01*
X001085Y000791D01*
D11*
X017140Y002641D03*
D12*
X003316Y004413D02*
X003318Y004434D01*
X003324Y004454D01*
X003333Y004474D01*
X003345Y004491D01*
X003360Y004505D01*
X003378Y004517D01*
X003398Y004525D01*
X003418Y004530D01*
X003439Y004531D01*
X003460Y004528D01*
X003480Y004522D01*
X003499Y004511D01*
X003516Y004498D01*
X003529Y004482D01*
X003540Y004464D01*
X003548Y004444D01*
X003552Y004424D01*
X003552Y004402D01*
X003548Y004382D01*
X003540Y004362D01*
X003529Y004344D01*
X003516Y004328D01*
X003499Y004315D01*
X003480Y004304D01*
X003460Y004298D01*
X003439Y004295D01*
X003418Y004296D01*
X003398Y004301D01*
X003378Y004309D01*
X003360Y004321D01*
X003345Y004335D01*
X003333Y004352D01*
X003324Y004372D01*
X003318Y004392D01*
X003316Y004413D01*
X003316Y008980D02*
X003318Y009001D01*
X003324Y009021D01*
X003333Y009041D01*
X003345Y009058D01*
X003360Y009072D01*
X003378Y009084D01*
X003398Y009092D01*
X003418Y009097D01*
X003439Y009098D01*
X003460Y009095D01*
X003480Y009089D01*
X003499Y009078D01*
X003516Y009065D01*
X003529Y009049D01*
X003540Y009031D01*
X003548Y009011D01*
X003552Y008991D01*
X003552Y008969D01*
X003548Y008949D01*
X003540Y008929D01*
X003529Y008911D01*
X003516Y008895D01*
X003499Y008882D01*
X003480Y008871D01*
X003460Y008865D01*
X003439Y008862D01*
X003418Y008863D01*
X003398Y008868D01*
X003378Y008876D01*
X003360Y008888D01*
X003345Y008902D01*
X003333Y008919D01*
X003324Y008939D01*
X003318Y008959D01*
X003316Y008980D01*
D13*
X003434Y008980D03*
X003434Y004413D03*
D14*
X003605Y005713D03*
X003801Y005713D03*
X003998Y005713D03*
X004195Y005713D03*
X004392Y005713D03*
X004589Y005713D03*
X004786Y005713D03*
X004983Y005713D03*
X005179Y005713D03*
X005376Y005713D03*
X005376Y007879D03*
X005179Y007879D03*
X004983Y007879D03*
X004786Y007879D03*
X004589Y007879D03*
X004392Y007879D03*
X004195Y007879D03*
X003998Y007879D03*
X003801Y007879D03*
X003605Y007879D03*
D15*
X002125Y007797D03*
X001875Y007997D03*
X001875Y007597D03*
X002125Y007397D03*
X001875Y007197D03*
X002125Y006997D03*
X001875Y006797D03*
X002125Y006597D03*
X001875Y006397D03*
X002125Y006197D03*
X001875Y005997D03*
X002125Y005797D03*
X001875Y005597D03*
X002125Y005397D03*
X001875Y005197D03*
X002325Y004497D03*
X002325Y004197D03*
X005875Y006597D03*
X006125Y006297D03*
X006375Y006597D03*
X006625Y006347D03*
X006825Y007047D03*
X006825Y007297D03*
X007025Y007597D03*
X007025Y007947D03*
X007275Y008197D03*
X007575Y008397D03*
X007825Y008597D03*
X008275Y008597D03*
X008175Y008297D03*
X008395Y007997D03*
X008275Y007697D03*
X008315Y007347D03*
X008325Y007047D03*
X008305Y006747D03*
X008225Y006397D03*
X008625Y005747D03*
X008625Y005297D03*
X009925Y004797D03*
X010025Y004497D03*
X010375Y004747D03*
X010625Y004447D03*
X010825Y004797D03*
X011275Y004447D03*
X011675Y004447D03*
X012025Y004497D03*
X011475Y004797D03*
X012575Y005747D03*
X012575Y006047D03*
X012575Y006347D03*
X011325Y006727D03*
X010475Y006627D03*
X010105Y006627D03*
X009735Y006627D03*
X010105Y006987D03*
X010105Y006257D03*
X012575Y007947D03*
X013825Y007397D03*
X014904Y007464D03*
X015160Y007464D03*
X015415Y007464D03*
X015415Y007208D03*
X015160Y007208D03*
X014904Y007208D03*
X014904Y006953D03*
X015160Y006953D03*
X015415Y006953D03*
X015671Y006953D03*
X015671Y007208D03*
X015671Y007464D03*
X015927Y007464D03*
X015927Y007208D03*
X015927Y006953D03*
X015927Y006697D03*
X015671Y006697D03*
X015415Y006697D03*
X015160Y006697D03*
X014904Y006697D03*
X015125Y006097D03*
X016495Y006102D03*
X016505Y006362D03*
X016520Y006622D03*
X017145Y006427D03*
X017155Y006152D03*
X017155Y005877D03*
X016515Y005842D03*
X016520Y005582D03*
X016550Y005322D03*
X016560Y005062D03*
X016740Y004872D03*
X016965Y004737D03*
X017220Y004682D03*
X017135Y005282D03*
X015125Y004597D03*
X013975Y003969D03*
X011478Y003350D03*
X008325Y002197D03*
X008325Y001947D03*
X008325Y001697D03*
X016530Y007217D03*
X016795Y007217D03*
X017055Y007207D03*
X017220Y007017D03*
X017220Y007402D03*
X016520Y007762D03*
X016525Y008027D03*
X016500Y008287D03*
X016515Y008547D03*
X017170Y008362D03*
X017170Y008062D03*
X015927Y007720D03*
X015671Y007720D03*
X015415Y007720D03*
X015160Y007720D03*
X014904Y007720D03*
X015425Y008497D03*
X016550Y009177D03*
X016550Y009437D03*
X016550Y009697D03*
X016535Y009957D03*
X016390Y010177D03*
X016320Y010422D03*
X016320Y010682D03*
X016810Y010757D03*
X016815Y010497D03*
X016945Y010272D03*
X017040Y010037D03*
X017040Y009777D03*
X017040Y009517D03*
X017040Y009257D03*
X017040Y008997D03*
X016125Y009947D03*
X015314Y009853D03*
X013525Y009247D03*
X013825Y008647D03*
X011289Y009209D03*
X010325Y009547D03*
X009475Y009297D03*
X009575Y008847D03*
X009325Y008697D03*
X009025Y008847D03*
X008625Y008747D03*
X009825Y008647D03*
X010025Y008897D03*
X010275Y008697D03*
X010425Y010347D03*
X011475Y010347D03*
X016245Y011387D03*
X016220Y011647D03*
X016405Y011867D03*
X016665Y011892D03*
X016885Y011707D03*
X016915Y011447D03*
X006626Y011590D03*
X006626Y011940D03*
X006626Y011090D03*
X005476Y011090D03*
X004976Y011090D03*
X004076Y011090D03*
X003844Y009616D03*
X005475Y009047D03*
X005976Y009390D03*
X005625Y008197D03*
D16*
X002345Y011342D03*
X002345Y002051D03*
M02*
