G75*
%MOIN*%
%OFA0B0*%
%FSLAX24Y24*%
%IPPOS*%
%LPD*%
%AMOC8*
5,1,8,0,0,1.08239X$1,22.5*
%
%ADD10C,0.0160*%
%ADD11C,0.0197*%
%ADD12C,0.0050*%
%ADD13C,0.0100*%
%ADD14C,0.0200*%
%ADD15C,0.0000*%
%ADD16C,0.0212*%
%ADD17C,0.0080*%
%ADD18C,0.0400*%
D10*
X001085Y000791D02*
X001085Y012602D01*
X020770Y012602D01*
X020770Y000791D01*
X001085Y000791D01*
D11*
X011911Y009098D03*
D12*
X011873Y008848D02*
X011873Y008647D01*
X011806Y008647D02*
X011940Y008647D01*
X011806Y008781D02*
X011873Y008848D01*
X011709Y008848D02*
X011709Y008681D01*
X011676Y008647D01*
X011609Y008647D01*
X011576Y008681D01*
X011576Y008848D01*
X012384Y009295D02*
X012620Y009295D01*
X013132Y009768D02*
X013132Y009846D01*
X013464Y010362D02*
X013597Y010362D01*
X013631Y010395D01*
X013631Y010462D01*
X013597Y010495D01*
X013631Y010592D02*
X013631Y010725D01*
X013631Y010658D02*
X013431Y010658D01*
X013497Y010592D01*
X013464Y010495D02*
X013431Y010462D01*
X013431Y010395D01*
X013464Y010362D01*
X014039Y010015D02*
X014039Y009949D01*
X014072Y009915D01*
X014206Y009915D01*
X014072Y010049D01*
X014206Y010049D01*
X014239Y010015D01*
X014239Y009949D01*
X014206Y009915D01*
X014206Y009819D02*
X014239Y009785D01*
X014239Y009719D01*
X014206Y009685D01*
X014139Y009752D02*
X014139Y009785D01*
X014173Y009819D01*
X014206Y009819D01*
X014139Y009785D02*
X014106Y009819D01*
X014072Y009819D01*
X014039Y009785D01*
X014039Y009719D01*
X014072Y009685D01*
X014072Y009588D02*
X014039Y009555D01*
X014039Y009488D01*
X014072Y009455D01*
X014206Y009455D01*
X014239Y009488D01*
X014239Y009555D01*
X014206Y009588D01*
X014489Y009806D02*
X014489Y009906D01*
X014522Y009939D01*
X014589Y009939D01*
X014622Y009906D01*
X014622Y009806D01*
X014622Y009872D02*
X014689Y009939D01*
X014689Y010036D02*
X014655Y010036D01*
X014522Y010169D01*
X014489Y010169D01*
X014489Y010036D01*
X014489Y009806D02*
X014689Y009806D01*
X014962Y009818D02*
X014962Y009918D01*
X014995Y009951D01*
X015062Y009951D01*
X015095Y009918D01*
X015095Y009818D01*
X015095Y009885D02*
X015162Y009951D01*
X015129Y010048D02*
X015095Y010048D01*
X015062Y010081D01*
X015062Y010148D01*
X015095Y010181D01*
X015129Y010181D01*
X015162Y010148D01*
X015162Y010081D01*
X015129Y010048D01*
X015062Y010081D02*
X015028Y010048D01*
X014995Y010048D01*
X014962Y010081D01*
X014962Y010148D01*
X014995Y010181D01*
X015028Y010181D01*
X015062Y010148D01*
X015162Y009818D02*
X014962Y009818D01*
X015731Y009783D02*
X015731Y009883D01*
X015765Y009917D01*
X015831Y009917D01*
X015865Y009883D01*
X015865Y009783D01*
X015932Y009783D02*
X015731Y009783D01*
X015865Y009850D02*
X015932Y009917D01*
X015898Y010014D02*
X015932Y010047D01*
X015932Y010114D01*
X015898Y010147D01*
X015765Y010147D01*
X015731Y010114D01*
X015731Y010047D01*
X015765Y010014D01*
X015798Y010014D01*
X015831Y010047D01*
X015831Y010147D01*
X015309Y011318D02*
X015242Y011318D01*
X015208Y011352D01*
X015208Y011385D01*
X015242Y011418D01*
X015309Y011418D01*
X015342Y011385D01*
X015342Y011352D01*
X015309Y011318D01*
X015309Y011418D02*
X015342Y011452D01*
X015342Y011485D01*
X015309Y011519D01*
X015242Y011519D01*
X015208Y011485D01*
X015208Y011452D01*
X015242Y011418D01*
X015112Y011418D02*
X015078Y011385D01*
X014978Y011385D01*
X014978Y011318D02*
X014978Y011519D01*
X015078Y011519D01*
X015112Y011485D01*
X015112Y011418D01*
X014882Y011519D02*
X014748Y011519D01*
X014815Y011519D02*
X014815Y011318D01*
X015325Y011972D02*
X015292Y012005D01*
X015325Y011972D02*
X015358Y011972D01*
X015392Y012005D01*
X015392Y012172D01*
X015425Y012172D02*
X015358Y012172D01*
X015522Y012138D02*
X015555Y012172D01*
X015622Y012172D01*
X015655Y012138D01*
X015655Y012105D01*
X015622Y012072D01*
X015655Y012038D01*
X015655Y012005D01*
X015622Y011972D01*
X015555Y011972D01*
X015522Y012005D01*
X015588Y012072D02*
X015622Y012072D01*
X012710Y010772D02*
X012677Y010805D01*
X012610Y010805D01*
X012577Y010772D01*
X012480Y010805D02*
X012347Y010605D01*
X012480Y010605D02*
X012347Y010805D01*
X012577Y010605D02*
X012710Y010738D01*
X012710Y010772D01*
X012710Y010605D02*
X012577Y010605D01*
X012620Y010319D02*
X012384Y010319D01*
X011872Y009846D02*
X011872Y009768D01*
X011186Y009831D02*
X011053Y009964D01*
X011020Y009964D01*
X010986Y009931D01*
X010986Y009864D01*
X011020Y009831D01*
X011020Y009734D02*
X010986Y009701D01*
X010986Y009634D01*
X011020Y009601D01*
X011153Y009601D01*
X011186Y009634D01*
X011186Y009701D01*
X011153Y009734D01*
X011186Y009831D02*
X011186Y009964D01*
X010928Y011054D02*
X010728Y011054D01*
X010728Y011155D01*
X010761Y011188D01*
X010828Y011188D01*
X010861Y011155D01*
X010861Y011054D01*
X010861Y011121D02*
X010928Y011188D01*
X010928Y011285D02*
X010928Y011418D01*
X010928Y011351D02*
X010728Y011351D01*
X010794Y011285D01*
X010761Y011515D02*
X010728Y011548D01*
X010728Y011615D01*
X010761Y011648D01*
X010794Y011648D01*
X010928Y011515D01*
X010928Y011648D01*
X008169Y011915D02*
X008035Y011915D01*
X008102Y011915D02*
X008102Y012116D01*
X008035Y012049D01*
X007938Y012082D02*
X007905Y012116D01*
X007838Y012116D01*
X007805Y012082D01*
X007805Y011949D01*
X007838Y011915D01*
X007905Y011915D01*
X007938Y011949D01*
X007718Y011915D02*
X007651Y011915D01*
X007685Y011915D02*
X007685Y012116D01*
X007718Y012116D02*
X007651Y012116D01*
X006351Y011952D02*
X006217Y011952D01*
X006284Y011952D02*
X006284Y012152D01*
X006217Y012086D01*
X006120Y011952D02*
X005987Y011952D01*
X006054Y011952D02*
X006054Y012152D01*
X005987Y012086D01*
X005890Y012119D02*
X005890Y012052D01*
X005857Y012019D01*
X005757Y012019D01*
X005757Y011952D02*
X005757Y012152D01*
X005857Y012152D01*
X005890Y012119D01*
X005660Y012152D02*
X005527Y012152D01*
X005593Y012152D02*
X005593Y011952D01*
X005258Y011991D02*
X005258Y012124D01*
X005125Y011991D01*
X005158Y011958D01*
X005225Y011958D01*
X005258Y011991D01*
X005125Y011991D02*
X005125Y012124D01*
X005158Y012158D01*
X005225Y012158D01*
X005258Y012124D01*
X005028Y011958D02*
X004894Y011958D01*
X004961Y011958D02*
X004961Y012158D01*
X004894Y012091D01*
X004798Y012058D02*
X004764Y012024D01*
X004664Y012024D01*
X004664Y011958D02*
X004664Y012158D01*
X004764Y012158D01*
X004798Y012124D01*
X004798Y012058D01*
X004568Y012158D02*
X004434Y012158D01*
X004501Y012158D02*
X004501Y011958D01*
X004211Y012002D02*
X004211Y012135D01*
X004178Y012169D01*
X004111Y012169D01*
X004078Y012135D01*
X004078Y012102D01*
X004111Y012069D01*
X004211Y012069D01*
X004211Y012002D02*
X004178Y011969D01*
X004111Y011969D01*
X004078Y012002D01*
X003981Y012069D02*
X003948Y012035D01*
X003848Y012035D01*
X003848Y011969D02*
X003848Y012169D01*
X003948Y012169D01*
X003981Y012135D01*
X003981Y012069D01*
X003751Y012169D02*
X003618Y012169D01*
X003684Y012169D02*
X003684Y011969D01*
X004151Y010563D02*
X004284Y010563D01*
X004217Y010563D02*
X004217Y010363D01*
X004381Y010363D02*
X004381Y010563D01*
X004481Y010563D01*
X004514Y010530D01*
X004514Y010463D01*
X004481Y010429D01*
X004381Y010429D01*
X004611Y010396D02*
X004644Y010363D01*
X004711Y010363D01*
X004744Y010396D01*
X004744Y010429D01*
X004711Y010463D01*
X004678Y010463D01*
X004711Y010463D02*
X004744Y010496D01*
X004744Y010530D01*
X004711Y010563D01*
X004644Y010563D01*
X004611Y010530D01*
X005113Y010563D02*
X005246Y010563D01*
X005180Y010563D02*
X005180Y010363D01*
X005343Y010363D02*
X005343Y010563D01*
X005443Y010563D01*
X005476Y010530D01*
X005476Y010463D01*
X005443Y010429D01*
X005343Y010429D01*
X005573Y010396D02*
X005607Y010363D01*
X005673Y010363D01*
X005707Y010396D01*
X005707Y010463D01*
X005673Y010496D01*
X005640Y010496D01*
X005573Y010463D01*
X005573Y010563D01*
X005707Y010563D01*
X006075Y010562D02*
X006275Y010562D01*
X006275Y010628D02*
X006275Y010495D01*
X006275Y010398D02*
X006208Y010332D01*
X006208Y010365D02*
X006208Y010265D01*
X006275Y010265D02*
X006075Y010265D01*
X006075Y010365D01*
X006108Y010398D01*
X006175Y010398D01*
X006208Y010365D01*
X006141Y010495D02*
X006075Y010562D01*
X006141Y010725D02*
X006075Y010792D01*
X006275Y010792D01*
X006275Y010725D02*
X006275Y010859D01*
X006637Y009199D02*
X006737Y009199D01*
X006770Y009166D01*
X006770Y009099D01*
X006737Y009066D01*
X006637Y009066D01*
X006704Y009066D02*
X006770Y008999D01*
X006867Y008999D02*
X007001Y008999D01*
X006934Y008999D02*
X006934Y009199D01*
X006867Y009133D01*
X007097Y009166D02*
X007097Y009033D01*
X007231Y009166D01*
X007231Y009033D01*
X007197Y008999D01*
X007131Y008999D01*
X007097Y009033D01*
X007097Y009166D02*
X007131Y009199D01*
X007197Y009199D01*
X007231Y009166D01*
X006637Y009199D02*
X006637Y008999D01*
X007457Y008160D02*
X007590Y008160D01*
X007523Y008160D02*
X007523Y007960D01*
X007687Y007960D02*
X007687Y008160D01*
X007787Y008160D01*
X007820Y008127D01*
X007820Y008060D01*
X007787Y008027D01*
X007687Y008027D01*
X007917Y008060D02*
X008050Y008060D01*
X008017Y007960D02*
X008017Y008160D01*
X007917Y008060D01*
X007689Y007185D02*
X007622Y007185D01*
X007588Y007151D01*
X007492Y007151D02*
X007492Y007085D01*
X007458Y007051D01*
X007358Y007051D01*
X007358Y006985D02*
X007358Y007185D01*
X007458Y007185D01*
X007492Y007151D01*
X007588Y006985D02*
X007722Y007118D01*
X007722Y007151D01*
X007689Y007185D01*
X007722Y006985D02*
X007588Y006985D01*
X007262Y007185D02*
X007128Y007185D01*
X007195Y007185D02*
X007195Y006985D01*
X007144Y006226D02*
X007077Y006226D01*
X007044Y006192D01*
X007044Y006059D01*
X007077Y006026D01*
X007144Y006026D01*
X007177Y006059D01*
X007274Y006026D02*
X007407Y006026D01*
X007341Y006026D02*
X007341Y006226D01*
X007274Y006159D01*
X007177Y006192D02*
X007144Y006226D01*
X007504Y006192D02*
X007504Y006059D01*
X007638Y006192D01*
X007638Y006059D01*
X007604Y006026D01*
X007538Y006026D01*
X007504Y006059D01*
X007504Y006192D02*
X007538Y006226D01*
X007604Y006226D01*
X007638Y006192D01*
X007586Y005926D02*
X007586Y005725D01*
X007520Y005725D02*
X007653Y005725D01*
X007612Y005630D02*
X007545Y005630D01*
X007512Y005597D01*
X007612Y005630D02*
X007645Y005597D01*
X007645Y005563D01*
X007512Y005430D01*
X007645Y005430D01*
X007415Y005430D02*
X007282Y005430D01*
X007348Y005430D02*
X007348Y005630D01*
X007282Y005563D01*
X007185Y005597D02*
X007152Y005630D01*
X007085Y005630D01*
X007052Y005597D01*
X007052Y005463D01*
X007085Y005430D01*
X007152Y005430D01*
X007185Y005463D01*
X007100Y005254D02*
X006967Y005254D01*
X006933Y005221D01*
X006933Y005154D01*
X006967Y005121D01*
X007000Y005121D01*
X007033Y005154D01*
X007033Y005254D01*
X007100Y005254D02*
X007133Y005221D01*
X007133Y005154D01*
X007100Y005121D01*
X007133Y005024D02*
X007133Y004891D01*
X007133Y004957D02*
X006933Y004957D01*
X007000Y004891D01*
X006967Y004794D02*
X006933Y004760D01*
X006933Y004694D01*
X006967Y004660D01*
X007100Y004660D01*
X007133Y004694D01*
X007133Y004760D01*
X007100Y004794D01*
X008088Y004553D02*
X008088Y004353D01*
X008088Y004420D02*
X008188Y004420D01*
X008221Y004453D01*
X008221Y004520D01*
X008188Y004553D01*
X008088Y004553D01*
X008154Y004420D02*
X008221Y004353D01*
X008318Y004353D02*
X008451Y004353D01*
X008385Y004353D02*
X008385Y004553D01*
X008318Y004487D01*
X008950Y004572D02*
X009083Y004372D01*
X009180Y004372D02*
X009314Y004372D01*
X009247Y004372D02*
X009247Y004572D01*
X009180Y004505D01*
X009083Y004572D02*
X008950Y004372D01*
X009239Y004162D02*
X009711Y004162D01*
X009711Y003532D02*
X009239Y003532D01*
X008583Y003322D02*
X008382Y003322D01*
X008483Y003222D01*
X008483Y003355D01*
X008549Y003125D02*
X008583Y003092D01*
X008583Y003025D01*
X008549Y002992D01*
X008416Y002992D01*
X008382Y003025D01*
X008382Y003092D01*
X008416Y003125D01*
X010142Y003095D02*
X010142Y003028D01*
X010175Y002994D01*
X010308Y002994D01*
X010342Y003028D01*
X010342Y003095D01*
X010308Y003128D01*
X010308Y003225D02*
X010342Y003258D01*
X010342Y003325D01*
X010308Y003358D01*
X010275Y003358D01*
X010242Y003325D01*
X010242Y003291D01*
X010242Y003325D02*
X010208Y003358D01*
X010175Y003358D01*
X010142Y003325D01*
X010142Y003258D01*
X010175Y003225D01*
X010175Y003128D02*
X010142Y003095D01*
X011110Y003075D02*
X011176Y003008D01*
X011110Y003075D02*
X011310Y003075D01*
X011310Y003008D02*
X011310Y003142D01*
X011276Y003239D02*
X011310Y003272D01*
X011310Y003339D01*
X011276Y003372D01*
X011210Y003372D01*
X011176Y003339D01*
X011176Y003305D01*
X011210Y003239D01*
X011110Y003239D01*
X011110Y003372D01*
X011603Y003084D02*
X011603Y002950D01*
X011503Y003050D01*
X011703Y003050D01*
X011845Y003063D02*
X012046Y003063D01*
X012046Y003129D02*
X012046Y002996D01*
X012012Y002899D02*
X012046Y002866D01*
X012046Y002799D01*
X012012Y002766D01*
X011879Y002766D01*
X011845Y002799D01*
X011845Y002866D01*
X011879Y002899D01*
X011912Y002996D02*
X011845Y003063D01*
X011703Y002854D02*
X011703Y002720D01*
X011703Y002787D02*
X011503Y002787D01*
X011570Y002720D01*
X011536Y002623D02*
X011503Y002590D01*
X011503Y002523D01*
X011536Y002490D01*
X011670Y002490D01*
X011703Y002523D01*
X011703Y002590D01*
X011670Y002623D01*
X011310Y002812D02*
X011310Y002878D01*
X011276Y002912D01*
X011310Y002812D02*
X011276Y002778D01*
X011143Y002778D01*
X011110Y002812D01*
X011110Y002878D01*
X011143Y002912D01*
X011845Y003259D02*
X011845Y003326D01*
X011879Y003360D01*
X011912Y003360D01*
X011945Y003326D01*
X011979Y003360D01*
X012012Y003360D01*
X012046Y003326D01*
X012046Y003259D01*
X012012Y003226D01*
X011945Y003293D02*
X011945Y003326D01*
X011879Y003226D02*
X011845Y003259D01*
X012452Y003891D02*
X012519Y003891D01*
X012552Y003924D01*
X012649Y003924D02*
X012682Y003891D01*
X012749Y003891D01*
X012782Y003924D01*
X012782Y004058D01*
X012749Y004091D01*
X012682Y004091D01*
X012649Y004058D01*
X012649Y004024D01*
X012682Y003991D01*
X012782Y003991D01*
X012552Y004058D02*
X012519Y004091D01*
X012452Y004091D01*
X012418Y004058D01*
X012418Y003924D01*
X012452Y003891D01*
X012459Y004290D02*
X012526Y004290D01*
X012559Y004323D01*
X012656Y004323D02*
X012656Y004356D01*
X012689Y004390D01*
X012756Y004390D01*
X012789Y004356D01*
X012789Y004323D01*
X012756Y004290D01*
X012689Y004290D01*
X012656Y004323D01*
X012689Y004390D02*
X012656Y004423D01*
X012656Y004456D01*
X012689Y004490D01*
X012756Y004490D01*
X012789Y004456D01*
X012789Y004423D01*
X012756Y004390D01*
X012559Y004456D02*
X012526Y004490D01*
X012459Y004490D01*
X012426Y004456D01*
X012426Y004323D01*
X012459Y004290D01*
X012455Y004659D02*
X012589Y004659D01*
X012522Y004659D02*
X012522Y004859D01*
X012455Y004792D01*
X012359Y004825D02*
X012325Y004859D01*
X012259Y004859D01*
X012225Y004825D01*
X012225Y004692D01*
X012259Y004659D01*
X012325Y004659D01*
X012359Y004692D01*
X012686Y004692D02*
X012719Y004659D01*
X012786Y004659D01*
X012819Y004692D01*
X012819Y004725D01*
X012786Y004759D01*
X012686Y004759D01*
X012686Y004692D01*
X012686Y004759D02*
X012752Y004825D01*
X012819Y004859D01*
X013713Y005239D02*
X013713Y005372D01*
X013747Y005405D01*
X013814Y005405D01*
X013847Y005372D01*
X013944Y005339D02*
X014010Y005405D01*
X014010Y005205D01*
X013944Y005205D02*
X014077Y005205D01*
X014174Y005239D02*
X014174Y005272D01*
X014207Y005305D01*
X014274Y005305D01*
X014307Y005272D01*
X014307Y005239D01*
X014274Y005205D01*
X014207Y005205D01*
X014174Y005239D01*
X014207Y005305D02*
X014174Y005339D01*
X014174Y005372D01*
X014207Y005405D01*
X014274Y005405D01*
X014307Y005372D01*
X014307Y005339D01*
X014274Y005305D01*
X014640Y005331D02*
X014640Y005397D01*
X014673Y005431D01*
X014707Y005431D01*
X014840Y005297D01*
X014840Y005431D01*
X014673Y005297D02*
X014640Y005331D01*
X014673Y005200D02*
X014640Y005167D01*
X014640Y005100D01*
X014673Y005067D01*
X014673Y004970D02*
X014640Y004937D01*
X014640Y004870D01*
X014673Y004837D01*
X014807Y004837D01*
X014840Y004870D01*
X014840Y004937D01*
X014807Y004970D01*
X014840Y005067D02*
X014707Y005200D01*
X014673Y005200D01*
X014840Y005200D02*
X014840Y005067D01*
X015442Y005104D02*
X015475Y005070D01*
X015442Y005104D02*
X015442Y005171D01*
X015475Y005204D01*
X015509Y005204D01*
X015642Y005070D01*
X015642Y005204D01*
X015609Y005301D02*
X015642Y005334D01*
X015642Y005401D01*
X015609Y005434D01*
X015576Y005434D01*
X015542Y005401D01*
X015542Y005367D01*
X015542Y005401D02*
X015509Y005434D01*
X015475Y005434D01*
X015442Y005401D01*
X015442Y005334D01*
X015475Y005301D01*
X015475Y004974D02*
X015442Y004940D01*
X015442Y004874D01*
X015475Y004840D01*
X015609Y004840D01*
X015642Y004874D01*
X015642Y004940D01*
X015609Y004974D01*
X015551Y004523D02*
X015584Y004489D01*
X015584Y004423D01*
X015551Y004389D01*
X015484Y004456D02*
X015484Y004489D01*
X015517Y004523D01*
X015551Y004523D01*
X015484Y004489D02*
X015451Y004523D01*
X015417Y004523D01*
X015384Y004489D01*
X015384Y004423D01*
X015417Y004389D01*
X015584Y004292D02*
X015584Y004159D01*
X015384Y004159D01*
X014561Y004376D02*
X014427Y004243D01*
X014427Y004209D01*
X014331Y004309D02*
X014297Y004276D01*
X014197Y004276D01*
X014197Y004209D02*
X014197Y004409D01*
X014297Y004409D01*
X014331Y004376D01*
X014331Y004309D01*
X014427Y004409D02*
X014561Y004409D01*
X014561Y004376D01*
X014100Y004409D02*
X013967Y004409D01*
X014034Y004409D02*
X014034Y004209D01*
X013814Y005205D02*
X013847Y005239D01*
X013814Y005205D02*
X013747Y005205D01*
X013713Y005239D01*
X013707Y005553D02*
X013707Y005686D01*
X013707Y005620D02*
X013907Y005620D01*
X013907Y005783D02*
X013707Y005783D01*
X013707Y005883D01*
X013740Y005917D01*
X013807Y005917D01*
X013840Y005883D01*
X013840Y005783D01*
X013807Y006013D02*
X013807Y006113D01*
X013840Y006147D01*
X013873Y006147D01*
X013907Y006113D01*
X013907Y006047D01*
X013873Y006013D01*
X013807Y006013D01*
X013740Y006080D01*
X013707Y006147D01*
X013556Y006138D02*
X013556Y006105D01*
X013423Y005972D01*
X013423Y005938D01*
X013326Y005938D02*
X013193Y005938D01*
X013259Y005938D02*
X013259Y006138D01*
X013193Y006072D01*
X013096Y006105D02*
X013063Y006138D01*
X012996Y006138D01*
X012963Y006105D01*
X012963Y005972D01*
X012996Y005938D01*
X013063Y005938D01*
X013096Y005972D01*
X013423Y006138D02*
X013556Y006138D01*
X013810Y006289D02*
X013810Y006489D01*
X013910Y006489D01*
X013944Y006455D01*
X013944Y006389D01*
X013910Y006355D01*
X013810Y006355D01*
X013877Y006355D02*
X013944Y006289D01*
X014041Y006322D02*
X014074Y006289D01*
X014141Y006289D01*
X014174Y006322D01*
X014174Y006389D01*
X014141Y006422D01*
X014107Y006422D01*
X014041Y006389D01*
X014041Y006489D01*
X014174Y006489D01*
X013467Y006482D02*
X013467Y006549D01*
X013433Y006582D01*
X013467Y006679D02*
X013333Y006812D01*
X013300Y006812D01*
X013266Y006779D01*
X013266Y006712D01*
X013300Y006679D01*
X013300Y006582D02*
X013266Y006549D01*
X013266Y006482D01*
X013300Y006448D01*
X013433Y006448D01*
X013467Y006482D01*
X013467Y006679D02*
X013467Y006812D01*
X013433Y006909D02*
X013300Y007042D01*
X013433Y007042D01*
X013467Y007009D01*
X013467Y006942D01*
X013433Y006909D01*
X013300Y006909D01*
X013266Y006942D01*
X013266Y007009D01*
X013300Y007042D01*
X012803Y006796D02*
X012669Y006796D01*
X012736Y006796D02*
X012736Y006996D01*
X012669Y006930D01*
X012572Y006796D02*
X012439Y006796D01*
X012439Y006996D01*
X012472Y007140D02*
X012539Y007140D01*
X012573Y007174D01*
X012669Y007174D02*
X012669Y007140D01*
X012669Y007174D02*
X012803Y007307D01*
X012803Y007341D01*
X012669Y007341D01*
X012573Y007307D02*
X012539Y007341D01*
X012472Y007341D01*
X012439Y007307D01*
X012439Y007174D01*
X012472Y007140D01*
X012474Y007491D02*
X012541Y007491D01*
X012574Y007525D01*
X012671Y007525D02*
X012704Y007491D01*
X012771Y007491D01*
X012804Y007525D01*
X012804Y007558D01*
X012771Y007591D01*
X012671Y007591D01*
X012671Y007525D01*
X012671Y007591D02*
X012738Y007658D01*
X012804Y007692D01*
X012574Y007658D02*
X012541Y007692D01*
X012474Y007692D01*
X012441Y007658D01*
X012441Y007525D01*
X012474Y007491D01*
X012641Y008165D02*
X012708Y008165D01*
X012741Y008199D01*
X012838Y008199D02*
X012871Y008165D01*
X012938Y008165D01*
X012971Y008199D01*
X012971Y008266D01*
X012938Y008299D01*
X012905Y008299D01*
X012838Y008266D01*
X012838Y008366D01*
X012971Y008366D01*
X012741Y008332D02*
X012708Y008366D01*
X012641Y008366D01*
X012608Y008332D01*
X012608Y008199D01*
X012641Y008165D01*
X013432Y008275D02*
X013466Y008242D01*
X013599Y008242D01*
X013633Y008275D01*
X013633Y008342D01*
X013599Y008375D01*
X013633Y008472D02*
X013499Y008606D01*
X013466Y008606D01*
X013432Y008572D01*
X013432Y008506D01*
X013466Y008472D01*
X013466Y008375D02*
X013432Y008342D01*
X013432Y008275D01*
X013633Y008472D02*
X013633Y008606D01*
X013633Y008702D02*
X013633Y008836D01*
X013633Y008769D02*
X013432Y008769D01*
X013499Y008702D01*
X014077Y008626D02*
X014111Y008560D01*
X014177Y008493D01*
X014177Y008593D01*
X014211Y008626D01*
X014244Y008626D01*
X014278Y008593D01*
X014278Y008526D01*
X014244Y008493D01*
X014177Y008493D01*
X014177Y008396D02*
X014211Y008363D01*
X014211Y008263D01*
X014278Y008263D02*
X014077Y008263D01*
X014077Y008363D01*
X014111Y008396D01*
X014177Y008396D01*
X014211Y008330D02*
X014278Y008396D01*
X014603Y008488D02*
X014637Y008455D01*
X014703Y008455D01*
X014737Y008488D01*
X014833Y008455D02*
X014967Y008588D01*
X014967Y008622D01*
X014933Y008655D01*
X014867Y008655D01*
X014833Y008622D01*
X014737Y008622D02*
X014703Y008655D01*
X014637Y008655D01*
X014603Y008622D01*
X014603Y008488D01*
X014833Y008455D02*
X014967Y008455D01*
X015064Y008488D02*
X015097Y008455D01*
X015164Y008455D01*
X015197Y008488D01*
X015197Y008622D01*
X015164Y008655D01*
X015097Y008655D01*
X015064Y008622D01*
X015064Y008588D01*
X015097Y008555D01*
X015197Y008555D01*
X015655Y008571D02*
X015655Y008438D01*
X015688Y008404D01*
X015755Y008404D01*
X015788Y008438D01*
X015885Y008404D02*
X016018Y008538D01*
X016018Y008571D01*
X015985Y008604D01*
X015918Y008604D01*
X015885Y008571D01*
X015788Y008571D02*
X015755Y008604D01*
X015688Y008604D01*
X015655Y008571D01*
X015885Y008404D02*
X016018Y008404D01*
X016115Y008438D02*
X016115Y008471D01*
X016148Y008504D01*
X016215Y008504D01*
X016249Y008471D01*
X016249Y008438D01*
X016215Y008404D01*
X016148Y008404D01*
X016115Y008438D01*
X016148Y008504D02*
X016115Y008538D01*
X016115Y008571D01*
X016148Y008604D01*
X016215Y008604D01*
X016249Y008571D01*
X016249Y008538D01*
X016215Y008504D01*
X017447Y008612D02*
X017480Y008579D01*
X017547Y008579D01*
X017580Y008612D01*
X017677Y008579D02*
X017811Y008712D01*
X017811Y008745D01*
X017777Y008779D01*
X017711Y008779D01*
X017677Y008745D01*
X017580Y008745D02*
X017547Y008779D01*
X017480Y008779D01*
X017447Y008745D01*
X017447Y008612D01*
X017677Y008579D02*
X017811Y008579D01*
X017907Y008579D02*
X017907Y008612D01*
X018041Y008745D01*
X018041Y008779D01*
X017907Y008779D01*
X017650Y008324D02*
X017583Y008324D01*
X017550Y008291D01*
X017550Y008257D01*
X017583Y008190D01*
X017483Y008190D01*
X017483Y008324D01*
X017650Y008324D02*
X017683Y008291D01*
X017683Y008224D01*
X017650Y008190D01*
X017683Y008094D02*
X017683Y007960D01*
X017483Y007960D01*
X017519Y007759D02*
X017486Y007726D01*
X017486Y007592D01*
X017519Y007559D01*
X017586Y007559D01*
X017619Y007592D01*
X017716Y007559D02*
X017849Y007692D01*
X017849Y007726D01*
X017816Y007759D01*
X017749Y007759D01*
X017716Y007726D01*
X017619Y007726D02*
X017586Y007759D01*
X017519Y007759D01*
X017716Y007559D02*
X017849Y007559D01*
X017946Y007592D02*
X017979Y007559D01*
X018046Y007559D01*
X018080Y007592D01*
X018080Y007625D01*
X018046Y007659D01*
X017946Y007659D01*
X017946Y007592D01*
X017946Y007659D02*
X018013Y007726D01*
X018080Y007759D01*
X018038Y006797D02*
X017904Y006797D01*
X017904Y006696D01*
X017971Y006730D01*
X018004Y006730D01*
X018038Y006696D01*
X018038Y006630D01*
X018004Y006596D01*
X017937Y006596D01*
X017904Y006630D01*
X017807Y006596D02*
X017674Y006596D01*
X017807Y006730D01*
X017807Y006763D01*
X017774Y006797D01*
X017707Y006797D01*
X017674Y006763D01*
X017577Y006763D02*
X017544Y006797D01*
X017477Y006797D01*
X017444Y006763D01*
X017444Y006630D01*
X017477Y006596D01*
X017544Y006596D01*
X017577Y006630D01*
X017588Y006289D02*
X017588Y006155D01*
X017488Y006255D01*
X017688Y006255D01*
X017688Y006059D02*
X017688Y005925D01*
X017488Y005925D01*
X017525Y005655D02*
X017491Y005622D01*
X017491Y005488D01*
X017525Y005455D01*
X017592Y005455D01*
X017625Y005488D01*
X017722Y005455D02*
X017855Y005588D01*
X017855Y005622D01*
X017822Y005655D01*
X017755Y005655D01*
X017722Y005622D01*
X017625Y005622D02*
X017592Y005655D01*
X017525Y005655D01*
X017722Y005455D02*
X017855Y005455D01*
X017952Y005555D02*
X018085Y005555D01*
X018052Y005455D02*
X018052Y005655D01*
X017952Y005555D01*
X014158Y007042D02*
X014158Y007243D01*
X014058Y007142D01*
X014191Y007142D01*
X013961Y007142D02*
X013961Y007209D01*
X013928Y007243D01*
X013828Y007243D01*
X013828Y007042D01*
X013828Y007109D02*
X013928Y007109D01*
X013961Y007142D01*
X013894Y007109D02*
X013961Y007042D01*
X012792Y006645D02*
X012759Y006679D01*
X012692Y006679D01*
X012658Y006645D01*
X012792Y006645D02*
X012792Y006612D01*
X012658Y006479D01*
X012792Y006479D01*
X012562Y006479D02*
X012428Y006479D01*
X012428Y006679D01*
X007586Y005926D02*
X007520Y005859D01*
X007423Y005725D02*
X007289Y005725D01*
X007356Y005725D02*
X007356Y005926D01*
X007289Y005859D01*
X007193Y005892D02*
X007159Y005926D01*
X007093Y005926D01*
X007059Y005892D01*
X007059Y005759D01*
X007093Y005725D01*
X007159Y005725D01*
X007193Y005759D01*
X010483Y002367D02*
X010616Y002367D01*
X010549Y002367D02*
X010549Y002167D01*
X010713Y002167D02*
X010713Y002367D01*
X010813Y002367D01*
X010846Y002334D01*
X010846Y002267D01*
X010813Y002234D01*
X010713Y002234D01*
X010943Y002300D02*
X011010Y002367D01*
X011010Y002167D01*
X011076Y002167D02*
X010943Y002167D01*
X005160Y001591D02*
X005026Y001591D01*
X005126Y001691D01*
X005126Y001491D01*
X004929Y001525D02*
X004929Y001691D01*
X004796Y001691D02*
X004796Y001525D01*
X004829Y001491D01*
X004896Y001491D01*
X004929Y001525D01*
X003192Y009589D02*
X003059Y009589D01*
X003192Y009722D01*
X003192Y009755D01*
X003159Y009789D01*
X003092Y009789D01*
X003059Y009755D01*
X002895Y009789D02*
X002828Y009722D01*
X002895Y009789D02*
X002895Y009589D01*
X002828Y009589D02*
X002962Y009589D01*
X002732Y009689D02*
X002698Y009655D01*
X002598Y009655D01*
X002598Y009589D02*
X002598Y009789D01*
X002698Y009789D01*
X002732Y009755D01*
X002732Y009689D01*
X002501Y009789D02*
X002368Y009789D01*
X002435Y009789D02*
X002435Y009589D01*
X014039Y010015D02*
X014072Y010049D01*
D13*
X012066Y008702D02*
X012068Y008716D01*
X012074Y008730D01*
X012083Y008741D01*
X012095Y008749D01*
X012108Y008754D01*
X012123Y008755D01*
X012137Y008752D01*
X012150Y008745D01*
X012160Y008735D01*
X012168Y008723D01*
X012172Y008709D01*
X012172Y008695D01*
X012168Y008681D01*
X012160Y008669D01*
X012150Y008659D01*
X012137Y008652D01*
X012123Y008649D01*
X012108Y008650D01*
X012095Y008655D01*
X012083Y008663D01*
X012074Y008674D01*
X012068Y008688D01*
X012066Y008702D01*
X012344Y008466D02*
X008856Y008466D01*
X008856Y004978D01*
X012344Y004978D01*
X012344Y008466D01*
D14*
X014181Y008088D03*
D15*
X003316Y008980D02*
X003318Y009001D01*
X003324Y009021D01*
X003333Y009041D01*
X003345Y009058D01*
X003360Y009072D01*
X003378Y009084D01*
X003398Y009092D01*
X003418Y009097D01*
X003439Y009098D01*
X003460Y009095D01*
X003480Y009089D01*
X003499Y009078D01*
X003516Y009065D01*
X003529Y009049D01*
X003540Y009031D01*
X003548Y009011D01*
X003552Y008991D01*
X003552Y008969D01*
X003548Y008949D01*
X003540Y008929D01*
X003529Y008911D01*
X003516Y008895D01*
X003499Y008882D01*
X003480Y008871D01*
X003460Y008865D01*
X003439Y008862D01*
X003418Y008863D01*
X003398Y008868D01*
X003378Y008876D01*
X003360Y008888D01*
X003345Y008902D01*
X003333Y008919D01*
X003324Y008939D01*
X003318Y008959D01*
X003316Y008980D01*
X003316Y004413D02*
X003318Y004434D01*
X003324Y004454D01*
X003333Y004474D01*
X003345Y004491D01*
X003360Y004505D01*
X003378Y004517D01*
X003398Y004525D01*
X003418Y004530D01*
X003439Y004531D01*
X003460Y004528D01*
X003480Y004522D01*
X003499Y004511D01*
X003516Y004498D01*
X003529Y004482D01*
X003540Y004464D01*
X003548Y004444D01*
X003552Y004424D01*
X003552Y004402D01*
X003548Y004382D01*
X003540Y004362D01*
X003529Y004344D01*
X003516Y004328D01*
X003499Y004315D01*
X003480Y004304D01*
X003460Y004298D01*
X003439Y004295D01*
X003418Y004296D01*
X003398Y004301D01*
X003378Y004309D01*
X003360Y004321D01*
X003345Y004335D01*
X003333Y004352D01*
X003324Y004372D01*
X003318Y004392D01*
X003316Y004413D01*
D16*
X002762Y009210D03*
D17*
X005675Y004187D02*
X005675Y001607D01*
X007075Y001607D01*
X007075Y004187D01*
X005675Y004187D01*
D18*
X007376Y012090D03*
M02*
