G75*
%MOIN*%
%OFA0B0*%
%FSLAX24Y24*%
%IPPOS*%
%LPD*%
%AMOC8*
5,1,8,0,0,1.08239X$1,22.5*
%
%ADD10C,0.0160*%
%ADD11C,0.0000*%
%ADD12R,0.0118X0.1024*%
D10*
X001085Y000791D02*
X001085Y012602D01*
X020770Y012602D01*
X020770Y000791D01*
X001085Y000791D01*
D11*
X003316Y004413D02*
X003318Y004434D01*
X003324Y004454D01*
X003333Y004474D01*
X003345Y004491D01*
X003360Y004505D01*
X003378Y004517D01*
X003398Y004525D01*
X003418Y004530D01*
X003439Y004531D01*
X003460Y004528D01*
X003480Y004522D01*
X003499Y004511D01*
X003516Y004498D01*
X003529Y004482D01*
X003540Y004464D01*
X003548Y004444D01*
X003552Y004424D01*
X003552Y004402D01*
X003548Y004382D01*
X003540Y004362D01*
X003529Y004344D01*
X003516Y004328D01*
X003499Y004315D01*
X003480Y004304D01*
X003460Y004298D01*
X003439Y004295D01*
X003418Y004296D01*
X003398Y004301D01*
X003378Y004309D01*
X003360Y004321D01*
X003345Y004335D01*
X003333Y004352D01*
X003324Y004372D01*
X003318Y004392D01*
X003316Y004413D01*
X003316Y008980D02*
X003318Y009001D01*
X003324Y009021D01*
X003333Y009041D01*
X003345Y009058D01*
X003360Y009072D01*
X003378Y009084D01*
X003398Y009092D01*
X003418Y009097D01*
X003439Y009098D01*
X003460Y009095D01*
X003480Y009089D01*
X003499Y009078D01*
X003516Y009065D01*
X003529Y009049D01*
X003540Y009031D01*
X003548Y009011D01*
X003552Y008991D01*
X003552Y008969D01*
X003548Y008949D01*
X003540Y008929D01*
X003529Y008911D01*
X003516Y008895D01*
X003499Y008882D01*
X003480Y008871D01*
X003460Y008865D01*
X003439Y008862D01*
X003418Y008863D01*
X003398Y008868D01*
X003378Y008876D01*
X003360Y008888D01*
X003345Y008902D01*
X003333Y008919D01*
X003324Y008939D01*
X003318Y008959D01*
X003316Y008980D01*
D12*
X003605Y007879D03*
X003801Y007879D03*
X003998Y007879D03*
X004195Y007879D03*
X004392Y007879D03*
X004589Y007879D03*
X004786Y007879D03*
X004983Y007879D03*
X005179Y007879D03*
X005376Y007879D03*
X005376Y005713D03*
X005179Y005713D03*
X004983Y005713D03*
X004786Y005713D03*
X004589Y005713D03*
X004392Y005713D03*
X004195Y005713D03*
X003998Y005713D03*
X003801Y005713D03*
X003605Y005713D03*
M02*
