G75*
%MOIN*%
%OFA0B0*%
%FSLAX24Y24*%
%IPPOS*%
%LPD*%
%AMOC8*
5,1,8,0,0,1.08239X$1,22.5*
%
%ADD10C,0.0000*%
%ADD11C,0.0110*%
%ADD12C,0.0040*%
%ADD13R,0.1614X0.0945*%
%ADD14C,0.0050*%
%ADD15R,0.0047X0.0004*%
%ADD16R,0.0102X0.0004*%
%ADD17R,0.0138X0.0004*%
%ADD18R,0.0165X0.0004*%
%ADD19R,0.0185X0.0004*%
%ADD20R,0.0189X0.0004*%
%ADD21R,0.0205X0.0004*%
%ADD22R,0.0220X0.0004*%
%ADD23R,0.0240X0.0004*%
%ADD24R,0.0252X0.0004*%
%ADD25R,0.0268X0.0004*%
%ADD26R,0.0283X0.0004*%
%ADD27R,0.0291X0.0004*%
%ADD28R,0.0307X0.0004*%
%ADD29R,0.0315X0.0004*%
%ADD30R,0.0323X0.0004*%
%ADD31R,0.0339X0.0004*%
%ADD32R,0.0346X0.0004*%
%ADD33R,0.0354X0.0004*%
%ADD34R,0.0362X0.0004*%
%ADD35R,0.0370X0.0004*%
%ADD36R,0.0378X0.0004*%
%ADD37R,0.0386X0.0004*%
%ADD38R,0.0394X0.0004*%
%ADD39R,0.0402X0.0004*%
%ADD40R,0.0409X0.0004*%
%ADD41R,0.0413X0.0004*%
%ADD42R,0.0417X0.0004*%
%ADD43R,0.0425X0.0004*%
%ADD44R,0.0433X0.0004*%
%ADD45R,0.0437X0.0004*%
%ADD46R,0.0441X0.0004*%
%ADD47R,0.0449X0.0004*%
%ADD48R,0.0453X0.0004*%
%ADD49R,0.0457X0.0004*%
%ADD50R,0.0461X0.0004*%
%ADD51R,0.0465X0.0004*%
%ADD52R,0.0472X0.0004*%
%ADD53R,0.0480X0.0004*%
%ADD54R,0.0484X0.0004*%
%ADD55R,0.0488X0.0004*%
%ADD56R,0.0492X0.0004*%
%ADD57R,0.0496X0.0004*%
%ADD58R,0.0500X0.0004*%
%ADD59R,0.0504X0.0004*%
%ADD60R,0.0508X0.0004*%
%ADD61R,0.0512X0.0004*%
%ADD62R,0.0516X0.0004*%
%ADD63R,0.0520X0.0004*%
%ADD64R,0.0524X0.0004*%
%ADD65R,0.0528X0.0004*%
%ADD66R,0.0476X0.0004*%
%ADD67R,0.0469X0.0004*%
%ADD68R,0.0429X0.0004*%
%ADD69R,0.0406X0.0004*%
%ADD70R,0.0343X0.0004*%
%ADD71R,0.0335X0.0004*%
%ADD72R,0.0331X0.0004*%
%ADD73R,0.0303X0.0004*%
%ADD74R,0.0299X0.0004*%
%ADD75R,0.0280X0.0004*%
%ADD76R,0.0276X0.0004*%
%ADD77R,0.0236X0.0004*%
%ADD78R,0.0181X0.0004*%
%ADD79R,0.0157X0.0004*%
%ADD80R,0.0134X0.0004*%
%ADD81R,0.0094X0.0004*%
%ADD82R,0.0031X0.0004*%
%ADD83R,0.6142X0.0004*%
%ADD84R,0.6138X0.0004*%
%ADD85R,0.6134X0.0004*%
%ADD86R,0.6130X0.0004*%
%ADD87R,0.6126X0.0004*%
%ADD88R,0.6122X0.0004*%
%ADD89R,0.6118X0.0004*%
%ADD90R,0.6114X0.0004*%
%ADD91R,0.6110X0.0004*%
%ADD92R,0.6106X0.0004*%
%ADD93R,0.6102X0.0004*%
%ADD94R,0.6098X0.0004*%
%ADD95R,0.6094X0.0004*%
%ADD96R,0.6091X0.0004*%
%ADD97R,0.6087X0.0004*%
%ADD98R,0.6083X0.0004*%
%ADD99R,0.6079X0.0004*%
%ADD100R,0.6075X0.0004*%
%ADD101R,0.6071X0.0004*%
%ADD102R,0.6067X0.0004*%
%ADD103R,0.6063X0.0004*%
%ADD104R,0.6059X0.0004*%
%ADD105R,0.6055X0.0004*%
%ADD106R,0.6051X0.0004*%
%ADD107R,0.6047X0.0004*%
%ADD108R,0.6043X0.0004*%
%ADD109R,0.6039X0.0004*%
%ADD110R,0.6035X0.0004*%
%ADD111R,0.6031X0.0004*%
%ADD112R,0.6028X0.0004*%
%ADD113R,0.6024X0.0004*%
%ADD114R,0.6020X0.0004*%
%ADD115R,0.6016X0.0004*%
%ADD116R,0.6012X0.0004*%
%ADD117R,0.6008X0.0004*%
%ADD118R,0.6004X0.0004*%
%ADD119R,0.6000X0.0004*%
%ADD120R,0.5996X0.0004*%
%ADD121R,0.5992X0.0004*%
%ADD122R,0.5988X0.0004*%
%ADD123R,0.5984X0.0004*%
%ADD124R,0.0209X0.0004*%
%ADD125R,0.0067X0.0004*%
%ADD126R,0.0075X0.0004*%
%ADD127R,0.0063X0.0004*%
%ADD128R,0.0142X0.0004*%
%ADD129R,0.0114X0.0004*%
%ADD130R,0.0146X0.0004*%
%ADD131R,0.0177X0.0004*%
%ADD132R,0.0150X0.0004*%
%ADD133R,0.0217X0.0004*%
%ADD134R,0.0213X0.0004*%
%ADD135R,0.0224X0.0004*%
%ADD136R,0.0197X0.0004*%
%ADD137R,0.0248X0.0004*%
%ADD138R,0.0260X0.0004*%
%ADD139R,0.0272X0.0004*%
%ADD140R,0.0256X0.0004*%
%ADD141R,0.0319X0.0004*%
%ADD142R,0.0358X0.0004*%
%ADD143R,0.0295X0.0004*%
%ADD144R,0.0374X0.0004*%
%ADD145R,0.0390X0.0004*%
%ADD146R,0.0421X0.0004*%
%ADD147R,0.0445X0.0004*%
%ADD148R,0.0382X0.0004*%
%ADD149R,0.0398X0.0004*%
%ADD150R,0.0531X0.0004*%
%ADD151R,0.0535X0.0004*%
%ADD152R,0.0539X0.0004*%
%ADD153R,0.0543X0.0004*%
%ADD154R,0.0551X0.0004*%
%ADD155R,0.0555X0.0004*%
%ADD156R,0.0547X0.0004*%
%ADD157R,0.0559X0.0004*%
%ADD158R,0.0563X0.0004*%
%ADD159R,0.0661X0.0004*%
%ADD160R,0.0567X0.0004*%
%ADD161R,0.0665X0.0004*%
%ADD162R,0.0579X0.0004*%
%ADD163R,0.0575X0.0004*%
%ADD164R,0.0571X0.0004*%
%ADD165R,0.0669X0.0004*%
%ADD166R,0.0583X0.0004*%
%ADD167R,0.0587X0.0004*%
%ADD168R,0.0673X0.0004*%
%ADD169R,0.0591X0.0004*%
%ADD170R,0.0677X0.0004*%
%ADD171R,0.0594X0.0004*%
%ADD172R,0.0598X0.0004*%
%ADD173R,0.0681X0.0004*%
%ADD174R,0.0606X0.0004*%
%ADD175R,0.0685X0.0004*%
%ADD176R,0.0610X0.0004*%
%ADD177R,0.0618X0.0004*%
%ADD178R,0.0689X0.0004*%
%ADD179R,0.0626X0.0004*%
%ADD180R,0.0622X0.0004*%
%ADD181R,0.0693X0.0004*%
%ADD182R,0.0634X0.0004*%
%ADD183R,0.0630X0.0004*%
%ADD184R,0.0697X0.0004*%
%ADD185R,0.0638X0.0004*%
%ADD186R,0.0642X0.0004*%
%ADD187R,0.0646X0.0004*%
%ADD188R,0.0701X0.0004*%
%ADD189R,0.0650X0.0004*%
%ADD190R,0.0705X0.0004*%
%ADD191R,0.0654X0.0004*%
%ADD192R,0.0244X0.0004*%
%ADD193R,0.0709X0.0004*%
%ADD194R,0.0228X0.0004*%
%ADD195R,0.0713X0.0004*%
%ADD196R,0.0201X0.0004*%
%ADD197R,0.0717X0.0004*%
%ADD198R,0.0311X0.0004*%
%ADD199R,0.0350X0.0004*%
%ADD200R,0.0173X0.0004*%
%ADD201R,0.0154X0.0004*%
%ADD202R,0.0287X0.0004*%
%ADD203R,0.0264X0.0004*%
%ADD204R,0.0126X0.0004*%
%ADD205R,0.0122X0.0004*%
%ADD206R,0.0118X0.0004*%
%ADD207R,0.0110X0.0004*%
%ADD208R,0.0106X0.0004*%
%ADD209R,0.0091X0.0004*%
%ADD210R,0.0098X0.0004*%
%ADD211R,0.0083X0.0004*%
%ADD212R,0.0079X0.0004*%
%ADD213R,0.0232X0.0004*%
%ADD214R,0.0071X0.0004*%
%ADD215R,0.0055X0.0004*%
%ADD216R,0.0043X0.0004*%
%ADD217R,0.0035X0.0004*%
%ADD218R,0.0028X0.0004*%
%ADD219R,0.0039X0.0004*%
%ADD220R,0.0020X0.0004*%
%ADD221R,0.0012X0.0004*%
%ADD222R,0.0004X0.0004*%
%ADD223R,0.0008X0.0004*%
%ADD224R,0.0024X0.0004*%
%ADD225R,0.0016X0.0004*%
%ADD226R,0.0748X0.0004*%
%ADD227R,0.0752X0.0004*%
%ADD228R,0.0130X0.0004*%
%ADD229R,0.0087X0.0004*%
%ADD230R,0.0327X0.0004*%
%ADD231R,0.0614X0.0004*%
%ADD232R,0.0720X0.0004*%
%ADD233R,0.0657X0.0004*%
%ADD234R,0.0169X0.0004*%
%ADD235R,0.0602X0.0004*%
%ADD236R,0.0366X0.0004*%
%ADD237R,0.0051X0.0004*%
D10*
X000229Y000343D02*
X000229Y012154D01*
X017552Y012154D01*
X017552Y000343D01*
X000229Y000343D01*
X002552Y001602D02*
X002554Y001652D01*
X002560Y001702D01*
X002570Y001751D01*
X002584Y001799D01*
X002601Y001846D01*
X002622Y001891D01*
X002647Y001935D01*
X002675Y001976D01*
X002707Y002015D01*
X002741Y002052D01*
X002778Y002086D01*
X002818Y002116D01*
X002860Y002143D01*
X002904Y002167D01*
X002950Y002188D01*
X002997Y002204D01*
X003045Y002217D01*
X003095Y002226D01*
X003144Y002231D01*
X003195Y002232D01*
X003245Y002229D01*
X003294Y002222D01*
X003343Y002211D01*
X003391Y002196D01*
X003437Y002178D01*
X003482Y002156D01*
X003525Y002130D01*
X003566Y002101D01*
X003605Y002069D01*
X003641Y002034D01*
X003673Y001996D01*
X003703Y001956D01*
X003730Y001913D01*
X003753Y001869D01*
X003772Y001823D01*
X003788Y001775D01*
X003800Y001726D01*
X003808Y001677D01*
X003812Y001627D01*
X003812Y001577D01*
X003808Y001527D01*
X003800Y001478D01*
X003788Y001429D01*
X003772Y001381D01*
X003753Y001335D01*
X003730Y001291D01*
X003703Y001248D01*
X003673Y001208D01*
X003641Y001170D01*
X003605Y001135D01*
X003566Y001103D01*
X003525Y001074D01*
X003482Y001048D01*
X003437Y001026D01*
X003391Y001008D01*
X003343Y000993D01*
X003294Y000982D01*
X003245Y000975D01*
X003195Y000972D01*
X003144Y000973D01*
X003095Y000978D01*
X003045Y000987D01*
X002997Y001000D01*
X002950Y001016D01*
X002904Y001037D01*
X002860Y001061D01*
X002818Y001088D01*
X002778Y001118D01*
X002741Y001152D01*
X002707Y001189D01*
X002675Y001228D01*
X002647Y001269D01*
X002622Y001313D01*
X002601Y001358D01*
X002584Y001405D01*
X002570Y001453D01*
X002560Y001502D01*
X002554Y001552D01*
X002552Y001602D01*
X002474Y003965D02*
X002476Y003986D01*
X002482Y004006D01*
X002491Y004026D01*
X002503Y004043D01*
X002518Y004057D01*
X002536Y004069D01*
X002556Y004077D01*
X002576Y004082D01*
X002597Y004083D01*
X002618Y004080D01*
X002638Y004074D01*
X002657Y004063D01*
X002674Y004050D01*
X002687Y004034D01*
X002698Y004016D01*
X002706Y003996D01*
X002710Y003976D01*
X002710Y003954D01*
X002706Y003934D01*
X002698Y003914D01*
X002687Y003896D01*
X002674Y003880D01*
X002657Y003867D01*
X002638Y003856D01*
X002618Y003850D01*
X002597Y003847D01*
X002576Y003848D01*
X002556Y003853D01*
X002536Y003861D01*
X002518Y003873D01*
X002503Y003887D01*
X002491Y003904D01*
X002482Y003924D01*
X002476Y003944D01*
X002474Y003965D01*
X002474Y008531D02*
X002476Y008552D01*
X002482Y008572D01*
X002491Y008592D01*
X002503Y008609D01*
X002518Y008623D01*
X002536Y008635D01*
X002556Y008643D01*
X002576Y008648D01*
X002597Y008649D01*
X002618Y008646D01*
X002638Y008640D01*
X002657Y008629D01*
X002674Y008616D01*
X002687Y008600D01*
X002698Y008582D01*
X002706Y008562D01*
X002710Y008542D01*
X002710Y008520D01*
X002706Y008500D01*
X002698Y008480D01*
X002687Y008462D01*
X002674Y008446D01*
X002657Y008433D01*
X002638Y008422D01*
X002618Y008416D01*
X002597Y008413D01*
X002576Y008414D01*
X002556Y008419D01*
X002536Y008427D01*
X002518Y008439D01*
X002503Y008453D01*
X002491Y008470D01*
X002482Y008490D01*
X002476Y008510D01*
X002474Y008531D01*
X002552Y010894D02*
X002554Y010944D01*
X002560Y010994D01*
X002570Y011043D01*
X002584Y011091D01*
X002601Y011138D01*
X002622Y011183D01*
X002647Y011227D01*
X002675Y011268D01*
X002707Y011307D01*
X002741Y011344D01*
X002778Y011378D01*
X002818Y011408D01*
X002860Y011435D01*
X002904Y011459D01*
X002950Y011480D01*
X002997Y011496D01*
X003045Y011509D01*
X003095Y011518D01*
X003144Y011523D01*
X003195Y011524D01*
X003245Y011521D01*
X003294Y011514D01*
X003343Y011503D01*
X003391Y011488D01*
X003437Y011470D01*
X003482Y011448D01*
X003525Y011422D01*
X003566Y011393D01*
X003605Y011361D01*
X003641Y011326D01*
X003673Y011288D01*
X003703Y011248D01*
X003730Y011205D01*
X003753Y011161D01*
X003772Y011115D01*
X003788Y011067D01*
X003800Y011018D01*
X003808Y010969D01*
X003812Y010919D01*
X003812Y010869D01*
X003808Y010819D01*
X003800Y010770D01*
X003788Y010721D01*
X003772Y010673D01*
X003753Y010627D01*
X003730Y010583D01*
X003703Y010540D01*
X003673Y010500D01*
X003641Y010462D01*
X003605Y010427D01*
X003566Y010395D01*
X003525Y010366D01*
X003482Y010340D01*
X003437Y010318D01*
X003391Y010300D01*
X003343Y010285D01*
X003294Y010274D01*
X003245Y010267D01*
X003195Y010264D01*
X003144Y010265D01*
X003095Y010270D01*
X003045Y010279D01*
X002997Y010292D01*
X002950Y010308D01*
X002904Y010329D01*
X002860Y010353D01*
X002818Y010380D01*
X002778Y010410D01*
X002741Y010444D01*
X002707Y010481D01*
X002675Y010520D01*
X002647Y010561D01*
X002622Y010605D01*
X002601Y010650D01*
X002584Y010697D01*
X002570Y010745D01*
X002560Y010794D01*
X002554Y010844D01*
X002552Y010894D01*
D11*
X008376Y011239D02*
X008475Y011140D01*
X008672Y011140D01*
X008770Y011239D01*
X008994Y011239D02*
X008994Y011140D01*
X009092Y011140D01*
X009092Y011239D01*
X008994Y011239D01*
X009343Y011140D02*
X009737Y011140D01*
X009540Y011140D02*
X009540Y011731D01*
X009737Y011534D01*
X009988Y011534D02*
X010184Y011140D01*
X010381Y011534D01*
X010605Y011239D02*
X010605Y011140D01*
X010704Y011140D01*
X010704Y011239D01*
X010605Y011239D01*
X010954Y011239D02*
X011053Y011140D01*
X011250Y011140D01*
X011348Y011239D01*
X011348Y011731D01*
X011599Y011633D02*
X011599Y011436D01*
X011697Y011337D01*
X011993Y011337D01*
X012244Y011239D02*
X012342Y011140D01*
X012539Y011140D01*
X012637Y011239D01*
X012637Y011633D01*
X012539Y011731D01*
X012342Y011731D01*
X012244Y011633D01*
X011993Y011731D02*
X011697Y011731D01*
X011599Y011633D01*
X011993Y011731D02*
X011993Y011140D01*
X012888Y011140D02*
X013282Y011140D01*
X012888Y011534D01*
X012888Y011633D01*
X012987Y011731D01*
X013183Y011731D01*
X013282Y011633D01*
X013533Y011731D02*
X013533Y011140D01*
X013729Y011337D01*
X013926Y011140D01*
X013926Y011731D01*
X014177Y011731D02*
X014571Y011337D01*
X014472Y011436D02*
X014177Y011140D01*
X014571Y011140D02*
X014571Y011731D01*
X010954Y011731D02*
X010954Y011239D01*
X008770Y011633D02*
X008672Y011731D01*
X008475Y011731D01*
X008376Y011633D01*
X008376Y011534D01*
X008475Y011436D01*
X008376Y011337D01*
X008376Y011239D01*
X008475Y011436D02*
X008573Y011436D01*
D12*
X012625Y010879D02*
X012812Y010879D01*
X012812Y010739D01*
X012718Y010786D01*
X012671Y010786D01*
X012625Y010739D01*
X012625Y010645D01*
X012671Y010599D01*
X012765Y010599D01*
X012812Y010645D01*
X012919Y010599D02*
X013106Y010599D01*
X013013Y010599D02*
X013013Y010879D01*
X013106Y010786D01*
X013214Y010879D02*
X013401Y010599D01*
X013509Y010599D02*
X013696Y010599D01*
X013602Y010599D02*
X013602Y010879D01*
X013696Y010786D01*
X013897Y010879D02*
X013897Y010599D01*
X013990Y010599D02*
X013803Y010599D01*
X013990Y010786D02*
X013897Y010879D01*
X014098Y010879D02*
X014285Y010599D01*
X014393Y010645D02*
X014393Y010692D01*
X014439Y010739D01*
X014533Y010739D01*
X014579Y010786D01*
X014579Y010832D01*
X014533Y010879D01*
X014439Y010879D01*
X014393Y010832D01*
X014393Y010786D01*
X014439Y010739D01*
X014533Y010739D02*
X014579Y010692D01*
X014579Y010645D01*
X014533Y010599D01*
X014439Y010599D01*
X014393Y010645D01*
D13*
X007414Y011445D03*
D14*
X005904Y010955D02*
X005770Y010955D01*
X005837Y010955D02*
X005837Y010754D01*
X005673Y010754D02*
X005673Y010955D01*
X005573Y010955D01*
X005540Y010921D01*
X005540Y010854D01*
X005573Y010821D01*
X005673Y010821D01*
X005443Y010754D02*
X005310Y010754D01*
X005376Y010754D02*
X005376Y010955D01*
X005443Y010888D01*
X005213Y010888D02*
X005146Y010955D01*
X005146Y010754D01*
X005213Y010754D02*
X005079Y010754D01*
X004858Y010021D02*
X004725Y010021D01*
X004791Y010021D02*
X004791Y009820D01*
X004628Y009820D02*
X004628Y010021D01*
X004528Y010021D01*
X004494Y009987D01*
X004494Y009921D01*
X004528Y009887D01*
X004628Y009887D01*
X004398Y009854D02*
X004364Y009820D01*
X004298Y009820D01*
X004264Y009854D01*
X004264Y009921D01*
X004298Y009954D01*
X004331Y009954D01*
X004398Y009921D01*
X004398Y010021D01*
X004264Y010021D01*
X003891Y010060D02*
X003758Y010060D01*
X003824Y010060D02*
X003824Y009860D01*
X003661Y009860D02*
X003661Y010060D01*
X003561Y010060D01*
X003527Y010027D01*
X003527Y009960D01*
X003561Y009927D01*
X003661Y009927D01*
X003431Y009893D02*
X003397Y009860D01*
X003331Y009860D01*
X003297Y009893D01*
X003297Y009927D01*
X003331Y009960D01*
X003364Y009960D01*
X003331Y009960D02*
X003297Y009993D01*
X003297Y010027D01*
X003331Y010060D01*
X003397Y010060D01*
X003431Y010027D01*
X002238Y009115D02*
X002104Y009115D01*
X002171Y009115D02*
X002171Y008914D01*
X002008Y008914D02*
X002008Y009115D01*
X001908Y009115D01*
X001874Y009081D01*
X001874Y009015D01*
X001908Y008981D01*
X002008Y008981D01*
X001777Y008914D02*
X001644Y008914D01*
X001711Y008914D02*
X001711Y009115D01*
X001777Y009048D01*
X001547Y009081D02*
X001514Y009115D01*
X001447Y009115D01*
X001414Y009081D01*
X001414Y009048D01*
X001547Y008914D01*
X001414Y008914D01*
X001304Y010259D02*
X001238Y010259D01*
X001204Y010292D01*
X001204Y010426D01*
X001238Y010459D01*
X001304Y010459D01*
X001338Y010426D01*
X001338Y010393D01*
X001304Y010359D01*
X001204Y010359D01*
X001304Y010259D02*
X001338Y010292D01*
X001435Y010359D02*
X001435Y010426D01*
X001468Y010459D01*
X001568Y010459D01*
X001568Y010259D01*
X001568Y010326D02*
X001468Y010326D01*
X001435Y010359D01*
X001665Y010459D02*
X001798Y010459D01*
X001731Y010459D02*
X001731Y010259D01*
X004658Y011640D02*
X004692Y011606D01*
X004758Y011606D01*
X004792Y011640D01*
X004658Y011773D01*
X004658Y011640D01*
X004658Y011773D02*
X004692Y011806D01*
X004758Y011806D01*
X004792Y011773D01*
X004792Y011640D01*
X004889Y011606D02*
X005022Y011606D01*
X004955Y011606D02*
X004955Y011806D01*
X005022Y011740D01*
X005119Y011773D02*
X005119Y011706D01*
X005152Y011673D01*
X005252Y011673D01*
X005252Y011606D02*
X005252Y011806D01*
X005152Y011806D01*
X005119Y011773D01*
X005349Y011806D02*
X005482Y011806D01*
X005416Y011806D02*
X005416Y011606D01*
X006718Y009193D02*
X006818Y009092D01*
X006684Y009092D01*
X006718Y008992D02*
X006718Y009193D01*
X006914Y009159D02*
X006914Y009092D01*
X006948Y009059D01*
X007048Y009059D01*
X007048Y008992D02*
X007048Y009193D01*
X006948Y009193D01*
X006914Y009159D01*
X007145Y009193D02*
X007278Y009193D01*
X007211Y009193D02*
X007211Y008992D01*
X006780Y006642D02*
X006646Y006642D01*
X006713Y006642D02*
X006713Y006442D01*
X006550Y006442D02*
X006550Y006642D01*
X006449Y006642D01*
X006416Y006609D01*
X006416Y006542D01*
X006449Y006509D01*
X006550Y006509D01*
X006319Y006442D02*
X006186Y006576D01*
X006186Y006609D01*
X006219Y006642D01*
X006286Y006642D01*
X006319Y006609D01*
X006319Y006442D02*
X006186Y006442D01*
X003767Y005174D02*
X003634Y005174D01*
X003701Y005174D02*
X003701Y004974D01*
X003537Y004974D02*
X003537Y005174D01*
X003437Y005174D01*
X003404Y005141D01*
X003404Y005074D01*
X003437Y005041D01*
X003537Y005041D01*
X003307Y005107D02*
X003240Y005174D01*
X003240Y004974D01*
X003174Y004974D02*
X003307Y004974D01*
X003077Y005074D02*
X002943Y005074D01*
X002977Y004974D02*
X002977Y005174D01*
X003077Y005074D01*
X002212Y003402D02*
X002079Y003402D01*
X002146Y003402D02*
X002146Y003202D01*
X001982Y003202D02*
X001982Y003402D01*
X001882Y003402D01*
X001849Y003369D01*
X001849Y003302D01*
X001882Y003269D01*
X001982Y003269D01*
X001752Y003336D02*
X001685Y003402D01*
X001685Y003202D01*
X001752Y003202D02*
X001618Y003202D01*
X001522Y003202D02*
X001522Y003236D01*
X001388Y003369D01*
X001388Y003402D01*
X001522Y003402D01*
X001522Y002615D02*
X001388Y002615D01*
X001422Y002548D02*
X001388Y002515D01*
X001388Y002448D01*
X001422Y002415D01*
X001488Y002415D01*
X001522Y002448D01*
X001522Y002515D02*
X001455Y002548D01*
X001422Y002548D01*
X001522Y002515D02*
X001522Y002615D01*
X001685Y002615D02*
X001752Y002548D01*
X001685Y002615D02*
X001685Y002415D01*
X001752Y002415D02*
X001618Y002415D01*
X001849Y002515D02*
X001882Y002481D01*
X001982Y002481D01*
X001982Y002415D02*
X001982Y002615D01*
X001882Y002615D01*
X001849Y002582D01*
X001849Y002515D01*
X002079Y002615D02*
X002212Y002615D01*
X002146Y002615D02*
X002146Y002415D01*
X002146Y001828D02*
X002146Y001627D01*
X001982Y001627D02*
X001982Y001828D01*
X001882Y001828D01*
X001849Y001794D01*
X001849Y001727D01*
X001882Y001694D01*
X001982Y001694D01*
X002079Y001828D02*
X002212Y001828D01*
X001752Y001761D02*
X001685Y001828D01*
X001685Y001627D01*
X001752Y001627D02*
X001618Y001627D01*
X001522Y001661D02*
X001522Y001694D01*
X001488Y001727D01*
X001422Y001727D01*
X001388Y001694D01*
X001388Y001661D01*
X001422Y001627D01*
X001488Y001627D01*
X001522Y001661D01*
X001488Y001727D02*
X001522Y001761D01*
X001522Y001794D01*
X001488Y001828D01*
X001422Y001828D01*
X001388Y001794D01*
X001388Y001761D01*
X001422Y001727D01*
X001388Y001040D02*
X001455Y001007D01*
X001522Y000940D01*
X001422Y000940D01*
X001388Y000907D01*
X001388Y000873D01*
X001422Y000840D01*
X001488Y000840D01*
X001522Y000873D01*
X001522Y000940D01*
X001618Y000840D02*
X001752Y000840D01*
X001685Y000840D02*
X001685Y001040D01*
X001752Y000973D01*
X001849Y001007D02*
X001849Y000940D01*
X001882Y000907D01*
X001982Y000907D01*
X001982Y000840D02*
X001982Y001040D01*
X001882Y001040D01*
X001849Y001007D01*
X002079Y001040D02*
X002212Y001040D01*
X002146Y001040D02*
X002146Y000840D01*
X009524Y001625D02*
X009658Y001625D01*
X009591Y001625D02*
X009591Y001825D01*
X009658Y001758D01*
X009755Y001791D02*
X009755Y001725D01*
X009788Y001691D01*
X009888Y001691D01*
X009888Y001625D02*
X009888Y001825D01*
X009788Y001825D01*
X009755Y001791D01*
X009985Y001825D02*
X010118Y001825D01*
X010051Y001825D02*
X010051Y001625D01*
X011725Y003313D02*
X011725Y003346D01*
X011591Y003479D01*
X011591Y003513D01*
X011725Y003513D01*
X011821Y003479D02*
X011821Y003413D01*
X011855Y003379D01*
X011955Y003379D01*
X011955Y003313D02*
X011955Y003513D01*
X011855Y003513D01*
X011821Y003479D01*
X012052Y003513D02*
X012185Y003513D01*
X012118Y003513D02*
X012118Y003313D01*
X013668Y003336D02*
X013668Y003370D01*
X013702Y003403D01*
X013802Y003403D01*
X013802Y003336D01*
X013768Y003303D01*
X013702Y003303D01*
X013668Y003336D01*
X013735Y003470D02*
X013802Y003403D01*
X013735Y003470D02*
X013668Y003503D01*
X013899Y003470D02*
X013899Y003403D01*
X013932Y003370D01*
X014032Y003370D01*
X014032Y003303D02*
X014032Y003503D01*
X013932Y003503D01*
X013899Y003470D01*
X014129Y003503D02*
X014262Y003503D01*
X014195Y003503D02*
X014195Y003303D01*
X013699Y009516D02*
X013699Y009716D01*
X013633Y009716D02*
X013766Y009716D01*
X013536Y009716D02*
X013436Y009716D01*
X013402Y009683D01*
X013402Y009616D01*
X013436Y009583D01*
X013536Y009583D01*
X013536Y009516D02*
X013536Y009716D01*
X013306Y009683D02*
X013306Y009650D01*
X013272Y009616D01*
X013206Y009616D01*
X013172Y009583D01*
X013172Y009550D01*
X013206Y009516D01*
X013272Y009516D01*
X013306Y009550D01*
X013306Y009583D01*
X013272Y009616D01*
X013206Y009616D02*
X013172Y009650D01*
X013172Y009683D01*
X013206Y009716D01*
X013272Y009716D01*
X013306Y009683D01*
X003019Y006906D02*
X002886Y006906D01*
X002953Y006906D02*
X002953Y006706D01*
X002789Y006706D02*
X002789Y006906D01*
X002689Y006906D01*
X002656Y006873D01*
X002656Y006806D01*
X002689Y006773D01*
X002789Y006773D01*
X002559Y006840D02*
X002492Y006906D01*
X002492Y006706D01*
X002426Y006706D02*
X002559Y006706D01*
X002329Y006740D02*
X002295Y006706D01*
X002229Y006706D01*
X002195Y006740D01*
X002195Y006773D01*
X002229Y006806D01*
X002262Y006806D01*
X002229Y006806D02*
X002195Y006840D01*
X002195Y006873D01*
X002229Y006906D01*
X002295Y006906D01*
X002329Y006873D01*
D15*
X011208Y000539D03*
X013090Y002016D03*
X013802Y001677D03*
X016168Y001717D03*
X016164Y001976D03*
X016412Y000539D03*
D16*
X016412Y000543D03*
X013810Y001654D03*
X012475Y002220D03*
X011208Y000543D03*
D17*
X011206Y000547D03*
X011580Y001642D03*
X012474Y002217D03*
X016174Y001673D03*
X016411Y000547D03*
D18*
X016412Y000551D03*
X016180Y001661D03*
X016188Y002024D03*
X012475Y002213D03*
X011208Y000551D03*
D19*
X011745Y001461D03*
X013281Y001461D03*
X013477Y001630D03*
X016411Y000555D03*
D20*
X015645Y001461D03*
X016184Y001654D03*
X013983Y001461D03*
X012475Y002209D03*
X011208Y000555D03*
D21*
X011208Y000559D03*
X011208Y001047D03*
X012019Y001720D03*
X012023Y001728D03*
X012023Y001732D03*
X012023Y001736D03*
X012027Y001744D03*
X012027Y001748D03*
X012027Y001917D03*
X013090Y001693D03*
X013094Y001638D03*
X013098Y001634D03*
X013464Y001984D03*
X013460Y002039D03*
X013456Y002043D03*
X013271Y002213D03*
X014263Y001921D03*
X014267Y001760D03*
X014263Y001744D03*
X014263Y001740D03*
X014259Y001732D03*
X014259Y001728D03*
X014865Y002209D03*
X016188Y001650D03*
X016657Y001839D03*
X016653Y001882D03*
X016365Y002213D03*
X016412Y001047D03*
X016412Y000559D03*
X010810Y002264D03*
X010810Y002268D03*
X010810Y002272D03*
X010810Y002276D03*
X010810Y002280D03*
X010810Y002283D03*
X010810Y002287D03*
X010810Y002291D03*
X010810Y002295D03*
X010810Y002299D03*
X010810Y002303D03*
X010810Y002307D03*
X010810Y002311D03*
X010810Y002315D03*
X010810Y002319D03*
X010810Y002323D03*
X010810Y002327D03*
D22*
X011507Y001980D03*
X011507Y001976D03*
X011503Y001969D03*
X011511Y001988D03*
X011999Y001992D03*
X012003Y001988D03*
X012003Y001984D03*
X012306Y001949D03*
X012306Y001945D03*
X012310Y001961D03*
X012310Y001965D03*
X012310Y001969D03*
X012003Y001689D03*
X011999Y001685D03*
X012786Y001937D03*
X012786Y001941D03*
X012786Y001945D03*
X013098Y001709D03*
X013109Y001622D03*
X013468Y001622D03*
X013456Y001969D03*
X013743Y001976D03*
X013743Y001980D03*
X013747Y001984D03*
X014239Y001988D03*
X014243Y001980D03*
X014239Y001689D03*
X014546Y001752D03*
X014546Y001756D03*
X014546Y001917D03*
X014546Y001921D03*
X014546Y001925D03*
X015090Y001925D03*
X015090Y001929D03*
X015094Y001921D03*
X015094Y001917D03*
X015094Y001913D03*
X015090Y001748D03*
X015086Y001740D03*
X015086Y001736D03*
X015082Y001728D03*
X015365Y001748D03*
X015365Y001752D03*
X015369Y001740D03*
X015369Y001736D03*
X015373Y001728D03*
X015365Y001925D03*
X015369Y001937D03*
X015369Y001941D03*
X015373Y001945D03*
X015373Y001949D03*
X015916Y001945D03*
X015916Y001941D03*
X015920Y001937D03*
X015920Y001933D03*
X015924Y001921D03*
X015920Y001744D03*
X015920Y001740D03*
X015916Y001732D03*
X015916Y001728D03*
X016192Y001646D03*
X016629Y001961D03*
X016633Y001953D03*
X016637Y001945D03*
X016637Y001732D03*
X016637Y001728D03*
X016633Y001724D03*
X016412Y001043D03*
X016412Y000563D03*
X015645Y001465D03*
X013983Y001465D03*
X011208Y001043D03*
X011208Y000563D03*
D23*
X011206Y000567D03*
X011981Y001661D03*
X011981Y002016D03*
X012328Y002012D03*
X012777Y001980D03*
X013107Y001724D03*
X013442Y001957D03*
X013765Y002016D03*
X013769Y002020D03*
X013989Y002209D03*
X014214Y002020D03*
X014218Y002016D03*
X014556Y001965D03*
X014556Y001961D03*
X014556Y001713D03*
X014218Y001661D03*
X015056Y001681D03*
X015060Y001685D03*
X015068Y001980D03*
X015064Y001988D03*
X015399Y001996D03*
X015403Y002000D03*
X015887Y001996D03*
X015891Y001992D03*
X015891Y001681D03*
X015887Y001677D03*
X016198Y001642D03*
X016611Y001689D03*
X016615Y001693D03*
X016611Y001988D03*
X015399Y001681D03*
X016411Y000567D03*
X011529Y002016D03*
X010785Y002386D03*
D24*
X010680Y002516D03*
X011538Y002028D03*
X011968Y002028D03*
X012338Y002024D03*
X012771Y001996D03*
X011968Y001650D03*
X011208Y001035D03*
X011208Y000571D03*
X013983Y001469D03*
X014562Y001697D03*
X014562Y001980D03*
X014204Y002028D03*
X015050Y002008D03*
X015054Y002004D03*
X015412Y002012D03*
X015416Y002016D03*
X015877Y002012D03*
X015877Y001665D03*
X015873Y001661D03*
X015645Y001469D03*
X015412Y001665D03*
X015050Y001673D03*
X015046Y001669D03*
X016412Y001035D03*
X016412Y000571D03*
X016601Y001677D03*
X016601Y002000D03*
X016598Y002004D03*
D25*
X016586Y002016D03*
X016586Y001661D03*
X015861Y001650D03*
X015428Y001650D03*
X015428Y002028D03*
X015645Y002205D03*
X015857Y002028D03*
X014869Y001484D03*
X014570Y001677D03*
X014196Y001642D03*
X014570Y002000D03*
X013790Y002039D03*
X013428Y001945D03*
X013448Y001614D03*
X012349Y002035D03*
X011554Y002039D03*
X011208Y001031D03*
X011208Y000575D03*
X016412Y000575D03*
X016412Y001031D03*
D26*
X016365Y001476D03*
X015849Y001642D03*
X015440Y001642D03*
X015440Y002035D03*
X015846Y002035D03*
X015023Y002035D03*
X014578Y002012D03*
X014180Y002043D03*
X014180Y001634D03*
X014578Y001665D03*
X012755Y002020D03*
X012357Y002039D03*
X011944Y002043D03*
X011751Y002201D03*
X011944Y001634D03*
X011208Y000579D03*
X016412Y000579D03*
D27*
X016412Y000583D03*
X016412Y001024D03*
X016570Y001650D03*
X015842Y001638D03*
X015448Y001638D03*
X015645Y002201D03*
X014582Y002020D03*
X014582Y001657D03*
X013806Y002047D03*
X013137Y001748D03*
X011570Y002047D03*
X010700Y002488D03*
X011208Y001024D03*
X011208Y000583D03*
D28*
X011208Y000587D03*
X013149Y001756D03*
X014590Y001650D03*
X014869Y001496D03*
X015830Y001634D03*
X016412Y000587D03*
X011751Y002197D03*
X010708Y002469D03*
X010708Y002472D03*
D29*
X010712Y002461D03*
X012373Y002043D03*
X012739Y002035D03*
X011208Y001016D03*
X011208Y000591D03*
X014594Y001646D03*
X015645Y001480D03*
X016412Y001016D03*
X016412Y000591D03*
X015826Y002043D03*
X015645Y002197D03*
D30*
X016361Y002193D03*
X016365Y001484D03*
X016412Y001012D03*
X016412Y000594D03*
X014598Y001642D03*
X013987Y002193D03*
X013397Y001925D03*
X012475Y002173D03*
X011751Y002193D03*
X010716Y002449D03*
X011208Y001012D03*
X011208Y000594D03*
D31*
X011208Y000598D03*
X011747Y001484D03*
X011751Y002189D03*
X010724Y002417D03*
X010724Y002421D03*
X010724Y002425D03*
X013267Y002189D03*
X013290Y001484D03*
X013983Y001484D03*
X014869Y001508D03*
X015645Y001484D03*
X016412Y000598D03*
D32*
X016412Y000602D03*
X016531Y002039D03*
X014869Y002173D03*
X013168Y001768D03*
X011208Y000602D03*
X010727Y002398D03*
X010727Y002402D03*
X010727Y002406D03*
D33*
X011751Y002185D03*
X012475Y002161D03*
X013176Y001772D03*
X013267Y002185D03*
X013983Y001488D03*
X014869Y001512D03*
X015645Y001488D03*
X016412Y001000D03*
X016412Y000606D03*
X011208Y000606D03*
X011208Y001000D03*
D34*
X011208Y000996D03*
X011208Y000610D03*
X013180Y001776D03*
X013369Y001909D03*
X012716Y002043D03*
X012475Y002157D03*
X014869Y001516D03*
X016412Y000996D03*
X016412Y000610D03*
D35*
X016412Y000614D03*
X016412Y000992D03*
X015645Y001492D03*
X014869Y001520D03*
X014621Y002047D03*
X014869Y002165D03*
X013361Y001906D03*
X013188Y001780D03*
X012475Y002154D03*
X011751Y002181D03*
X011208Y000992D03*
X011208Y000614D03*
D36*
X011208Y000618D03*
X011208Y000988D03*
X014869Y002161D03*
X016361Y002181D03*
X016412Y000988D03*
X016412Y000618D03*
D37*
X016412Y000622D03*
X016412Y000984D03*
X015645Y001496D03*
X014869Y002157D03*
X011751Y002177D03*
X011208Y000984D03*
X011208Y000622D03*
D38*
X011208Y000626D03*
X011208Y000980D03*
X013200Y001787D03*
X016361Y002177D03*
X016412Y000980D03*
X016412Y000626D03*
D39*
X016412Y000630D03*
X016412Y000976D03*
X016369Y001504D03*
X015645Y001500D03*
X013983Y001500D03*
X013342Y001894D03*
X013987Y002173D03*
X011751Y002173D03*
X011208Y000976D03*
X011208Y000630D03*
D40*
X011208Y000634D03*
X011208Y000969D03*
X013216Y001799D03*
X013263Y002169D03*
X014869Y002150D03*
X015645Y002173D03*
X016361Y002173D03*
X016412Y000969D03*
X016412Y000634D03*
D41*
X016411Y000638D03*
X016367Y001508D03*
X015643Y001504D03*
X014871Y001539D03*
X013989Y002169D03*
X013222Y001803D03*
X012477Y002134D03*
X011206Y000638D03*
D42*
X011208Y000642D03*
X011208Y000965D03*
X011751Y002169D03*
X013330Y001886D03*
X013298Y001504D03*
X013983Y001504D03*
X014869Y002146D03*
X016361Y002169D03*
X016412Y000965D03*
X016412Y000642D03*
D43*
X016412Y000646D03*
X016412Y000961D03*
X015645Y001508D03*
X015645Y002169D03*
X014869Y002142D03*
X013318Y001878D03*
X013231Y001811D03*
X013263Y002165D03*
X011751Y002165D03*
X011208Y000961D03*
X011208Y000646D03*
D44*
X011208Y000650D03*
X011208Y000953D03*
X011208Y000957D03*
X013298Y001508D03*
X013310Y001870D03*
X013983Y001508D03*
X014869Y002138D03*
X016361Y002165D03*
X016412Y000953D03*
X016412Y000650D03*
D45*
X016411Y000654D03*
X016367Y001516D03*
X015643Y002165D03*
X014871Y001551D03*
X013304Y001866D03*
X013245Y001823D03*
X013241Y001819D03*
X013261Y002161D03*
X011206Y000654D03*
D46*
X011208Y000657D03*
X011208Y000949D03*
X011751Y002161D03*
X013251Y001827D03*
X013298Y001862D03*
X013987Y002161D03*
X014869Y002134D03*
X015645Y001512D03*
X016412Y000949D03*
X016412Y000657D03*
D47*
X016412Y000661D03*
X016412Y000941D03*
X016412Y000945D03*
X015645Y002161D03*
X013283Y001850D03*
X013271Y001843D03*
X013267Y001839D03*
X013259Y002157D03*
X011751Y002157D03*
X011208Y000945D03*
X011208Y000941D03*
X011208Y000665D03*
X011208Y000661D03*
D48*
X013989Y002157D03*
X015643Y001516D03*
X016367Y001520D03*
X016411Y000665D03*
D49*
X016412Y000669D03*
X016412Y000937D03*
X016361Y002157D03*
X013983Y001516D03*
X013259Y002154D03*
X011743Y001516D03*
X011208Y000937D03*
X011208Y000669D03*
D50*
X011206Y000673D03*
X011206Y000933D03*
X013300Y001516D03*
X013989Y002154D03*
X015643Y002157D03*
X016367Y001524D03*
X016411Y000933D03*
X016411Y000673D03*
D51*
X016412Y000677D03*
X016412Y000929D03*
X015645Y001520D03*
X011751Y002154D03*
X011208Y000929D03*
X011208Y000677D03*
D52*
X011208Y000681D03*
X011208Y000685D03*
X011208Y000921D03*
X011751Y002150D03*
X013259Y002150D03*
X013987Y002150D03*
X013302Y001520D03*
X015645Y001524D03*
X015645Y002154D03*
X016412Y000921D03*
X016412Y000685D03*
X016412Y000681D03*
D53*
X016412Y000689D03*
X016412Y000693D03*
X016412Y000913D03*
X016361Y002150D03*
X015645Y002150D03*
X013983Y001524D03*
X011743Y001524D03*
X011751Y002146D03*
X011208Y000913D03*
X011208Y000693D03*
X011208Y000689D03*
D54*
X011206Y000909D03*
X013304Y001524D03*
X013257Y002146D03*
X013989Y002146D03*
X015643Y001528D03*
X016367Y001531D03*
X016411Y000909D03*
X016411Y000697D03*
D55*
X016412Y000701D03*
X016412Y000902D03*
X016412Y000906D03*
X011208Y000906D03*
X011208Y000902D03*
X011208Y000705D03*
X011208Y000701D03*
X011208Y000697D03*
D56*
X011745Y001528D03*
X013304Y001528D03*
X013981Y001528D03*
X013989Y002142D03*
X013257Y002142D03*
X015643Y002146D03*
X016359Y002146D03*
X016411Y000705D03*
D57*
X016412Y000709D03*
X016412Y000713D03*
X016412Y000894D03*
X016412Y000898D03*
X015645Y001531D03*
X011751Y002142D03*
X011208Y000898D03*
X011208Y000894D03*
X011208Y000713D03*
X011208Y000709D03*
D58*
X011206Y000717D03*
X011206Y000890D03*
X011745Y001531D03*
X013981Y001531D03*
X016367Y001535D03*
X016411Y000890D03*
X016411Y000717D03*
D59*
X016412Y000720D03*
X016412Y000724D03*
X016412Y000882D03*
X016412Y000886D03*
X015645Y001535D03*
X015645Y002142D03*
X016361Y002142D03*
X013987Y002138D03*
X013255Y002138D03*
X013306Y001531D03*
X011751Y002138D03*
X011208Y000886D03*
X011208Y000882D03*
X011208Y000724D03*
X011208Y000720D03*
D60*
X011206Y000728D03*
X011206Y000878D03*
X013257Y002134D03*
X016367Y001539D03*
X016411Y000878D03*
X016411Y000728D03*
D61*
X016412Y000732D03*
X016412Y000736D03*
X016412Y000740D03*
X016412Y000866D03*
X016412Y000870D03*
X016412Y000874D03*
X015645Y002138D03*
X013987Y002134D03*
X013298Y002063D03*
X013267Y002118D03*
X013263Y002122D03*
X013263Y002126D03*
X013259Y002130D03*
X011751Y002134D03*
X011743Y001535D03*
X011208Y000874D03*
X011208Y000870D03*
X011208Y000866D03*
X011208Y000740D03*
X011208Y000736D03*
X011208Y000732D03*
D62*
X011206Y000744D03*
X011206Y000862D03*
X013308Y001535D03*
X013296Y002067D03*
X013292Y002071D03*
X013292Y002075D03*
X013288Y002079D03*
X013288Y002083D03*
X013285Y002087D03*
X013285Y002091D03*
X013281Y002094D03*
X013281Y002098D03*
X013277Y002102D03*
X013273Y002106D03*
X013273Y002110D03*
X013269Y002114D03*
X013981Y001535D03*
X015643Y001539D03*
X016367Y001543D03*
X016359Y002138D03*
X016411Y000862D03*
X016411Y000744D03*
D63*
X016412Y000748D03*
X016412Y000752D03*
X016412Y000756D03*
X016412Y000760D03*
X016412Y000846D03*
X016412Y000850D03*
X016412Y000854D03*
X016412Y000858D03*
X015645Y002134D03*
X011751Y002130D03*
X011208Y000858D03*
X011208Y000854D03*
X011208Y000850D03*
X011208Y000846D03*
X011208Y000760D03*
X011208Y000756D03*
X011208Y000752D03*
X011208Y000748D03*
D64*
X011206Y000764D03*
X011206Y000843D03*
X011745Y001539D03*
X013308Y001539D03*
X013981Y001539D03*
X013989Y002130D03*
X015643Y001543D03*
X016367Y001547D03*
X016359Y002134D03*
X016411Y000843D03*
X016411Y000839D03*
X016411Y000768D03*
X016411Y000764D03*
D65*
X016412Y000772D03*
X016412Y000776D03*
X016412Y000780D03*
X016412Y000783D03*
X016412Y000787D03*
X016412Y000791D03*
X016412Y000795D03*
X016412Y000799D03*
X016412Y000803D03*
X016412Y000807D03*
X016412Y000811D03*
X016412Y000815D03*
X016412Y000819D03*
X016412Y000823D03*
X016412Y000827D03*
X016412Y000831D03*
X016412Y000835D03*
X011751Y002126D03*
X011208Y000839D03*
X011208Y000835D03*
X011208Y000831D03*
X011208Y000827D03*
X011208Y000823D03*
X011208Y000819D03*
X011208Y000815D03*
X011208Y000811D03*
X011208Y000807D03*
X011208Y000803D03*
X011208Y000799D03*
X011208Y000795D03*
X011208Y000791D03*
X011208Y000787D03*
X011208Y000783D03*
X011208Y000780D03*
X011208Y000776D03*
X011208Y000772D03*
X011208Y000768D03*
D66*
X011206Y000917D03*
X016367Y001528D03*
X016411Y000917D03*
D67*
X016411Y000925D03*
X016359Y002154D03*
X013981Y001520D03*
X011745Y001520D03*
X011206Y000925D03*
X010800Y002126D03*
X010800Y002130D03*
X010800Y002134D03*
X010800Y002138D03*
X010800Y002142D03*
X010800Y002146D03*
X010800Y002150D03*
X010800Y002154D03*
X010800Y002157D03*
X010800Y002161D03*
X010800Y002165D03*
X010800Y002169D03*
X010800Y002173D03*
X010800Y002177D03*
X010800Y002181D03*
X010800Y002185D03*
X010800Y002189D03*
X010800Y002193D03*
X010800Y002197D03*
X010800Y002201D03*
X010800Y002205D03*
X010800Y002209D03*
X010800Y002213D03*
X010800Y002217D03*
X010800Y002220D03*
X010800Y002224D03*
X010800Y002228D03*
X010800Y002232D03*
X010800Y002236D03*
X010800Y002240D03*
X010800Y002244D03*
X010800Y002248D03*
X010800Y002252D03*
X010800Y002256D03*
X010800Y002260D03*
D68*
X011745Y001508D03*
X013237Y001815D03*
X013312Y001874D03*
X013989Y002165D03*
X014871Y001547D03*
X016367Y001512D03*
X016411Y000957D03*
D69*
X016411Y000972D03*
X014871Y001535D03*
X013296Y001500D03*
X013210Y001795D03*
X013336Y001890D03*
X012477Y002138D03*
X011745Y001500D03*
X011206Y000972D03*
D70*
X011206Y001004D03*
X012477Y002165D03*
X013383Y001917D03*
X013989Y002189D03*
X014607Y002043D03*
X016363Y002189D03*
X016367Y001488D03*
X016411Y001004D03*
X010725Y002409D03*
X010725Y002413D03*
D71*
X010722Y002429D03*
X010722Y002433D03*
X011914Y001626D03*
X013162Y001764D03*
X014603Y001638D03*
X014867Y002177D03*
X016411Y001008D03*
D72*
X014869Y001504D03*
X014995Y002047D03*
X014601Y002039D03*
X014153Y001626D03*
X013389Y001921D03*
X012475Y002169D03*
X011208Y001008D03*
X010720Y002437D03*
X015645Y002193D03*
D73*
X015009Y002043D03*
X014588Y002028D03*
X013989Y002197D03*
X012745Y002031D03*
X010706Y002476D03*
X016363Y002197D03*
X016367Y001480D03*
X016411Y001020D03*
D74*
X015645Y001476D03*
X016562Y001646D03*
X016562Y002031D03*
X014586Y002024D03*
X014172Y002047D03*
X014172Y001630D03*
X013983Y001476D03*
X014586Y001654D03*
X013409Y001933D03*
X013141Y001752D03*
X013286Y001476D03*
X013267Y002197D03*
X012475Y002181D03*
X011936Y001630D03*
X011747Y001476D03*
X011208Y001020D03*
X010704Y002480D03*
D75*
X010694Y002496D03*
X011560Y002043D03*
X013131Y001744D03*
X013422Y001941D03*
X013269Y002201D03*
X014867Y002193D03*
X015029Y002031D03*
X014867Y001488D03*
X016411Y001028D03*
X016576Y001654D03*
X016576Y002024D03*
X016363Y002201D03*
D76*
X015853Y002031D03*
X015436Y002031D03*
X015432Y001646D03*
X015645Y001472D03*
X015853Y001646D03*
X016582Y001657D03*
X015023Y001646D03*
X014574Y001669D03*
X014188Y001638D03*
X013983Y001472D03*
X013798Y002043D03*
X014574Y002008D03*
X012759Y002016D03*
X012475Y002189D03*
X011952Y002039D03*
X011952Y001638D03*
X011747Y001472D03*
X011208Y001028D03*
X010692Y002500D03*
D77*
X010672Y002524D03*
X011523Y002008D03*
X011527Y002012D03*
X011751Y002209D03*
X011983Y002012D03*
X011987Y002008D03*
X012322Y002004D03*
X012322Y002000D03*
X012326Y002008D03*
X012779Y001976D03*
X012779Y001972D03*
X013105Y001720D03*
X013460Y001618D03*
X013448Y001961D03*
X013763Y002012D03*
X014220Y002012D03*
X014554Y001957D03*
X014554Y001953D03*
X014554Y001720D03*
X014554Y001717D03*
X014224Y001665D03*
X014865Y001476D03*
X015062Y001689D03*
X015066Y001693D03*
X015066Y001697D03*
X015074Y001972D03*
X015070Y001976D03*
X015393Y001988D03*
X015397Y001992D03*
X015893Y001988D03*
X015897Y001984D03*
X015897Y001693D03*
X015897Y001689D03*
X015893Y001685D03*
X015397Y001685D03*
X015393Y001689D03*
X016365Y001469D03*
X016617Y001697D03*
X016617Y001980D03*
X016613Y001984D03*
X016412Y001039D03*
X011983Y001665D03*
X011208Y001039D03*
D78*
X011208Y001051D03*
X010645Y002539D03*
X015645Y002217D03*
X016412Y001051D03*
D79*
X016412Y001055D03*
X016176Y001665D03*
X013822Y001638D03*
X013487Y001638D03*
X011208Y001055D03*
D80*
X011208Y001059D03*
X013117Y002047D03*
X013495Y001646D03*
X015645Y002220D03*
X016361Y001457D03*
X016412Y001059D03*
D81*
X016412Y001063D03*
X013105Y002035D03*
X011570Y001657D03*
X011208Y001063D03*
D82*
X011208Y001067D03*
X012475Y002224D03*
X013086Y002008D03*
X016168Y001724D03*
X016412Y001067D03*
D83*
X013779Y001154D03*
X013779Y001157D03*
D84*
X013777Y001161D03*
D85*
X013775Y001165D03*
X013775Y001169D03*
D86*
X013773Y001173D03*
D87*
X013771Y001177D03*
D88*
X013769Y001181D03*
X013769Y001185D03*
D89*
X013767Y001189D03*
D90*
X013765Y001193D03*
D91*
X013763Y001197D03*
D92*
X013761Y001201D03*
X013761Y001205D03*
D93*
X013759Y001209D03*
D94*
X013757Y001213D03*
D95*
X013755Y001217D03*
X013755Y001220D03*
D96*
X013753Y001224D03*
D97*
X013751Y001228D03*
D98*
X013749Y001232D03*
D99*
X013747Y001236D03*
X013747Y001240D03*
D100*
X013745Y001244D03*
D101*
X013743Y001248D03*
D102*
X013741Y001252D03*
X013741Y001256D03*
D103*
X013739Y001260D03*
D104*
X013737Y001264D03*
D105*
X013735Y001268D03*
X013735Y001272D03*
D106*
X013733Y001276D03*
D107*
X013731Y001280D03*
D108*
X013729Y001283D03*
D109*
X013727Y001287D03*
X013727Y001291D03*
D110*
X013725Y001295D03*
D111*
X013724Y001299D03*
D112*
X013722Y001303D03*
X013722Y001307D03*
D113*
X013720Y001311D03*
D114*
X013718Y001315D03*
D115*
X013716Y001319D03*
D116*
X013714Y001323D03*
X013714Y001327D03*
D117*
X013712Y001331D03*
D118*
X013710Y001335D03*
D119*
X013708Y001339D03*
X013708Y001343D03*
D120*
X013706Y001346D03*
D121*
X013704Y001350D03*
D122*
X013702Y001354D03*
D123*
X013700Y001358D03*
X013700Y001362D03*
D124*
X014253Y001713D03*
X014253Y001717D03*
X014257Y001720D03*
X014257Y001724D03*
X014265Y001917D03*
X014261Y001925D03*
X014261Y001929D03*
X014261Y001933D03*
X014261Y001937D03*
X014257Y001941D03*
X014257Y001945D03*
X014257Y001949D03*
X014253Y001957D03*
X014540Y001878D03*
X014540Y001874D03*
X014540Y001870D03*
X014540Y001866D03*
X014540Y001862D03*
X014540Y001858D03*
X014540Y001854D03*
X014540Y001850D03*
X014540Y001846D03*
X014540Y001843D03*
X014540Y001839D03*
X014540Y001835D03*
X014540Y001831D03*
X014540Y001827D03*
X014540Y001823D03*
X014540Y001819D03*
X014540Y001815D03*
X014540Y001811D03*
X014540Y001807D03*
X014540Y001803D03*
X014540Y001799D03*
X014540Y001795D03*
X014540Y001555D03*
X014540Y001551D03*
X014540Y001547D03*
X014540Y001543D03*
X014540Y001539D03*
X014540Y001535D03*
X014540Y001531D03*
X014540Y001528D03*
X014540Y001524D03*
X014540Y001520D03*
X014540Y001516D03*
X014540Y001512D03*
X014540Y001508D03*
X014540Y001504D03*
X014540Y001500D03*
X014540Y001496D03*
X014540Y001492D03*
X014540Y001488D03*
X014540Y001484D03*
X014540Y001480D03*
X014540Y001476D03*
X014540Y001472D03*
X014540Y001469D03*
X014540Y001465D03*
X013729Y001921D03*
X013462Y001980D03*
X013454Y002047D03*
X013092Y001697D03*
X013099Y001630D03*
X012792Y001630D03*
X012792Y001634D03*
X012792Y001638D03*
X012792Y001642D03*
X012792Y001646D03*
X012792Y001650D03*
X012792Y001654D03*
X012792Y001657D03*
X012792Y001661D03*
X012792Y001665D03*
X012792Y001669D03*
X012792Y001673D03*
X012792Y001677D03*
X012792Y001681D03*
X012792Y001685D03*
X012792Y001689D03*
X012792Y001693D03*
X012792Y001697D03*
X012792Y001701D03*
X012792Y001705D03*
X012792Y001709D03*
X012792Y001713D03*
X012792Y001717D03*
X012792Y001720D03*
X012792Y001724D03*
X012792Y001728D03*
X012792Y001732D03*
X012792Y001736D03*
X012792Y001740D03*
X012792Y001744D03*
X012792Y001748D03*
X012792Y001752D03*
X012792Y001756D03*
X012792Y001760D03*
X012792Y001764D03*
X012792Y001768D03*
X012792Y001772D03*
X012792Y001776D03*
X012792Y001780D03*
X012792Y001783D03*
X012792Y001787D03*
X012792Y001791D03*
X012792Y001795D03*
X012792Y001799D03*
X012792Y001803D03*
X012792Y001807D03*
X012792Y001811D03*
X012792Y001815D03*
X012792Y001819D03*
X012792Y001823D03*
X012792Y001827D03*
X012792Y001831D03*
X012792Y001835D03*
X012792Y001839D03*
X012792Y001843D03*
X012792Y001846D03*
X012792Y001850D03*
X012792Y001854D03*
X012792Y001858D03*
X012792Y001862D03*
X012792Y001866D03*
X012792Y001870D03*
X012792Y001874D03*
X012792Y001878D03*
X012792Y001882D03*
X012792Y001886D03*
X012792Y001890D03*
X012792Y001894D03*
X012792Y002134D03*
X012792Y002138D03*
X012792Y002142D03*
X012792Y002146D03*
X012792Y002150D03*
X012792Y002154D03*
X012792Y002157D03*
X012792Y002161D03*
X012792Y002165D03*
X012792Y002169D03*
X012792Y002173D03*
X012792Y002177D03*
X012792Y002181D03*
X012792Y002185D03*
X012792Y002189D03*
X012792Y002193D03*
X012792Y002197D03*
X012792Y002201D03*
X012792Y002205D03*
X012792Y002209D03*
X012792Y002213D03*
X012792Y002217D03*
X012792Y002220D03*
X012792Y002224D03*
X012792Y002228D03*
X012792Y002232D03*
X012792Y002236D03*
X012792Y002240D03*
X012792Y002244D03*
X012792Y002248D03*
X012792Y002252D03*
X012792Y002256D03*
X012792Y002260D03*
X012792Y002264D03*
X012792Y002268D03*
X012792Y002272D03*
X012792Y002276D03*
X012792Y002280D03*
X012792Y002283D03*
X012792Y002287D03*
X012792Y002291D03*
X012792Y002295D03*
X012792Y002299D03*
X012792Y002303D03*
X012792Y002307D03*
X012792Y002311D03*
X012792Y002315D03*
X012792Y002319D03*
X012792Y002323D03*
X012792Y002327D03*
X012792Y002331D03*
X012792Y002335D03*
X012792Y002339D03*
X012792Y002343D03*
X012792Y002346D03*
X012792Y002350D03*
X012792Y002354D03*
X012792Y002358D03*
X012792Y002362D03*
X012792Y002366D03*
X012792Y002370D03*
X012792Y002374D03*
X012792Y002378D03*
X012792Y002382D03*
X012792Y002386D03*
X012792Y002390D03*
X012792Y002394D03*
X012792Y002398D03*
X012792Y002402D03*
X012792Y002406D03*
X012792Y002409D03*
X012792Y002413D03*
X012792Y002417D03*
X012792Y002421D03*
X012792Y002425D03*
X012792Y002429D03*
X012792Y002433D03*
X012792Y002437D03*
X012792Y002441D03*
X012792Y002445D03*
X012792Y002449D03*
X012792Y002453D03*
X012792Y002457D03*
X012792Y002461D03*
X012792Y002465D03*
X012792Y002469D03*
X012792Y002472D03*
X012792Y002476D03*
X012792Y002480D03*
X012792Y002484D03*
X012792Y002488D03*
X012792Y002492D03*
X012474Y002205D03*
X012017Y001957D03*
X012017Y001953D03*
X012021Y001945D03*
X012021Y001941D03*
X012021Y001937D03*
X012025Y001933D03*
X012025Y001929D03*
X012025Y001925D03*
X012025Y001921D03*
X012021Y001724D03*
X012017Y001717D03*
X012017Y001713D03*
X012013Y001709D03*
X011753Y002213D03*
X010812Y002122D03*
X010812Y002118D03*
X010812Y002114D03*
X010812Y002110D03*
X010812Y002106D03*
X010812Y002102D03*
X010812Y002098D03*
X010812Y002094D03*
X010812Y002091D03*
X010812Y002087D03*
X010812Y002083D03*
X010812Y002079D03*
X010812Y002075D03*
X010812Y002071D03*
X010812Y002067D03*
X010812Y002063D03*
X010812Y002059D03*
X010812Y002055D03*
X010812Y002051D03*
X010812Y002047D03*
X010812Y002043D03*
X010812Y002039D03*
X010812Y002035D03*
X010812Y002031D03*
X010812Y002028D03*
X010812Y002024D03*
X010812Y002020D03*
X010812Y002016D03*
X010812Y002012D03*
X010812Y002008D03*
X010812Y002004D03*
X010812Y002000D03*
X010812Y001996D03*
X010812Y001992D03*
X010812Y001988D03*
X010812Y001984D03*
X010812Y001980D03*
X010812Y001976D03*
X010812Y001972D03*
X010812Y001969D03*
X010812Y001965D03*
X010812Y001961D03*
X010812Y001957D03*
X010812Y001953D03*
X010812Y001949D03*
X010812Y001945D03*
X010812Y001941D03*
X010812Y001937D03*
X010812Y001933D03*
X010812Y001929D03*
X010812Y001925D03*
X010812Y001921D03*
X010812Y001917D03*
X010812Y001913D03*
X010812Y001909D03*
X010812Y001906D03*
X010812Y001902D03*
X010812Y001898D03*
X010812Y001894D03*
X010812Y001890D03*
X010812Y001886D03*
X010812Y001882D03*
X010812Y001878D03*
X010812Y001874D03*
X010812Y001870D03*
X010812Y001866D03*
X010812Y001862D03*
X010812Y001858D03*
X010812Y001854D03*
X010812Y001850D03*
X010812Y001846D03*
X010812Y001843D03*
X010812Y001839D03*
X010812Y001835D03*
X010812Y001831D03*
X010812Y001827D03*
X010812Y001823D03*
X010812Y001819D03*
X010812Y001815D03*
X010812Y001811D03*
X010812Y001807D03*
X010812Y001803D03*
X010812Y001799D03*
X010812Y001795D03*
X010812Y001791D03*
X010812Y001787D03*
X010812Y001783D03*
X010812Y001780D03*
X010812Y001776D03*
X010812Y001772D03*
X010812Y001768D03*
X010812Y001764D03*
X010812Y001760D03*
X010812Y001756D03*
X010812Y001752D03*
X010812Y001748D03*
X010812Y001744D03*
X010812Y001740D03*
X010812Y001736D03*
X010812Y001732D03*
X010812Y001728D03*
X010812Y001724D03*
X010812Y001720D03*
X010812Y001717D03*
X010812Y001713D03*
X010812Y001709D03*
X010812Y001705D03*
X010812Y001701D03*
X010812Y001697D03*
X010812Y001693D03*
X010812Y001689D03*
X010812Y001685D03*
X010812Y001681D03*
X010812Y001677D03*
X010812Y001673D03*
X010812Y001669D03*
X010812Y001665D03*
X010812Y001661D03*
X010812Y001657D03*
X010812Y001654D03*
X010812Y001650D03*
X010812Y001646D03*
X010812Y001642D03*
X010812Y001638D03*
X010812Y001634D03*
X010812Y001630D03*
X010812Y001626D03*
X010812Y001622D03*
X010812Y001618D03*
X010812Y001614D03*
X010812Y001610D03*
X010812Y001606D03*
X010812Y001602D03*
X010812Y001598D03*
X010812Y001594D03*
X010812Y001591D03*
X010812Y001587D03*
X010812Y001583D03*
X010812Y001579D03*
X010812Y001575D03*
X010812Y001571D03*
X010812Y001567D03*
X010812Y001563D03*
X010812Y001559D03*
X010812Y001555D03*
X010812Y001551D03*
X010812Y001547D03*
X010812Y001543D03*
X010812Y001539D03*
X010812Y001535D03*
X010812Y001531D03*
X010812Y001528D03*
X010812Y001524D03*
X010812Y001520D03*
X010812Y001516D03*
X010812Y001512D03*
X010812Y001508D03*
X010812Y001504D03*
X010812Y001500D03*
X010812Y001496D03*
X010812Y001492D03*
X010812Y001488D03*
X010812Y001484D03*
X010812Y001480D03*
X010812Y001476D03*
X010812Y001472D03*
X010812Y001469D03*
X010812Y001465D03*
X010812Y001461D03*
X010812Y001457D03*
X010812Y001453D03*
X010812Y001449D03*
X010812Y001445D03*
X010812Y001441D03*
X010812Y001437D03*
X010812Y001433D03*
X010812Y001429D03*
X010812Y001425D03*
X010812Y001421D03*
X010812Y001417D03*
X010812Y001413D03*
X010812Y001409D03*
X010812Y001406D03*
X010812Y001402D03*
X010812Y001398D03*
X010812Y001394D03*
X010812Y001390D03*
X010812Y001386D03*
X010812Y001382D03*
X010812Y001378D03*
X010812Y001374D03*
X010812Y001370D03*
X010812Y001366D03*
X010808Y002331D03*
X010808Y002335D03*
X010808Y002339D03*
X010808Y002343D03*
X010808Y002346D03*
X012792Y001626D03*
X012792Y001622D03*
X012792Y001618D03*
X012792Y001614D03*
X012792Y001610D03*
X012792Y001606D03*
X012792Y001602D03*
X012792Y001598D03*
X012792Y001594D03*
X012792Y001591D03*
X012792Y001587D03*
X012792Y001583D03*
X012792Y001579D03*
X012792Y001575D03*
X012792Y001571D03*
X012792Y001567D03*
X012792Y001563D03*
X012792Y001559D03*
X012792Y001555D03*
X012792Y001551D03*
X012792Y001547D03*
X012792Y001543D03*
X012792Y001539D03*
X012792Y001535D03*
X012792Y001531D03*
X012792Y001528D03*
X012792Y001524D03*
X012792Y001520D03*
X012792Y001516D03*
X012792Y001512D03*
X012792Y001508D03*
X012792Y001504D03*
X012792Y001500D03*
X012792Y001496D03*
X012792Y001492D03*
X012792Y001488D03*
X012792Y001484D03*
X012792Y001480D03*
X012792Y001476D03*
X012792Y001472D03*
X012792Y001469D03*
X012792Y001465D03*
X013989Y002213D03*
X014540Y002213D03*
X014540Y002217D03*
X014540Y002220D03*
X014540Y002224D03*
X014540Y002228D03*
X014540Y002232D03*
X014540Y002236D03*
X014540Y002240D03*
X014540Y002244D03*
X014540Y002248D03*
X014540Y002252D03*
X014540Y002256D03*
X014540Y002260D03*
X014540Y002264D03*
X014540Y002268D03*
X014540Y002272D03*
X014540Y002276D03*
X014540Y002280D03*
X014540Y002283D03*
X014540Y002287D03*
X014540Y002291D03*
X014540Y002295D03*
X014540Y002299D03*
X014540Y002303D03*
X014540Y002307D03*
X014540Y002311D03*
X014540Y002315D03*
X014540Y002319D03*
X014540Y002323D03*
X014540Y002327D03*
X014540Y002331D03*
X014540Y002335D03*
X014540Y002339D03*
X014540Y002343D03*
X014540Y002346D03*
X014540Y002350D03*
X014540Y002354D03*
X014540Y002358D03*
X014540Y002362D03*
X014540Y002366D03*
X014540Y002370D03*
X014540Y002374D03*
X014540Y002378D03*
X014540Y002382D03*
X014540Y002386D03*
X014540Y002390D03*
X014540Y002394D03*
X014540Y002398D03*
X014540Y002402D03*
X014540Y002406D03*
X014540Y002409D03*
X014540Y002413D03*
X014540Y002417D03*
X014540Y002421D03*
X014540Y002425D03*
X014540Y002429D03*
X014540Y002433D03*
X014540Y002437D03*
X014540Y002441D03*
X014540Y002445D03*
X014540Y002449D03*
X014540Y002453D03*
X014540Y002457D03*
X014540Y002461D03*
X014540Y002465D03*
X014540Y002469D03*
X014540Y002472D03*
X014540Y002476D03*
X014540Y002480D03*
X014540Y002484D03*
X014540Y002488D03*
X014540Y002492D03*
X014540Y002209D03*
X014540Y002205D03*
X014540Y002201D03*
X014540Y002197D03*
X014540Y002193D03*
X014540Y002189D03*
X014540Y002185D03*
X014540Y002181D03*
X014540Y002177D03*
X014540Y002173D03*
X014540Y002169D03*
X014540Y002165D03*
X014540Y002161D03*
X014540Y002157D03*
X014540Y002154D03*
X014540Y002150D03*
X014540Y002146D03*
X014540Y002142D03*
X014540Y002138D03*
X014540Y002134D03*
X015934Y001858D03*
X015934Y001854D03*
X015934Y001819D03*
X016363Y001465D03*
X016651Y001776D03*
X016651Y001780D03*
X016651Y001783D03*
X016651Y001787D03*
X016651Y001791D03*
X016655Y001795D03*
X016655Y001799D03*
X016655Y001803D03*
X016655Y001807D03*
X016655Y001811D03*
X016655Y001815D03*
X016655Y001819D03*
X016655Y001823D03*
X016655Y001827D03*
X016655Y001831D03*
X016655Y001835D03*
X016655Y001843D03*
X016655Y001846D03*
X016655Y001850D03*
X016655Y001854D03*
X016655Y001858D03*
X016655Y001862D03*
X016655Y001866D03*
X016655Y001870D03*
X016655Y001874D03*
X016655Y001878D03*
X016651Y001886D03*
X016651Y001890D03*
X016651Y001894D03*
X016651Y001898D03*
X016651Y001902D03*
X016647Y001913D03*
D125*
X016359Y001453D03*
X013096Y002024D03*
X010588Y002390D03*
D126*
X011568Y001665D03*
X011745Y001453D03*
X013099Y002028D03*
X013804Y001665D03*
X013981Y001453D03*
X013277Y001453D03*
X015643Y001453D03*
D127*
X016168Y001709D03*
X016164Y001984D03*
X014865Y001453D03*
X013802Y001669D03*
X013511Y001673D03*
X011566Y001669D03*
D128*
X013279Y001457D03*
X013491Y001642D03*
X013818Y001642D03*
X015645Y001457D03*
X016180Y002016D03*
D129*
X014867Y001457D03*
X013812Y001650D03*
X010655Y002543D03*
D130*
X011745Y001457D03*
X013981Y001457D03*
X016174Y001669D03*
D131*
X016182Y001657D03*
X016363Y001461D03*
X016190Y002028D03*
X014867Y002213D03*
X013989Y002217D03*
X014867Y001465D03*
X011753Y002217D03*
D132*
X014865Y002217D03*
X014865Y001461D03*
D133*
X014867Y001472D03*
X015088Y001744D03*
X015092Y001752D03*
X015092Y001756D03*
X015092Y001760D03*
X015096Y001768D03*
X015096Y001772D03*
X015096Y001776D03*
X015099Y001878D03*
X015099Y001882D03*
X015099Y001886D03*
X015099Y001890D03*
X015099Y001894D03*
X015096Y001898D03*
X015096Y001902D03*
X015096Y001906D03*
X015096Y001909D03*
X015355Y001874D03*
X015359Y001898D03*
X015359Y001902D03*
X015359Y001906D03*
X015363Y001913D03*
X015363Y001917D03*
X015363Y001921D03*
X015367Y001929D03*
X015367Y001933D03*
X015355Y001803D03*
X015355Y001799D03*
X015359Y001780D03*
X015359Y001776D03*
X015359Y001772D03*
X015359Y001768D03*
X015363Y001764D03*
X015363Y001760D03*
X015363Y001756D03*
X015367Y001744D03*
X015643Y002213D03*
X015922Y001929D03*
X015922Y001925D03*
X015926Y001917D03*
X015926Y001913D03*
X015926Y001909D03*
X015930Y001898D03*
X015930Y001894D03*
X015930Y001890D03*
X015930Y001783D03*
X015930Y001780D03*
X015926Y001768D03*
X015926Y001764D03*
X015926Y001760D03*
X015926Y001756D03*
X015922Y001752D03*
X015922Y001748D03*
X015918Y001736D03*
X016202Y002035D03*
X016635Y001949D03*
X016639Y001941D03*
X016639Y001937D03*
X016643Y001929D03*
X016643Y001748D03*
X016643Y001744D03*
X016639Y001740D03*
X016639Y001736D03*
X014544Y001760D03*
X014544Y001764D03*
X014544Y001768D03*
X014544Y001772D03*
X014544Y001902D03*
X014544Y001906D03*
X014544Y001909D03*
X014544Y001913D03*
X014249Y001969D03*
X014245Y001976D03*
X014241Y001984D03*
X014245Y001697D03*
X014241Y001693D03*
X013733Y001945D03*
X013737Y001957D03*
X013737Y001961D03*
X013737Y001965D03*
X013741Y001969D03*
X013741Y001972D03*
X013458Y001972D03*
X013450Y002051D03*
X013096Y001705D03*
X013103Y001626D03*
X013281Y001465D03*
X012788Y001921D03*
X012788Y001925D03*
X012788Y001929D03*
X012788Y001933D03*
X012308Y001953D03*
X012308Y001957D03*
X012304Y001941D03*
X012304Y001937D03*
X012304Y001933D03*
X012304Y001929D03*
X012304Y001925D03*
X012009Y001972D03*
X012009Y001976D03*
X012005Y001980D03*
X012005Y001693D03*
X011497Y001949D03*
X011497Y001953D03*
X011501Y001961D03*
X011501Y001965D03*
X011505Y001972D03*
X010804Y002358D03*
X010800Y002366D03*
X010800Y002370D03*
D134*
X010802Y002362D03*
X010806Y002354D03*
X010806Y002350D03*
X010661Y002531D03*
X011192Y002492D03*
X011192Y002488D03*
X011192Y002484D03*
X011192Y002480D03*
X011192Y002476D03*
X011192Y002472D03*
X011192Y002469D03*
X011192Y002465D03*
X011192Y002461D03*
X011192Y002457D03*
X011192Y002453D03*
X011192Y002449D03*
X011192Y002445D03*
X011192Y002441D03*
X011192Y002437D03*
X011192Y002433D03*
X011192Y002429D03*
X011192Y002425D03*
X011192Y002421D03*
X011192Y002417D03*
X011192Y002413D03*
X011192Y002409D03*
X011192Y002406D03*
X011192Y002402D03*
X011192Y002398D03*
X011192Y002394D03*
X011192Y002390D03*
X011192Y002386D03*
X011192Y002382D03*
X011192Y002378D03*
X011192Y002374D03*
X011192Y002370D03*
X011192Y002366D03*
X011192Y002362D03*
X011192Y002358D03*
X011192Y002354D03*
X011192Y002350D03*
X011192Y002346D03*
X011192Y002343D03*
X011192Y002339D03*
X011192Y002335D03*
X011192Y002331D03*
X011192Y002327D03*
X011192Y002323D03*
X011192Y002319D03*
X011192Y002315D03*
X011192Y002311D03*
X011192Y002307D03*
X011192Y002303D03*
X011192Y002299D03*
X011192Y002295D03*
X011192Y002291D03*
X011192Y002287D03*
X011192Y002283D03*
X011192Y002280D03*
X011192Y002276D03*
X011192Y002272D03*
X011192Y002268D03*
X011192Y002264D03*
X011192Y002260D03*
X011192Y002256D03*
X011192Y002252D03*
X011192Y002248D03*
X011192Y002244D03*
X011192Y002240D03*
X011192Y002236D03*
X011192Y002232D03*
X011192Y002228D03*
X011192Y002224D03*
X011192Y002220D03*
X011192Y002217D03*
X011192Y002213D03*
X011192Y002209D03*
X011192Y002205D03*
X011192Y002201D03*
X011192Y002197D03*
X011192Y002193D03*
X011192Y002189D03*
X011192Y002185D03*
X011192Y002181D03*
X011192Y002177D03*
X011192Y002173D03*
X011192Y002169D03*
X011192Y002165D03*
X011192Y002161D03*
X011192Y002157D03*
X011192Y002154D03*
X011192Y002150D03*
X011192Y002146D03*
X011192Y002142D03*
X011192Y002138D03*
X011192Y002134D03*
X011192Y002130D03*
X011192Y002126D03*
X011192Y002122D03*
X011192Y002118D03*
X011192Y002114D03*
X011192Y002110D03*
X011192Y002106D03*
X011192Y002102D03*
X011192Y002098D03*
X011192Y002094D03*
X011192Y002091D03*
X011192Y002087D03*
X011192Y002083D03*
X011192Y002079D03*
X011192Y002075D03*
X011192Y002071D03*
X011192Y002067D03*
X011192Y002063D03*
X011192Y002059D03*
X011192Y002055D03*
X011192Y002051D03*
X011192Y002047D03*
X011192Y002043D03*
X011192Y002039D03*
X011192Y002035D03*
X011192Y002031D03*
X011192Y002028D03*
X011192Y002024D03*
X011192Y002020D03*
X011192Y002016D03*
X011192Y002012D03*
X011192Y002008D03*
X011192Y002004D03*
X011192Y002000D03*
X011192Y001996D03*
X011192Y001992D03*
X011192Y001988D03*
X011192Y001984D03*
X011192Y001980D03*
X011192Y001976D03*
X011192Y001972D03*
X011192Y001969D03*
X011192Y001965D03*
X011192Y001961D03*
X011192Y001957D03*
X011192Y001953D03*
X011192Y001949D03*
X011192Y001945D03*
X011192Y001941D03*
X011192Y001937D03*
X011192Y001933D03*
X011192Y001929D03*
X011192Y001925D03*
X011192Y001921D03*
X011192Y001917D03*
X011192Y001913D03*
X011192Y001909D03*
X011192Y001906D03*
X011192Y001902D03*
X011192Y001898D03*
X011192Y001894D03*
X011192Y001890D03*
X011192Y001886D03*
X011192Y001882D03*
X011192Y001878D03*
X011192Y001874D03*
X011192Y001870D03*
X011192Y001866D03*
X011192Y001862D03*
X011192Y001858D03*
X011192Y001854D03*
X011192Y001850D03*
X011192Y001846D03*
X011192Y001843D03*
X011192Y001839D03*
X011192Y001835D03*
X011192Y001831D03*
X011192Y001827D03*
X011192Y001823D03*
X011192Y001819D03*
X011192Y001815D03*
X011192Y001811D03*
X011192Y001807D03*
X011192Y001803D03*
X011192Y001799D03*
X011192Y001795D03*
X011192Y001791D03*
X011192Y001787D03*
X011192Y001783D03*
X011192Y001780D03*
X011192Y001776D03*
X011192Y001772D03*
X011192Y001768D03*
X011192Y001764D03*
X011192Y001760D03*
X011192Y001756D03*
X011192Y001752D03*
X011192Y001748D03*
X011192Y001744D03*
X011192Y001740D03*
X011192Y001736D03*
X011192Y001732D03*
X011192Y001728D03*
X011192Y001724D03*
X011192Y001720D03*
X011192Y001717D03*
X011192Y001713D03*
X011192Y001709D03*
X011192Y001705D03*
X011192Y001701D03*
X011192Y001697D03*
X011192Y001693D03*
X011192Y001689D03*
X011192Y001685D03*
X011192Y001681D03*
X011192Y001677D03*
X011192Y001673D03*
X011192Y001669D03*
X011192Y001665D03*
X011192Y001661D03*
X011192Y001657D03*
X011192Y001654D03*
X011192Y001650D03*
X011192Y001646D03*
X011192Y001642D03*
X011192Y001638D03*
X011192Y001634D03*
X011192Y001630D03*
X011192Y001626D03*
X011192Y001622D03*
X011192Y001618D03*
X011192Y001614D03*
X011192Y001610D03*
X011192Y001606D03*
X011192Y001602D03*
X011192Y001598D03*
X011192Y001594D03*
X011192Y001591D03*
X011192Y001587D03*
X011192Y001583D03*
X011192Y001579D03*
X011192Y001575D03*
X011192Y001571D03*
X011192Y001567D03*
X011192Y001563D03*
X011192Y001559D03*
X011192Y001555D03*
X011192Y001551D03*
X011192Y001547D03*
X011192Y001543D03*
X011192Y001539D03*
X011192Y001535D03*
X011192Y001531D03*
X011192Y001528D03*
X011192Y001524D03*
X011192Y001520D03*
X011192Y001516D03*
X011192Y001512D03*
X011192Y001508D03*
X011192Y001504D03*
X011192Y001500D03*
X011192Y001496D03*
X011192Y001492D03*
X011192Y001488D03*
X011192Y001484D03*
X011192Y001480D03*
X011192Y001476D03*
X011192Y001472D03*
X011192Y001469D03*
X011192Y001465D03*
X011491Y001917D03*
X011491Y001921D03*
X011491Y001925D03*
X011495Y001929D03*
X011495Y001933D03*
X011495Y001937D03*
X011495Y001941D03*
X011495Y001945D03*
X011499Y001957D03*
X012011Y001969D03*
X012015Y001965D03*
X012015Y001961D03*
X012019Y001949D03*
X012302Y001921D03*
X012302Y001917D03*
X012302Y001913D03*
X012302Y001909D03*
X012302Y001906D03*
X012302Y001902D03*
X012302Y001898D03*
X012302Y001894D03*
X012302Y001890D03*
X012302Y001886D03*
X012302Y001882D03*
X012302Y001878D03*
X012302Y001874D03*
X012302Y001870D03*
X012302Y001866D03*
X012302Y001862D03*
X012302Y001858D03*
X012302Y001854D03*
X012302Y001850D03*
X012302Y001846D03*
X012302Y001843D03*
X012302Y001839D03*
X012302Y001835D03*
X012302Y001831D03*
X012302Y001827D03*
X012302Y001823D03*
X012302Y001819D03*
X012302Y001815D03*
X012302Y001811D03*
X012302Y001807D03*
X012302Y001803D03*
X012302Y001799D03*
X012302Y001795D03*
X012302Y001791D03*
X012302Y001787D03*
X012302Y001783D03*
X012302Y001780D03*
X012302Y001776D03*
X012302Y001772D03*
X012302Y001768D03*
X012302Y001764D03*
X012302Y001760D03*
X012302Y001756D03*
X012302Y001752D03*
X012302Y001748D03*
X012302Y001744D03*
X012302Y001740D03*
X012302Y001736D03*
X012302Y001732D03*
X012302Y001728D03*
X012302Y001724D03*
X012302Y001720D03*
X012302Y001717D03*
X012302Y001713D03*
X012302Y001709D03*
X012302Y001705D03*
X012302Y001701D03*
X012302Y001697D03*
X012302Y001693D03*
X012302Y001689D03*
X012302Y001685D03*
X012302Y001681D03*
X012302Y001677D03*
X012302Y001673D03*
X012302Y001669D03*
X012302Y001665D03*
X012302Y001661D03*
X012302Y001657D03*
X012302Y001654D03*
X012302Y001650D03*
X012302Y001646D03*
X012302Y001642D03*
X012302Y001638D03*
X012302Y001634D03*
X012302Y001630D03*
X012302Y001626D03*
X012302Y001622D03*
X012302Y001618D03*
X012302Y001614D03*
X012302Y001610D03*
X012302Y001606D03*
X012302Y001602D03*
X012302Y001598D03*
X012302Y001594D03*
X012302Y001591D03*
X012302Y001587D03*
X012302Y001583D03*
X012302Y001579D03*
X012302Y001575D03*
X012302Y001571D03*
X012302Y001567D03*
X012302Y001563D03*
X012302Y001559D03*
X012302Y001555D03*
X012302Y001551D03*
X012302Y001547D03*
X012302Y001543D03*
X012302Y001539D03*
X012302Y001535D03*
X012302Y001531D03*
X012302Y001528D03*
X012302Y001524D03*
X012302Y001520D03*
X012302Y001516D03*
X012302Y001512D03*
X012302Y001508D03*
X012302Y001504D03*
X012302Y001500D03*
X012302Y001496D03*
X012302Y001492D03*
X012302Y001488D03*
X012302Y001484D03*
X012302Y001480D03*
X012302Y001476D03*
X012302Y001472D03*
X012302Y001469D03*
X012302Y001465D03*
X012011Y001701D03*
X012011Y001705D03*
X012007Y001697D03*
X012790Y001898D03*
X012790Y001902D03*
X012790Y001906D03*
X012790Y001909D03*
X012790Y001913D03*
X012790Y001917D03*
X013094Y001701D03*
X013460Y001976D03*
X013731Y001941D03*
X013731Y001937D03*
X013731Y001933D03*
X013731Y001929D03*
X013731Y001925D03*
X013727Y001917D03*
X013735Y001949D03*
X013735Y001953D03*
X014247Y001972D03*
X014251Y001965D03*
X014251Y001961D03*
X014255Y001953D03*
X014251Y001709D03*
X014247Y001705D03*
X014247Y001701D03*
X014542Y001776D03*
X014542Y001780D03*
X014542Y001783D03*
X014542Y001787D03*
X014542Y001791D03*
X014542Y001882D03*
X014542Y001886D03*
X014542Y001890D03*
X014542Y001894D03*
X014542Y001898D03*
X015101Y001874D03*
X015101Y001870D03*
X015101Y001866D03*
X015101Y001862D03*
X015101Y001858D03*
X015101Y001854D03*
X015101Y001850D03*
X015101Y001846D03*
X015101Y001843D03*
X015101Y001839D03*
X015101Y001835D03*
X015101Y001831D03*
X015101Y001827D03*
X015101Y001823D03*
X015101Y001819D03*
X015101Y001815D03*
X015101Y001811D03*
X015101Y001807D03*
X015101Y001803D03*
X015101Y001799D03*
X015098Y001795D03*
X015098Y001791D03*
X015098Y001787D03*
X015098Y001783D03*
X015098Y001780D03*
X015094Y001764D03*
X015353Y001807D03*
X015353Y001811D03*
X015353Y001815D03*
X015353Y001819D03*
X015353Y001823D03*
X015353Y001827D03*
X015353Y001831D03*
X015353Y001835D03*
X015353Y001839D03*
X015353Y001843D03*
X015353Y001846D03*
X015353Y001850D03*
X015353Y001854D03*
X015353Y001858D03*
X015353Y001862D03*
X015353Y001866D03*
X015353Y001870D03*
X015357Y001878D03*
X015357Y001882D03*
X015357Y001886D03*
X015357Y001890D03*
X015357Y001894D03*
X015361Y001909D03*
X015357Y001795D03*
X015357Y001791D03*
X015357Y001787D03*
X015357Y001783D03*
X015928Y001776D03*
X015928Y001772D03*
X015932Y001787D03*
X015932Y001791D03*
X015932Y001795D03*
X015932Y001799D03*
X015932Y001803D03*
X015932Y001807D03*
X015932Y001811D03*
X015932Y001815D03*
X015936Y001823D03*
X015936Y001827D03*
X015936Y001831D03*
X015936Y001835D03*
X015936Y001839D03*
X015936Y001843D03*
X015936Y001846D03*
X015936Y001850D03*
X015932Y001862D03*
X015932Y001866D03*
X015932Y001870D03*
X015932Y001874D03*
X015932Y001878D03*
X015932Y001882D03*
X015932Y001886D03*
X015928Y001902D03*
X015928Y001906D03*
X016641Y001933D03*
X016645Y001925D03*
X016645Y001921D03*
X016645Y001917D03*
X016649Y001909D03*
X016649Y001906D03*
X016649Y001772D03*
X016649Y001768D03*
X016649Y001764D03*
X016645Y001760D03*
X016645Y001756D03*
X016645Y001752D03*
D135*
X016631Y001720D03*
X016631Y001717D03*
X016627Y001713D03*
X016631Y001957D03*
X016627Y001965D03*
X015914Y001953D03*
X015914Y001949D03*
X015911Y001957D03*
X015911Y001961D03*
X015914Y001724D03*
X015911Y001720D03*
X015911Y001717D03*
X015907Y001709D03*
X015379Y001713D03*
X015379Y001717D03*
X015375Y001720D03*
X015375Y001724D03*
X015371Y001732D03*
X015084Y001732D03*
X015080Y001724D03*
X015080Y001720D03*
X015088Y001933D03*
X015088Y001937D03*
X015088Y001941D03*
X015084Y001945D03*
X015084Y001949D03*
X015375Y001953D03*
X015375Y001957D03*
X015379Y001961D03*
X014867Y002205D03*
X014548Y001933D03*
X014548Y001929D03*
X014548Y001748D03*
X014548Y001744D03*
X014548Y001740D03*
X014237Y001685D03*
X014233Y001681D03*
X014237Y001992D03*
X014233Y001996D03*
X013753Y001996D03*
X013749Y001992D03*
X013749Y001988D03*
X013099Y001713D03*
X012785Y001949D03*
X012785Y001953D03*
X012785Y001957D03*
X012312Y001972D03*
X012312Y001976D03*
X011997Y001996D03*
X011993Y002000D03*
X011997Y001681D03*
X011745Y001465D03*
X011509Y001984D03*
X011513Y001992D03*
X010796Y002374D03*
X010666Y002528D03*
D136*
X011598Y001630D03*
X013086Y001661D03*
X013086Y001665D03*
X013086Y001669D03*
X013086Y001673D03*
X013086Y001677D03*
X013090Y001657D03*
X013090Y001654D03*
X013090Y001650D03*
X013141Y002059D03*
X013464Y002031D03*
X013464Y002028D03*
X013464Y002024D03*
X013468Y002020D03*
X013468Y002016D03*
X013468Y002012D03*
X013468Y002008D03*
X013468Y002004D03*
X013468Y002000D03*
X013468Y001996D03*
X013834Y001630D03*
X014865Y001469D03*
X016196Y002031D03*
D137*
X015883Y002004D03*
X015879Y002008D03*
X015411Y002008D03*
X015060Y001996D03*
X015056Y002000D03*
X014867Y002201D03*
X014560Y001976D03*
X014560Y001972D03*
X014560Y001701D03*
X014210Y001654D03*
X014210Y002024D03*
X013777Y002028D03*
X013773Y002024D03*
X013438Y001953D03*
X013111Y001728D03*
X013285Y001469D03*
X012773Y001992D03*
X012332Y002020D03*
X011974Y002024D03*
X011974Y001654D03*
X011745Y001469D03*
X015407Y001669D03*
X015879Y001669D03*
X016607Y001681D03*
D138*
X016594Y001669D03*
X016365Y001472D03*
X015869Y001657D03*
X015869Y002020D03*
X015420Y002020D03*
X015046Y002012D03*
X014566Y001988D03*
X014200Y002031D03*
X013786Y002035D03*
X013432Y001949D03*
X013121Y001736D03*
X012767Y002004D03*
X012475Y002193D03*
X011964Y002031D03*
X011964Y001646D03*
X010684Y002512D03*
X014200Y001646D03*
X014566Y001685D03*
X016365Y002205D03*
X016590Y002012D03*
X016594Y002008D03*
D139*
X016580Y002020D03*
X015036Y002024D03*
X015033Y002028D03*
X015029Y001650D03*
X014572Y001673D03*
X014572Y002004D03*
X014190Y002039D03*
X013285Y001472D03*
X013127Y001740D03*
X012761Y002012D03*
X010769Y002390D03*
X010690Y002504D03*
D140*
X011544Y002031D03*
X012340Y002028D03*
X012769Y002000D03*
X013115Y001732D03*
X013269Y002205D03*
X013781Y002031D03*
X014206Y001650D03*
X014564Y001689D03*
X014564Y001693D03*
X014867Y001480D03*
X015040Y001661D03*
X015044Y001665D03*
X015414Y001661D03*
X015418Y001657D03*
X015871Y002016D03*
X016222Y002039D03*
X016599Y001673D03*
X014564Y001984D03*
D141*
X014596Y002035D03*
X014867Y002181D03*
X014867Y001500D03*
X013981Y001480D03*
X013288Y001480D03*
X013155Y001760D03*
X013269Y002193D03*
X011745Y001480D03*
X010714Y002453D03*
X010714Y002457D03*
X016552Y001642D03*
D142*
X016367Y001492D03*
X016363Y002185D03*
X014867Y002169D03*
X013989Y002185D03*
X013292Y001488D03*
X011745Y001488D03*
D143*
X011934Y002047D03*
X012749Y002028D03*
X010702Y002484D03*
X014867Y002189D03*
X015017Y002039D03*
X015009Y001638D03*
X014867Y001492D03*
X015450Y002039D03*
X015840Y002039D03*
D144*
X016367Y001496D03*
X013981Y001492D03*
X013292Y001492D03*
X013989Y002181D03*
X011745Y001492D03*
D145*
X011745Y001496D03*
X012477Y002146D03*
X013348Y001898D03*
X013296Y001496D03*
X013981Y001496D03*
X013989Y002177D03*
X014871Y001528D03*
X016367Y001500D03*
D146*
X014871Y001543D03*
X013324Y001882D03*
X013225Y001807D03*
X011745Y001504D03*
D147*
X011745Y001512D03*
X013257Y001831D03*
X013261Y001835D03*
X013277Y001846D03*
X013288Y001854D03*
X013292Y001858D03*
X013300Y001512D03*
X013981Y001512D03*
X014871Y001555D03*
X016359Y002161D03*
D148*
X015643Y002181D03*
X014871Y001524D03*
X013355Y001902D03*
X013194Y001783D03*
X013265Y002177D03*
X012477Y002150D03*
D149*
X012477Y002142D03*
X013206Y001791D03*
X013265Y002173D03*
X014867Y002154D03*
X015643Y002177D03*
X014871Y001531D03*
D150*
X013981Y001543D03*
X013989Y002126D03*
X015643Y002130D03*
X016359Y002130D03*
X011745Y001543D03*
D151*
X013310Y001543D03*
X015645Y001547D03*
X016365Y001551D03*
D152*
X016359Y002126D03*
X015643Y002126D03*
X013989Y002122D03*
X013981Y001547D03*
X011753Y002122D03*
D153*
X011743Y001547D03*
X013310Y001547D03*
X015645Y001551D03*
D154*
X015645Y001555D03*
X013979Y001551D03*
X011743Y001551D03*
D155*
X013312Y001551D03*
X013989Y002114D03*
X015643Y002118D03*
X016359Y002122D03*
X016367Y001559D03*
D156*
X016367Y001555D03*
X015643Y002122D03*
X013989Y002118D03*
X011753Y002118D03*
D157*
X011751Y002114D03*
X011743Y001555D03*
X013979Y001555D03*
X015645Y001559D03*
D158*
X016367Y001563D03*
X016359Y002118D03*
X015643Y002114D03*
X013989Y002110D03*
X013312Y001555D03*
X011753Y002110D03*
D159*
X012566Y002087D03*
X012566Y002083D03*
X014767Y002126D03*
X014767Y001559D03*
X015645Y001618D03*
X015645Y002055D03*
D160*
X015645Y001563D03*
X013979Y001559D03*
X013314Y001559D03*
X011743Y001559D03*
D161*
X012564Y002075D03*
X012564Y002079D03*
X014769Y002122D03*
X014769Y001563D03*
X015643Y001622D03*
D162*
X015643Y002106D03*
X016359Y002110D03*
X016367Y001571D03*
X013981Y001563D03*
X013989Y002102D03*
X013316Y001563D03*
X011753Y002102D03*
D163*
X011743Y001563D03*
X015645Y001567D03*
D164*
X016367Y001567D03*
X016359Y002114D03*
X015643Y002110D03*
X013989Y002106D03*
X011753Y002106D03*
D165*
X012562Y002071D03*
X012562Y002067D03*
X014771Y002118D03*
X014771Y001567D03*
X015645Y001626D03*
X015645Y002051D03*
D166*
X015645Y001571D03*
X013979Y001567D03*
X013294Y001610D03*
X011743Y001567D03*
D167*
X011785Y001622D03*
X011753Y002098D03*
X013296Y001606D03*
X013296Y001602D03*
X013300Y001598D03*
X013304Y001591D03*
X013316Y001567D03*
X013989Y002098D03*
X015643Y002102D03*
X016359Y002106D03*
D168*
X015643Y002047D03*
X014773Y002114D03*
X014773Y001571D03*
X012560Y002055D03*
X012560Y002059D03*
X012560Y002063D03*
D169*
X013302Y001594D03*
X013306Y001587D03*
X013310Y001583D03*
X013310Y001579D03*
X013314Y001575D03*
X013318Y001571D03*
X013979Y001571D03*
X014003Y001598D03*
X014007Y001602D03*
X014011Y001606D03*
X014015Y001614D03*
X014019Y001618D03*
X014023Y001622D03*
X015645Y001575D03*
X016365Y001575D03*
X011783Y001618D03*
X011779Y001614D03*
X011775Y001610D03*
X011763Y001594D03*
X011743Y001571D03*
D170*
X012558Y002047D03*
X012558Y002051D03*
X014775Y002110D03*
X014775Y001575D03*
X015645Y001630D03*
D171*
X015643Y002098D03*
X016359Y002102D03*
X013989Y002094D03*
X014013Y001610D03*
X014001Y001594D03*
X013997Y001591D03*
X013993Y001587D03*
X013989Y001583D03*
X013985Y001579D03*
X013981Y001575D03*
X011773Y001606D03*
X011769Y001602D03*
X011765Y001598D03*
X011761Y001591D03*
X011757Y001587D03*
X011753Y001583D03*
X011749Y001579D03*
X011745Y001575D03*
X011753Y002094D03*
D172*
X011751Y002091D03*
X015645Y001579D03*
X016365Y001579D03*
D173*
X014777Y001579D03*
X014777Y002106D03*
D174*
X015645Y002091D03*
X015645Y001583D03*
X016365Y001583D03*
X011751Y002087D03*
D175*
X014779Y002102D03*
X014779Y001587D03*
X014779Y001583D03*
D176*
X013989Y002083D03*
X015643Y001587D03*
X016363Y001587D03*
X016359Y002094D03*
X011753Y002083D03*
D177*
X011753Y002079D03*
X013989Y002079D03*
X015643Y001591D03*
X016363Y001591D03*
X016379Y002067D03*
X016375Y002071D03*
X016363Y002087D03*
D178*
X014781Y002094D03*
X014781Y002098D03*
X014781Y001591D03*
D179*
X013989Y002075D03*
X011753Y002075D03*
X016363Y001594D03*
D180*
X015645Y001594D03*
X015645Y002083D03*
D181*
X014783Y002091D03*
X014783Y001594D03*
D182*
X013989Y002067D03*
X012580Y002122D03*
X012580Y002126D03*
X011753Y002067D03*
X015643Y002075D03*
X016363Y001598D03*
X016379Y001622D03*
X016383Y001626D03*
X016387Y001634D03*
X016391Y001638D03*
D183*
X015645Y001598D03*
X015645Y002079D03*
X013991Y002071D03*
X012582Y002130D03*
X011751Y002071D03*
D184*
X014785Y002087D03*
X014785Y001602D03*
X014785Y001598D03*
D185*
X015645Y001602D03*
X016365Y001602D03*
X016369Y001610D03*
X016373Y001614D03*
X016377Y001618D03*
X016385Y001630D03*
X012578Y002118D03*
D186*
X012576Y002114D03*
X011753Y002063D03*
X011753Y002059D03*
X013989Y002063D03*
X015643Y002071D03*
X016367Y001606D03*
D187*
X015645Y001606D03*
X015645Y002067D03*
X013991Y002059D03*
X012574Y002106D03*
X012574Y002110D03*
D188*
X014786Y002083D03*
X014786Y002079D03*
X014786Y001606D03*
D189*
X013989Y002055D03*
X012572Y002102D03*
X011753Y002055D03*
X015643Y001610D03*
D190*
X014788Y001610D03*
X014788Y001614D03*
X014788Y002075D03*
D191*
X013991Y002051D03*
X012570Y002094D03*
X012570Y002098D03*
X015645Y002063D03*
X015645Y001614D03*
D192*
X015885Y001673D03*
X015405Y001673D03*
X015401Y001677D03*
X015054Y001677D03*
X015066Y001984D03*
X015062Y001992D03*
X015405Y002004D03*
X015645Y002209D03*
X015885Y002000D03*
X016605Y001996D03*
X016609Y001992D03*
X016609Y001685D03*
X014558Y001705D03*
X014558Y001709D03*
X014558Y001969D03*
X014216Y001657D03*
X013853Y001626D03*
X013432Y002059D03*
X013121Y001614D03*
X012775Y001984D03*
X012775Y001988D03*
X012475Y002197D03*
X012330Y002016D03*
X011975Y002020D03*
X011535Y002024D03*
X011531Y002020D03*
X011617Y001626D03*
X011975Y001657D03*
X010676Y002520D03*
D193*
X014790Y002071D03*
X014790Y001618D03*
D194*
X014550Y001732D03*
X014550Y001736D03*
X014550Y001937D03*
X014550Y001941D03*
X014231Y002000D03*
X014227Y002004D03*
X014231Y001677D03*
X014227Y001673D03*
X013755Y002000D03*
X013452Y001965D03*
X013444Y002055D03*
X013101Y001717D03*
X013113Y001618D03*
X012783Y001961D03*
X012783Y001965D03*
X012475Y002201D03*
X012318Y001992D03*
X012318Y001988D03*
X012314Y001984D03*
X012314Y001980D03*
X011991Y002004D03*
X011995Y001677D03*
X011991Y001673D03*
X011519Y002000D03*
X011515Y001996D03*
X010794Y002378D03*
X015078Y001961D03*
X015082Y001953D03*
X015078Y001717D03*
X015074Y001713D03*
X015074Y001709D03*
X015381Y001709D03*
X015385Y001705D03*
X015381Y001965D03*
X015381Y001969D03*
X015385Y001972D03*
X015905Y001972D03*
X015905Y001969D03*
X015909Y001965D03*
X015909Y001713D03*
X015905Y001705D03*
X016625Y001709D03*
X016625Y001969D03*
X016621Y001972D03*
D195*
X014792Y002063D03*
X014792Y002067D03*
X014792Y001626D03*
X014792Y001622D03*
D196*
X014265Y001748D03*
X014265Y001752D03*
X014265Y001756D03*
X014261Y001736D03*
X013474Y001626D03*
X013092Y001642D03*
X013092Y001646D03*
X013088Y001681D03*
X013088Y001685D03*
X013088Y001689D03*
X013466Y001988D03*
X013466Y001992D03*
X013462Y002035D03*
X012029Y001760D03*
X012029Y001756D03*
X012029Y001752D03*
X012025Y001740D03*
X010655Y002535D03*
D197*
X014794Y002059D03*
X014794Y002055D03*
X014794Y001630D03*
D198*
X015001Y001634D03*
X015458Y001634D03*
X015462Y002043D03*
X014867Y002185D03*
X014592Y002031D03*
X013403Y001929D03*
X012474Y002177D03*
X010710Y002465D03*
X016552Y002035D03*
D199*
X015643Y002189D03*
X014611Y001634D03*
X013375Y001913D03*
X010729Y002394D03*
D200*
X011590Y001634D03*
X013483Y001634D03*
X013826Y001634D03*
D201*
X013123Y002051D03*
X011584Y001638D03*
X016182Y002020D03*
D202*
X016568Y002028D03*
X015017Y001642D03*
X014580Y001661D03*
X014580Y002016D03*
X013989Y002201D03*
X013414Y001937D03*
X012753Y002024D03*
X012474Y002185D03*
X010698Y002492D03*
D203*
X010686Y002508D03*
X011548Y002035D03*
X011753Y002205D03*
X011958Y002035D03*
X012344Y002031D03*
X012765Y002008D03*
X011958Y001642D03*
X013989Y002205D03*
X014194Y002035D03*
X014568Y001996D03*
X014568Y001992D03*
X014867Y002197D03*
X015040Y002020D03*
X015044Y002016D03*
X015426Y002024D03*
X015863Y002024D03*
X015863Y001654D03*
X015422Y001654D03*
X015036Y001657D03*
X015033Y001654D03*
X014568Y001681D03*
X016592Y001665D03*
D204*
X016172Y001677D03*
X016365Y002220D03*
X013814Y001646D03*
X011578Y001646D03*
D205*
X013111Y002043D03*
X013269Y002220D03*
X013497Y001650D03*
D206*
X011574Y001650D03*
X016172Y001681D03*
X016176Y002008D03*
D207*
X016172Y002004D03*
X016172Y001685D03*
X014865Y002220D03*
X013499Y001654D03*
D208*
X013107Y002039D03*
X011572Y001654D03*
D209*
X013505Y001661D03*
X013808Y001657D03*
X016170Y001693D03*
X016170Y001996D03*
D210*
X016170Y002000D03*
X016170Y001689D03*
X013501Y001657D03*
D211*
X013804Y001661D03*
X011568Y001661D03*
X016170Y001697D03*
D212*
X016168Y001701D03*
X016168Y001992D03*
X013507Y001665D03*
D213*
X013757Y002004D03*
X013761Y002008D03*
X013269Y002209D03*
X012781Y001969D03*
X012320Y001996D03*
X011989Y001669D03*
X011521Y002004D03*
X010788Y002382D03*
X014225Y002008D03*
X014552Y001949D03*
X014552Y001945D03*
X014552Y001728D03*
X014552Y001724D03*
X014225Y001669D03*
X015068Y001701D03*
X015072Y001705D03*
X015080Y001957D03*
X015076Y001965D03*
X015076Y001969D03*
X015387Y001976D03*
X015391Y001980D03*
X015391Y001984D03*
X015899Y001980D03*
X015903Y001976D03*
X015903Y001701D03*
X015899Y001697D03*
X015391Y001693D03*
X015387Y001697D03*
X015387Y001701D03*
X016363Y002209D03*
X016619Y001976D03*
X016623Y001705D03*
X016619Y001701D03*
D214*
X016168Y001705D03*
X016168Y001988D03*
X013507Y001669D03*
D215*
X013511Y001677D03*
X013802Y001673D03*
X013094Y002020D03*
X011566Y001673D03*
X011007Y002122D03*
X015645Y002224D03*
X016164Y001980D03*
X016168Y001713D03*
D216*
X013513Y001681D03*
X011564Y001677D03*
D217*
X011564Y001681D03*
X013088Y002012D03*
X013800Y001681D03*
X014867Y002224D03*
X016162Y001969D03*
D218*
X016162Y001965D03*
X013800Y001685D03*
X013517Y001689D03*
X011564Y001685D03*
D219*
X013267Y002224D03*
X013515Y001685D03*
X016168Y001720D03*
X016164Y001972D03*
D220*
X016162Y001961D03*
X013800Y001689D03*
X013517Y001693D03*
X013084Y002004D03*
X011564Y001689D03*
D221*
X011564Y001693D03*
X013084Y002000D03*
X013800Y001693D03*
X016166Y001736D03*
X016162Y001957D03*
D222*
X013800Y001697D03*
X013521Y001701D03*
X013080Y001996D03*
X011564Y001697D03*
D223*
X013519Y001697D03*
X016168Y001740D03*
X016161Y001953D03*
D224*
X016168Y001728D03*
D225*
X016168Y001732D03*
D226*
X013995Y001764D03*
X013995Y001768D03*
X013995Y001772D03*
X013995Y001776D03*
X013995Y001780D03*
X013995Y001783D03*
X013995Y001894D03*
X013995Y001898D03*
X013995Y001902D03*
X013995Y001906D03*
X013995Y001909D03*
X013995Y001913D03*
X011759Y001913D03*
X011759Y001909D03*
X011759Y001906D03*
X011759Y001902D03*
X011759Y001898D03*
X011759Y001894D03*
X011759Y001890D03*
X011759Y001886D03*
X011759Y001791D03*
X011759Y001787D03*
X011759Y001783D03*
X011759Y001780D03*
X011759Y001776D03*
X011759Y001772D03*
X011759Y001768D03*
X011759Y001764D03*
D227*
X011761Y001795D03*
X011761Y001799D03*
X011761Y001803D03*
X011761Y001807D03*
X011761Y001811D03*
X011761Y001815D03*
X011761Y001819D03*
X011761Y001823D03*
X011761Y001827D03*
X011761Y001831D03*
X011761Y001835D03*
X011761Y001839D03*
X011761Y001843D03*
X011761Y001846D03*
X011761Y001850D03*
X011761Y001854D03*
X011761Y001858D03*
X011761Y001862D03*
X011761Y001866D03*
X011761Y001870D03*
X011761Y001874D03*
X011761Y001878D03*
X011761Y001882D03*
X013997Y001882D03*
X013997Y001886D03*
X013997Y001890D03*
X013997Y001878D03*
X013997Y001874D03*
X013997Y001870D03*
X013997Y001866D03*
X013997Y001862D03*
X013997Y001858D03*
X013997Y001854D03*
X013997Y001850D03*
X013997Y001846D03*
X013997Y001843D03*
X013997Y001839D03*
X013997Y001835D03*
X013997Y001831D03*
X013997Y001827D03*
X013997Y001823D03*
X013997Y001819D03*
X013997Y001815D03*
X013997Y001811D03*
X013997Y001807D03*
X013997Y001803D03*
X013997Y001799D03*
X013997Y001795D03*
X013997Y001791D03*
X013997Y001787D03*
D228*
X013989Y002220D03*
X016178Y002012D03*
X011753Y002220D03*
D229*
X013101Y002031D03*
D230*
X012733Y002039D03*
X010718Y002441D03*
X010718Y002445D03*
D231*
X015645Y002087D03*
X016361Y002091D03*
X016365Y002083D03*
X016369Y002079D03*
X016373Y002075D03*
X016381Y002063D03*
X016385Y002059D03*
X016389Y002055D03*
X016389Y002051D03*
X016393Y002047D03*
X016397Y002043D03*
D232*
X014796Y002051D03*
D233*
X014765Y002130D03*
X015643Y002059D03*
X012568Y002091D03*
X011753Y002051D03*
D234*
X013131Y002055D03*
X013269Y002217D03*
X016363Y002217D03*
D235*
X016359Y002098D03*
X015643Y002094D03*
X013989Y002091D03*
X013989Y002087D03*
D236*
X013265Y002181D03*
X015643Y002185D03*
D237*
X016363Y002224D03*
X013993Y002224D03*
X011753Y002224D03*
M02*
