G75*
%MOIN*%
%OFA0B0*%
%FSLAX24Y24*%
%IPPOS*%
%LPD*%
%AMOC8*
5,1,8,0,0,1.08239X$1,22.5*
%
%ADD10C,0.0160*%
%ADD11R,0.0631X0.0552*%
%ADD12R,0.0316X0.0277*%
%ADD13R,0.0277X0.0316*%
%ADD14R,0.0500X0.0974*%
%ADD15R,0.0154X0.0229*%
%ADD16R,0.0150X0.0209*%
%ADD17R,0.1179X0.1220*%
%ADD18C,0.0180*%
%ADD19R,0.0240X0.0240*%
%ADD20R,0.0240X0.0340*%
%ADD21R,0.0277X0.0277*%
%ADD22R,0.1340X0.1340*%
%ADD23R,0.0237X0.0237*%
%ADD24R,0.0206X0.0237*%
%ADD25R,0.0237X0.0206*%
%ADD26R,0.0180X0.0170*%
%ADD27R,0.0170X0.0180*%
%ADD28R,0.0267X0.0316*%
%ADD29R,0.0316X0.0267*%
%ADD30C,0.0211*%
%ADD31C,0.0560*%
%ADD32C,0.0430*%
%ADD33R,0.0450X0.0450*%
%ADD34C,0.0000*%
%ADD35C,0.0316*%
%ADD36R,0.0789X0.0395*%
%ADD37R,0.1104X0.0198*%
%ADD38R,0.0474X0.0789*%
%ADD39R,0.0960X0.0560*%
%ADD40R,0.0946X0.1497*%
%ADD41C,0.0671*%
%ADD42R,0.0946X0.0316*%
%ADD43C,0.0260*%
%ADD44C,0.2080*%
D10*
X001085Y000791D02*
X001085Y012602D01*
X020770Y012602D01*
X020770Y000791D01*
X001085Y000791D01*
D11*
X012069Y009492D03*
X012069Y010122D03*
X012935Y010122D03*
X012935Y009492D03*
D12*
X013526Y009610D03*
X013526Y010004D03*
X011475Y009993D03*
X011475Y009600D03*
X010426Y011143D03*
X010426Y011537D03*
X006176Y011537D03*
X006176Y011143D03*
X007425Y005193D03*
X007425Y004800D03*
X008475Y004043D03*
X008475Y003650D03*
X010428Y003687D03*
X010428Y004081D03*
X011075Y004043D03*
X011475Y004043D03*
X011875Y004043D03*
X011875Y003650D03*
X011475Y003650D03*
X011075Y003650D03*
D13*
X013078Y004003D03*
X013472Y004003D03*
X013472Y004403D03*
X013078Y004403D03*
X013078Y004903D03*
X013472Y004903D03*
X013472Y005303D03*
X013078Y005303D03*
X013078Y005703D03*
X013472Y005703D03*
X013372Y007247D03*
X013372Y007597D03*
X012978Y007597D03*
X012978Y007247D03*
X012978Y007947D03*
X013372Y007947D03*
X008322Y006097D03*
X007928Y006097D03*
X007928Y005697D03*
X008322Y005697D03*
X008322Y005297D03*
X007928Y005297D03*
X008028Y004797D03*
X008422Y004797D03*
X006273Y009090D03*
X005880Y009090D03*
D14*
X011310Y006724D03*
D15*
X011634Y006352D03*
D16*
X011635Y007106D03*
D17*
X010107Y006625D03*
D18*
X009168Y006623D02*
X008988Y006623D01*
X008984Y006427D02*
X009164Y006427D01*
X009164Y006230D02*
X008984Y006230D01*
X008984Y006033D02*
X009164Y006033D01*
X009164Y005836D02*
X008984Y005836D01*
X008984Y005639D02*
X009164Y005639D01*
X009164Y005442D02*
X008984Y005442D01*
X009320Y005286D02*
X009320Y005106D01*
X009517Y005106D02*
X009517Y005286D01*
X009714Y005286D02*
X009714Y005106D01*
X009911Y005106D02*
X009911Y005286D01*
X010108Y005286D02*
X010108Y005106D01*
X010304Y005106D02*
X010304Y005286D01*
X010501Y005282D02*
X010501Y005102D01*
X010698Y005102D02*
X010698Y005282D01*
X010895Y005286D02*
X010895Y005106D01*
X011092Y005106D02*
X011092Y005286D01*
X011289Y005286D02*
X011289Y005106D01*
X011486Y005106D02*
X011486Y005286D01*
X011682Y005286D02*
X011682Y005106D01*
X011879Y005106D02*
X011879Y005286D01*
X012035Y005442D02*
X012215Y005442D01*
X012215Y005639D02*
X012035Y005639D01*
X012035Y005836D02*
X012215Y005836D01*
X012215Y006033D02*
X012035Y006033D01*
X012035Y006230D02*
X012215Y006230D01*
X012215Y006426D02*
X012035Y006426D01*
X012035Y006623D02*
X012215Y006623D01*
X012215Y006820D02*
X012035Y006820D01*
X012035Y007017D02*
X012215Y007017D01*
X012215Y007214D02*
X012035Y007214D01*
X012035Y007411D02*
X012215Y007411D01*
X012215Y007608D02*
X012035Y007608D01*
X012035Y007805D02*
X012215Y007805D01*
X012215Y008001D02*
X012035Y008001D01*
X011879Y008157D02*
X011879Y008337D01*
X011682Y008337D02*
X011682Y008157D01*
X011486Y008157D02*
X011486Y008337D01*
X011289Y008337D02*
X011289Y008157D01*
X011092Y008157D02*
X011092Y008337D01*
X010895Y008337D02*
X010895Y008157D01*
X010698Y008153D02*
X010698Y008333D01*
X010501Y008333D02*
X010501Y008153D01*
X010304Y008157D02*
X010304Y008337D01*
X010108Y008337D02*
X010108Y008157D01*
X009911Y008157D02*
X009911Y008337D01*
X009714Y008337D02*
X009714Y008157D01*
X009517Y008157D02*
X009517Y008337D01*
X009320Y008337D02*
X009320Y008157D01*
X009164Y008001D02*
X008984Y008001D01*
X008984Y007805D02*
X009164Y007805D01*
X009164Y007608D02*
X008984Y007608D01*
X008984Y007411D02*
X009164Y007411D01*
X009164Y007214D02*
X008984Y007214D01*
X008984Y007017D02*
X009164Y007017D01*
X009168Y006820D02*
X008988Y006820D01*
D19*
X010895Y006033D03*
X011289Y006033D03*
X011682Y006033D03*
X011682Y005639D03*
X011289Y005639D03*
X010895Y005639D03*
D20*
X011781Y006722D03*
D21*
X011313Y006919D03*
X010108Y006623D03*
D22*
X015413Y007209D03*
D23*
X016279Y008076D03*
X014547Y008076D03*
X014547Y006343D03*
X016279Y006343D03*
D24*
X015980Y006343D03*
X015696Y006343D03*
X015413Y006343D03*
X015129Y006343D03*
X014846Y006343D03*
X014846Y008076D03*
X015129Y008076D03*
X015413Y008076D03*
X015696Y008076D03*
X015980Y008076D03*
D25*
X016279Y007761D03*
X016279Y007493D03*
X016279Y007209D03*
X016279Y006926D03*
X016279Y006643D03*
X014547Y006643D03*
X014547Y006926D03*
X014547Y007209D03*
X014547Y007493D03*
X014547Y007776D03*
D26*
X014101Y006919D03*
X013873Y006919D03*
X013873Y006643D03*
X014101Y006643D03*
X013095Y006589D03*
X012867Y006589D03*
X012867Y006919D03*
X013095Y006919D03*
D27*
X013637Y006898D03*
X013637Y006670D03*
X014844Y005826D03*
X014844Y005598D03*
X015413Y005598D03*
X015413Y005826D03*
D28*
X016796Y005583D03*
X017146Y005583D03*
X017146Y006725D03*
X016796Y006725D03*
X016793Y007690D03*
X017143Y007690D03*
X017153Y008709D03*
X016803Y008709D03*
X016378Y008889D03*
X016028Y008889D03*
X015668Y008887D03*
X015318Y008887D03*
D29*
X015316Y009220D03*
X015316Y009570D03*
X014878Y009569D03*
X014878Y009219D03*
X014195Y009194D03*
X014195Y008844D03*
X013860Y008129D03*
X013860Y007779D03*
X014208Y007781D03*
X014208Y007431D03*
X016798Y008009D03*
X016798Y008359D03*
X016108Y009219D03*
X016108Y009569D03*
X016796Y006375D03*
X016796Y006025D03*
X015119Y005270D03*
X015119Y004920D03*
D30*
X016978Y004984D03*
D31*
X017140Y002641D03*
D32*
X016567Y011547D03*
D33*
X017086Y012066D03*
X016047Y012066D03*
X016047Y011027D03*
X017086Y011027D03*
D34*
X003316Y008980D02*
X003318Y009001D01*
X003324Y009021D01*
X003333Y009041D01*
X003345Y009058D01*
X003360Y009072D01*
X003378Y009084D01*
X003398Y009092D01*
X003418Y009097D01*
X003439Y009098D01*
X003460Y009095D01*
X003480Y009089D01*
X003499Y009078D01*
X003516Y009065D01*
X003529Y009049D01*
X003540Y009031D01*
X003548Y009011D01*
X003552Y008991D01*
X003552Y008969D01*
X003548Y008949D01*
X003540Y008929D01*
X003529Y008911D01*
X003516Y008895D01*
X003499Y008882D01*
X003480Y008871D01*
X003460Y008865D01*
X003439Y008862D01*
X003418Y008863D01*
X003398Y008868D01*
X003378Y008876D01*
X003360Y008888D01*
X003345Y008902D01*
X003333Y008919D01*
X003324Y008939D01*
X003318Y008959D01*
X003316Y008980D01*
X003316Y004413D02*
X003318Y004434D01*
X003324Y004454D01*
X003333Y004474D01*
X003345Y004491D01*
X003360Y004505D01*
X003378Y004517D01*
X003398Y004525D01*
X003418Y004530D01*
X003439Y004531D01*
X003460Y004528D01*
X003480Y004522D01*
X003499Y004511D01*
X003516Y004498D01*
X003529Y004482D01*
X003540Y004464D01*
X003548Y004444D01*
X003552Y004424D01*
X003552Y004402D01*
X003548Y004382D01*
X003540Y004362D01*
X003529Y004344D01*
X003516Y004328D01*
X003499Y004315D01*
X003480Y004304D01*
X003460Y004298D01*
X003439Y004295D01*
X003418Y004296D01*
X003398Y004301D01*
X003378Y004309D01*
X003360Y004321D01*
X003345Y004335D01*
X003333Y004352D01*
X003324Y004372D01*
X003318Y004392D01*
X003316Y004413D01*
D35*
X003434Y004413D03*
X003434Y008980D03*
D36*
X004025Y009256D03*
X004025Y004138D03*
D37*
X004930Y004827D03*
X004930Y005023D03*
X004930Y005220D03*
X004930Y005417D03*
X004930Y005614D03*
X004930Y005811D03*
X004930Y006008D03*
X004930Y006205D03*
X004930Y006401D03*
X004930Y006598D03*
X004930Y006795D03*
X004930Y006992D03*
X004930Y007189D03*
X004930Y007386D03*
X004930Y007582D03*
X004930Y007779D03*
X004930Y007976D03*
X004930Y008173D03*
X004930Y008370D03*
X004930Y008567D03*
X003119Y008567D03*
X003119Y008370D03*
X003119Y008173D03*
X003119Y007976D03*
X003119Y007779D03*
X003119Y007582D03*
X003119Y007386D03*
X003119Y007189D03*
X003119Y006992D03*
X003119Y006795D03*
X003119Y006598D03*
X003119Y006401D03*
X003119Y006205D03*
X003119Y006008D03*
X003119Y005811D03*
X003119Y005614D03*
X003119Y005417D03*
X003119Y005220D03*
X003119Y005023D03*
X003119Y004827D03*
D38*
X008983Y003847D03*
X009967Y003847D03*
D39*
X007595Y003807D03*
X007595Y002897D03*
X007595Y001987D03*
D40*
X005155Y002897D03*
D41*
X010726Y002853D03*
X014269Y004822D03*
X014269Y005806D03*
X007773Y007578D03*
X007379Y006593D03*
X005411Y009940D03*
X004426Y009940D03*
X004726Y011540D03*
X003926Y011540D03*
X005526Y011540D03*
X001876Y009540D03*
X015056Y010924D03*
D42*
X009400Y011090D03*
X009400Y011590D03*
X009400Y010590D03*
X009400Y010090D03*
X007353Y010090D03*
X007353Y010590D03*
X007353Y011090D03*
X007353Y011590D03*
D43*
X006626Y011590D03*
X006626Y011940D03*
X006626Y011090D03*
X005476Y011090D03*
X004976Y011090D03*
X004076Y011090D03*
X003844Y009616D03*
X005475Y009047D03*
X005976Y009390D03*
X007575Y008397D03*
X007825Y008597D03*
X008275Y008597D03*
X008175Y008297D03*
X008395Y007997D03*
X008275Y007697D03*
X008315Y007347D03*
X008325Y007047D03*
X008305Y006747D03*
X008225Y006397D03*
X008625Y005747D03*
X008625Y005297D03*
X009925Y004797D03*
X010025Y004497D03*
X010375Y004747D03*
X010625Y004447D03*
X010825Y004797D03*
X011275Y004447D03*
X011675Y004447D03*
X012025Y004497D03*
X011475Y004797D03*
X012575Y005747D03*
X012575Y006047D03*
X012575Y006347D03*
X011325Y006727D03*
X010475Y006627D03*
X010105Y006627D03*
X009735Y006627D03*
X010105Y006987D03*
X010105Y006257D03*
X012575Y007947D03*
X013825Y007397D03*
X014904Y007464D03*
X015160Y007464D03*
X015415Y007464D03*
X015415Y007208D03*
X015160Y007208D03*
X014904Y007208D03*
X014904Y006953D03*
X015160Y006953D03*
X015415Y006953D03*
X015671Y006953D03*
X015671Y007208D03*
X015671Y007464D03*
X015927Y007464D03*
X015927Y007208D03*
X015927Y006953D03*
X015927Y006697D03*
X015671Y006697D03*
X015415Y006697D03*
X015160Y006697D03*
X014904Y006697D03*
X015125Y006097D03*
X016495Y006102D03*
X016505Y006362D03*
X016520Y006622D03*
X017145Y006427D03*
X017155Y006152D03*
X017155Y005877D03*
X016515Y005842D03*
X016520Y005582D03*
X016550Y005322D03*
X016560Y005062D03*
X016740Y004872D03*
X016965Y004737D03*
X017220Y004682D03*
X017135Y005282D03*
X015125Y004597D03*
X013975Y003969D03*
X011478Y003350D03*
X008325Y002197D03*
X008325Y001947D03*
X008325Y001697D03*
X002325Y004197D03*
X002325Y004497D03*
X001875Y005197D03*
X002125Y005397D03*
X001875Y005597D03*
X002125Y005797D03*
X001875Y005997D03*
X002125Y006197D03*
X001875Y006397D03*
X002125Y006597D03*
X001875Y006797D03*
X002125Y006997D03*
X001875Y007197D03*
X002125Y007397D03*
X001875Y007597D03*
X002125Y007797D03*
X001875Y007997D03*
X005625Y008197D03*
X007025Y007947D03*
X007275Y008197D03*
X007025Y007597D03*
X006825Y007297D03*
X006825Y007047D03*
X006375Y006597D03*
X006625Y006347D03*
X006125Y006297D03*
X005875Y006597D03*
X008625Y008747D03*
X009025Y008847D03*
X009325Y008697D03*
X009575Y008847D03*
X009825Y008647D03*
X010025Y008897D03*
X010275Y008697D03*
X009475Y009297D03*
X010325Y009547D03*
X011289Y009209D03*
X011475Y010347D03*
X010425Y010347D03*
X013525Y009247D03*
X013825Y008647D03*
X014904Y007720D03*
X015160Y007720D03*
X015415Y007720D03*
X015671Y007720D03*
X015927Y007720D03*
X016520Y007762D03*
X016525Y008027D03*
X016500Y008287D03*
X016515Y008547D03*
X017170Y008362D03*
X017170Y008062D03*
X017220Y007402D03*
X017055Y007207D03*
X017220Y007017D03*
X016795Y007217D03*
X016530Y007217D03*
X015425Y008497D03*
X016550Y009177D03*
X016550Y009437D03*
X016550Y009697D03*
X016535Y009957D03*
X016390Y010177D03*
X016320Y010422D03*
X016320Y010682D03*
X016810Y010757D03*
X016815Y010497D03*
X016945Y010272D03*
X017040Y010037D03*
X017040Y009777D03*
X017040Y009517D03*
X017040Y009257D03*
X017040Y008997D03*
X016125Y009947D03*
X015314Y009853D03*
X016245Y011387D03*
X016220Y011647D03*
X016405Y011867D03*
X016665Y011892D03*
X016885Y011707D03*
X016915Y011447D03*
D44*
X002345Y011342D03*
X002345Y002051D03*
M02*
