%
M48
M72
T01C0.0100
T02C0.0236
T03C0.1260
%
T01
X4284Y1209
X4284Y1524
X4284Y1799
X1370Y3650
X1370Y3925
X937Y4673
X1174Y4870
X937Y5067
X1174Y5264
X937Y5461
X1174Y5657
X937Y5854
X1174Y6051
X937Y6248
X1174Y6445
X937Y6642
X1174Y6839
X937Y7035
X1174Y7232
X937Y7429
X3142Y9240
X4481Y8374
X4756Y8217
X4717Y7665
X6095Y7429
X6370Y7665
X6646Y7862
X6961Y8059
X7237Y7783
X7355Y8059
X7709Y8217
X8103Y8295
X8418Y8177
X8654Y8295
X8890Y8138
X9126Y8295
X9363Y8177
X8536Y8768
X9481Y9004
X10386Y8689
X10544Y9831
X9520Y9831
X7473Y7469
X7355Y7154
X7394Y6799
X7394Y6524
X7355Y6209
X7315Y5854
X7709Y5224
X7709Y4752
X9008Y4280
X9087Y3925
X9441Y4201
X9717Y3886
X9993Y4240
X10347Y3925
X10780Y3925
X11056Y3925
X10544Y4280
X11646Y5224
X11646Y5500
X11646Y5776
X10386Y6189
X9559Y6091
X9166Y6091
X8811Y6091
X9166Y6445
X9678Y7114
X10386Y7350
X10662Y7035
X11646Y7429
X11685Y6681
X12906Y6878
X13969Y6858
X14225Y6858
X14225Y6602
X13969Y6602
X13969Y6346
X14225Y6346
X14225Y6091
X13969Y6091
X14481Y6091
X14737Y6091
X14737Y6346
X14481Y6346
X14481Y6602
X14737Y6602
X14993Y6602
X14993Y6346
X14993Y6091
X15544Y6602
X15780Y6602
X16016Y6602
X16292Y6484
X16489Y6406
X16725Y6406
X16292Y6720
X16489Y6799
X16725Y6799
X15898Y7311
X15898Y7547
X15937Y7783
X15977Y8020
X15977Y8256
X15977Y8492
X15977Y8728
X15977Y8965
X15977Y9201
X15977Y9437
X15977Y9673
X15898Y9949
X15662Y9949
X15189Y9437
X14402Y9319
X14126Y9358
X13890Y9831
X14717Y8728
X13890Y8295
X14520Y7980
X14481Y7114
X14737Y7114
X14993Y7114
X14993Y6858
X14737Y6858
X14481Y6858
X14225Y7114
X13969Y7114
X12906Y8098
X15859Y5972
X15859Y5736
X15859Y5500
X15859Y5264
X15977Y5028
X15977Y4791
X15977Y4555
X15977Y4319
X15977Y4083
X15977Y3846
X15977Y3610
X15977Y3374
X15859Y3098
X15622Y3098
X16528Y3374
X16528Y3610
X16528Y3846
X16528Y4083
X16528Y4319
X16528Y4555
X16685Y5421
X16646Y5736
X16567Y7429
X16567Y7744
X16528Y8492
X16528Y8728
X16528Y8965
X16528Y9201
X16528Y9437
X16528Y9673
X16607Y9949
X16843Y9949
X16804Y11287
X17040Y11287
X16567Y11287
X15937Y11287
X15701Y11287
X15465Y11287
X9166Y5697
X6095Y7075
X5898Y6760
X5898Y6524
X5465Y6051
X5701Y5776
X5189Y5736
X4953Y6051
X5741Y4673
X5465Y4398
X10544Y2783
X12985Y3413
X14205Y4083
X14205Y5539
X16646Y3098
X16882Y3098
X16843Y1760
X17079Y1760
X16607Y1760
X15937Y1760
X15701Y1760
X15465Y1760
X5071Y8846
X4678Y8846
X4520Y10539
X4953Y10539
X5701Y10539
X5701Y11051
X5701Y11406
X4048Y10539
T02
X2512Y8531
X2512Y3965
T03
X3103Y1602
X3103Y10894
M30
