%
M48
M72
T01C0.0100
T02C0.0236
T03C0.1260
%
T01
X505Y618
X1505Y618
X2505Y618
X3505Y618
X4363Y1209
X4363Y1524
X4363Y1799
X4647Y618
X5647Y618
X6647Y618
X7647Y618
X8647Y618
X9647Y618
X10647Y618
X11647Y618
X12647Y618
X13647Y618
X14647Y618
X15647Y618
X16647Y618
X16686Y1760
X16922Y1760
X17159Y1760
X16017Y1760
X15781Y1760
X15544Y1760
X15702Y3098
X15938Y3098
X16056Y3374
X16056Y3610
X16056Y3846
X16056Y4083
X16056Y4319
X16056Y4555
X16056Y4791
X16056Y5028
X15938Y5264
X15938Y5500
X15938Y5736
X15938Y5972
X16568Y6406
X16371Y6484
X16096Y6602
X16371Y6720
X16568Y6799
X16804Y6799
X16804Y6406
X16725Y5736
X16765Y5421
X16607Y4555
X16607Y4319
X16607Y4083
X16607Y3846
X16607Y3610
X16607Y3374
X16725Y3098
X16962Y3098
X14285Y4083
X13064Y3413
X11135Y3925
X10859Y3925
X10426Y3925
X10623Y4280
X10072Y4240
X9796Y3886
X9521Y4201
X9166Y3925
X9088Y4280
X7788Y4752
X7788Y5224
X7395Y5854
X7434Y6209
X7474Y6524
X7474Y6799
X7434Y7154
X7552Y7469
X7316Y7783
X7434Y8059
X7788Y8217
X8182Y8295
X8497Y8177
X8733Y8295
X8970Y8138
X9206Y8295
X9442Y8177
X8615Y8768
X9560Y9004
X10466Y8689
X10938Y8492
X10741Y8295
X11725Y7429
X11804Y7075
X11765Y6681
X11725Y5776
X11725Y5224
X10466Y6189
X9639Y6091
X9245Y6091
X8891Y6091
X9245Y6445
X9245Y5697
X6450Y7665
X6725Y7862
X7040Y8059
X6174Y7429
X6174Y7075
X5977Y6760
X5977Y6524
X5544Y6051
X5781Y5776
X5269Y5736
X5033Y6051
X5820Y4673
X5544Y4398
X5663Y4156
X5072Y4516
X1450Y3925
X1450Y3650
X1017Y4673
X1253Y4870
X1017Y5067
X1253Y5264
X1017Y5461
X1253Y5657
X1017Y5854
X1253Y6051
X1017Y6248
X1253Y6445
X1017Y6642
X1253Y6839
X1017Y7035
X1253Y7232
X1017Y7429
X505Y7878
X505Y8878
X505Y9878
X505Y10878
X505Y11878
X1505Y11878
X2505Y11878
X3505Y11878
X4647Y11878
X5647Y11878
X5781Y11406
X5781Y11051
X5781Y10539
X5033Y10539
X4599Y10539
X4127Y10539
X3222Y9240
X4560Y8374
X4836Y8217
X4796Y7665
X4757Y8846
X5151Y8846
X6647Y11878
X7647Y11878
X8647Y11878
X9647Y11878
X10647Y11878
X11647Y11878
X12647Y11878
X13647Y11878
X14647Y11878
X15544Y11287
X15781Y11287
X16017Y11287
X16647Y11287
X16883Y11287
X17119Y11287
X16647Y11878
X15647Y11878
X15741Y9949
X15977Y9949
X16056Y9673
X16056Y9437
X16056Y9201
X16056Y8965
X16056Y8728
X16056Y8492
X16056Y8256
X16056Y8020
X16017Y7783
X15977Y7547
X15977Y7311
X16647Y7429
X16647Y7744
X16607Y8492
X16607Y8728
X16607Y8965
X16607Y9201
X16607Y9437
X16607Y9673
X16686Y9949
X16922Y9949
X15269Y9437
X14481Y9319
X14206Y9358
X13970Y9831
X14796Y8728
X13970Y8295
X14599Y7980
X14560Y7114
X14816Y7114
X14816Y6858
X14560Y6858
X14560Y6602
X14816Y6602
X14816Y6346
X14560Y6346
X14560Y6091
X14816Y6091
X15072Y6091
X15072Y6346
X15072Y6602
X15072Y6858
X15072Y7114
X15623Y6602
X15859Y6602
X14304Y6602
X14048Y6602
X14048Y6346
X14304Y6346
X14304Y6091
X14048Y6091
X14285Y5539
X14304Y6858
X14048Y6858
X14048Y7114
X14304Y7114
X12985Y6878
X12985Y8098
X10623Y9831
X9599Y9831
X505Y6378
X505Y2618
X505Y1618
X10623Y2783
T02
X2592Y3965
X2592Y8531
T03
X3182Y10894
X3182Y1602
M30
