G75*
%MOIN*%
%OFA0B0*%
%FSLAX24Y24*%
%IPPOS*%
%LPD*%
%AMOC8*
5,1,8,0,0,1.08239X$1,22.5*
%
%ADD10C,0.0160*%
%ADD11C,0.0110*%
%ADD12C,0.0060*%
%ADD13R,0.0133X0.0007*%
%ADD14R,0.0182X0.0007*%
%ADD15R,0.0182X0.0007*%
%ADD16R,0.0231X0.0007*%
%ADD17R,0.0266X0.0007*%
%ADD18R,0.0294X0.0007*%
%ADD19R,0.0294X0.0007*%
%ADD20R,0.0329X0.0007*%
%ADD21R,0.0343X0.0007*%
%ADD22R,0.0371X0.0007*%
%ADD23R,0.0385X0.0007*%
%ADD24R,0.0392X0.0007*%
%ADD25R,0.0406X0.0007*%
%ADD26R,0.0427X0.0007*%
%ADD27R,0.0427X0.0007*%
%ADD28R,0.0441X0.0007*%
%ADD29R,0.0455X0.0007*%
%ADD30R,0.0469X0.0007*%
%ADD31R,0.0483X0.0007*%
%ADD32R,0.0497X0.0007*%
%ADD33R,0.0490X0.0007*%
%ADD34R,0.0511X0.0007*%
%ADD35R,0.0525X0.0007*%
%ADD36R,0.0518X0.0007*%
%ADD37R,0.0525X0.0007*%
%ADD38R,0.0532X0.0007*%
%ADD39R,0.0539X0.0007*%
%ADD40R,0.0553X0.0007*%
%ADD41R,0.0560X0.0007*%
%ADD42R,0.0567X0.0007*%
%ADD43R,0.0567X0.0007*%
%ADD44R,0.0574X0.0007*%
%ADD45R,0.0574X0.0007*%
%ADD46R,0.0581X0.0007*%
%ADD47R,0.0588X0.0007*%
%ADD48R,0.0595X0.0007*%
%ADD49R,0.0609X0.0007*%
%ADD50R,0.0609X0.0007*%
%ADD51R,0.0616X0.0007*%
%ADD52R,0.0623X0.0007*%
%ADD53R,0.0616X0.0007*%
%ADD54R,0.0623X0.0007*%
%ADD55R,0.0630X0.0007*%
%ADD56R,0.0637X0.0007*%
%ADD57R,0.0637X0.0007*%
%ADD58R,0.0644X0.0007*%
%ADD59R,0.0644X0.0007*%
%ADD60R,0.0651X0.0007*%
%ADD61R,0.0644X0.0007*%
%ADD62R,0.0651X0.0007*%
%ADD63R,0.0658X0.0007*%
%ADD64R,0.0658X0.0007*%
%ADD65R,0.0644X0.0007*%
%ADD66R,0.0567X0.0007*%
%ADD67R,0.0567X0.0007*%
%ADD68R,0.0546X0.0007*%
%ADD69R,0.0336X0.0007*%
%ADD70R,0.0322X0.0007*%
%ADD71R,0.0322X0.0007*%
%ADD72R,0.0301X0.0007*%
%ADD73R,0.0259X0.0007*%
%ADD74R,0.0224X0.0007*%
%ADD75R,0.0175X0.0007*%
%ADD76R,0.0112X0.0007*%
%ADD77R,0.0112X0.0007*%
%ADD78R,0.7560X0.0007*%
%ADD79R,0.7553X0.0007*%
%ADD80R,0.7553X0.0007*%
%ADD81R,0.7546X0.0007*%
%ADD82R,0.7539X0.0007*%
%ADD83R,0.7532X0.0007*%
%ADD84R,0.7525X0.0007*%
%ADD85R,0.7518X0.0007*%
%ADD86R,0.7511X0.0007*%
%ADD87R,0.7511X0.0007*%
%ADD88R,0.7497X0.0007*%
%ADD89R,0.7497X0.0007*%
%ADD90R,0.7490X0.0007*%
%ADD91R,0.7483X0.0007*%
%ADD92R,0.7476X0.0007*%
%ADD93R,0.7469X0.0007*%
%ADD94R,0.7462X0.0007*%
%ADD95R,0.7455X0.0007*%
%ADD96R,0.7455X0.0007*%
%ADD97R,0.7448X0.0007*%
%ADD98R,0.7441X0.0007*%
%ADD99R,0.7434X0.0007*%
%ADD100R,0.7434X0.0007*%
%ADD101R,0.7427X0.0007*%
%ADD102R,0.7420X0.0007*%
%ADD103R,0.7420X0.0007*%
%ADD104R,0.7406X0.0007*%
%ADD105R,0.7406X0.0007*%
%ADD106R,0.7399X0.0007*%
%ADD107R,0.7392X0.0007*%
%ADD108R,0.7385X0.0007*%
%ADD109R,0.7378X0.0007*%
%ADD110R,0.7378X0.0007*%
%ADD111R,0.7371X0.0007*%
%ADD112R,0.7364X0.0007*%
%ADD113R,0.0266X0.0007*%
%ADD114R,0.0126X0.0007*%
%ADD115R,0.0098X0.0007*%
%ADD116R,0.0217X0.0007*%
%ADD117R,0.0210X0.0007*%
%ADD118R,0.0217X0.0007*%
%ADD119R,0.0203X0.0007*%
%ADD120R,0.0294X0.0007*%
%ADD121R,0.0273X0.0007*%
%ADD122R,0.0287X0.0007*%
%ADD123R,0.0294X0.0007*%
%ADD124R,0.0280X0.0007*%
%ADD125R,0.0273X0.0007*%
%ADD126R,0.0329X0.0007*%
%ADD127R,0.0322X0.0007*%
%ADD128R,0.0371X0.0007*%
%ADD129R,0.0364X0.0007*%
%ADD130R,0.0364X0.0007*%
%ADD131R,0.0350X0.0007*%
%ADD132R,0.0413X0.0007*%
%ADD133R,0.0420X0.0007*%
%ADD134R,0.0336X0.0007*%
%ADD135R,0.0399X0.0007*%
%ADD136R,0.0448X0.0007*%
%ADD137R,0.0427X0.0007*%
%ADD138R,0.0469X0.0007*%
%ADD139R,0.0469X0.0007*%
%ADD140R,0.0378X0.0007*%
%ADD141R,0.0448X0.0007*%
%ADD142R,0.0504X0.0007*%
%ADD143R,0.0497X0.0007*%
%ADD144R,0.0399X0.0007*%
%ADD145R,0.0497X0.0007*%
%ADD146R,0.0420X0.0007*%
%ADD147R,0.0560X0.0007*%
%ADD148R,0.0441X0.0007*%
%ADD149R,0.0539X0.0007*%
%ADD150R,0.0455X0.0007*%
%ADD151R,0.0553X0.0007*%
%ADD152R,0.0595X0.0007*%
%ADD153R,0.0581X0.0007*%
%ADD154R,0.0490X0.0007*%
%ADD155R,0.0630X0.0007*%
%ADD156R,0.0504X0.0007*%
%ADD157R,0.0609X0.0007*%
%ADD158R,0.0637X0.0007*%
%ADD159R,0.0665X0.0007*%
%ADD160R,0.0672X0.0007*%
%ADD161R,0.0672X0.0007*%
%ADD162R,0.0679X0.0007*%
%ADD163R,0.0686X0.0007*%
%ADD164R,0.0812X0.0007*%
%ADD165R,0.0665X0.0007*%
%ADD166R,0.0693X0.0007*%
%ADD167R,0.0700X0.0007*%
%ADD168R,0.0819X0.0007*%
%ADD169R,0.0686X0.0007*%
%ADD170R,0.0679X0.0007*%
%ADD171R,0.0721X0.0007*%
%ADD172R,0.0714X0.0007*%
%ADD173R,0.0826X0.0007*%
%ADD174R,0.0707X0.0007*%
%ADD175R,0.0728X0.0007*%
%ADD176R,0.0833X0.0007*%
%ADD177R,0.0714X0.0007*%
%ADD178R,0.0714X0.0007*%
%ADD179R,0.0735X0.0007*%
%ADD180R,0.0742X0.0007*%
%ADD181R,0.0833X0.0007*%
%ADD182R,0.0728X0.0007*%
%ADD183R,0.0742X0.0007*%
%ADD184R,0.0840X0.0007*%
%ADD185R,0.0749X0.0007*%
%ADD186R,0.0742X0.0007*%
%ADD187R,0.0847X0.0007*%
%ADD188R,0.0749X0.0007*%
%ADD189R,0.0756X0.0007*%
%ADD190R,0.0854X0.0007*%
%ADD191R,0.0770X0.0007*%
%ADD192R,0.0735X0.0007*%
%ADD193R,0.0861X0.0007*%
%ADD194R,0.0777X0.0007*%
%ADD195R,0.0784X0.0007*%
%ADD196R,0.0861X0.0007*%
%ADD197R,0.0791X0.0007*%
%ADD198R,0.0868X0.0007*%
%ADD199R,0.0805X0.0007*%
%ADD200R,0.0798X0.0007*%
%ADD201R,0.0875X0.0007*%
%ADD202R,0.0812X0.0007*%
%ADD203R,0.0798X0.0007*%
%ADD204R,0.0308X0.0007*%
%ADD205R,0.0882X0.0007*%
%ADD206R,0.0791X0.0007*%
%ADD207R,0.0280X0.0007*%
%ADD208R,0.0399X0.0007*%
%ADD209R,0.0245X0.0007*%
%ADD210R,0.0889X0.0007*%
%ADD211R,0.0840X0.0007*%
%ADD212R,0.0238X0.0007*%
%ADD213R,0.0364X0.0007*%
%ADD214R,0.0259X0.0007*%
%ADD215R,0.0224X0.0007*%
%ADD216R,0.0364X0.0007*%
%ADD217R,0.0406X0.0007*%
%ADD218R,0.0259X0.0007*%
%ADD219R,0.0378X0.0007*%
%ADD220R,0.0168X0.0007*%
%ADD221R,0.0252X0.0007*%
%ADD222R,0.0392X0.0007*%
%ADD223R,0.0154X0.0007*%
%ADD224R,0.0252X0.0007*%
%ADD225R,0.0161X0.0007*%
%ADD226R,0.0385X0.0007*%
%ADD227R,0.0343X0.0007*%
%ADD228R,0.0126X0.0007*%
%ADD229R,0.0140X0.0007*%
%ADD230R,0.0315X0.0007*%
%ADD231R,0.0238X0.0007*%
%ADD232R,0.0308X0.0007*%
%ADD233R,0.0119X0.0007*%
%ADD234R,0.0217X0.0007*%
%ADD235R,0.0091X0.0007*%
%ADD236R,0.0252X0.0007*%
%ADD237R,0.0112X0.0007*%
%ADD238R,0.0196X0.0007*%
%ADD239R,0.0077X0.0007*%
%ADD240R,0.0063X0.0007*%
%ADD241R,0.0070X0.0007*%
%ADD242R,0.0056X0.0007*%
%ADD243R,0.0301X0.0007*%
%ADD244R,0.0049X0.0007*%
%ADD245R,0.0287X0.0007*%
%ADD246R,0.0056X0.0007*%
%ADD247R,0.0287X0.0007*%
%ADD248R,0.0147X0.0007*%
%ADD249R,0.0035X0.0007*%
%ADD250R,0.0042X0.0007*%
%ADD251R,0.0021X0.0007*%
%ADD252R,0.0028X0.0007*%
%ADD253R,0.0119X0.0007*%
%ADD254R,0.0014X0.0007*%
%ADD255R,0.0105X0.0007*%
%ADD256R,0.0091X0.0007*%
%ADD257R,0.0287X0.0007*%
%ADD258R,0.0049X0.0007*%
%ADD259R,0.0042X0.0007*%
%ADD260R,0.0259X0.0007*%
%ADD261R,0.0021X0.0007*%
%ADD262R,0.0007X0.0007*%
%ADD263R,0.0924X0.0007*%
%ADD264R,0.0924X0.0007*%
%ADD265R,0.0476X0.0007*%
%ADD266R,0.0931X0.0007*%
%ADD267R,0.0511X0.0007*%
%ADD268R,0.0931X0.0007*%
%ADD269R,0.0546X0.0007*%
%ADD270R,0.0532X0.0007*%
%ADD271R,0.0434X0.0007*%
%ADD272R,0.0007X0.0007*%
%ADD273R,0.0329X0.0007*%
%ADD274R,0.0035X0.0007*%
%ADD275R,0.0063X0.0007*%
%ADD276R,0.0315X0.0007*%
%ADD277R,0.0322X0.0007*%
%ADD278R,0.0084X0.0007*%
%ADD279R,0.0098X0.0007*%
%ADD280R,0.0007X0.0007*%
%ADD281R,0.0119X0.0007*%
%ADD282R,0.0133X0.0007*%
%ADD283R,0.0042X0.0007*%
%ADD284R,0.0350X0.0007*%
%ADD285R,0.0147X0.0007*%
%ADD286R,0.0357X0.0007*%
%ADD287R,0.0210X0.0007*%
%ADD288R,0.0231X0.0007*%
%ADD289R,0.0399X0.0007*%
%ADD290R,0.0357X0.0007*%
%ADD291R,0.0357X0.0007*%
%ADD292R,0.0392X0.0007*%
%ADD293R,0.0147X0.0007*%
%ADD294R,0.0413X0.0007*%
%ADD295R,0.0763X0.0007*%
%ADD296R,0.0819X0.0007*%
%ADD297R,0.0847X0.0007*%
%ADD298R,0.0196X0.0007*%
%ADD299R,0.0819X0.0007*%
%ADD300R,0.0896X0.0007*%
%ADD301R,0.0770X0.0007*%
%ADD302R,0.0224X0.0007*%
%ADD303R,0.0637X0.0007*%
%ADD304R,0.0889X0.0007*%
%ADD305R,0.0784X0.0007*%
%ADD306R,0.0784X0.0007*%
%ADD307R,0.0882X0.0007*%
%ADD308R,0.0805X0.0007*%
%ADD309R,0.0875X0.0007*%
%ADD310R,0.0868X0.0007*%
%ADD311R,0.0777X0.0007*%
%ADD312R,0.0763X0.0007*%
%ADD313R,0.0812X0.0007*%
%ADD314R,0.0742X0.0007*%
%ADD315R,0.0721X0.0007*%
%ADD316R,0.0693X0.0007*%
%ADD317R,0.0700X0.0007*%
%ADD318R,0.0588X0.0007*%
%ADD319R,0.0679X0.0007*%
%ADD320R,0.0777X0.0007*%
%ADD321R,0.0602X0.0007*%
%ADD322R,0.0483X0.0007*%
%ADD323R,0.0602X0.0007*%
%ADD324R,0.0462X0.0007*%
%ADD325R,0.0518X0.0007*%
%ADD326R,0.0504X0.0007*%
%ADD327R,0.0504X0.0007*%
%ADD328R,0.0476X0.0007*%
%ADD329R,0.0469X0.0007*%
%ADD330R,0.0462X0.0007*%
%ADD331R,0.0224X0.0007*%
%ADD332R,0.0203X0.0007*%
%ADD333R,0.0182X0.0007*%
%ADD334R,0.0434X0.0007*%
%ADD335R,0.0427X0.0007*%
%ADD336R,0.0140X0.0007*%
%ADD337C,0.0000*%
%ADD338C,0.0212*%
D10*
X001085Y000791D02*
X001085Y012602D01*
X020770Y012602D01*
X020770Y000791D01*
X001085Y000791D01*
D11*
X004372Y011289D02*
X004766Y011289D01*
X004569Y011289D02*
X004569Y011880D01*
X004766Y011683D01*
X004990Y011387D02*
X004990Y011289D01*
X005088Y011289D01*
X005088Y011387D01*
X004990Y011387D01*
X005339Y011289D02*
X005733Y011289D01*
X005536Y011289D02*
X005536Y011880D01*
X005733Y011683D01*
X005984Y011683D02*
X006181Y011289D01*
X006378Y011683D01*
X006601Y011387D02*
X006601Y011289D01*
X006700Y011289D01*
X006700Y011387D01*
X006601Y011387D01*
X006951Y011387D02*
X007049Y011289D01*
X007344Y011289D01*
X007344Y011880D01*
X007049Y011880D01*
X006951Y011781D01*
X006951Y011683D01*
X007049Y011584D01*
X007344Y011584D01*
X007595Y011387D02*
X007694Y011289D01*
X007890Y011289D01*
X007989Y011387D01*
X007989Y011781D01*
X007890Y011880D01*
X007694Y011880D01*
X007595Y011781D01*
X007049Y011584D02*
X006951Y011486D01*
X006951Y011387D01*
X008240Y011584D02*
X008338Y011486D01*
X008633Y011486D01*
X008857Y011387D02*
X008857Y011289D01*
X008956Y011289D01*
X008956Y011387D01*
X008857Y011387D01*
X008633Y011289D02*
X008633Y011880D01*
X008338Y011880D01*
X008240Y011781D01*
X008240Y011584D01*
X009207Y011387D02*
X009207Y011880D01*
X009600Y011880D02*
X009600Y011387D01*
X009502Y011289D01*
X009305Y011289D01*
X009207Y011387D01*
X009851Y011584D02*
X009950Y011486D01*
X010245Y011486D01*
X009851Y011584D02*
X009851Y011781D01*
X009950Y011880D01*
X010245Y011880D01*
X010245Y011289D01*
X010496Y011387D02*
X010594Y011289D01*
X010791Y011289D01*
X010889Y011387D01*
X010889Y011781D01*
X010791Y011880D01*
X010594Y011880D01*
X010496Y011781D01*
X011140Y011781D02*
X011140Y011683D01*
X011534Y011289D01*
X011140Y011289D01*
X011785Y011289D02*
X011785Y011880D01*
X011534Y011781D02*
X011436Y011880D01*
X011239Y011880D01*
X011140Y011781D01*
X011785Y011289D02*
X011982Y011486D01*
X012178Y011289D01*
X012178Y011880D01*
X012429Y011880D02*
X012823Y011486D01*
X012725Y011584D02*
X012429Y011289D01*
X012823Y011289D02*
X012823Y011880D01*
D12*
X012793Y010782D02*
X012623Y010782D01*
X012566Y010726D01*
X012566Y010612D01*
X012623Y010555D01*
X012793Y010555D01*
X012793Y010442D02*
X012793Y010782D01*
X012680Y010555D02*
X012566Y010442D01*
X012425Y010442D02*
X012368Y010442D01*
X012368Y010499D01*
X012425Y010499D01*
X012425Y010442D01*
X012241Y010499D02*
X012184Y010442D01*
X012070Y010442D01*
X012014Y010499D01*
X012014Y010555D01*
X012070Y010612D01*
X012184Y010612D01*
X012241Y010669D01*
X012241Y010726D01*
X012184Y010782D01*
X012070Y010782D01*
X012014Y010726D01*
X011504Y010669D02*
X011391Y010782D01*
X011391Y010442D01*
X011504Y010442D02*
X011277Y010442D01*
X011136Y010442D02*
X010909Y010669D01*
X010909Y010726D01*
X010965Y010782D01*
X011079Y010782D01*
X011136Y010726D01*
X011136Y010442D02*
X010909Y010442D01*
X010767Y010442D02*
X010540Y010782D01*
X010399Y010669D02*
X010286Y010782D01*
X010286Y010442D01*
X010399Y010442D02*
X010172Y010442D01*
X010031Y010499D02*
X009974Y010442D01*
X009861Y010442D01*
X009804Y010499D01*
X009804Y010726D01*
X009861Y010782D01*
X009974Y010782D01*
X010031Y010726D01*
X010031Y010669D01*
X009974Y010612D01*
X009804Y010612D01*
X009662Y010442D02*
X009436Y010782D01*
X009294Y010669D02*
X009181Y010782D01*
X009181Y010442D01*
X009294Y010442D02*
X009067Y010442D01*
X008926Y010612D02*
X008699Y010612D01*
X008756Y010442D02*
X008756Y010782D01*
X008926Y010612D01*
X005085Y009033D02*
X004971Y009033D01*
X005028Y009033D02*
X005028Y008750D01*
X005085Y008693D01*
X005141Y008693D01*
X005198Y008750D01*
X004830Y009033D02*
X004603Y009033D01*
X004716Y009033D02*
X004716Y008693D01*
X004461Y008693D02*
X004461Y008920D01*
X004348Y009033D01*
X004235Y008920D01*
X004235Y008693D01*
X004093Y008750D02*
X004036Y008693D01*
X003923Y008693D01*
X003866Y008750D01*
X003866Y008863D01*
X003980Y008863D01*
X004093Y008750D02*
X004093Y008977D01*
X004036Y009033D01*
X003923Y009033D01*
X003866Y008977D01*
X004235Y008863D02*
X004461Y008863D01*
D13*
X005798Y002807D03*
X005140Y001687D03*
X008549Y002807D03*
X010593Y002807D03*
X011538Y001687D03*
D14*
X005137Y001694D03*
D15*
X011535Y001694D03*
D16*
X011538Y001701D03*
X009634Y002821D03*
X005140Y002317D03*
X005140Y001701D03*
D17*
X005137Y001708D03*
X004654Y002709D03*
X004654Y002723D03*
X004654Y002730D03*
X004654Y002744D03*
X004654Y002758D03*
X004654Y002765D03*
X004654Y002779D03*
X004654Y002793D03*
X004654Y002800D03*
X004654Y002814D03*
X004654Y002828D03*
X004654Y002835D03*
X004654Y002849D03*
X004654Y002863D03*
X004654Y002870D03*
X004654Y002884D03*
X004654Y002898D03*
X004654Y002905D03*
X004654Y002919D03*
X004654Y002933D03*
X004654Y002940D03*
X004654Y002954D03*
X004654Y002968D03*
X004654Y002975D03*
X004654Y002989D03*
X004654Y003003D03*
X004654Y003010D03*
X004654Y003024D03*
X004654Y003038D03*
X004654Y003045D03*
X004654Y003059D03*
X004654Y003073D03*
X004654Y003080D03*
X004654Y003094D03*
X004654Y003108D03*
X004654Y003115D03*
X004654Y003129D03*
X004654Y003143D03*
X004654Y003150D03*
X004654Y003164D03*
X004654Y003178D03*
X004654Y003185D03*
X004654Y003199D03*
X004654Y003213D03*
X004654Y003220D03*
X004654Y003234D03*
X004654Y003248D03*
X004654Y003255D03*
X004654Y003269D03*
X004654Y003283D03*
X004654Y003290D03*
X004654Y003304D03*
X004654Y003318D03*
X004654Y003325D03*
X004654Y003339D03*
X004654Y003353D03*
X004654Y003360D03*
X004654Y003374D03*
X004654Y003388D03*
X004654Y003395D03*
X004654Y003409D03*
X004654Y003423D03*
X004654Y003430D03*
X004654Y003444D03*
X004654Y003458D03*
X004654Y003465D03*
X004654Y003479D03*
X004654Y003493D03*
X004654Y003500D03*
X004654Y003514D03*
X004654Y003528D03*
X004654Y003535D03*
X004654Y003549D03*
X004654Y003563D03*
X004654Y003570D03*
X004654Y003584D03*
X004654Y003598D03*
X004654Y003605D03*
X004654Y003619D03*
X004647Y003899D03*
X005123Y003899D03*
X005123Y003885D03*
X005123Y003878D03*
X005123Y003864D03*
X005123Y003850D03*
X005123Y003843D03*
X005123Y003829D03*
X005123Y003815D03*
X005123Y003808D03*
X005123Y003794D03*
X005123Y003780D03*
X005123Y003773D03*
X005123Y003759D03*
X005123Y003745D03*
X005123Y003738D03*
X005123Y003724D03*
X005123Y003710D03*
X005123Y003703D03*
X005123Y003689D03*
X005123Y003675D03*
X005123Y003668D03*
X005123Y003654D03*
X005123Y003640D03*
X005123Y003633D03*
X005123Y003619D03*
X005123Y003605D03*
X005123Y003598D03*
X005123Y003584D03*
X005123Y003570D03*
X005123Y003563D03*
X005123Y003549D03*
X005123Y003535D03*
X005123Y003528D03*
X005123Y003514D03*
X005123Y003500D03*
X005123Y003493D03*
X005123Y003479D03*
X005123Y003465D03*
X005123Y003458D03*
X005123Y003444D03*
X005123Y003430D03*
X005123Y003423D03*
X005123Y003409D03*
X005123Y003395D03*
X005123Y003388D03*
X005123Y003374D03*
X005123Y003360D03*
X005123Y003353D03*
X005123Y003339D03*
X005123Y003325D03*
X005123Y003318D03*
X005123Y003304D03*
X005123Y003290D03*
X005123Y003283D03*
X005123Y003269D03*
X005123Y003255D03*
X005123Y003248D03*
X005123Y003234D03*
X005123Y003220D03*
X005123Y003213D03*
X005123Y003199D03*
X005123Y003185D03*
X005123Y003178D03*
X005123Y003164D03*
X005123Y003150D03*
X005123Y003143D03*
X005123Y003129D03*
X005123Y003115D03*
X005123Y003108D03*
X005123Y003094D03*
X005123Y003080D03*
X005123Y003073D03*
X005123Y003059D03*
X005123Y003045D03*
X005123Y003038D03*
X005123Y003024D03*
X005123Y003010D03*
X005123Y003003D03*
X005123Y002989D03*
X005123Y002975D03*
X005123Y002968D03*
X005123Y002954D03*
X005123Y002940D03*
X005123Y002933D03*
X005123Y002919D03*
X005123Y002905D03*
X005123Y002898D03*
X005123Y002884D03*
X005123Y002870D03*
X005123Y002863D03*
X005123Y002849D03*
X005123Y002835D03*
X005123Y002828D03*
X005494Y003395D03*
X005494Y003409D03*
X006131Y003430D03*
X006138Y003409D03*
X006145Y003395D03*
X006145Y003388D03*
X006138Y003143D03*
X006131Y003129D03*
X006124Y003115D03*
X007090Y003115D03*
X007090Y003108D03*
X007090Y003094D03*
X007090Y003080D03*
X007090Y003073D03*
X007090Y003059D03*
X007090Y003045D03*
X007090Y003038D03*
X007090Y003024D03*
X007090Y003010D03*
X007090Y003003D03*
X007090Y002989D03*
X007090Y002975D03*
X007090Y002968D03*
X007090Y002954D03*
X007090Y002940D03*
X007090Y002933D03*
X007090Y002919D03*
X007090Y002905D03*
X007090Y002898D03*
X007090Y002884D03*
X007090Y002870D03*
X007090Y002863D03*
X007090Y002849D03*
X007090Y002835D03*
X007090Y002828D03*
X007090Y003129D03*
X007090Y003143D03*
X007090Y003150D03*
X007090Y003164D03*
X007090Y003178D03*
X007090Y003185D03*
X007090Y003199D03*
X007090Y003213D03*
X007090Y003220D03*
X007090Y003234D03*
X007090Y003248D03*
X007090Y003255D03*
X007090Y003269D03*
X007090Y003283D03*
X007090Y003290D03*
X007090Y003304D03*
X007090Y003318D03*
X007090Y003325D03*
X007454Y003108D03*
X007468Y003024D03*
X007909Y003458D03*
X007902Y003535D03*
X008245Y003409D03*
X008238Y003388D03*
X008882Y003430D03*
X008889Y003409D03*
X008896Y003395D03*
X008896Y003388D03*
X008889Y003150D03*
X008889Y003143D03*
X008882Y003129D03*
X009239Y003213D03*
X009239Y003220D03*
X009239Y003234D03*
X009239Y003248D03*
X009239Y003318D03*
X009239Y003325D03*
X009239Y003339D03*
X009239Y003668D03*
X009239Y003675D03*
X009239Y003689D03*
X009239Y003703D03*
X009239Y003710D03*
X009239Y003724D03*
X009239Y003738D03*
X009239Y003745D03*
X009239Y003759D03*
X009239Y003773D03*
X009239Y003780D03*
X009239Y003794D03*
X009239Y003808D03*
X009239Y003815D03*
X009239Y003829D03*
X009239Y003843D03*
X009239Y003850D03*
X009239Y003864D03*
X009239Y003878D03*
X009239Y003885D03*
X009239Y003899D03*
X009239Y003913D03*
X009239Y003920D03*
X009239Y003934D03*
X009239Y003948D03*
X009239Y003955D03*
X009239Y003969D03*
X009239Y003983D03*
X009239Y003990D03*
X009239Y004004D03*
X009239Y004018D03*
X009239Y004025D03*
X009239Y004039D03*
X009239Y004053D03*
X009239Y004060D03*
X009239Y004074D03*
X009239Y004088D03*
X010240Y003339D03*
X010240Y003325D03*
X010240Y003318D03*
X010233Y003290D03*
X010233Y003283D03*
X010233Y003269D03*
X010240Y003255D03*
X010240Y003248D03*
X010240Y003234D03*
X010240Y003220D03*
X009925Y003234D03*
X009925Y003248D03*
X009925Y003255D03*
X009925Y003269D03*
X009925Y003283D03*
X009925Y003290D03*
X009925Y003304D03*
X009925Y003318D03*
X009925Y003325D03*
X009638Y002828D03*
X009239Y002828D03*
X009239Y002835D03*
X009239Y002849D03*
X009239Y002863D03*
X009239Y002870D03*
X009239Y002884D03*
X009239Y002898D03*
X009239Y002905D03*
X009239Y002919D03*
X010947Y003234D03*
X010947Y003325D03*
X011822Y003374D03*
X011829Y003360D03*
X011829Y003353D03*
X011829Y003339D03*
X011836Y003304D03*
X011836Y003290D03*
X011836Y003283D03*
X011836Y003269D03*
X011829Y003220D03*
X011829Y003213D03*
X011829Y003199D03*
X011822Y003185D03*
X011822Y003178D03*
X011535Y001708D03*
X007090Y003654D03*
X007090Y003668D03*
X007090Y003675D03*
X007090Y003689D03*
X007090Y003703D03*
X007090Y003710D03*
X007090Y003724D03*
X007090Y003738D03*
X007090Y003745D03*
X007090Y003759D03*
X007090Y003773D03*
X007090Y003780D03*
X007090Y003794D03*
X007090Y003808D03*
X007090Y003815D03*
X007090Y003829D03*
X007090Y003843D03*
X007090Y003850D03*
X007090Y003864D03*
X007090Y003878D03*
X007090Y003885D03*
X007090Y003899D03*
X007090Y003913D03*
X007090Y003920D03*
X007090Y003934D03*
X007090Y003948D03*
X007090Y003955D03*
X007090Y003969D03*
X007090Y003983D03*
X007090Y003990D03*
X007090Y004004D03*
X007090Y004018D03*
X007090Y004025D03*
X007090Y004039D03*
X007090Y004053D03*
X007090Y004060D03*
X007090Y004074D03*
X007090Y004088D03*
X005123Y004088D03*
X005123Y004074D03*
X005123Y004060D03*
X005123Y004053D03*
X005123Y004039D03*
X005123Y004025D03*
X005123Y004018D03*
X005123Y004004D03*
X005123Y003990D03*
X005123Y003983D03*
X005123Y003969D03*
X005123Y003955D03*
X005123Y003948D03*
X005123Y003934D03*
X005123Y003920D03*
X005123Y003913D03*
D18*
X004626Y003948D03*
X005529Y003493D03*
X005522Y003479D03*
X005809Y003738D03*
X006509Y003479D03*
X006502Y003458D03*
X006103Y003080D03*
X007076Y003430D03*
X007468Y003129D03*
X007881Y003549D03*
X007678Y003738D03*
X008273Y003479D03*
X008854Y003080D03*
X009253Y003143D03*
X009253Y003150D03*
X009253Y003423D03*
X009897Y003430D03*
X009883Y003108D03*
X009638Y002835D03*
X010282Y003458D03*
X010912Y003444D03*
X010919Y003129D03*
X010912Y003115D03*
X011269Y003045D03*
X011794Y003444D03*
X011479Y003738D03*
X005137Y001715D03*
D19*
X008280Y003493D03*
X009890Y003444D03*
X010275Y003444D03*
X010275Y003115D03*
X010905Y003108D03*
X011535Y001715D03*
D20*
X011538Y001722D03*
X010873Y003066D03*
X010320Y003507D03*
X009851Y003066D03*
X009270Y003472D03*
X005140Y001722D03*
D21*
X005140Y001729D03*
X005567Y003528D03*
X007051Y003493D03*
X008318Y003528D03*
X008801Y003528D03*
X009277Y003080D03*
X010327Y003514D03*
X011748Y003500D03*
X011538Y001729D03*
D22*
X011538Y001736D03*
X011538Y002282D03*
X011727Y003052D03*
X009291Y003507D03*
X007513Y003171D03*
X005140Y002282D03*
X005140Y001736D03*
X004517Y004081D03*
D23*
X005805Y003724D03*
X006694Y003703D03*
X008556Y003724D03*
X009298Y003514D03*
X011538Y002275D03*
X005140Y002275D03*
X005140Y001743D03*
D24*
X007524Y003178D03*
X007839Y003395D03*
X009806Y003535D03*
X011535Y001743D03*
D25*
X011535Y001750D03*
X011535Y002268D03*
X007825Y003388D03*
X005137Y002268D03*
X005137Y001750D03*
X004535Y004039D03*
D26*
X004545Y003997D03*
X005140Y002261D03*
X005140Y001757D03*
D27*
X007548Y003192D03*
X010593Y003717D03*
X011538Y002261D03*
X011538Y001757D03*
D28*
X011538Y001764D03*
X011538Y002254D03*
X010593Y002849D03*
X009326Y003535D03*
X008549Y002849D03*
X007702Y002849D03*
X007800Y003374D03*
X005140Y002254D03*
X005140Y001764D03*
D29*
X005140Y001771D03*
X005140Y002247D03*
X009333Y003031D03*
X011538Y002247D03*
X011538Y001771D03*
D30*
X011538Y001778D03*
X011538Y002240D03*
X006701Y003668D03*
X005140Y002240D03*
X005140Y001778D03*
D31*
X005140Y001785D03*
X005140Y002233D03*
X007583Y003213D03*
X010593Y003703D03*
X011482Y002863D03*
X011538Y002233D03*
X011538Y001785D03*
D32*
X005140Y001792D03*
X005140Y002226D03*
D33*
X011535Y002226D03*
X011535Y001792D03*
D34*
X011538Y001799D03*
X011538Y002219D03*
X007611Y003234D03*
X005140Y002219D03*
X005140Y001799D03*
D35*
X005140Y001806D03*
X007618Y003241D03*
X009641Y003661D03*
D36*
X009645Y002912D03*
X007755Y003346D03*
X005137Y002212D03*
X011535Y002212D03*
X011535Y001806D03*
D37*
X010593Y002870D03*
X011475Y003689D03*
X008556Y003689D03*
X007744Y003339D03*
X007709Y002870D03*
X008549Y002870D03*
X005798Y002870D03*
X005140Y002205D03*
X005140Y001813D03*
X005805Y003689D03*
D38*
X009645Y002919D03*
X011535Y002205D03*
X011535Y001813D03*
D39*
X011538Y001820D03*
X011538Y002198D03*
X010593Y003689D03*
X007625Y003248D03*
X005140Y002198D03*
X005140Y001820D03*
D40*
X005140Y001827D03*
X007709Y002877D03*
X007709Y003311D03*
X008549Y002877D03*
X010593Y002877D03*
X010593Y003682D03*
X011475Y003682D03*
X011538Y001827D03*
D41*
X011535Y001834D03*
X011535Y002184D03*
X007699Y003304D03*
X007671Y003283D03*
X005137Y002184D03*
X005137Y001834D03*
D42*
X005140Y001841D03*
X005140Y002177D03*
D43*
X011482Y002891D03*
X011538Y002177D03*
X011538Y001841D03*
D44*
X008553Y002884D03*
X007713Y002884D03*
X005137Y001848D03*
D45*
X011535Y001848D03*
D46*
X011538Y001855D03*
X011538Y002163D03*
X011475Y003675D03*
X010593Y003675D03*
X007660Y003668D03*
X005140Y002163D03*
X005140Y001855D03*
D47*
X005137Y001862D03*
X005137Y002156D03*
X004640Y003647D03*
X004640Y003661D03*
X004640Y003682D03*
X004640Y003696D03*
X004640Y003717D03*
X004640Y003731D03*
X004640Y003752D03*
X004640Y003766D03*
X004640Y003787D03*
X004640Y003801D03*
X011535Y002156D03*
X011535Y001862D03*
D48*
X011538Y001869D03*
X011538Y002149D03*
X011482Y002898D03*
X011475Y003668D03*
X010593Y003668D03*
X005140Y002149D03*
X005140Y001869D03*
D49*
X005140Y001876D03*
X005140Y002142D03*
X010593Y003661D03*
X011538Y002142D03*
X011538Y001876D03*
D50*
X011538Y001883D03*
X011538Y002128D03*
X011538Y002135D03*
X010593Y002898D03*
X008549Y002898D03*
X005140Y002135D03*
X005140Y002128D03*
X005140Y001890D03*
X005140Y001883D03*
D51*
X005802Y002898D03*
X007720Y002898D03*
X011535Y001890D03*
D52*
X011482Y002912D03*
X005140Y001897D03*
D53*
X005137Y002121D03*
X011472Y003661D03*
X011535Y002121D03*
X011535Y001897D03*
D54*
X011538Y001904D03*
X011538Y002114D03*
X010593Y002905D03*
X008556Y003654D03*
X007653Y003654D03*
X005140Y002114D03*
X005140Y001904D03*
D55*
X005137Y001911D03*
X005137Y002107D03*
X007657Y003647D03*
X011535Y002107D03*
X011535Y001911D03*
D56*
X011475Y003654D03*
X008549Y002905D03*
X007660Y003640D03*
X005140Y002100D03*
X005140Y002093D03*
X005140Y001925D03*
X005140Y001918D03*
D57*
X005798Y002905D03*
X007702Y003570D03*
X010593Y003654D03*
X011538Y002100D03*
X011538Y002093D03*
X011538Y001925D03*
X011538Y001918D03*
D58*
X007699Y003577D03*
X007692Y003591D03*
X007678Y003612D03*
X007671Y003626D03*
X005137Y002086D03*
X005137Y001932D03*
D59*
X011535Y001932D03*
X011535Y002086D03*
D60*
X011538Y002065D03*
X011538Y002058D03*
X011538Y002044D03*
X011538Y002030D03*
X011538Y002023D03*
X011538Y001995D03*
X011538Y001988D03*
X011538Y001974D03*
X011538Y001960D03*
X011538Y001953D03*
X011482Y002919D03*
X008556Y003640D03*
X005805Y003640D03*
X005140Y002065D03*
X005140Y002058D03*
X005140Y002044D03*
X005140Y002030D03*
X005140Y002023D03*
X005140Y001995D03*
X005140Y001988D03*
X005140Y001974D03*
X005140Y001960D03*
X005140Y001953D03*
X005140Y001939D03*
D61*
X007685Y003598D03*
X007685Y003605D03*
X011535Y002079D03*
X011535Y001939D03*
D62*
X011538Y001946D03*
X011538Y001967D03*
X011538Y001981D03*
X011538Y002037D03*
X011538Y002051D03*
X011538Y002072D03*
X011475Y003647D03*
X010593Y003647D03*
X008549Y002912D03*
X007723Y002912D03*
X005798Y002912D03*
X005140Y002072D03*
X005140Y002051D03*
X005140Y002037D03*
X005140Y002016D03*
X005140Y002002D03*
X005140Y001981D03*
X005140Y001967D03*
X005140Y001946D03*
D63*
X011535Y002002D03*
X011535Y002016D03*
D64*
X011535Y002009D03*
X005137Y002009D03*
D65*
X005137Y002079D03*
X007664Y003633D03*
X007678Y003619D03*
X007699Y003584D03*
X007706Y003563D03*
D66*
X007660Y003675D03*
X005805Y003675D03*
X005140Y002170D03*
D67*
X005798Y002884D03*
X007681Y003290D03*
X008556Y003675D03*
X010593Y002884D03*
X011538Y002170D03*
D68*
X011535Y002191D03*
X008560Y003682D03*
X007643Y003262D03*
X005809Y003682D03*
X005137Y002191D03*
D69*
X005137Y002289D03*
X005802Y002828D03*
X006068Y003045D03*
X008553Y002828D03*
X009274Y003479D03*
X009638Y003724D03*
X009848Y003059D03*
X010317Y003059D03*
X010856Y003514D03*
X011759Y003073D03*
X011535Y002289D03*
D70*
X011773Y003087D03*
X009862Y003486D03*
X009267Y003101D03*
X007062Y003472D03*
X005137Y002296D03*
X004493Y004116D03*
D71*
X006075Y003052D03*
X008826Y003052D03*
X010310Y003066D03*
X011535Y002296D03*
X011766Y003486D03*
D72*
X011790Y003115D03*
X011790Y003108D03*
X010901Y003458D03*
X010901Y003465D03*
X010285Y003465D03*
X010278Y003108D03*
X009886Y003115D03*
X009256Y003129D03*
X009256Y003430D03*
X008843Y003493D03*
X008556Y003738D03*
X007891Y003430D03*
X007072Y003444D03*
X006512Y003493D03*
X006092Y003493D03*
X006092Y003073D03*
X005140Y002303D03*
X004482Y004123D03*
X008843Y003073D03*
X011538Y002303D03*
D73*
X011538Y002310D03*
X010593Y003745D03*
X009634Y003738D03*
X009235Y003304D03*
X009235Y003290D03*
X009235Y003283D03*
X009235Y003269D03*
X009235Y003255D03*
X008899Y003185D03*
X008899Y003178D03*
X007905Y003528D03*
X007450Y003094D03*
X007450Y003080D03*
X006148Y003178D03*
X006148Y003185D03*
X006141Y003150D03*
X005140Y002310D03*
X004650Y003808D03*
X004650Y003815D03*
X004650Y003829D03*
X004650Y003843D03*
X004650Y003850D03*
X004650Y003864D03*
X004650Y003878D03*
X004650Y003885D03*
D74*
X011535Y002317D03*
D75*
X011538Y002324D03*
X011244Y003080D03*
X009634Y002814D03*
X007947Y003045D03*
X005140Y002324D03*
D76*
X005137Y002331D03*
D77*
X005585Y003066D03*
X008336Y003066D03*
X011535Y002331D03*
D78*
X008301Y002443D03*
D79*
X008297Y002450D03*
D80*
X008297Y002457D03*
D81*
X008294Y002464D03*
D82*
X008290Y002471D03*
D83*
X008287Y002478D03*
X008287Y002485D03*
D84*
X008283Y002492D03*
D85*
X008280Y002499D03*
D86*
X008276Y002506D03*
D87*
X008276Y002513D03*
D88*
X008269Y002520D03*
D89*
X008269Y002527D03*
D90*
X008266Y002534D03*
D91*
X008262Y002541D03*
D92*
X008259Y002548D03*
X008259Y002555D03*
D93*
X008255Y002562D03*
D94*
X008252Y002569D03*
D95*
X008248Y002576D03*
D96*
X008248Y002583D03*
D97*
X008245Y002590D03*
D98*
X008241Y002597D03*
D99*
X008238Y002604D03*
D100*
X008238Y002611D03*
D101*
X008234Y002618D03*
D102*
X008231Y002625D03*
D103*
X008231Y002632D03*
D104*
X008224Y002639D03*
D105*
X008224Y002646D03*
D106*
X008220Y002653D03*
D107*
X008217Y002660D03*
D108*
X008213Y002667D03*
D109*
X008210Y002674D03*
D110*
X008210Y002681D03*
D111*
X008206Y002688D03*
D112*
X008203Y002695D03*
D113*
X008882Y003122D03*
X008896Y003381D03*
X008889Y003402D03*
X008889Y003416D03*
X009239Y003346D03*
X009239Y003332D03*
X009239Y003311D03*
X009239Y003241D03*
X009239Y003227D03*
X009239Y002912D03*
X009239Y002891D03*
X009239Y002877D03*
X009239Y002856D03*
X009239Y002842D03*
X009239Y002821D03*
X009925Y003241D03*
X009925Y003262D03*
X009925Y003276D03*
X009925Y003297D03*
X009925Y003311D03*
X010233Y003297D03*
X010240Y003311D03*
X010240Y003332D03*
X010233Y003276D03*
X010233Y003262D03*
X010240Y003241D03*
X010240Y003227D03*
X010947Y003241D03*
X010947Y003332D03*
X011262Y003052D03*
X011829Y003206D03*
X011829Y003227D03*
X011836Y003262D03*
X011836Y003276D03*
X011836Y003297D03*
X011829Y003346D03*
X011829Y003367D03*
X011822Y003381D03*
X009239Y003661D03*
X009239Y003682D03*
X009239Y003696D03*
X009239Y003717D03*
X009239Y003731D03*
X009239Y003752D03*
X009239Y003766D03*
X009239Y003787D03*
X009239Y003801D03*
X009239Y003822D03*
X009239Y003836D03*
X009239Y003857D03*
X009239Y003871D03*
X009239Y003892D03*
X009239Y003906D03*
X009239Y003927D03*
X009239Y003941D03*
X009239Y003962D03*
X009239Y003976D03*
X009239Y003997D03*
X009239Y004011D03*
X009239Y004032D03*
X009239Y004046D03*
X009239Y004067D03*
X009239Y004081D03*
X008245Y003402D03*
X008238Y003381D03*
X007090Y003332D03*
X007090Y003311D03*
X007090Y003297D03*
X007090Y003276D03*
X007090Y003262D03*
X007090Y003241D03*
X007090Y003227D03*
X007090Y003206D03*
X007090Y003192D03*
X007090Y003171D03*
X007090Y003157D03*
X007090Y003136D03*
X007090Y003122D03*
X007090Y003101D03*
X007090Y003087D03*
X007090Y003066D03*
X007090Y003052D03*
X007090Y003031D03*
X007090Y003017D03*
X007090Y002996D03*
X007090Y002982D03*
X007090Y002961D03*
X007090Y002947D03*
X007090Y002926D03*
X007090Y002912D03*
X007090Y002891D03*
X007090Y002877D03*
X007090Y002856D03*
X007090Y002842D03*
X007090Y002821D03*
X006131Y003122D03*
X006145Y003381D03*
X006138Y003402D03*
X006138Y003416D03*
X006131Y003437D03*
X005494Y003402D03*
X005487Y003381D03*
X005123Y003381D03*
X005123Y003367D03*
X005123Y003346D03*
X005123Y003332D03*
X005123Y003311D03*
X005123Y003297D03*
X005123Y003276D03*
X005123Y003262D03*
X005123Y003241D03*
X005123Y003227D03*
X005123Y003206D03*
X005123Y003192D03*
X005123Y003171D03*
X005123Y003157D03*
X005123Y003136D03*
X005123Y003122D03*
X005123Y003101D03*
X005123Y003087D03*
X005123Y003066D03*
X005123Y003052D03*
X005123Y003031D03*
X005123Y003017D03*
X005123Y002996D03*
X005123Y002982D03*
X005123Y002961D03*
X005123Y002947D03*
X005123Y002926D03*
X005123Y002912D03*
X005123Y002891D03*
X005123Y002877D03*
X005123Y002856D03*
X005123Y002842D03*
X005123Y002821D03*
X004654Y002821D03*
X004654Y002807D03*
X004654Y002786D03*
X004654Y002772D03*
X004654Y002751D03*
X004654Y002737D03*
X004654Y002716D03*
X004654Y002702D03*
X004654Y002842D03*
X004654Y002856D03*
X004654Y002877D03*
X004654Y002891D03*
X004654Y002912D03*
X004654Y002926D03*
X004654Y002947D03*
X004654Y002961D03*
X004654Y002982D03*
X004654Y002996D03*
X004654Y003017D03*
X004654Y003031D03*
X004654Y003052D03*
X004654Y003066D03*
X004654Y003087D03*
X004654Y003101D03*
X004654Y003122D03*
X004654Y003136D03*
X004654Y003157D03*
X004654Y003171D03*
X004654Y003192D03*
X004654Y003206D03*
X004654Y003227D03*
X004654Y003241D03*
X004654Y003262D03*
X004654Y003276D03*
X004654Y003297D03*
X004654Y003311D03*
X004654Y003332D03*
X004654Y003346D03*
X004654Y003367D03*
X004654Y003381D03*
X004654Y003402D03*
X004654Y003416D03*
X004654Y003437D03*
X004654Y003451D03*
X004654Y003472D03*
X004654Y003486D03*
X004654Y003507D03*
X004654Y003521D03*
X004654Y003542D03*
X004654Y003556D03*
X004654Y003577D03*
X004654Y003591D03*
X004654Y003612D03*
X004654Y003626D03*
X004647Y003892D03*
X004647Y003906D03*
X005123Y003906D03*
X005123Y003892D03*
X005123Y003871D03*
X005123Y003857D03*
X005123Y003836D03*
X005123Y003822D03*
X005123Y003801D03*
X005123Y003787D03*
X005123Y003766D03*
X005123Y003752D03*
X005123Y003731D03*
X005123Y003717D03*
X005123Y003696D03*
X005123Y003682D03*
X005123Y003661D03*
X005123Y003647D03*
X005123Y003626D03*
X005123Y003612D03*
X005123Y003591D03*
X005123Y003577D03*
X005123Y003556D03*
X005123Y003542D03*
X005123Y003521D03*
X005123Y003507D03*
X005123Y003486D03*
X005123Y003472D03*
X005123Y003451D03*
X005123Y003437D03*
X005123Y003416D03*
X005123Y003402D03*
X005123Y003927D03*
X005123Y003941D03*
X005123Y003962D03*
X005123Y003976D03*
X005123Y003997D03*
X005123Y004011D03*
X005123Y004032D03*
X005123Y004046D03*
X005123Y004067D03*
X005123Y004081D03*
X007090Y004081D03*
X007090Y004067D03*
X007090Y004046D03*
X007090Y004032D03*
X007090Y004011D03*
X007090Y003997D03*
X007090Y003976D03*
X007090Y003962D03*
X007090Y003941D03*
X007090Y003927D03*
X007090Y003906D03*
X007090Y003892D03*
X007090Y003871D03*
X007090Y003857D03*
X007090Y003836D03*
X007090Y003822D03*
X007090Y003801D03*
X007090Y003787D03*
X007090Y003766D03*
X007090Y003752D03*
X007090Y003731D03*
X007090Y003717D03*
X007090Y003696D03*
X007090Y003682D03*
X007090Y003661D03*
D114*
X007475Y003521D03*
X007685Y002807D03*
X011241Y003101D03*
X011472Y002807D03*
D115*
X009638Y002807D03*
D116*
X010593Y002814D03*
X005798Y002814D03*
D117*
X006698Y003745D03*
X007685Y002814D03*
D118*
X008549Y002814D03*
D119*
X008353Y003038D03*
X007940Y003038D03*
X005602Y003038D03*
X011475Y002814D03*
D120*
X010912Y003122D03*
X010282Y003101D03*
X009897Y003437D03*
X009253Y003416D03*
X009253Y003136D03*
X008847Y003486D03*
X008553Y002821D03*
X007076Y003437D03*
X006103Y003486D03*
X005529Y003486D03*
X005802Y002821D03*
D121*
X006484Y002821D03*
X006484Y002842D03*
X006484Y002856D03*
X006484Y002877D03*
X006484Y002891D03*
X006484Y002912D03*
X006484Y002926D03*
X006484Y002947D03*
X006484Y002961D03*
X006484Y002982D03*
X006484Y002996D03*
X006484Y003017D03*
X006484Y003031D03*
X006484Y003052D03*
X006484Y003066D03*
X006484Y003087D03*
X006484Y003101D03*
X006484Y003122D03*
X006484Y003136D03*
X006484Y003157D03*
X006484Y003171D03*
X006484Y003192D03*
X006484Y003206D03*
X006484Y003227D03*
X006484Y003241D03*
X006484Y003262D03*
X006484Y003276D03*
X006484Y003297D03*
X006484Y003311D03*
X006484Y003332D03*
X006484Y003346D03*
X006484Y003367D03*
X006484Y003381D03*
X006491Y003402D03*
X006491Y003416D03*
X006120Y003451D03*
X005497Y003416D03*
X004643Y003927D03*
X004468Y004137D03*
X007086Y003381D03*
X007086Y003367D03*
X007086Y003346D03*
X007905Y003451D03*
X008248Y003416D03*
X008871Y003451D03*
X008878Y003437D03*
X009242Y003367D03*
X009242Y003206D03*
X009242Y003192D03*
X009914Y003192D03*
X009921Y003206D03*
X009921Y003227D03*
X009921Y003332D03*
X009921Y003346D03*
X010243Y003346D03*
X010243Y003367D03*
X010243Y003206D03*
X010250Y003171D03*
X010943Y003192D03*
X010943Y003206D03*
X010943Y003227D03*
X010950Y003262D03*
X010950Y003276D03*
X010950Y003297D03*
X010950Y003311D03*
X010943Y003346D03*
X010943Y003367D03*
X010936Y003381D03*
X010929Y003402D03*
X011279Y003521D03*
X011818Y003402D03*
X011825Y003192D03*
X011818Y003171D03*
D122*
X011797Y003122D03*
X010922Y003136D03*
X010908Y003451D03*
X010271Y003437D03*
X010271Y003122D03*
X009907Y003402D03*
X008857Y003087D03*
X007912Y003017D03*
X007688Y002821D03*
X007478Y003017D03*
X006498Y003451D03*
X006113Y003472D03*
X006106Y003087D03*
D123*
X007895Y003437D03*
X009890Y003122D03*
X010590Y002821D03*
D124*
X010926Y003157D03*
X010933Y003171D03*
X010926Y003416D03*
X010261Y003416D03*
X010254Y003402D03*
X010247Y003381D03*
X009918Y003381D03*
X009918Y003367D03*
X009911Y003171D03*
X009904Y003157D03*
X009897Y003136D03*
X010247Y003192D03*
X010254Y003157D03*
X009246Y003171D03*
X009246Y003381D03*
X008861Y003472D03*
X008868Y003101D03*
X008252Y003437D03*
X008259Y003451D03*
X007895Y003542D03*
X007461Y003122D03*
X007083Y003402D03*
X006698Y003731D03*
X006495Y003437D03*
X006117Y003101D03*
X005501Y003437D03*
X005508Y003451D03*
X005515Y003472D03*
X004633Y003941D03*
X011479Y002821D03*
X011815Y003157D03*
X011808Y003416D03*
X011801Y003437D03*
D125*
X011818Y003395D03*
X011818Y003388D03*
X011818Y003164D03*
X010950Y003248D03*
X010950Y003255D03*
X010950Y003269D03*
X010950Y003283D03*
X010950Y003290D03*
X010950Y003304D03*
X010950Y003318D03*
X010943Y003339D03*
X010943Y003353D03*
X010943Y003360D03*
X010936Y003374D03*
X010936Y003388D03*
X010943Y003220D03*
X010943Y003213D03*
X010943Y003199D03*
X010936Y003185D03*
X010936Y003178D03*
X010243Y003199D03*
X010243Y003213D03*
X010236Y003304D03*
X010243Y003353D03*
X010243Y003360D03*
X010250Y003388D03*
X010250Y003395D03*
X009921Y003353D03*
X009921Y003339D03*
X009921Y003220D03*
X009921Y003213D03*
X009914Y003185D03*
X009914Y003178D03*
X009907Y003164D03*
X009242Y003185D03*
X009242Y003199D03*
X009242Y003353D03*
X009242Y003360D03*
X009242Y003374D03*
X008885Y003423D03*
X008878Y003444D03*
X008871Y003115D03*
X008871Y003108D03*
X008241Y003395D03*
X008248Y003423D03*
X008248Y003430D03*
X007457Y003115D03*
X007086Y003339D03*
X007086Y003353D03*
X007086Y003360D03*
X007086Y003374D03*
X007086Y003388D03*
X006491Y003409D03*
X006491Y003423D03*
X006484Y003374D03*
X006484Y003360D03*
X006484Y003353D03*
X006484Y003339D03*
X006484Y003325D03*
X006484Y003318D03*
X006484Y003304D03*
X006484Y003290D03*
X006484Y003283D03*
X006484Y003269D03*
X006484Y003255D03*
X006484Y003248D03*
X006484Y003234D03*
X006484Y003220D03*
X006484Y003213D03*
X006484Y003199D03*
X006484Y003185D03*
X006484Y003178D03*
X006484Y003164D03*
X006484Y003150D03*
X006484Y003143D03*
X006484Y003129D03*
X006484Y003115D03*
X006484Y003108D03*
X006484Y003094D03*
X006484Y003080D03*
X006484Y003073D03*
X006484Y003059D03*
X006484Y003045D03*
X006484Y003038D03*
X006484Y003024D03*
X006484Y003010D03*
X006484Y003003D03*
X006484Y002989D03*
X006484Y002975D03*
X006484Y002968D03*
X006484Y002954D03*
X006484Y002940D03*
X006484Y002933D03*
X006484Y002919D03*
X006484Y002905D03*
X006484Y002898D03*
X006484Y002884D03*
X006484Y002870D03*
X006484Y002863D03*
X006484Y002849D03*
X006484Y002835D03*
X006484Y002828D03*
X006120Y003108D03*
X006134Y003423D03*
X006127Y003444D03*
X005497Y003423D03*
X005490Y003388D03*
X004643Y003913D03*
X004643Y003920D03*
D126*
X004496Y004109D03*
X007058Y003479D03*
X007898Y003010D03*
X007695Y002828D03*
X008815Y003045D03*
X009270Y003094D03*
X009270Y003465D03*
X009851Y003500D03*
X010313Y003500D03*
X010873Y003500D03*
X010866Y003059D03*
X010593Y002828D03*
X011755Y003493D03*
D127*
X011766Y003080D03*
X011479Y002828D03*
X009855Y003073D03*
X009869Y003479D03*
X008826Y003514D03*
X007489Y003150D03*
X006530Y003514D03*
X006075Y003514D03*
D128*
X005798Y002835D03*
X008549Y002835D03*
X009291Y003059D03*
X010355Y003528D03*
X010831Y003528D03*
D129*
X011731Y003514D03*
X009288Y003500D03*
X008791Y003535D03*
X007692Y002835D03*
X006698Y003710D03*
D130*
X006040Y003535D03*
X010590Y002835D03*
D131*
X010338Y003045D03*
X010849Y003045D03*
X011479Y002835D03*
X011745Y003059D03*
X009827Y003045D03*
X009638Y002849D03*
X009281Y003073D03*
X008805Y003038D03*
X009281Y003493D03*
X009841Y003514D03*
X007860Y003409D03*
X007503Y003164D03*
X006054Y003038D03*
X006054Y003528D03*
X004507Y004095D03*
D132*
X005805Y003717D03*
X005798Y002842D03*
X008549Y002842D03*
X008556Y003717D03*
X010593Y002842D03*
X011475Y003717D03*
D133*
X007699Y002842D03*
X004542Y004011D03*
D134*
X005557Y003521D03*
X006061Y003521D03*
X006698Y003717D03*
X007055Y003486D03*
X007496Y003157D03*
X007867Y003416D03*
X008308Y003521D03*
X008812Y003521D03*
X009274Y003087D03*
X009638Y002842D03*
X009848Y003507D03*
X010863Y003507D03*
X011752Y003066D03*
D135*
X011482Y002842D03*
D136*
X009638Y003689D03*
X007671Y003710D03*
X007559Y003199D03*
X005802Y002849D03*
X005809Y003710D03*
D137*
X011482Y002849D03*
D138*
X010593Y002856D03*
X009641Y002891D03*
X009641Y003682D03*
X008549Y002856D03*
X007786Y003367D03*
X005798Y002856D03*
D139*
X007702Y002856D03*
D140*
X007846Y003402D03*
X009638Y002856D03*
X004521Y004067D03*
D141*
X011479Y002856D03*
D142*
X009638Y003668D03*
X007706Y002863D03*
X006698Y003654D03*
X005802Y002863D03*
D143*
X007590Y003220D03*
X007765Y003353D03*
X008549Y002863D03*
D144*
X008773Y003024D03*
X009305Y003045D03*
X009641Y002863D03*
X010593Y003724D03*
X007534Y003185D03*
D145*
X010593Y002863D03*
X011482Y002870D03*
D146*
X010807Y003535D03*
X010380Y003535D03*
X009638Y002870D03*
X009316Y003038D03*
X007013Y003528D03*
X006698Y003689D03*
D147*
X007664Y003276D03*
X007692Y003297D03*
X005802Y002877D03*
D148*
X004552Y003962D03*
X009641Y002877D03*
D149*
X011482Y002877D03*
X007667Y003682D03*
D150*
X008556Y003710D03*
X009641Y002884D03*
X011475Y003710D03*
D151*
X011482Y002884D03*
X007716Y003318D03*
X007653Y003269D03*
D152*
X007716Y002891D03*
X008549Y002891D03*
X005798Y002891D03*
D153*
X010593Y002891D03*
D154*
X009638Y002898D03*
X009638Y003675D03*
X007776Y003360D03*
D155*
X007720Y002905D03*
X005809Y003654D03*
D156*
X009645Y002905D03*
D157*
X011482Y002905D03*
D158*
X010593Y002912D03*
X008556Y003647D03*
D159*
X010593Y003640D03*
X011468Y003640D03*
X010593Y002919D03*
X005798Y002919D03*
D160*
X007727Y002919D03*
D161*
X008546Y002919D03*
X008560Y003633D03*
X005809Y003633D03*
D162*
X005798Y002926D03*
X008549Y002926D03*
X010593Y002926D03*
D163*
X008560Y003626D03*
X007727Y002926D03*
X005809Y003626D03*
D164*
X009512Y003647D03*
X009512Y002926D03*
D165*
X011482Y002926D03*
D166*
X008549Y002933D03*
X005798Y002933D03*
D167*
X005809Y003619D03*
X007727Y002933D03*
X008560Y003619D03*
X011479Y002940D03*
D168*
X010593Y003010D03*
X009515Y002933D03*
X009515Y003640D03*
X006813Y003598D03*
D169*
X010590Y002933D03*
X011472Y003633D03*
D170*
X011482Y002933D03*
D171*
X008556Y003605D03*
X007702Y003003D03*
X007730Y002940D03*
X005798Y002940D03*
D172*
X008546Y002940D03*
X011472Y003619D03*
D173*
X010597Y003549D03*
X009519Y003633D03*
X009519Y002940D03*
X006810Y003584D03*
D174*
X010593Y003619D03*
X010593Y002940D03*
D175*
X011472Y003612D03*
X008546Y002947D03*
X007734Y002947D03*
X007706Y002996D03*
X005795Y002947D03*
D176*
X006806Y003577D03*
X009522Y003626D03*
X009522Y002947D03*
X010593Y003017D03*
X010593Y003542D03*
D177*
X010590Y002947D03*
X008560Y003612D03*
D178*
X005809Y003612D03*
X011479Y002947D03*
D179*
X010593Y003605D03*
X008591Y003003D03*
X008577Y002989D03*
X007730Y002954D03*
X007723Y002968D03*
X007716Y002975D03*
X007709Y002989D03*
X005840Y003003D03*
X005798Y002954D03*
D180*
X005809Y002968D03*
X005816Y002975D03*
X005830Y002989D03*
X005844Y003010D03*
X005809Y003598D03*
X008560Y003598D03*
X008560Y002968D03*
X008546Y002954D03*
D181*
X009522Y002954D03*
X006806Y003563D03*
X006806Y003570D03*
D182*
X005809Y003605D03*
X008595Y003010D03*
X010590Y002954D03*
X011479Y002954D03*
D183*
X008553Y002961D03*
X007727Y002961D03*
X005823Y002982D03*
X005802Y002961D03*
D184*
X006803Y003556D03*
X009526Y002961D03*
D185*
X010593Y002961D03*
X008556Y003591D03*
D186*
X008581Y002996D03*
X008574Y002982D03*
X005830Y002996D03*
X005809Y003591D03*
X011479Y002961D03*
D187*
X009529Y002968D03*
X009529Y003605D03*
X006799Y003535D03*
D188*
X008563Y002975D03*
X010593Y002968D03*
X010593Y003598D03*
D189*
X011472Y003598D03*
X011479Y002968D03*
X008560Y003584D03*
X005809Y003584D03*
D190*
X009533Y003598D03*
X009533Y002975D03*
D191*
X010590Y002975D03*
X011479Y002975D03*
X011507Y003549D03*
X011493Y003570D03*
X011479Y003584D03*
D192*
X008598Y003017D03*
X007716Y002982D03*
X005847Y003017D03*
D193*
X009536Y002982D03*
X009536Y003591D03*
D194*
X010593Y002982D03*
D195*
X011479Y002982D03*
X011507Y003031D03*
D196*
X009536Y002989D03*
D197*
X010593Y002989D03*
X010593Y003570D03*
X011475Y002989D03*
X011489Y003010D03*
X011503Y003024D03*
X011510Y003038D03*
X006827Y003633D03*
D198*
X009540Y002996D03*
D199*
X010593Y002996D03*
X006820Y003612D03*
D200*
X006824Y003626D03*
X005809Y003556D03*
X008560Y003556D03*
X011479Y002996D03*
D201*
X009543Y003003D03*
X009543Y003010D03*
X009543Y003570D03*
D202*
X008560Y003549D03*
X010590Y003003D03*
X005809Y003549D03*
D203*
X011486Y003003D03*
D204*
X010898Y003094D03*
X010289Y003094D03*
X009876Y003094D03*
X009883Y003458D03*
X010296Y003479D03*
X009260Y003444D03*
X008287Y003500D03*
X007489Y003010D03*
X007069Y003458D03*
X006698Y003724D03*
X006523Y003500D03*
X006089Y003500D03*
X005536Y003500D03*
X006082Y003059D03*
X011780Y003465D03*
X011787Y003458D03*
D205*
X009547Y003017D03*
D206*
X010593Y003577D03*
X011496Y003017D03*
D207*
X011808Y003143D03*
X011815Y003150D03*
X011815Y003409D03*
X011808Y003423D03*
X010933Y003395D03*
X010926Y003409D03*
X010933Y003164D03*
X010926Y003150D03*
X010926Y003143D03*
X010261Y003143D03*
X010261Y003150D03*
X010254Y003164D03*
X010247Y003178D03*
X010247Y003185D03*
X009918Y003199D03*
X009918Y003360D03*
X009918Y003374D03*
X009911Y003388D03*
X009911Y003395D03*
X010247Y003374D03*
X010261Y003409D03*
X009246Y003395D03*
X009246Y003388D03*
X009246Y003178D03*
X008868Y003458D03*
X008259Y003458D03*
X008252Y003444D03*
X007902Y003444D03*
X008378Y003024D03*
X007083Y003395D03*
X007083Y003409D03*
X006495Y003430D03*
X006495Y003444D03*
X006488Y003395D03*
X006488Y003388D03*
X006117Y003458D03*
X006117Y003465D03*
X005501Y003444D03*
X005501Y003430D03*
X005627Y003024D03*
X004640Y003934D03*
D208*
X006022Y003024D03*
D209*
X007674Y003745D03*
X007926Y003024D03*
D210*
X009550Y003024D03*
X009550Y003549D03*
D211*
X009526Y003619D03*
X010590Y003024D03*
X006803Y003549D03*
D212*
X005613Y003031D03*
X008364Y003031D03*
D213*
X006040Y003031D03*
D214*
X006134Y003136D03*
X006141Y003157D03*
X006148Y003171D03*
X007450Y003101D03*
X007450Y003087D03*
X007464Y003031D03*
X008885Y003136D03*
X008899Y003171D03*
X009235Y003262D03*
X009235Y003276D03*
X009235Y003297D03*
X004650Y003822D03*
X004650Y003836D03*
X004650Y003857D03*
X004650Y003871D03*
D215*
X007937Y003031D03*
D216*
X008791Y003031D03*
X009288Y003066D03*
X009827Y003521D03*
X009638Y003717D03*
X007041Y003507D03*
D217*
X006698Y003696D03*
X007671Y003717D03*
X009792Y003031D03*
X010373Y003031D03*
X010814Y003031D03*
X004535Y004032D03*
D218*
X007457Y003038D03*
X007912Y003465D03*
X008892Y003164D03*
X011832Y003234D03*
X011832Y003248D03*
X011832Y003255D03*
X011832Y003318D03*
X011832Y003325D03*
D219*
X011479Y003724D03*
X010835Y003038D03*
X010352Y003038D03*
X009813Y003038D03*
X009820Y003528D03*
X007671Y003724D03*
X007034Y003514D03*
X004521Y004074D03*
D220*
X005592Y003045D03*
X007482Y003535D03*
X008343Y003045D03*
X011248Y003493D03*
D221*
X011479Y003745D03*
X008560Y003745D03*
X007916Y003514D03*
X007916Y003500D03*
X007916Y003493D03*
X007916Y003479D03*
X007454Y003059D03*
X007454Y003045D03*
X006145Y003164D03*
X005809Y003745D03*
D222*
X004528Y004053D03*
X004528Y004060D03*
X009638Y003710D03*
X011717Y003045D03*
D223*
X008343Y003052D03*
X005592Y003052D03*
D224*
X007454Y003052D03*
X007454Y003066D03*
X007916Y003472D03*
X007916Y003486D03*
X007916Y003507D03*
D225*
X007954Y003052D03*
X006701Y003752D03*
X011244Y003087D03*
D226*
X009298Y003052D03*
D227*
X009837Y003052D03*
X010327Y003052D03*
X010859Y003052D03*
X006540Y003521D03*
X004503Y004102D03*
D228*
X005585Y003059D03*
X008336Y003059D03*
D229*
X007958Y003059D03*
D230*
X007478Y003143D03*
X007065Y003465D03*
X008297Y003514D03*
X008836Y003500D03*
X009263Y003115D03*
X009263Y003108D03*
X008836Y003059D03*
X009865Y003080D03*
X009879Y003465D03*
X010306Y003493D03*
X010593Y003738D03*
X010880Y003493D03*
X010887Y003479D03*
X010887Y003080D03*
X010880Y003073D03*
X010306Y003073D03*
X010299Y003080D03*
X011776Y003094D03*
X011769Y003479D03*
X005546Y003514D03*
X004615Y003955D03*
D231*
X004451Y004144D03*
X006698Y003738D03*
X011255Y003059D03*
D232*
X010891Y003087D03*
X010884Y003486D03*
X010303Y003486D03*
X010289Y003472D03*
X009876Y003472D03*
X009638Y003731D03*
X009869Y003087D03*
X009260Y003122D03*
X008840Y003066D03*
X006089Y003066D03*
X011787Y003101D03*
D233*
X007961Y003066D03*
D234*
X011251Y003066D03*
D235*
X008332Y003073D03*
X007968Y003080D03*
X005581Y003073D03*
D236*
X007447Y003073D03*
D237*
X007965Y003073D03*
D238*
X011248Y003073D03*
X011255Y003500D03*
D239*
X011237Y003129D03*
X008332Y003080D03*
X007457Y003500D03*
X005581Y003080D03*
D240*
X005581Y003087D03*
X011237Y003136D03*
D241*
X011234Y003451D03*
X007972Y003087D03*
D242*
X008329Y003087D03*
D243*
X008276Y003486D03*
X007471Y003136D03*
X007072Y003451D03*
X006512Y003486D03*
X009256Y003437D03*
X009886Y003451D03*
X009879Y003101D03*
X010292Y003087D03*
X010278Y003451D03*
X010894Y003472D03*
X010901Y003101D03*
X011790Y003451D03*
D244*
X008325Y003094D03*
X007450Y003493D03*
X005574Y003094D03*
D245*
X005511Y003458D03*
X005511Y003465D03*
X006106Y003479D03*
X006113Y003094D03*
X008262Y003465D03*
X008857Y003479D03*
X009907Y003409D03*
X009893Y003129D03*
X010271Y003129D03*
X010922Y003423D03*
X010922Y003430D03*
D246*
X007972Y003094D03*
D247*
X008864Y003094D03*
X008864Y003465D03*
X009249Y003409D03*
X009249Y003164D03*
X009900Y003150D03*
X009900Y003143D03*
X009900Y003423D03*
X010264Y003423D03*
X010264Y003430D03*
X011804Y003430D03*
X011804Y003129D03*
X007079Y003423D03*
X006505Y003465D03*
X004475Y004130D03*
D248*
X011244Y003094D03*
D249*
X008325Y003101D03*
X005574Y003101D03*
D250*
X007979Y003101D03*
X011234Y003437D03*
D251*
X011230Y003423D03*
X008325Y003108D03*
X005574Y003108D03*
D252*
X004346Y003955D03*
X007447Y003479D03*
X007979Y003108D03*
D253*
X011237Y003108D03*
D254*
X007979Y003115D03*
D255*
X007464Y003514D03*
X011237Y003115D03*
D256*
X011237Y003122D03*
X007457Y003507D03*
D257*
X007079Y003416D03*
X006505Y003472D03*
X008269Y003472D03*
X009249Y003402D03*
X009249Y003157D03*
X009900Y003416D03*
X010264Y003136D03*
X010915Y003437D03*
X011804Y003136D03*
D258*
X011237Y003143D03*
D259*
X011234Y003150D03*
D260*
X011832Y003241D03*
X011832Y003311D03*
X011832Y003332D03*
X008892Y003157D03*
X007912Y003521D03*
D261*
X011237Y003157D03*
D262*
X011237Y003164D03*
D263*
X008567Y003192D03*
X008567Y003206D03*
X008567Y003227D03*
X008567Y003332D03*
X008567Y003346D03*
X008567Y003367D03*
X005816Y003367D03*
X005816Y003346D03*
X005816Y003206D03*
X005816Y003192D03*
D264*
X005816Y003199D03*
X005816Y003213D03*
X005816Y003220D03*
X005816Y003353D03*
X005816Y003360D03*
X005816Y003374D03*
X008567Y003374D03*
X008567Y003360D03*
X008567Y003353D03*
X008567Y003339D03*
X008567Y003234D03*
X008567Y003220D03*
X008567Y003213D03*
X008567Y003199D03*
D265*
X007573Y003206D03*
D266*
X008570Y003241D03*
X008570Y003262D03*
X008570Y003276D03*
X008570Y003297D03*
X008570Y003311D03*
X005819Y003311D03*
X005819Y003297D03*
X005819Y003276D03*
X005819Y003262D03*
X005819Y003241D03*
X005819Y003227D03*
X005819Y003332D03*
D267*
X005805Y003696D03*
X007604Y003227D03*
X010593Y003696D03*
X011475Y003696D03*
D268*
X008570Y003325D03*
X008570Y003318D03*
X008570Y003304D03*
X008570Y003290D03*
X008570Y003283D03*
X008570Y003269D03*
X008570Y003255D03*
X008570Y003248D03*
X005819Y003248D03*
X005819Y003255D03*
X005819Y003269D03*
X005819Y003283D03*
X005819Y003290D03*
X005819Y003304D03*
X005819Y003318D03*
X005819Y003325D03*
X005819Y003339D03*
X005819Y003234D03*
D269*
X007636Y003255D03*
X007727Y003325D03*
D270*
X007734Y003332D03*
D271*
X007811Y003381D03*
X006698Y003682D03*
X004549Y003976D03*
X009638Y003696D03*
D272*
X011230Y003416D03*
D273*
X007877Y003423D03*
D274*
X011230Y003430D03*
D275*
X011230Y003444D03*
D276*
X011776Y003472D03*
X009263Y003451D03*
X008829Y003507D03*
X008290Y003507D03*
X006526Y003507D03*
X006078Y003507D03*
X005539Y003507D03*
D277*
X009267Y003458D03*
X009862Y003493D03*
D278*
X011234Y003458D03*
D279*
X011234Y003465D03*
D280*
X007443Y003472D03*
D281*
X011237Y003472D03*
D282*
X011244Y003479D03*
D283*
X007447Y003486D03*
D284*
X007671Y003731D03*
X008560Y003731D03*
X009281Y003486D03*
X011479Y003731D03*
X011738Y003507D03*
X005809Y003731D03*
D285*
X011244Y003486D03*
D286*
X008325Y003535D03*
X007044Y003500D03*
X006554Y003528D03*
X005574Y003535D03*
X004510Y004088D03*
D287*
X011262Y003507D03*
D288*
X011265Y003514D03*
D289*
X009305Y003521D03*
X007023Y003521D03*
X004531Y004046D03*
D290*
X010341Y003521D03*
X010593Y003731D03*
D291*
X010845Y003521D03*
D292*
X011710Y003521D03*
D293*
X007478Y003528D03*
D294*
X009312Y003528D03*
X009641Y003703D03*
X004538Y004018D03*
X004538Y004025D03*
D295*
X011496Y003563D03*
X011517Y003535D03*
X011517Y003528D03*
D296*
X005812Y003542D03*
D297*
X006799Y003542D03*
X009529Y003612D03*
D298*
X007671Y003752D03*
X007496Y003542D03*
X005809Y003752D03*
X011479Y003752D03*
D299*
X010593Y003556D03*
X008563Y003542D03*
X006813Y003591D03*
D300*
X009554Y003542D03*
D301*
X008560Y003577D03*
X005809Y003577D03*
X011486Y003577D03*
X011500Y003556D03*
X011514Y003542D03*
D302*
X007510Y003549D03*
D303*
X007709Y003556D03*
X005805Y003647D03*
D304*
X009550Y003556D03*
D305*
X006831Y003640D03*
X005809Y003570D03*
X005809Y003563D03*
D306*
X008560Y003563D03*
X008560Y003570D03*
D307*
X009547Y003563D03*
D308*
X009508Y003654D03*
X010593Y003563D03*
X006820Y003619D03*
D309*
X009543Y003577D03*
D310*
X009540Y003584D03*
D311*
X010593Y003584D03*
D312*
X010593Y003591D03*
X011475Y003591D03*
D313*
X006817Y003605D03*
D314*
X011472Y003605D03*
D315*
X010593Y003612D03*
D316*
X010593Y003626D03*
D317*
X011472Y003626D03*
D318*
X008560Y003668D03*
X005809Y003668D03*
X004640Y003668D03*
X004640Y003675D03*
X004640Y003689D03*
X004640Y003703D03*
X004640Y003710D03*
X004640Y003724D03*
X004640Y003738D03*
X004640Y003745D03*
X004640Y003759D03*
X004640Y003773D03*
X004640Y003780D03*
X004640Y003794D03*
X004640Y003654D03*
X004640Y003640D03*
X004640Y003633D03*
D319*
X010593Y003633D03*
D320*
X006834Y003647D03*
D321*
X005809Y003661D03*
X008560Y003661D03*
D322*
X006701Y003661D03*
D323*
X007657Y003661D03*
D324*
X006698Y003675D03*
D325*
X007664Y003689D03*
D326*
X007664Y003696D03*
D327*
X008560Y003696D03*
D328*
X008560Y003703D03*
X005809Y003703D03*
X011472Y003703D03*
D329*
X007667Y003703D03*
D330*
X010590Y003710D03*
D331*
X009638Y003745D03*
D332*
X010593Y003752D03*
X008563Y003752D03*
D333*
X009638Y003752D03*
D334*
X004549Y003969D03*
X004549Y003983D03*
D335*
X004545Y003990D03*
X004545Y004004D03*
D336*
X004458Y004151D03*
D337*
X003316Y004413D02*
X003318Y004434D01*
X003324Y004454D01*
X003333Y004474D01*
X003345Y004491D01*
X003360Y004505D01*
X003378Y004517D01*
X003398Y004525D01*
X003418Y004530D01*
X003439Y004531D01*
X003460Y004528D01*
X003480Y004522D01*
X003499Y004511D01*
X003516Y004498D01*
X003529Y004482D01*
X003540Y004464D01*
X003548Y004444D01*
X003552Y004424D01*
X003552Y004402D01*
X003548Y004382D01*
X003540Y004362D01*
X003529Y004344D01*
X003516Y004328D01*
X003499Y004315D01*
X003480Y004304D01*
X003460Y004298D01*
X003439Y004295D01*
X003418Y004296D01*
X003398Y004301D01*
X003378Y004309D01*
X003360Y004321D01*
X003345Y004335D01*
X003333Y004352D01*
X003324Y004372D01*
X003318Y004392D01*
X003316Y004413D01*
X003316Y008980D02*
X003318Y009001D01*
X003324Y009021D01*
X003333Y009041D01*
X003345Y009058D01*
X003360Y009072D01*
X003378Y009084D01*
X003398Y009092D01*
X003418Y009097D01*
X003439Y009098D01*
X003460Y009095D01*
X003480Y009089D01*
X003499Y009078D01*
X003516Y009065D01*
X003529Y009049D01*
X003540Y009031D01*
X003548Y009011D01*
X003552Y008991D01*
X003552Y008969D01*
X003548Y008949D01*
X003540Y008929D01*
X003529Y008911D01*
X003516Y008895D01*
X003499Y008882D01*
X003480Y008871D01*
X003460Y008865D01*
X003439Y008862D01*
X003418Y008863D01*
X003398Y008868D01*
X003378Y008876D01*
X003360Y008888D01*
X003345Y008902D01*
X003333Y008919D01*
X003324Y008939D01*
X003318Y008959D01*
X003316Y008980D01*
D338*
X003246Y008191D03*
M02*
