G75*
%MOIN*%
%OFA0B0*%
%FSLAX24Y24*%
%IPPOS*%
%LPD*%
%AMOC8*
5,1,8,0,0,1.08239X$1,22.5*
%
%ADD10C,0.0000*%
%ADD11C,0.0110*%
%ADD12C,0.0060*%
%ADD13C,0.0040*%
%ADD14C,0.0050*%
%ADD15R,0.0047X0.0004*%
%ADD16R,0.0102X0.0004*%
%ADD17R,0.0138X0.0004*%
%ADD18R,0.0165X0.0004*%
%ADD19R,0.0185X0.0004*%
%ADD20R,0.0189X0.0004*%
%ADD21R,0.0205X0.0004*%
%ADD22R,0.0220X0.0004*%
%ADD23R,0.0240X0.0004*%
%ADD24R,0.0252X0.0004*%
%ADD25R,0.0268X0.0004*%
%ADD26R,0.0283X0.0004*%
%ADD27R,0.0291X0.0004*%
%ADD28R,0.0307X0.0004*%
%ADD29R,0.0315X0.0004*%
%ADD30R,0.0323X0.0004*%
%ADD31R,0.0339X0.0004*%
%ADD32R,0.0346X0.0004*%
%ADD33R,0.0354X0.0004*%
%ADD34R,0.0362X0.0004*%
%ADD35R,0.0370X0.0004*%
%ADD36R,0.0378X0.0004*%
%ADD37R,0.0386X0.0004*%
%ADD38R,0.0394X0.0004*%
%ADD39R,0.0402X0.0004*%
%ADD40R,0.0409X0.0004*%
%ADD41R,0.0413X0.0004*%
%ADD42R,0.0417X0.0004*%
%ADD43R,0.0425X0.0004*%
%ADD44R,0.0433X0.0004*%
%ADD45R,0.0437X0.0004*%
%ADD46R,0.0441X0.0004*%
%ADD47R,0.0449X0.0004*%
%ADD48R,0.0453X0.0004*%
%ADD49R,0.0457X0.0004*%
%ADD50R,0.0461X0.0004*%
%ADD51R,0.0465X0.0004*%
%ADD52R,0.0472X0.0004*%
%ADD53R,0.0480X0.0004*%
%ADD54R,0.0484X0.0004*%
%ADD55R,0.0488X0.0004*%
%ADD56R,0.0492X0.0004*%
%ADD57R,0.0496X0.0004*%
%ADD58R,0.0500X0.0004*%
%ADD59R,0.0504X0.0004*%
%ADD60R,0.0508X0.0004*%
%ADD61R,0.0512X0.0004*%
%ADD62R,0.0516X0.0004*%
%ADD63R,0.0520X0.0004*%
%ADD64R,0.0524X0.0004*%
%ADD65R,0.0528X0.0004*%
%ADD66R,0.0476X0.0004*%
%ADD67R,0.0469X0.0004*%
%ADD68R,0.0429X0.0004*%
%ADD69R,0.0406X0.0004*%
%ADD70R,0.0343X0.0004*%
%ADD71R,0.0335X0.0004*%
%ADD72R,0.0331X0.0004*%
%ADD73R,0.0303X0.0004*%
%ADD74R,0.0299X0.0004*%
%ADD75R,0.0280X0.0004*%
%ADD76R,0.0276X0.0004*%
%ADD77R,0.0236X0.0004*%
%ADD78R,0.0181X0.0004*%
%ADD79R,0.0157X0.0004*%
%ADD80R,0.0134X0.0004*%
%ADD81R,0.0094X0.0004*%
%ADD82R,0.0031X0.0004*%
%ADD83R,0.6142X0.0004*%
%ADD84R,0.6138X0.0004*%
%ADD85R,0.6134X0.0004*%
%ADD86R,0.6130X0.0004*%
%ADD87R,0.6126X0.0004*%
%ADD88R,0.6122X0.0004*%
%ADD89R,0.6118X0.0004*%
%ADD90R,0.6114X0.0004*%
%ADD91R,0.6110X0.0004*%
%ADD92R,0.6106X0.0004*%
%ADD93R,0.6102X0.0004*%
%ADD94R,0.6098X0.0004*%
%ADD95R,0.6094X0.0004*%
%ADD96R,0.6091X0.0004*%
%ADD97R,0.6087X0.0004*%
%ADD98R,0.6083X0.0004*%
%ADD99R,0.6079X0.0004*%
%ADD100R,0.6075X0.0004*%
%ADD101R,0.6071X0.0004*%
%ADD102R,0.6067X0.0004*%
%ADD103R,0.6063X0.0004*%
%ADD104R,0.6059X0.0004*%
%ADD105R,0.6055X0.0004*%
%ADD106R,0.6051X0.0004*%
%ADD107R,0.6047X0.0004*%
%ADD108R,0.6043X0.0004*%
%ADD109R,0.6039X0.0004*%
%ADD110R,0.6035X0.0004*%
%ADD111R,0.6031X0.0004*%
%ADD112R,0.6028X0.0004*%
%ADD113R,0.6024X0.0004*%
%ADD114R,0.6020X0.0004*%
%ADD115R,0.6016X0.0004*%
%ADD116R,0.6012X0.0004*%
%ADD117R,0.6008X0.0004*%
%ADD118R,0.6004X0.0004*%
%ADD119R,0.6000X0.0004*%
%ADD120R,0.5996X0.0004*%
%ADD121R,0.5992X0.0004*%
%ADD122R,0.5988X0.0004*%
%ADD123R,0.5984X0.0004*%
%ADD124R,0.0209X0.0004*%
%ADD125R,0.0067X0.0004*%
%ADD126R,0.0075X0.0004*%
%ADD127R,0.0063X0.0004*%
%ADD128R,0.0142X0.0004*%
%ADD129R,0.0114X0.0004*%
%ADD130R,0.0146X0.0004*%
%ADD131R,0.0177X0.0004*%
%ADD132R,0.0150X0.0004*%
%ADD133R,0.0217X0.0004*%
%ADD134R,0.0213X0.0004*%
%ADD135R,0.0224X0.0004*%
%ADD136R,0.0197X0.0004*%
%ADD137R,0.0248X0.0004*%
%ADD138R,0.0260X0.0004*%
%ADD139R,0.0272X0.0004*%
%ADD140R,0.0256X0.0004*%
%ADD141R,0.0319X0.0004*%
%ADD142R,0.0358X0.0004*%
%ADD143R,0.0295X0.0004*%
%ADD144R,0.0374X0.0004*%
%ADD145R,0.0390X0.0004*%
%ADD146R,0.0421X0.0004*%
%ADD147R,0.0445X0.0004*%
%ADD148R,0.0382X0.0004*%
%ADD149R,0.0398X0.0004*%
%ADD150R,0.0531X0.0004*%
%ADD151R,0.0535X0.0004*%
%ADD152R,0.0539X0.0004*%
%ADD153R,0.0543X0.0004*%
%ADD154R,0.0551X0.0004*%
%ADD155R,0.0555X0.0004*%
%ADD156R,0.0547X0.0004*%
%ADD157R,0.0559X0.0004*%
%ADD158R,0.0563X0.0004*%
%ADD159R,0.0661X0.0004*%
%ADD160R,0.0567X0.0004*%
%ADD161R,0.0665X0.0004*%
%ADD162R,0.0579X0.0004*%
%ADD163R,0.0575X0.0004*%
%ADD164R,0.0571X0.0004*%
%ADD165R,0.0669X0.0004*%
%ADD166R,0.0583X0.0004*%
%ADD167R,0.0587X0.0004*%
%ADD168R,0.0673X0.0004*%
%ADD169R,0.0591X0.0004*%
%ADD170R,0.0677X0.0004*%
%ADD171R,0.0594X0.0004*%
%ADD172R,0.0598X0.0004*%
%ADD173R,0.0681X0.0004*%
%ADD174R,0.0606X0.0004*%
%ADD175R,0.0685X0.0004*%
%ADD176R,0.0610X0.0004*%
%ADD177R,0.0618X0.0004*%
%ADD178R,0.0689X0.0004*%
%ADD179R,0.0626X0.0004*%
%ADD180R,0.0622X0.0004*%
%ADD181R,0.0693X0.0004*%
%ADD182R,0.0634X0.0004*%
%ADD183R,0.0630X0.0004*%
%ADD184R,0.0697X0.0004*%
%ADD185R,0.0638X0.0004*%
%ADD186R,0.0642X0.0004*%
%ADD187R,0.0646X0.0004*%
%ADD188R,0.0701X0.0004*%
%ADD189R,0.0650X0.0004*%
%ADD190R,0.0705X0.0004*%
%ADD191R,0.0654X0.0004*%
%ADD192R,0.0244X0.0004*%
%ADD193R,0.0709X0.0004*%
%ADD194R,0.0228X0.0004*%
%ADD195R,0.0713X0.0004*%
%ADD196R,0.0201X0.0004*%
%ADD197R,0.0717X0.0004*%
%ADD198R,0.0311X0.0004*%
%ADD199R,0.0350X0.0004*%
%ADD200R,0.0173X0.0004*%
%ADD201R,0.0154X0.0004*%
%ADD202R,0.0287X0.0004*%
%ADD203R,0.0264X0.0004*%
%ADD204R,0.0126X0.0004*%
%ADD205R,0.0122X0.0004*%
%ADD206R,0.0118X0.0004*%
%ADD207R,0.0110X0.0004*%
%ADD208R,0.0106X0.0004*%
%ADD209R,0.0091X0.0004*%
%ADD210R,0.0098X0.0004*%
%ADD211R,0.0083X0.0004*%
%ADD212R,0.0079X0.0004*%
%ADD213R,0.0232X0.0004*%
%ADD214R,0.0071X0.0004*%
%ADD215R,0.0055X0.0004*%
%ADD216R,0.0043X0.0004*%
%ADD217R,0.0035X0.0004*%
%ADD218R,0.0028X0.0004*%
%ADD219R,0.0039X0.0004*%
%ADD220R,0.0020X0.0004*%
%ADD221R,0.0012X0.0004*%
%ADD222R,0.0004X0.0004*%
%ADD223R,0.0008X0.0004*%
%ADD224R,0.0024X0.0004*%
%ADD225R,0.0016X0.0004*%
%ADD226R,0.0748X0.0004*%
%ADD227R,0.0752X0.0004*%
%ADD228R,0.0130X0.0004*%
%ADD229R,0.0087X0.0004*%
%ADD230R,0.0327X0.0004*%
%ADD231R,0.0614X0.0004*%
%ADD232R,0.0720X0.0004*%
%ADD233R,0.0657X0.0004*%
%ADD234R,0.0169X0.0004*%
%ADD235R,0.0602X0.0004*%
%ADD236R,0.0366X0.0004*%
%ADD237R,0.0051X0.0004*%
D10*
X000150Y000343D02*
X000150Y012154D01*
X017473Y012154D01*
X017473Y000343D01*
X000150Y000343D01*
X002473Y001602D02*
X002475Y001652D01*
X002481Y001702D01*
X002491Y001751D01*
X002505Y001799D01*
X002522Y001846D01*
X002543Y001891D01*
X002568Y001935D01*
X002596Y001976D01*
X002628Y002015D01*
X002662Y002052D01*
X002699Y002086D01*
X002739Y002116D01*
X002781Y002143D01*
X002825Y002167D01*
X002871Y002188D01*
X002918Y002204D01*
X002966Y002217D01*
X003016Y002226D01*
X003065Y002231D01*
X003116Y002232D01*
X003166Y002229D01*
X003215Y002222D01*
X003264Y002211D01*
X003312Y002196D01*
X003358Y002178D01*
X003403Y002156D01*
X003446Y002130D01*
X003487Y002101D01*
X003526Y002069D01*
X003562Y002034D01*
X003594Y001996D01*
X003624Y001956D01*
X003651Y001913D01*
X003674Y001869D01*
X003693Y001823D01*
X003709Y001775D01*
X003721Y001726D01*
X003729Y001677D01*
X003733Y001627D01*
X003733Y001577D01*
X003729Y001527D01*
X003721Y001478D01*
X003709Y001429D01*
X003693Y001381D01*
X003674Y001335D01*
X003651Y001291D01*
X003624Y001248D01*
X003594Y001208D01*
X003562Y001170D01*
X003526Y001135D01*
X003487Y001103D01*
X003446Y001074D01*
X003403Y001048D01*
X003358Y001026D01*
X003312Y001008D01*
X003264Y000993D01*
X003215Y000982D01*
X003166Y000975D01*
X003116Y000972D01*
X003065Y000973D01*
X003016Y000978D01*
X002966Y000987D01*
X002918Y001000D01*
X002871Y001016D01*
X002825Y001037D01*
X002781Y001061D01*
X002739Y001088D01*
X002699Y001118D01*
X002662Y001152D01*
X002628Y001189D01*
X002596Y001228D01*
X002568Y001269D01*
X002543Y001313D01*
X002522Y001358D01*
X002505Y001405D01*
X002491Y001453D01*
X002481Y001502D01*
X002475Y001552D01*
X002473Y001602D01*
X002394Y003965D02*
X002396Y003986D01*
X002402Y004006D01*
X002411Y004026D01*
X002423Y004043D01*
X002438Y004057D01*
X002456Y004069D01*
X002476Y004077D01*
X002496Y004082D01*
X002517Y004083D01*
X002538Y004080D01*
X002558Y004074D01*
X002577Y004063D01*
X002594Y004050D01*
X002607Y004034D01*
X002618Y004016D01*
X002626Y003996D01*
X002630Y003976D01*
X002630Y003954D01*
X002626Y003934D01*
X002618Y003914D01*
X002607Y003896D01*
X002594Y003880D01*
X002577Y003867D01*
X002558Y003856D01*
X002538Y003850D01*
X002517Y003847D01*
X002496Y003848D01*
X002476Y003853D01*
X002456Y003861D01*
X002438Y003873D01*
X002423Y003887D01*
X002411Y003904D01*
X002402Y003924D01*
X002396Y003944D01*
X002394Y003965D01*
X002394Y008531D02*
X002396Y008552D01*
X002402Y008572D01*
X002411Y008592D01*
X002423Y008609D01*
X002438Y008623D01*
X002456Y008635D01*
X002476Y008643D01*
X002496Y008648D01*
X002517Y008649D01*
X002538Y008646D01*
X002558Y008640D01*
X002577Y008629D01*
X002594Y008616D01*
X002607Y008600D01*
X002618Y008582D01*
X002626Y008562D01*
X002630Y008542D01*
X002630Y008520D01*
X002626Y008500D01*
X002618Y008480D01*
X002607Y008462D01*
X002594Y008446D01*
X002577Y008433D01*
X002558Y008422D01*
X002538Y008416D01*
X002517Y008413D01*
X002496Y008414D01*
X002476Y008419D01*
X002456Y008427D01*
X002438Y008439D01*
X002423Y008453D01*
X002411Y008470D01*
X002402Y008490D01*
X002396Y008510D01*
X002394Y008531D01*
X002473Y010894D02*
X002475Y010944D01*
X002481Y010994D01*
X002491Y011043D01*
X002505Y011091D01*
X002522Y011138D01*
X002543Y011183D01*
X002568Y011227D01*
X002596Y011268D01*
X002628Y011307D01*
X002662Y011344D01*
X002699Y011378D01*
X002739Y011408D01*
X002781Y011435D01*
X002825Y011459D01*
X002871Y011480D01*
X002918Y011496D01*
X002966Y011509D01*
X003016Y011518D01*
X003065Y011523D01*
X003116Y011524D01*
X003166Y011521D01*
X003215Y011514D01*
X003264Y011503D01*
X003312Y011488D01*
X003358Y011470D01*
X003403Y011448D01*
X003446Y011422D01*
X003487Y011393D01*
X003526Y011361D01*
X003562Y011326D01*
X003594Y011288D01*
X003624Y011248D01*
X003651Y011205D01*
X003674Y011161D01*
X003693Y011115D01*
X003709Y011067D01*
X003721Y011018D01*
X003729Y010969D01*
X003733Y010919D01*
X003733Y010869D01*
X003729Y010819D01*
X003721Y010770D01*
X003709Y010721D01*
X003693Y010673D01*
X003674Y010627D01*
X003651Y010583D01*
X003624Y010540D01*
X003594Y010500D01*
X003562Y010462D01*
X003526Y010427D01*
X003487Y010395D01*
X003446Y010366D01*
X003403Y010340D01*
X003358Y010318D01*
X003312Y010300D01*
X003264Y010285D01*
X003215Y010274D01*
X003166Y010267D01*
X003116Y010264D01*
X003065Y010265D01*
X003016Y010270D01*
X002966Y010279D01*
X002918Y010292D01*
X002871Y010308D01*
X002825Y010329D01*
X002781Y010353D01*
X002739Y010380D01*
X002699Y010410D01*
X002662Y010444D01*
X002628Y010481D01*
X002596Y010520D01*
X002568Y010561D01*
X002543Y010605D01*
X002522Y010650D01*
X002505Y010697D01*
X002491Y010745D01*
X002481Y010794D01*
X002475Y010844D01*
X002473Y010894D01*
D11*
X008297Y011239D02*
X008395Y011140D01*
X008592Y011140D01*
X008691Y011239D01*
X008494Y011436D02*
X008395Y011436D01*
X008297Y011337D01*
X008297Y011239D01*
X008395Y011436D02*
X008297Y011534D01*
X008297Y011633D01*
X008395Y011731D01*
X008592Y011731D01*
X008691Y011633D01*
X008914Y011239D02*
X008914Y011140D01*
X009013Y011140D01*
X009013Y011239D01*
X008914Y011239D01*
X009264Y011140D02*
X009657Y011140D01*
X009460Y011140D02*
X009460Y011731D01*
X009657Y011534D01*
X009908Y011534D02*
X010105Y011140D01*
X010302Y011534D01*
X010526Y011239D02*
X010526Y011140D01*
X010624Y011140D01*
X010624Y011239D01*
X010526Y011239D01*
X010875Y011239D02*
X010973Y011140D01*
X011170Y011140D01*
X011269Y011239D01*
X011269Y011731D01*
X011520Y011633D02*
X011520Y011436D01*
X011618Y011337D01*
X011913Y011337D01*
X011913Y011140D02*
X011913Y011731D01*
X011618Y011731D01*
X011520Y011633D01*
X010875Y011731D02*
X010875Y011239D01*
X012164Y011239D02*
X012263Y011140D01*
X012459Y011140D01*
X012558Y011239D01*
X012558Y011633D01*
X012459Y011731D01*
X012263Y011731D01*
X012164Y011633D01*
X012809Y011633D02*
X012809Y011534D01*
X013202Y011140D01*
X012809Y011140D01*
X012809Y011633D02*
X012907Y011731D01*
X013104Y011731D01*
X013202Y011633D01*
X013453Y011731D02*
X013453Y011140D01*
X013650Y011337D01*
X013847Y011140D01*
X013847Y011731D01*
X014098Y011731D02*
X014491Y011337D01*
X014393Y011436D02*
X014098Y011140D01*
X014491Y011140D02*
X014491Y011731D01*
D12*
X004268Y008207D02*
X004211Y008151D01*
X004155Y008151D01*
X004098Y008207D01*
X004098Y008491D01*
X004155Y008491D02*
X004041Y008491D01*
X003900Y008491D02*
X003673Y008491D01*
X003786Y008491D02*
X003786Y008151D01*
X003531Y008151D02*
X003531Y008378D01*
X003418Y008491D01*
X003305Y008378D01*
X003305Y008151D01*
X003163Y008207D02*
X003106Y008151D01*
X002993Y008151D01*
X002936Y008207D01*
X002936Y008321D01*
X003050Y008321D01*
X003163Y008434D02*
X003163Y008207D01*
X003305Y008321D02*
X003531Y008321D01*
X003163Y008434D02*
X003106Y008491D01*
X002993Y008491D01*
X002936Y008434D01*
D13*
X012840Y010645D02*
X012887Y010599D01*
X012980Y010599D01*
X013027Y010645D01*
X013027Y010739D02*
X012933Y010786D01*
X012887Y010786D01*
X012840Y010739D01*
X012840Y010645D01*
X013027Y010739D02*
X013027Y010879D01*
X012840Y010879D01*
X013228Y010879D02*
X013228Y010599D01*
X013321Y010599D02*
X013135Y010599D01*
X013321Y010786D02*
X013228Y010879D01*
X013429Y010879D02*
X013616Y010599D01*
X013724Y010645D02*
X013724Y010739D01*
X013771Y010786D01*
X013817Y010786D01*
X013911Y010739D01*
X013911Y010879D01*
X013724Y010879D01*
X014019Y010879D02*
X014205Y010599D01*
X014313Y010645D02*
X014360Y010599D01*
X014453Y010599D01*
X014500Y010645D01*
X014500Y010692D01*
X014453Y010739D01*
X014360Y010739D01*
X014313Y010692D01*
X014313Y010645D01*
X014360Y010739D02*
X014313Y010786D01*
X014313Y010832D01*
X014360Y010879D01*
X014453Y010879D01*
X014500Y010832D01*
X014500Y010786D01*
X014453Y010739D01*
X013911Y010645D02*
X013864Y010599D01*
X013771Y010599D01*
X013724Y010645D01*
D14*
X013687Y009716D02*
X013553Y009716D01*
X013620Y009716D02*
X013620Y009516D01*
X013456Y009516D02*
X013456Y009716D01*
X013356Y009716D01*
X013323Y009683D01*
X013323Y009616D01*
X013356Y009583D01*
X013456Y009583D01*
X013226Y009583D02*
X013193Y009616D01*
X013126Y009616D01*
X013093Y009583D01*
X013093Y009550D01*
X013126Y009516D01*
X013193Y009516D01*
X013226Y009550D01*
X013226Y009583D01*
X013193Y009616D02*
X013226Y009650D01*
X013226Y009683D01*
X013193Y009716D01*
X013126Y009716D01*
X013093Y009683D01*
X013093Y009650D01*
X013126Y009616D01*
X007199Y009193D02*
X007065Y009193D01*
X007132Y009193D02*
X007132Y008992D01*
X006968Y008992D02*
X006968Y009193D01*
X006868Y009193D01*
X006835Y009159D01*
X006835Y009092D01*
X006868Y009059D01*
X006968Y009059D01*
X006738Y009092D02*
X006605Y009092D01*
X006638Y008992D02*
X006638Y009193D01*
X006738Y009092D01*
X004712Y009820D02*
X004712Y010021D01*
X004779Y010021D02*
X004645Y010021D01*
X004548Y010021D02*
X004448Y010021D01*
X004415Y009987D01*
X004415Y009921D01*
X004448Y009887D01*
X004548Y009887D01*
X004548Y009820D02*
X004548Y010021D01*
X004318Y010021D02*
X004318Y009921D01*
X004252Y009954D01*
X004218Y009954D01*
X004185Y009921D01*
X004185Y009854D01*
X004218Y009820D01*
X004285Y009820D01*
X004318Y009854D01*
X004318Y010021D02*
X004185Y010021D01*
X003812Y010060D02*
X003678Y010060D01*
X003745Y010060D02*
X003745Y009860D01*
X003581Y009860D02*
X003581Y010060D01*
X003481Y010060D01*
X003448Y010027D01*
X003448Y009960D01*
X003481Y009927D01*
X003581Y009927D01*
X003351Y009893D02*
X003318Y009860D01*
X003251Y009860D01*
X003218Y009893D01*
X003218Y009927D01*
X003251Y009960D01*
X003285Y009960D01*
X003251Y009960D02*
X003218Y009993D01*
X003218Y010027D01*
X003251Y010060D01*
X003318Y010060D01*
X003351Y010027D01*
X002158Y009115D02*
X002025Y009115D01*
X002092Y009115D02*
X002092Y008914D01*
X001928Y008914D02*
X001928Y009115D01*
X001828Y009115D01*
X001795Y009081D01*
X001795Y009015D01*
X001828Y008981D01*
X001928Y008981D01*
X001698Y008914D02*
X001565Y008914D01*
X001631Y008914D02*
X001631Y009115D01*
X001698Y009048D01*
X001468Y009081D02*
X001435Y009115D01*
X001368Y009115D01*
X001334Y009081D01*
X001334Y009048D01*
X001468Y008914D01*
X001334Y008914D01*
X001225Y010259D02*
X001158Y010259D01*
X001125Y010292D01*
X001125Y010426D01*
X001158Y010459D01*
X001225Y010459D01*
X001258Y010426D01*
X001258Y010393D01*
X001225Y010359D01*
X001125Y010359D01*
X001225Y010259D02*
X001258Y010292D01*
X001355Y010359D02*
X001389Y010326D01*
X001489Y010326D01*
X001489Y010259D02*
X001489Y010459D01*
X001389Y010459D01*
X001355Y010426D01*
X001355Y010359D01*
X001585Y010459D02*
X001719Y010459D01*
X001652Y010459D02*
X001652Y010259D01*
X004658Y011640D02*
X004691Y011606D01*
X004758Y011606D01*
X004791Y011640D01*
X004658Y011773D01*
X004658Y011640D01*
X004658Y011773D02*
X004691Y011806D01*
X004758Y011806D01*
X004791Y011773D01*
X004791Y011640D01*
X004888Y011606D02*
X005021Y011606D01*
X004955Y011606D02*
X004955Y011806D01*
X005021Y011740D01*
X005118Y011773D02*
X005118Y011706D01*
X005151Y011673D01*
X005252Y011673D01*
X005252Y011606D02*
X005252Y011806D01*
X005151Y011806D01*
X005118Y011773D01*
X005348Y011806D02*
X005482Y011806D01*
X005415Y011806D02*
X005415Y011606D01*
X005494Y010955D02*
X005460Y010921D01*
X005460Y010854D01*
X005494Y010821D01*
X005594Y010821D01*
X005594Y010754D02*
X005594Y010955D01*
X005494Y010955D01*
X005364Y010888D02*
X005297Y010955D01*
X005297Y010754D01*
X005364Y010754D02*
X005230Y010754D01*
X005134Y010754D02*
X005000Y010754D01*
X005067Y010754D02*
X005067Y010955D01*
X005134Y010888D01*
X005691Y010955D02*
X005824Y010955D01*
X005757Y010955D02*
X005757Y010754D01*
X002940Y006906D02*
X002807Y006906D01*
X002873Y006906D02*
X002873Y006706D01*
X002710Y006706D02*
X002710Y006906D01*
X002610Y006906D01*
X002576Y006873D01*
X002576Y006806D01*
X002610Y006773D01*
X002710Y006773D01*
X002480Y006840D02*
X002413Y006906D01*
X002413Y006706D01*
X002480Y006706D02*
X002346Y006706D01*
X002249Y006740D02*
X002216Y006706D01*
X002149Y006706D01*
X002116Y006740D01*
X002116Y006773D01*
X002149Y006806D01*
X002183Y006806D01*
X002149Y006806D02*
X002116Y006840D01*
X002116Y006873D01*
X002149Y006906D01*
X002216Y006906D01*
X002249Y006873D01*
X002897Y005174D02*
X002997Y005074D01*
X002864Y005074D01*
X002897Y004974D02*
X002897Y005174D01*
X003161Y005174D02*
X003161Y004974D01*
X003228Y004974D02*
X003094Y004974D01*
X003228Y005107D02*
X003161Y005174D01*
X003324Y005141D02*
X003324Y005074D01*
X003358Y005041D01*
X003458Y005041D01*
X003458Y004974D02*
X003458Y005174D01*
X003358Y005174D01*
X003324Y005141D01*
X003555Y005174D02*
X003688Y005174D01*
X003621Y005174D02*
X003621Y004974D01*
X002133Y003402D02*
X001999Y003402D01*
X002066Y003402D02*
X002066Y003202D01*
X001903Y003202D02*
X001903Y003402D01*
X001803Y003402D01*
X001769Y003369D01*
X001769Y003302D01*
X001803Y003269D01*
X001903Y003269D01*
X001672Y003336D02*
X001606Y003402D01*
X001606Y003202D01*
X001672Y003202D02*
X001539Y003202D01*
X001442Y003202D02*
X001442Y003236D01*
X001309Y003369D01*
X001309Y003402D01*
X001442Y003402D01*
X001442Y002615D02*
X001309Y002615D01*
X001342Y002548D02*
X001309Y002515D01*
X001309Y002448D01*
X001342Y002415D01*
X001409Y002415D01*
X001442Y002448D01*
X001442Y002515D02*
X001376Y002548D01*
X001342Y002548D01*
X001442Y002515D02*
X001442Y002615D01*
X001606Y002615D02*
X001672Y002548D01*
X001606Y002615D02*
X001606Y002415D01*
X001672Y002415D02*
X001539Y002415D01*
X001769Y002515D02*
X001803Y002481D01*
X001903Y002481D01*
X001903Y002415D02*
X001903Y002615D01*
X001803Y002615D01*
X001769Y002582D01*
X001769Y002515D01*
X001999Y002615D02*
X002133Y002615D01*
X002066Y002615D02*
X002066Y002415D01*
X002066Y001828D02*
X002066Y001627D01*
X001903Y001627D02*
X001903Y001828D01*
X001803Y001828D01*
X001769Y001794D01*
X001769Y001727D01*
X001803Y001694D01*
X001903Y001694D01*
X001999Y001828D02*
X002133Y001828D01*
X001672Y001761D02*
X001606Y001828D01*
X001606Y001627D01*
X001672Y001627D02*
X001539Y001627D01*
X001442Y001661D02*
X001442Y001694D01*
X001409Y001727D01*
X001342Y001727D01*
X001309Y001694D01*
X001309Y001661D01*
X001342Y001627D01*
X001409Y001627D01*
X001442Y001661D01*
X001409Y001727D02*
X001442Y001761D01*
X001442Y001794D01*
X001409Y001828D01*
X001342Y001828D01*
X001309Y001794D01*
X001309Y001761D01*
X001342Y001727D01*
X001309Y001040D02*
X001376Y001007D01*
X001442Y000940D01*
X001342Y000940D01*
X001309Y000907D01*
X001309Y000873D01*
X001342Y000840D01*
X001409Y000840D01*
X001442Y000873D01*
X001442Y000940D01*
X001539Y000840D02*
X001672Y000840D01*
X001606Y000840D02*
X001606Y001040D01*
X001672Y000973D01*
X001769Y000940D02*
X001803Y000907D01*
X001903Y000907D01*
X001903Y000840D02*
X001903Y001040D01*
X001803Y001040D01*
X001769Y001007D01*
X001769Y000940D01*
X001999Y001040D02*
X002133Y001040D01*
X002066Y001040D02*
X002066Y000840D01*
X009445Y001625D02*
X009578Y001625D01*
X009512Y001625D02*
X009512Y001825D01*
X009578Y001758D01*
X009675Y001791D02*
X009675Y001725D01*
X009709Y001691D01*
X009809Y001691D01*
X009809Y001625D02*
X009809Y001825D01*
X009709Y001825D01*
X009675Y001791D01*
X009905Y001825D02*
X010039Y001825D01*
X009972Y001825D02*
X009972Y001625D01*
X011645Y003313D02*
X011645Y003346D01*
X011512Y003479D01*
X011512Y003513D01*
X011645Y003513D01*
X011742Y003479D02*
X011742Y003413D01*
X011775Y003379D01*
X011875Y003379D01*
X011875Y003313D02*
X011875Y003513D01*
X011775Y003513D01*
X011742Y003479D01*
X011972Y003513D02*
X012106Y003513D01*
X012039Y003513D02*
X012039Y003313D01*
X013589Y003336D02*
X013622Y003303D01*
X013689Y003303D01*
X013722Y003336D01*
X013722Y003403D01*
X013622Y003403D01*
X013589Y003370D01*
X013589Y003336D01*
X013722Y003403D02*
X013656Y003470D01*
X013589Y003503D01*
X013819Y003470D02*
X013819Y003403D01*
X013852Y003370D01*
X013953Y003370D01*
X013953Y003303D02*
X013953Y003503D01*
X013852Y003503D01*
X013819Y003470D01*
X014049Y003503D02*
X014183Y003503D01*
X014116Y003503D02*
X014116Y003303D01*
X006634Y006442D02*
X006634Y006642D01*
X006700Y006642D02*
X006567Y006642D01*
X006470Y006642D02*
X006370Y006642D01*
X006337Y006609D01*
X006337Y006542D01*
X006370Y006509D01*
X006470Y006509D01*
X006470Y006442D02*
X006470Y006642D01*
X006240Y006609D02*
X006207Y006642D01*
X006140Y006642D01*
X006107Y006609D01*
X006107Y006576D01*
X006240Y006442D01*
X006107Y006442D01*
D15*
X013010Y002016D03*
X013723Y001677D03*
X016089Y001717D03*
X016085Y001976D03*
X016333Y000539D03*
X011128Y000539D03*
D16*
X011128Y000543D03*
X012396Y002220D03*
X013731Y001654D03*
X016333Y000543D03*
D17*
X016331Y000547D03*
X016095Y001673D03*
X012394Y002217D03*
X011500Y001642D03*
X011126Y000547D03*
D18*
X011128Y000551D03*
X012396Y002213D03*
X016109Y002024D03*
X016101Y001661D03*
X016333Y000551D03*
D19*
X016331Y000555D03*
X013398Y001630D03*
X013201Y001461D03*
X011666Y001461D03*
D20*
X012396Y002209D03*
X013904Y001461D03*
X015565Y001461D03*
X016105Y001654D03*
X011128Y000555D03*
D21*
X011128Y000559D03*
X011128Y001047D03*
X011939Y001720D03*
X011943Y001728D03*
X011943Y001732D03*
X011943Y001736D03*
X011947Y001744D03*
X011947Y001748D03*
X011947Y001917D03*
X013010Y001693D03*
X013014Y001638D03*
X013018Y001634D03*
X013384Y001984D03*
X013380Y002039D03*
X013376Y002043D03*
X013191Y002213D03*
X014183Y001921D03*
X014187Y001760D03*
X014183Y001744D03*
X014183Y001740D03*
X014180Y001732D03*
X014180Y001728D03*
X014786Y002209D03*
X016109Y001650D03*
X016577Y001839D03*
X016573Y001882D03*
X016286Y002213D03*
X016333Y001047D03*
X016333Y000559D03*
X010731Y002264D03*
X010731Y002268D03*
X010731Y002272D03*
X010731Y002276D03*
X010731Y002280D03*
X010731Y002283D03*
X010731Y002287D03*
X010731Y002291D03*
X010731Y002295D03*
X010731Y002299D03*
X010731Y002303D03*
X010731Y002307D03*
X010731Y002311D03*
X010731Y002315D03*
X010731Y002319D03*
X010731Y002323D03*
X010731Y002327D03*
D22*
X011428Y001980D03*
X011428Y001976D03*
X011424Y001969D03*
X011431Y001988D03*
X011920Y001992D03*
X011924Y001988D03*
X011924Y001984D03*
X012227Y001949D03*
X012227Y001945D03*
X012231Y001961D03*
X012231Y001965D03*
X012231Y001969D03*
X011924Y001689D03*
X011920Y001685D03*
X012707Y001937D03*
X012707Y001941D03*
X012707Y001945D03*
X013018Y001709D03*
X013030Y001622D03*
X013388Y001622D03*
X013376Y001969D03*
X013664Y001976D03*
X013664Y001980D03*
X013668Y001984D03*
X014160Y001988D03*
X014164Y001980D03*
X014467Y001925D03*
X014467Y001921D03*
X014467Y001917D03*
X014467Y001756D03*
X014467Y001752D03*
X014160Y001689D03*
X013904Y001465D03*
X015002Y001728D03*
X015006Y001736D03*
X015006Y001740D03*
X015010Y001748D03*
X015014Y001913D03*
X015014Y001917D03*
X015014Y001921D03*
X015010Y001925D03*
X015010Y001929D03*
X015286Y001925D03*
X015290Y001937D03*
X015290Y001941D03*
X015294Y001945D03*
X015294Y001949D03*
X015286Y001752D03*
X015286Y001748D03*
X015290Y001740D03*
X015290Y001736D03*
X015294Y001728D03*
X015565Y001465D03*
X015837Y001728D03*
X015837Y001732D03*
X015841Y001740D03*
X015841Y001744D03*
X015845Y001921D03*
X015841Y001933D03*
X015841Y001937D03*
X015837Y001941D03*
X015837Y001945D03*
X016113Y001646D03*
X016554Y001724D03*
X016557Y001728D03*
X016557Y001732D03*
X016557Y001945D03*
X016554Y001953D03*
X016550Y001961D03*
X016333Y001043D03*
X016333Y000563D03*
X011128Y000563D03*
X011128Y001043D03*
D23*
X011126Y000567D03*
X011902Y001661D03*
X011902Y002016D03*
X012248Y002012D03*
X012697Y001980D03*
X013028Y001724D03*
X013363Y001957D03*
X013685Y002016D03*
X013689Y002020D03*
X013910Y002209D03*
X014134Y002020D03*
X014138Y002016D03*
X014477Y001965D03*
X014477Y001961D03*
X014477Y001713D03*
X014138Y001661D03*
X014977Y001681D03*
X014981Y001685D03*
X015319Y001681D03*
X015807Y001677D03*
X015811Y001681D03*
X016119Y001642D03*
X016532Y001689D03*
X016536Y001693D03*
X016532Y001988D03*
X015811Y001992D03*
X015807Y001996D03*
X015323Y002000D03*
X015319Y001996D03*
X014989Y001980D03*
X014985Y001988D03*
X016331Y000567D03*
X011449Y002016D03*
X010705Y002386D03*
D24*
X010601Y002516D03*
X011459Y002028D03*
X011888Y002028D03*
X012258Y002024D03*
X012691Y001996D03*
X011888Y001650D03*
X011128Y001035D03*
X011128Y000571D03*
X013904Y001469D03*
X014483Y001697D03*
X014483Y001980D03*
X014124Y002028D03*
X014971Y002008D03*
X014975Y002004D03*
X015333Y002012D03*
X015337Y002016D03*
X015798Y002012D03*
X015798Y001665D03*
X015794Y001661D03*
X015565Y001469D03*
X015333Y001665D03*
X014971Y001673D03*
X014967Y001669D03*
X016333Y001035D03*
X016333Y000571D03*
X016522Y001677D03*
X016522Y002000D03*
X016518Y002004D03*
D25*
X016506Y002016D03*
X016506Y001661D03*
X015782Y001650D03*
X015349Y001650D03*
X015349Y002028D03*
X015565Y002205D03*
X015778Y002028D03*
X014790Y001484D03*
X014491Y001677D03*
X014117Y001642D03*
X014491Y002000D03*
X013711Y002039D03*
X013349Y001945D03*
X013369Y001614D03*
X012270Y002035D03*
X011475Y002039D03*
X011128Y001031D03*
X011128Y000575D03*
X016333Y000575D03*
X016333Y001031D03*
D26*
X016286Y001476D03*
X015770Y001642D03*
X015361Y001642D03*
X015361Y002035D03*
X015766Y002035D03*
X014943Y002035D03*
X014498Y002012D03*
X014101Y002043D03*
X014101Y001634D03*
X014498Y001665D03*
X012676Y002020D03*
X012278Y002039D03*
X011865Y002043D03*
X011672Y002201D03*
X011865Y001634D03*
X011128Y000579D03*
X016333Y000579D03*
D27*
X016333Y000583D03*
X016333Y001024D03*
X016491Y001650D03*
X015762Y001638D03*
X015369Y001638D03*
X015565Y002201D03*
X014502Y002020D03*
X014502Y001657D03*
X013727Y002047D03*
X013057Y001748D03*
X011491Y002047D03*
X010620Y002488D03*
X011128Y001024D03*
X011128Y000583D03*
D28*
X011128Y000587D03*
X013069Y001756D03*
X014510Y001650D03*
X014790Y001496D03*
X015750Y001634D03*
X016333Y000587D03*
X011672Y002197D03*
X010628Y002469D03*
X010628Y002472D03*
D29*
X010632Y002461D03*
X012294Y002043D03*
X012660Y002035D03*
X011128Y001016D03*
X011128Y000591D03*
X014514Y001646D03*
X015565Y001480D03*
X015746Y002043D03*
X015565Y002197D03*
X016333Y001016D03*
X016333Y000591D03*
D30*
X016333Y000594D03*
X016333Y001012D03*
X016286Y001484D03*
X016282Y002193D03*
X014518Y001642D03*
X013908Y002193D03*
X013317Y001925D03*
X012396Y002173D03*
X011672Y002193D03*
X010636Y002449D03*
X011128Y001012D03*
X011128Y000594D03*
D31*
X011128Y000598D03*
X011668Y001484D03*
X011672Y002189D03*
X010644Y002417D03*
X010644Y002421D03*
X010644Y002425D03*
X013187Y002189D03*
X013211Y001484D03*
X013904Y001484D03*
X014790Y001508D03*
X015565Y001484D03*
X016333Y000598D03*
D32*
X016333Y000602D03*
X016451Y002039D03*
X014790Y002173D03*
X013089Y001768D03*
X011128Y000602D03*
X010648Y002398D03*
X010648Y002402D03*
X010648Y002406D03*
D33*
X011672Y002185D03*
X012396Y002161D03*
X013097Y001772D03*
X013187Y002185D03*
X013904Y001488D03*
X014790Y001512D03*
X015565Y001488D03*
X016333Y001000D03*
X016333Y000606D03*
X011128Y000606D03*
X011128Y001000D03*
D34*
X011128Y000996D03*
X011128Y000610D03*
X013101Y001776D03*
X013290Y001909D03*
X012636Y002043D03*
X012396Y002157D03*
X014790Y001516D03*
X016333Y000996D03*
X016333Y000610D03*
D35*
X016333Y000614D03*
X016333Y000992D03*
X015565Y001492D03*
X014790Y001520D03*
X014542Y002047D03*
X014790Y002165D03*
X013282Y001906D03*
X013109Y001780D03*
X012396Y002154D03*
X011672Y002181D03*
X011128Y000992D03*
X011128Y000614D03*
D36*
X011128Y000618D03*
X011128Y000988D03*
X014790Y002161D03*
X016282Y002181D03*
X016333Y000988D03*
X016333Y000618D03*
D37*
X016333Y000622D03*
X016333Y000984D03*
X015565Y001496D03*
X014790Y002157D03*
X011672Y002177D03*
X011128Y000984D03*
X011128Y000622D03*
D38*
X011128Y000626D03*
X011128Y000980D03*
X013120Y001787D03*
X016282Y002177D03*
X016333Y000980D03*
X016333Y000626D03*
D39*
X016333Y000630D03*
X016333Y000976D03*
X016290Y001504D03*
X015565Y001500D03*
X013904Y001500D03*
X013262Y001894D03*
X013908Y002173D03*
X011672Y002173D03*
X011128Y000976D03*
X011128Y000630D03*
D40*
X011128Y000634D03*
X011128Y000969D03*
X013136Y001799D03*
X013183Y002169D03*
X014790Y002150D03*
X015565Y002173D03*
X016282Y002173D03*
X016333Y000969D03*
X016333Y000634D03*
D41*
X016331Y000638D03*
X016288Y001508D03*
X015563Y001504D03*
X014792Y001539D03*
X013910Y002169D03*
X013142Y001803D03*
X012398Y002134D03*
X011126Y000638D03*
D42*
X011128Y000642D03*
X011128Y000965D03*
X011672Y002169D03*
X013250Y001886D03*
X013219Y001504D03*
X013904Y001504D03*
X014790Y002146D03*
X016282Y002169D03*
X016333Y000965D03*
X016333Y000642D03*
D43*
X016333Y000646D03*
X016333Y000961D03*
X015565Y001508D03*
X015565Y002169D03*
X014790Y002142D03*
X013239Y001878D03*
X013152Y001811D03*
X013183Y002165D03*
X011672Y002165D03*
X011128Y000961D03*
X011128Y000646D03*
D44*
X011128Y000650D03*
X011128Y000953D03*
X011128Y000957D03*
X013219Y001508D03*
X013231Y001870D03*
X013904Y001508D03*
X014790Y002138D03*
X016282Y002165D03*
X016333Y000953D03*
X016333Y000650D03*
D45*
X016331Y000654D03*
X016288Y001516D03*
X015563Y002165D03*
X014792Y001551D03*
X013225Y001866D03*
X013166Y001823D03*
X013162Y001819D03*
X013181Y002161D03*
X011126Y000654D03*
D46*
X011128Y000657D03*
X011128Y000949D03*
X011672Y002161D03*
X013172Y001827D03*
X013219Y001862D03*
X013908Y002161D03*
X014790Y002134D03*
X015565Y001512D03*
X016333Y000949D03*
X016333Y000657D03*
D47*
X016333Y000661D03*
X016333Y000941D03*
X016333Y000945D03*
X015565Y002161D03*
X013203Y001850D03*
X013191Y001843D03*
X013187Y001839D03*
X013180Y002157D03*
X011672Y002157D03*
X011128Y000945D03*
X011128Y000941D03*
X011128Y000665D03*
X011128Y000661D03*
D48*
X013910Y002157D03*
X015563Y001516D03*
X016288Y001520D03*
X016331Y000665D03*
D49*
X016333Y000669D03*
X016333Y000937D03*
X016282Y002157D03*
X013904Y001516D03*
X013180Y002154D03*
X011664Y001516D03*
X011128Y000937D03*
X011128Y000669D03*
D50*
X011126Y000673D03*
X011126Y000933D03*
X013221Y001516D03*
X013910Y002154D03*
X015563Y002157D03*
X016288Y001524D03*
X016331Y000933D03*
X016331Y000673D03*
D51*
X016333Y000677D03*
X016333Y000929D03*
X015565Y001520D03*
X011672Y002154D03*
X011128Y000929D03*
X011128Y000677D03*
D52*
X011128Y000681D03*
X011128Y000685D03*
X011128Y000921D03*
X011672Y002150D03*
X013180Y002150D03*
X013908Y002150D03*
X013223Y001520D03*
X015565Y001524D03*
X015565Y002154D03*
X016333Y000921D03*
X016333Y000685D03*
X016333Y000681D03*
D53*
X016333Y000689D03*
X016333Y000693D03*
X016333Y000913D03*
X016282Y002150D03*
X015565Y002150D03*
X013904Y001524D03*
X011664Y001524D03*
X011672Y002146D03*
X011128Y000913D03*
X011128Y000693D03*
X011128Y000689D03*
D54*
X011126Y000909D03*
X013225Y001524D03*
X013178Y002146D03*
X013910Y002146D03*
X015563Y001528D03*
X016288Y001531D03*
X016331Y000909D03*
X016331Y000697D03*
D55*
X016333Y000701D03*
X016333Y000902D03*
X016333Y000906D03*
X011128Y000906D03*
X011128Y000902D03*
X011128Y000705D03*
X011128Y000701D03*
X011128Y000697D03*
D56*
X011666Y001528D03*
X013225Y001528D03*
X013902Y001528D03*
X013910Y002142D03*
X013178Y002142D03*
X015563Y002146D03*
X016280Y002146D03*
X016331Y000705D03*
D57*
X016333Y000709D03*
X016333Y000713D03*
X016333Y000894D03*
X016333Y000898D03*
X015565Y001531D03*
X011672Y002142D03*
X011128Y000898D03*
X011128Y000894D03*
X011128Y000713D03*
X011128Y000709D03*
D58*
X011126Y000717D03*
X011126Y000890D03*
X011666Y001531D03*
X013902Y001531D03*
X016288Y001535D03*
X016331Y000890D03*
X016331Y000717D03*
D59*
X016333Y000720D03*
X016333Y000724D03*
X016333Y000882D03*
X016333Y000886D03*
X015565Y001535D03*
X015565Y002142D03*
X016282Y002142D03*
X013908Y002138D03*
X013176Y002138D03*
X013227Y001531D03*
X011672Y002138D03*
X011128Y000886D03*
X011128Y000882D03*
X011128Y000724D03*
X011128Y000720D03*
D60*
X011126Y000728D03*
X011126Y000878D03*
X013178Y002134D03*
X016288Y001539D03*
X016331Y000878D03*
X016331Y000728D03*
D61*
X016333Y000732D03*
X016333Y000736D03*
X016333Y000740D03*
X016333Y000866D03*
X016333Y000870D03*
X016333Y000874D03*
X015565Y002138D03*
X013908Y002134D03*
X013219Y002063D03*
X013187Y002118D03*
X013183Y002122D03*
X013183Y002126D03*
X013180Y002130D03*
X011672Y002134D03*
X011664Y001535D03*
X011128Y000874D03*
X011128Y000870D03*
X011128Y000866D03*
X011128Y000740D03*
X011128Y000736D03*
X011128Y000732D03*
D62*
X011126Y000744D03*
X011126Y000862D03*
X013229Y001535D03*
X013217Y002067D03*
X013213Y002071D03*
X013213Y002075D03*
X013209Y002079D03*
X013209Y002083D03*
X013205Y002087D03*
X013205Y002091D03*
X013201Y002094D03*
X013201Y002098D03*
X013197Y002102D03*
X013193Y002106D03*
X013193Y002110D03*
X013189Y002114D03*
X013902Y001535D03*
X015563Y001539D03*
X016288Y001543D03*
X016280Y002138D03*
X016331Y000862D03*
X016331Y000744D03*
D63*
X016333Y000748D03*
X016333Y000752D03*
X016333Y000756D03*
X016333Y000760D03*
X016333Y000846D03*
X016333Y000850D03*
X016333Y000854D03*
X016333Y000858D03*
X015565Y002134D03*
X011672Y002130D03*
X011128Y000858D03*
X011128Y000854D03*
X011128Y000850D03*
X011128Y000846D03*
X011128Y000760D03*
X011128Y000756D03*
X011128Y000752D03*
X011128Y000748D03*
D64*
X011126Y000764D03*
X011126Y000843D03*
X011666Y001539D03*
X013229Y001539D03*
X013902Y001539D03*
X013910Y002130D03*
X015563Y001543D03*
X016288Y001547D03*
X016280Y002134D03*
X016331Y000843D03*
X016331Y000839D03*
X016331Y000768D03*
X016331Y000764D03*
D65*
X016333Y000772D03*
X016333Y000776D03*
X016333Y000780D03*
X016333Y000783D03*
X016333Y000787D03*
X016333Y000791D03*
X016333Y000795D03*
X016333Y000799D03*
X016333Y000803D03*
X016333Y000807D03*
X016333Y000811D03*
X016333Y000815D03*
X016333Y000819D03*
X016333Y000823D03*
X016333Y000827D03*
X016333Y000831D03*
X016333Y000835D03*
X011672Y002126D03*
X011128Y000839D03*
X011128Y000835D03*
X011128Y000831D03*
X011128Y000827D03*
X011128Y000823D03*
X011128Y000819D03*
X011128Y000815D03*
X011128Y000811D03*
X011128Y000807D03*
X011128Y000803D03*
X011128Y000799D03*
X011128Y000795D03*
X011128Y000791D03*
X011128Y000787D03*
X011128Y000783D03*
X011128Y000780D03*
X011128Y000776D03*
X011128Y000772D03*
X011128Y000768D03*
D66*
X011126Y000917D03*
X016288Y001528D03*
X016331Y000917D03*
D67*
X016331Y000925D03*
X016280Y002154D03*
X013902Y001520D03*
X011666Y001520D03*
X011126Y000925D03*
X010721Y002126D03*
X010721Y002130D03*
X010721Y002134D03*
X010721Y002138D03*
X010721Y002142D03*
X010721Y002146D03*
X010721Y002150D03*
X010721Y002154D03*
X010721Y002157D03*
X010721Y002161D03*
X010721Y002165D03*
X010721Y002169D03*
X010721Y002173D03*
X010721Y002177D03*
X010721Y002181D03*
X010721Y002185D03*
X010721Y002189D03*
X010721Y002193D03*
X010721Y002197D03*
X010721Y002201D03*
X010721Y002205D03*
X010721Y002209D03*
X010721Y002213D03*
X010721Y002217D03*
X010721Y002220D03*
X010721Y002224D03*
X010721Y002228D03*
X010721Y002232D03*
X010721Y002236D03*
X010721Y002240D03*
X010721Y002244D03*
X010721Y002248D03*
X010721Y002252D03*
X010721Y002256D03*
X010721Y002260D03*
D68*
X011666Y001508D03*
X013158Y001815D03*
X013233Y001874D03*
X013910Y002165D03*
X014792Y001547D03*
X016288Y001512D03*
X016331Y000957D03*
D69*
X016331Y000972D03*
X014792Y001535D03*
X013217Y001500D03*
X013130Y001795D03*
X013256Y001890D03*
X012398Y002138D03*
X011666Y001500D03*
X011126Y000972D03*
D70*
X011126Y001004D03*
X012398Y002165D03*
X013304Y001917D03*
X013910Y002189D03*
X014528Y002043D03*
X016284Y002189D03*
X016288Y001488D03*
X016331Y001004D03*
X010646Y002409D03*
X010646Y002413D03*
D71*
X010642Y002429D03*
X010642Y002433D03*
X011835Y001626D03*
X013083Y001764D03*
X014524Y001638D03*
X014788Y002177D03*
X016331Y001008D03*
D72*
X014790Y001504D03*
X014916Y002047D03*
X014522Y002039D03*
X014073Y001626D03*
X013309Y001921D03*
X012396Y002169D03*
X011128Y001008D03*
X010640Y002437D03*
X015565Y002193D03*
D73*
X014930Y002043D03*
X014508Y002028D03*
X013910Y002197D03*
X012666Y002031D03*
X010626Y002476D03*
X016284Y002197D03*
X016288Y001480D03*
X016331Y001020D03*
D74*
X015565Y001476D03*
X016483Y001646D03*
X016483Y002031D03*
X014506Y002024D03*
X014093Y002047D03*
X014093Y001630D03*
X013904Y001476D03*
X014506Y001654D03*
X013329Y001933D03*
X013061Y001752D03*
X013207Y001476D03*
X013187Y002197D03*
X012396Y002181D03*
X011857Y001630D03*
X011668Y001476D03*
X011128Y001020D03*
X010624Y002480D03*
D75*
X010615Y002496D03*
X011481Y002043D03*
X013052Y001744D03*
X013343Y001941D03*
X013189Y002201D03*
X014788Y002193D03*
X014949Y002031D03*
X014788Y001488D03*
X016331Y001028D03*
X016496Y001654D03*
X016496Y002024D03*
X016284Y002201D03*
D76*
X015774Y002031D03*
X015357Y002031D03*
X015353Y001646D03*
X015565Y001472D03*
X015774Y001646D03*
X016502Y001657D03*
X014943Y001646D03*
X014494Y001669D03*
X014109Y001638D03*
X013904Y001472D03*
X013719Y002043D03*
X014494Y002008D03*
X012680Y002016D03*
X012396Y002189D03*
X011872Y002039D03*
X011872Y001638D03*
X011668Y001472D03*
X011128Y001028D03*
X010613Y002500D03*
D77*
X010593Y002524D03*
X011443Y002008D03*
X011447Y002012D03*
X011672Y002209D03*
X011904Y002012D03*
X011908Y002008D03*
X012243Y002004D03*
X012243Y002000D03*
X012246Y002008D03*
X012699Y001976D03*
X012699Y001972D03*
X013026Y001720D03*
X013380Y001618D03*
X013369Y001961D03*
X013683Y002012D03*
X014140Y002012D03*
X014475Y001957D03*
X014475Y001953D03*
X014475Y001720D03*
X014475Y001717D03*
X014144Y001665D03*
X014786Y001476D03*
X014983Y001689D03*
X014987Y001693D03*
X014987Y001697D03*
X015313Y001689D03*
X015317Y001685D03*
X015813Y001685D03*
X015817Y001689D03*
X015817Y001693D03*
X015817Y001984D03*
X015813Y001988D03*
X015317Y001992D03*
X015313Y001988D03*
X014994Y001972D03*
X014991Y001976D03*
X016286Y001469D03*
X016538Y001697D03*
X016538Y001980D03*
X016534Y001984D03*
X016333Y001039D03*
X011904Y001665D03*
X011128Y001039D03*
D78*
X011128Y001051D03*
X010565Y002539D03*
X015565Y002217D03*
X016333Y001051D03*
D79*
X016333Y001055D03*
X016097Y001665D03*
X013743Y001638D03*
X013408Y001638D03*
X011128Y001055D03*
D80*
X011128Y001059D03*
X013038Y002047D03*
X013416Y001646D03*
X015565Y002220D03*
X016282Y001457D03*
X016333Y001059D03*
D81*
X016333Y001063D03*
X013026Y002035D03*
X011491Y001657D03*
X011128Y001063D03*
D82*
X011128Y001067D03*
X012396Y002224D03*
X013006Y002008D03*
X016089Y001724D03*
X016333Y001067D03*
D83*
X013699Y001154D03*
X013699Y001157D03*
D84*
X013697Y001161D03*
D85*
X013695Y001165D03*
X013695Y001169D03*
D86*
X013693Y001173D03*
D87*
X013691Y001177D03*
D88*
X013689Y001181D03*
X013689Y001185D03*
D89*
X013687Y001189D03*
D90*
X013685Y001193D03*
D91*
X013683Y001197D03*
D92*
X013681Y001201D03*
X013681Y001205D03*
D93*
X013680Y001209D03*
D94*
X013678Y001213D03*
D95*
X013676Y001217D03*
X013676Y001220D03*
D96*
X013674Y001224D03*
D97*
X013672Y001228D03*
D98*
X013670Y001232D03*
D99*
X013668Y001236D03*
X013668Y001240D03*
D100*
X013666Y001244D03*
D101*
X013664Y001248D03*
D102*
X013662Y001252D03*
X013662Y001256D03*
D103*
X013660Y001260D03*
D104*
X013658Y001264D03*
D105*
X013656Y001268D03*
X013656Y001272D03*
D106*
X013654Y001276D03*
D107*
X013652Y001280D03*
D108*
X013650Y001283D03*
D109*
X013648Y001287D03*
X013648Y001291D03*
D110*
X013646Y001295D03*
D111*
X013644Y001299D03*
D112*
X013642Y001303D03*
X013642Y001307D03*
D113*
X013640Y001311D03*
D114*
X013638Y001315D03*
D115*
X013636Y001319D03*
D116*
X013634Y001323D03*
X013634Y001327D03*
D117*
X013632Y001331D03*
D118*
X013630Y001335D03*
D119*
X013628Y001339D03*
X013628Y001343D03*
D120*
X013626Y001346D03*
D121*
X013624Y001350D03*
D122*
X013622Y001354D03*
D123*
X013620Y001358D03*
X013620Y001362D03*
D124*
X014174Y001713D03*
X014174Y001717D03*
X014178Y001720D03*
X014178Y001724D03*
X014185Y001917D03*
X014181Y001925D03*
X014181Y001929D03*
X014181Y001933D03*
X014181Y001937D03*
X014178Y001941D03*
X014178Y001945D03*
X014178Y001949D03*
X014174Y001957D03*
X014461Y001878D03*
X014461Y001874D03*
X014461Y001870D03*
X014461Y001866D03*
X014461Y001862D03*
X014461Y001858D03*
X014461Y001854D03*
X014461Y001850D03*
X014461Y001846D03*
X014461Y001843D03*
X014461Y001839D03*
X014461Y001835D03*
X014461Y001831D03*
X014461Y001827D03*
X014461Y001823D03*
X014461Y001819D03*
X014461Y001815D03*
X014461Y001811D03*
X014461Y001807D03*
X014461Y001803D03*
X014461Y001799D03*
X014461Y001795D03*
X014461Y001555D03*
X014461Y001551D03*
X014461Y001547D03*
X014461Y001543D03*
X014461Y001539D03*
X014461Y001535D03*
X014461Y001531D03*
X014461Y001528D03*
X014461Y001524D03*
X014461Y001520D03*
X014461Y001516D03*
X014461Y001512D03*
X014461Y001508D03*
X014461Y001504D03*
X014461Y001500D03*
X014461Y001496D03*
X014461Y001492D03*
X014461Y001488D03*
X014461Y001484D03*
X014461Y001480D03*
X014461Y001476D03*
X014461Y001472D03*
X014461Y001469D03*
X014461Y001465D03*
X013650Y001921D03*
X013382Y001980D03*
X013374Y002047D03*
X013012Y001697D03*
X013020Y001630D03*
X012713Y001630D03*
X012713Y001634D03*
X012713Y001638D03*
X012713Y001642D03*
X012713Y001646D03*
X012713Y001650D03*
X012713Y001654D03*
X012713Y001657D03*
X012713Y001661D03*
X012713Y001665D03*
X012713Y001669D03*
X012713Y001673D03*
X012713Y001677D03*
X012713Y001681D03*
X012713Y001685D03*
X012713Y001689D03*
X012713Y001693D03*
X012713Y001697D03*
X012713Y001701D03*
X012713Y001705D03*
X012713Y001709D03*
X012713Y001713D03*
X012713Y001717D03*
X012713Y001720D03*
X012713Y001724D03*
X012713Y001728D03*
X012713Y001732D03*
X012713Y001736D03*
X012713Y001740D03*
X012713Y001744D03*
X012713Y001748D03*
X012713Y001752D03*
X012713Y001756D03*
X012713Y001760D03*
X012713Y001764D03*
X012713Y001768D03*
X012713Y001772D03*
X012713Y001776D03*
X012713Y001780D03*
X012713Y001783D03*
X012713Y001787D03*
X012713Y001791D03*
X012713Y001795D03*
X012713Y001799D03*
X012713Y001803D03*
X012713Y001807D03*
X012713Y001811D03*
X012713Y001815D03*
X012713Y001819D03*
X012713Y001823D03*
X012713Y001827D03*
X012713Y001831D03*
X012713Y001835D03*
X012713Y001839D03*
X012713Y001843D03*
X012713Y001846D03*
X012713Y001850D03*
X012713Y001854D03*
X012713Y001858D03*
X012713Y001862D03*
X012713Y001866D03*
X012713Y001870D03*
X012713Y001874D03*
X012713Y001878D03*
X012713Y001882D03*
X012713Y001886D03*
X012713Y001890D03*
X012713Y001894D03*
X012713Y002134D03*
X012713Y002138D03*
X012713Y002142D03*
X012713Y002146D03*
X012713Y002150D03*
X012713Y002154D03*
X012713Y002157D03*
X012713Y002161D03*
X012713Y002165D03*
X012713Y002169D03*
X012713Y002173D03*
X012713Y002177D03*
X012713Y002181D03*
X012713Y002185D03*
X012713Y002189D03*
X012713Y002193D03*
X012713Y002197D03*
X012713Y002201D03*
X012713Y002205D03*
X012713Y002209D03*
X012713Y002213D03*
X012713Y002217D03*
X012713Y002220D03*
X012713Y002224D03*
X012713Y002228D03*
X012713Y002232D03*
X012713Y002236D03*
X012713Y002240D03*
X012713Y002244D03*
X012713Y002248D03*
X012713Y002252D03*
X012713Y002256D03*
X012713Y002260D03*
X012713Y002264D03*
X012713Y002268D03*
X012713Y002272D03*
X012713Y002276D03*
X012713Y002280D03*
X012713Y002283D03*
X012713Y002287D03*
X012713Y002291D03*
X012713Y002295D03*
X012713Y002299D03*
X012713Y002303D03*
X012713Y002307D03*
X012713Y002311D03*
X012713Y002315D03*
X012713Y002319D03*
X012713Y002323D03*
X012713Y002327D03*
X012713Y002331D03*
X012713Y002335D03*
X012713Y002339D03*
X012713Y002343D03*
X012713Y002346D03*
X012713Y002350D03*
X012713Y002354D03*
X012713Y002358D03*
X012713Y002362D03*
X012713Y002366D03*
X012713Y002370D03*
X012713Y002374D03*
X012713Y002378D03*
X012713Y002382D03*
X012713Y002386D03*
X012713Y002390D03*
X012713Y002394D03*
X012713Y002398D03*
X012713Y002402D03*
X012713Y002406D03*
X012713Y002409D03*
X012713Y002413D03*
X012713Y002417D03*
X012713Y002421D03*
X012713Y002425D03*
X012713Y002429D03*
X012713Y002433D03*
X012713Y002437D03*
X012713Y002441D03*
X012713Y002445D03*
X012713Y002449D03*
X012713Y002453D03*
X012713Y002457D03*
X012713Y002461D03*
X012713Y002465D03*
X012713Y002469D03*
X012713Y002472D03*
X012713Y002476D03*
X012713Y002480D03*
X012713Y002484D03*
X012713Y002488D03*
X012713Y002492D03*
X012394Y002205D03*
X011937Y001957D03*
X011937Y001953D03*
X011941Y001945D03*
X011941Y001941D03*
X011941Y001937D03*
X011945Y001933D03*
X011945Y001929D03*
X011945Y001925D03*
X011945Y001921D03*
X011941Y001724D03*
X011937Y001717D03*
X011937Y001713D03*
X011933Y001709D03*
X011674Y002213D03*
X010733Y002122D03*
X010733Y002118D03*
X010733Y002114D03*
X010733Y002110D03*
X010733Y002106D03*
X010733Y002102D03*
X010733Y002098D03*
X010733Y002094D03*
X010733Y002091D03*
X010733Y002087D03*
X010733Y002083D03*
X010733Y002079D03*
X010733Y002075D03*
X010733Y002071D03*
X010733Y002067D03*
X010733Y002063D03*
X010733Y002059D03*
X010733Y002055D03*
X010733Y002051D03*
X010733Y002047D03*
X010733Y002043D03*
X010733Y002039D03*
X010733Y002035D03*
X010733Y002031D03*
X010733Y002028D03*
X010733Y002024D03*
X010733Y002020D03*
X010733Y002016D03*
X010733Y002012D03*
X010733Y002008D03*
X010733Y002004D03*
X010733Y002000D03*
X010733Y001996D03*
X010733Y001992D03*
X010733Y001988D03*
X010733Y001984D03*
X010733Y001980D03*
X010733Y001976D03*
X010733Y001972D03*
X010733Y001969D03*
X010733Y001965D03*
X010733Y001961D03*
X010733Y001957D03*
X010733Y001953D03*
X010733Y001949D03*
X010733Y001945D03*
X010733Y001941D03*
X010733Y001937D03*
X010733Y001933D03*
X010733Y001929D03*
X010733Y001925D03*
X010733Y001921D03*
X010733Y001917D03*
X010733Y001913D03*
X010733Y001909D03*
X010733Y001906D03*
X010733Y001902D03*
X010733Y001898D03*
X010733Y001894D03*
X010733Y001890D03*
X010733Y001886D03*
X010733Y001882D03*
X010733Y001878D03*
X010733Y001874D03*
X010733Y001870D03*
X010733Y001866D03*
X010733Y001862D03*
X010733Y001858D03*
X010733Y001854D03*
X010733Y001850D03*
X010733Y001846D03*
X010733Y001843D03*
X010733Y001839D03*
X010733Y001835D03*
X010733Y001831D03*
X010733Y001827D03*
X010733Y001823D03*
X010733Y001819D03*
X010733Y001815D03*
X010733Y001811D03*
X010733Y001807D03*
X010733Y001803D03*
X010733Y001799D03*
X010733Y001795D03*
X010733Y001791D03*
X010733Y001787D03*
X010733Y001783D03*
X010733Y001780D03*
X010733Y001776D03*
X010733Y001772D03*
X010733Y001768D03*
X010733Y001764D03*
X010733Y001760D03*
X010733Y001756D03*
X010733Y001752D03*
X010733Y001748D03*
X010733Y001744D03*
X010733Y001740D03*
X010733Y001736D03*
X010733Y001732D03*
X010733Y001728D03*
X010733Y001724D03*
X010733Y001720D03*
X010733Y001717D03*
X010733Y001713D03*
X010733Y001709D03*
X010733Y001705D03*
X010733Y001701D03*
X010733Y001697D03*
X010733Y001693D03*
X010733Y001689D03*
X010733Y001685D03*
X010733Y001681D03*
X010733Y001677D03*
X010733Y001673D03*
X010733Y001669D03*
X010733Y001665D03*
X010733Y001661D03*
X010733Y001657D03*
X010733Y001654D03*
X010733Y001650D03*
X010733Y001646D03*
X010733Y001642D03*
X010733Y001638D03*
X010733Y001634D03*
X010733Y001630D03*
X010733Y001626D03*
X010733Y001622D03*
X010733Y001618D03*
X010733Y001614D03*
X010733Y001610D03*
X010733Y001606D03*
X010733Y001602D03*
X010733Y001598D03*
X010733Y001594D03*
X010733Y001591D03*
X010733Y001587D03*
X010733Y001583D03*
X010733Y001579D03*
X010733Y001575D03*
X010733Y001571D03*
X010733Y001567D03*
X010733Y001563D03*
X010733Y001559D03*
X010733Y001555D03*
X010733Y001551D03*
X010733Y001547D03*
X010733Y001543D03*
X010733Y001539D03*
X010733Y001535D03*
X010733Y001531D03*
X010733Y001528D03*
X010733Y001524D03*
X010733Y001520D03*
X010733Y001516D03*
X010733Y001512D03*
X010733Y001508D03*
X010733Y001504D03*
X010733Y001500D03*
X010733Y001496D03*
X010733Y001492D03*
X010733Y001488D03*
X010733Y001484D03*
X010733Y001480D03*
X010733Y001476D03*
X010733Y001472D03*
X010733Y001469D03*
X010733Y001465D03*
X010733Y001461D03*
X010733Y001457D03*
X010733Y001453D03*
X010733Y001449D03*
X010733Y001445D03*
X010733Y001441D03*
X010733Y001437D03*
X010733Y001433D03*
X010733Y001429D03*
X010733Y001425D03*
X010733Y001421D03*
X010733Y001417D03*
X010733Y001413D03*
X010733Y001409D03*
X010733Y001406D03*
X010733Y001402D03*
X010733Y001398D03*
X010733Y001394D03*
X010733Y001390D03*
X010733Y001386D03*
X010733Y001382D03*
X010733Y001378D03*
X010733Y001374D03*
X010733Y001370D03*
X010733Y001366D03*
X010729Y002331D03*
X010729Y002335D03*
X010729Y002339D03*
X010729Y002343D03*
X010729Y002346D03*
X012713Y001626D03*
X012713Y001622D03*
X012713Y001618D03*
X012713Y001614D03*
X012713Y001610D03*
X012713Y001606D03*
X012713Y001602D03*
X012713Y001598D03*
X012713Y001594D03*
X012713Y001591D03*
X012713Y001587D03*
X012713Y001583D03*
X012713Y001579D03*
X012713Y001575D03*
X012713Y001571D03*
X012713Y001567D03*
X012713Y001563D03*
X012713Y001559D03*
X012713Y001555D03*
X012713Y001551D03*
X012713Y001547D03*
X012713Y001543D03*
X012713Y001539D03*
X012713Y001535D03*
X012713Y001531D03*
X012713Y001528D03*
X012713Y001524D03*
X012713Y001520D03*
X012713Y001516D03*
X012713Y001512D03*
X012713Y001508D03*
X012713Y001504D03*
X012713Y001500D03*
X012713Y001496D03*
X012713Y001492D03*
X012713Y001488D03*
X012713Y001484D03*
X012713Y001480D03*
X012713Y001476D03*
X012713Y001472D03*
X012713Y001469D03*
X012713Y001465D03*
X013910Y002213D03*
X014461Y002213D03*
X014461Y002217D03*
X014461Y002220D03*
X014461Y002224D03*
X014461Y002228D03*
X014461Y002232D03*
X014461Y002236D03*
X014461Y002240D03*
X014461Y002244D03*
X014461Y002248D03*
X014461Y002252D03*
X014461Y002256D03*
X014461Y002260D03*
X014461Y002264D03*
X014461Y002268D03*
X014461Y002272D03*
X014461Y002276D03*
X014461Y002280D03*
X014461Y002283D03*
X014461Y002287D03*
X014461Y002291D03*
X014461Y002295D03*
X014461Y002299D03*
X014461Y002303D03*
X014461Y002307D03*
X014461Y002311D03*
X014461Y002315D03*
X014461Y002319D03*
X014461Y002323D03*
X014461Y002327D03*
X014461Y002331D03*
X014461Y002335D03*
X014461Y002339D03*
X014461Y002343D03*
X014461Y002346D03*
X014461Y002350D03*
X014461Y002354D03*
X014461Y002358D03*
X014461Y002362D03*
X014461Y002366D03*
X014461Y002370D03*
X014461Y002374D03*
X014461Y002378D03*
X014461Y002382D03*
X014461Y002386D03*
X014461Y002390D03*
X014461Y002394D03*
X014461Y002398D03*
X014461Y002402D03*
X014461Y002406D03*
X014461Y002409D03*
X014461Y002413D03*
X014461Y002417D03*
X014461Y002421D03*
X014461Y002425D03*
X014461Y002429D03*
X014461Y002433D03*
X014461Y002437D03*
X014461Y002441D03*
X014461Y002445D03*
X014461Y002449D03*
X014461Y002453D03*
X014461Y002457D03*
X014461Y002461D03*
X014461Y002465D03*
X014461Y002469D03*
X014461Y002472D03*
X014461Y002476D03*
X014461Y002480D03*
X014461Y002484D03*
X014461Y002488D03*
X014461Y002492D03*
X014461Y002209D03*
X014461Y002205D03*
X014461Y002201D03*
X014461Y002197D03*
X014461Y002193D03*
X014461Y002189D03*
X014461Y002185D03*
X014461Y002181D03*
X014461Y002177D03*
X014461Y002173D03*
X014461Y002169D03*
X014461Y002165D03*
X014461Y002161D03*
X014461Y002157D03*
X014461Y002154D03*
X014461Y002150D03*
X014461Y002146D03*
X014461Y002142D03*
X014461Y002138D03*
X014461Y002134D03*
X015855Y001858D03*
X015855Y001854D03*
X015855Y001819D03*
X016284Y001465D03*
X016571Y001776D03*
X016571Y001780D03*
X016571Y001783D03*
X016571Y001787D03*
X016571Y001791D03*
X016575Y001795D03*
X016575Y001799D03*
X016575Y001803D03*
X016575Y001807D03*
X016575Y001811D03*
X016575Y001815D03*
X016575Y001819D03*
X016575Y001823D03*
X016575Y001827D03*
X016575Y001831D03*
X016575Y001835D03*
X016575Y001843D03*
X016575Y001846D03*
X016575Y001850D03*
X016575Y001854D03*
X016575Y001858D03*
X016575Y001862D03*
X016575Y001866D03*
X016575Y001870D03*
X016575Y001874D03*
X016575Y001878D03*
X016571Y001886D03*
X016571Y001890D03*
X016571Y001894D03*
X016571Y001898D03*
X016571Y001902D03*
X016567Y001913D03*
D125*
X016280Y001453D03*
X013016Y002024D03*
X010508Y002390D03*
D126*
X011489Y001665D03*
X011666Y001453D03*
X013020Y002028D03*
X013725Y001665D03*
X013902Y001453D03*
X013197Y001453D03*
X015563Y001453D03*
D127*
X016089Y001709D03*
X016085Y001984D03*
X014786Y001453D03*
X013723Y001669D03*
X013431Y001673D03*
X011487Y001669D03*
D128*
X013199Y001457D03*
X013412Y001642D03*
X013739Y001642D03*
X015565Y001457D03*
X016101Y002016D03*
D129*
X014788Y001457D03*
X013733Y001650D03*
X010575Y002543D03*
D130*
X011666Y001457D03*
X013902Y001457D03*
X016095Y001669D03*
D131*
X016103Y001657D03*
X016284Y001461D03*
X016111Y002028D03*
X014788Y002213D03*
X013910Y002217D03*
X014788Y001465D03*
X011674Y002217D03*
D132*
X014786Y002217D03*
X014786Y001461D03*
D133*
X014788Y001472D03*
X015008Y001744D03*
X015012Y001752D03*
X015012Y001756D03*
X015012Y001760D03*
X015016Y001768D03*
X015016Y001772D03*
X015016Y001776D03*
X015020Y001878D03*
X015020Y001882D03*
X015020Y001886D03*
X015020Y001890D03*
X015020Y001894D03*
X015016Y001898D03*
X015016Y001902D03*
X015016Y001906D03*
X015016Y001909D03*
X015276Y001874D03*
X015280Y001898D03*
X015280Y001902D03*
X015280Y001906D03*
X015284Y001913D03*
X015284Y001917D03*
X015284Y001921D03*
X015288Y001929D03*
X015288Y001933D03*
X015276Y001803D03*
X015276Y001799D03*
X015280Y001780D03*
X015280Y001776D03*
X015280Y001772D03*
X015280Y001768D03*
X015284Y001764D03*
X015284Y001760D03*
X015284Y001756D03*
X015288Y001744D03*
X015563Y002213D03*
X015843Y001929D03*
X015843Y001925D03*
X015847Y001917D03*
X015847Y001913D03*
X015847Y001909D03*
X015851Y001898D03*
X015851Y001894D03*
X015851Y001890D03*
X015851Y001783D03*
X015851Y001780D03*
X015847Y001768D03*
X015847Y001764D03*
X015847Y001760D03*
X015847Y001756D03*
X015843Y001752D03*
X015843Y001748D03*
X015839Y001736D03*
X016122Y002035D03*
X016556Y001949D03*
X016559Y001941D03*
X016559Y001937D03*
X016563Y001929D03*
X016563Y001748D03*
X016563Y001744D03*
X016559Y001740D03*
X016559Y001736D03*
X014465Y001760D03*
X014465Y001764D03*
X014465Y001768D03*
X014465Y001772D03*
X014465Y001902D03*
X014465Y001906D03*
X014465Y001909D03*
X014465Y001913D03*
X014170Y001969D03*
X014166Y001976D03*
X014162Y001984D03*
X014166Y001697D03*
X014162Y001693D03*
X013654Y001945D03*
X013658Y001957D03*
X013658Y001961D03*
X013658Y001965D03*
X013662Y001969D03*
X013662Y001972D03*
X013378Y001972D03*
X013370Y002051D03*
X013016Y001705D03*
X013024Y001626D03*
X013201Y001465D03*
X012709Y001921D03*
X012709Y001925D03*
X012709Y001929D03*
X012709Y001933D03*
X012229Y001953D03*
X012229Y001957D03*
X012225Y001941D03*
X012225Y001937D03*
X012225Y001933D03*
X012225Y001929D03*
X012225Y001925D03*
X011930Y001972D03*
X011930Y001976D03*
X011926Y001980D03*
X011426Y001972D03*
X011422Y001965D03*
X011422Y001961D03*
X011418Y001953D03*
X011418Y001949D03*
X011926Y001693D03*
X010725Y002358D03*
X010721Y002366D03*
X010721Y002370D03*
D134*
X010723Y002362D03*
X010727Y002354D03*
X010727Y002350D03*
X010581Y002531D03*
X011113Y002492D03*
X011113Y002488D03*
X011113Y002484D03*
X011113Y002480D03*
X011113Y002476D03*
X011113Y002472D03*
X011113Y002469D03*
X011113Y002465D03*
X011113Y002461D03*
X011113Y002457D03*
X011113Y002453D03*
X011113Y002449D03*
X011113Y002445D03*
X011113Y002441D03*
X011113Y002437D03*
X011113Y002433D03*
X011113Y002429D03*
X011113Y002425D03*
X011113Y002421D03*
X011113Y002417D03*
X011113Y002413D03*
X011113Y002409D03*
X011113Y002406D03*
X011113Y002402D03*
X011113Y002398D03*
X011113Y002394D03*
X011113Y002390D03*
X011113Y002386D03*
X011113Y002382D03*
X011113Y002378D03*
X011113Y002374D03*
X011113Y002370D03*
X011113Y002366D03*
X011113Y002362D03*
X011113Y002358D03*
X011113Y002354D03*
X011113Y002350D03*
X011113Y002346D03*
X011113Y002343D03*
X011113Y002339D03*
X011113Y002335D03*
X011113Y002331D03*
X011113Y002327D03*
X011113Y002323D03*
X011113Y002319D03*
X011113Y002315D03*
X011113Y002311D03*
X011113Y002307D03*
X011113Y002303D03*
X011113Y002299D03*
X011113Y002295D03*
X011113Y002291D03*
X011113Y002287D03*
X011113Y002283D03*
X011113Y002280D03*
X011113Y002276D03*
X011113Y002272D03*
X011113Y002268D03*
X011113Y002264D03*
X011113Y002260D03*
X011113Y002256D03*
X011113Y002252D03*
X011113Y002248D03*
X011113Y002244D03*
X011113Y002240D03*
X011113Y002236D03*
X011113Y002232D03*
X011113Y002228D03*
X011113Y002224D03*
X011113Y002220D03*
X011113Y002217D03*
X011113Y002213D03*
X011113Y002209D03*
X011113Y002205D03*
X011113Y002201D03*
X011113Y002197D03*
X011113Y002193D03*
X011113Y002189D03*
X011113Y002185D03*
X011113Y002181D03*
X011113Y002177D03*
X011113Y002173D03*
X011113Y002169D03*
X011113Y002165D03*
X011113Y002161D03*
X011113Y002157D03*
X011113Y002154D03*
X011113Y002150D03*
X011113Y002146D03*
X011113Y002142D03*
X011113Y002138D03*
X011113Y002134D03*
X011113Y002130D03*
X011113Y002126D03*
X011113Y002122D03*
X011113Y002118D03*
X011113Y002114D03*
X011113Y002110D03*
X011113Y002106D03*
X011113Y002102D03*
X011113Y002098D03*
X011113Y002094D03*
X011113Y002091D03*
X011113Y002087D03*
X011113Y002083D03*
X011113Y002079D03*
X011113Y002075D03*
X011113Y002071D03*
X011113Y002067D03*
X011113Y002063D03*
X011113Y002059D03*
X011113Y002055D03*
X011113Y002051D03*
X011113Y002047D03*
X011113Y002043D03*
X011113Y002039D03*
X011113Y002035D03*
X011113Y002031D03*
X011113Y002028D03*
X011113Y002024D03*
X011113Y002020D03*
X011113Y002016D03*
X011113Y002012D03*
X011113Y002008D03*
X011113Y002004D03*
X011113Y002000D03*
X011113Y001996D03*
X011113Y001992D03*
X011113Y001988D03*
X011113Y001984D03*
X011113Y001980D03*
X011113Y001976D03*
X011113Y001972D03*
X011113Y001969D03*
X011113Y001965D03*
X011113Y001961D03*
X011113Y001957D03*
X011113Y001953D03*
X011113Y001949D03*
X011113Y001945D03*
X011113Y001941D03*
X011113Y001937D03*
X011113Y001933D03*
X011113Y001929D03*
X011113Y001925D03*
X011113Y001921D03*
X011113Y001917D03*
X011113Y001913D03*
X011113Y001909D03*
X011113Y001906D03*
X011113Y001902D03*
X011113Y001898D03*
X011113Y001894D03*
X011113Y001890D03*
X011113Y001886D03*
X011113Y001882D03*
X011113Y001878D03*
X011113Y001874D03*
X011113Y001870D03*
X011113Y001866D03*
X011113Y001862D03*
X011113Y001858D03*
X011113Y001854D03*
X011113Y001850D03*
X011113Y001846D03*
X011113Y001843D03*
X011113Y001839D03*
X011113Y001835D03*
X011113Y001831D03*
X011113Y001827D03*
X011113Y001823D03*
X011113Y001819D03*
X011113Y001815D03*
X011113Y001811D03*
X011113Y001807D03*
X011113Y001803D03*
X011113Y001799D03*
X011113Y001795D03*
X011113Y001791D03*
X011113Y001787D03*
X011113Y001783D03*
X011113Y001780D03*
X011113Y001776D03*
X011113Y001772D03*
X011113Y001768D03*
X011113Y001764D03*
X011113Y001760D03*
X011113Y001756D03*
X011113Y001752D03*
X011113Y001748D03*
X011113Y001744D03*
X011113Y001740D03*
X011113Y001736D03*
X011113Y001732D03*
X011113Y001728D03*
X011113Y001724D03*
X011113Y001720D03*
X011113Y001717D03*
X011113Y001713D03*
X011113Y001709D03*
X011113Y001705D03*
X011113Y001701D03*
X011113Y001697D03*
X011113Y001693D03*
X011113Y001689D03*
X011113Y001685D03*
X011113Y001681D03*
X011113Y001677D03*
X011113Y001673D03*
X011113Y001669D03*
X011113Y001665D03*
X011113Y001661D03*
X011113Y001657D03*
X011113Y001654D03*
X011113Y001650D03*
X011113Y001646D03*
X011113Y001642D03*
X011113Y001638D03*
X011113Y001634D03*
X011113Y001630D03*
X011113Y001626D03*
X011113Y001622D03*
X011113Y001618D03*
X011113Y001614D03*
X011113Y001610D03*
X011113Y001606D03*
X011113Y001602D03*
X011113Y001598D03*
X011113Y001594D03*
X011113Y001591D03*
X011113Y001587D03*
X011113Y001583D03*
X011113Y001579D03*
X011113Y001575D03*
X011113Y001571D03*
X011113Y001567D03*
X011113Y001563D03*
X011113Y001559D03*
X011113Y001555D03*
X011113Y001551D03*
X011113Y001547D03*
X011113Y001543D03*
X011113Y001539D03*
X011113Y001535D03*
X011113Y001531D03*
X011113Y001528D03*
X011113Y001524D03*
X011113Y001520D03*
X011113Y001516D03*
X011113Y001512D03*
X011113Y001508D03*
X011113Y001504D03*
X011113Y001500D03*
X011113Y001496D03*
X011113Y001492D03*
X011113Y001488D03*
X011113Y001484D03*
X011113Y001480D03*
X011113Y001476D03*
X011113Y001472D03*
X011113Y001469D03*
X011113Y001465D03*
X011412Y001917D03*
X011412Y001921D03*
X011412Y001925D03*
X011416Y001929D03*
X011416Y001933D03*
X011416Y001937D03*
X011416Y001941D03*
X011416Y001945D03*
X011420Y001957D03*
X011931Y001969D03*
X011935Y001965D03*
X011935Y001961D03*
X011939Y001949D03*
X012223Y001921D03*
X012223Y001917D03*
X012223Y001913D03*
X012223Y001909D03*
X012223Y001906D03*
X012223Y001902D03*
X012223Y001898D03*
X012223Y001894D03*
X012223Y001890D03*
X012223Y001886D03*
X012223Y001882D03*
X012223Y001878D03*
X012223Y001874D03*
X012223Y001870D03*
X012223Y001866D03*
X012223Y001862D03*
X012223Y001858D03*
X012223Y001854D03*
X012223Y001850D03*
X012223Y001846D03*
X012223Y001843D03*
X012223Y001839D03*
X012223Y001835D03*
X012223Y001831D03*
X012223Y001827D03*
X012223Y001823D03*
X012223Y001819D03*
X012223Y001815D03*
X012223Y001811D03*
X012223Y001807D03*
X012223Y001803D03*
X012223Y001799D03*
X012223Y001795D03*
X012223Y001791D03*
X012223Y001787D03*
X012223Y001783D03*
X012223Y001780D03*
X012223Y001776D03*
X012223Y001772D03*
X012223Y001768D03*
X012223Y001764D03*
X012223Y001760D03*
X012223Y001756D03*
X012223Y001752D03*
X012223Y001748D03*
X012223Y001744D03*
X012223Y001740D03*
X012223Y001736D03*
X012223Y001732D03*
X012223Y001728D03*
X012223Y001724D03*
X012223Y001720D03*
X012223Y001717D03*
X012223Y001713D03*
X012223Y001709D03*
X012223Y001705D03*
X012223Y001701D03*
X012223Y001697D03*
X012223Y001693D03*
X012223Y001689D03*
X012223Y001685D03*
X012223Y001681D03*
X012223Y001677D03*
X012223Y001673D03*
X012223Y001669D03*
X012223Y001665D03*
X012223Y001661D03*
X012223Y001657D03*
X012223Y001654D03*
X012223Y001650D03*
X012223Y001646D03*
X012223Y001642D03*
X012223Y001638D03*
X012223Y001634D03*
X012223Y001630D03*
X012223Y001626D03*
X012223Y001622D03*
X012223Y001618D03*
X012223Y001614D03*
X012223Y001610D03*
X012223Y001606D03*
X012223Y001602D03*
X012223Y001598D03*
X012223Y001594D03*
X012223Y001591D03*
X012223Y001587D03*
X012223Y001583D03*
X012223Y001579D03*
X012223Y001575D03*
X012223Y001571D03*
X012223Y001567D03*
X012223Y001563D03*
X012223Y001559D03*
X012223Y001555D03*
X012223Y001551D03*
X012223Y001547D03*
X012223Y001543D03*
X012223Y001539D03*
X012223Y001535D03*
X012223Y001531D03*
X012223Y001528D03*
X012223Y001524D03*
X012223Y001520D03*
X012223Y001516D03*
X012223Y001512D03*
X012223Y001508D03*
X012223Y001504D03*
X012223Y001500D03*
X012223Y001496D03*
X012223Y001492D03*
X012223Y001488D03*
X012223Y001484D03*
X012223Y001480D03*
X012223Y001476D03*
X012223Y001472D03*
X012223Y001469D03*
X012223Y001465D03*
X011931Y001701D03*
X011931Y001705D03*
X011928Y001697D03*
X012711Y001898D03*
X012711Y001902D03*
X012711Y001906D03*
X012711Y001909D03*
X012711Y001913D03*
X012711Y001917D03*
X013014Y001701D03*
X013380Y001976D03*
X013652Y001941D03*
X013652Y001937D03*
X013652Y001933D03*
X013652Y001929D03*
X013652Y001925D03*
X013648Y001917D03*
X013656Y001949D03*
X013656Y001953D03*
X014168Y001972D03*
X014172Y001965D03*
X014172Y001961D03*
X014176Y001953D03*
X014172Y001709D03*
X014168Y001705D03*
X014168Y001701D03*
X014463Y001776D03*
X014463Y001780D03*
X014463Y001783D03*
X014463Y001787D03*
X014463Y001791D03*
X014463Y001882D03*
X014463Y001886D03*
X014463Y001890D03*
X014463Y001894D03*
X014463Y001898D03*
X015022Y001874D03*
X015022Y001870D03*
X015022Y001866D03*
X015022Y001862D03*
X015022Y001858D03*
X015022Y001854D03*
X015022Y001850D03*
X015022Y001846D03*
X015022Y001843D03*
X015022Y001839D03*
X015022Y001835D03*
X015022Y001831D03*
X015022Y001827D03*
X015022Y001823D03*
X015022Y001819D03*
X015022Y001815D03*
X015022Y001811D03*
X015022Y001807D03*
X015022Y001803D03*
X015022Y001799D03*
X015018Y001795D03*
X015018Y001791D03*
X015018Y001787D03*
X015018Y001783D03*
X015018Y001780D03*
X015014Y001764D03*
X015274Y001807D03*
X015274Y001811D03*
X015274Y001815D03*
X015274Y001819D03*
X015274Y001823D03*
X015274Y001827D03*
X015274Y001831D03*
X015274Y001835D03*
X015274Y001839D03*
X015274Y001843D03*
X015274Y001846D03*
X015274Y001850D03*
X015274Y001854D03*
X015274Y001858D03*
X015274Y001862D03*
X015274Y001866D03*
X015274Y001870D03*
X015278Y001878D03*
X015278Y001882D03*
X015278Y001886D03*
X015278Y001890D03*
X015278Y001894D03*
X015282Y001909D03*
X015278Y001795D03*
X015278Y001791D03*
X015278Y001787D03*
X015278Y001783D03*
X015849Y001776D03*
X015849Y001772D03*
X015853Y001787D03*
X015853Y001791D03*
X015853Y001795D03*
X015853Y001799D03*
X015853Y001803D03*
X015853Y001807D03*
X015853Y001811D03*
X015853Y001815D03*
X015857Y001823D03*
X015857Y001827D03*
X015857Y001831D03*
X015857Y001835D03*
X015857Y001839D03*
X015857Y001843D03*
X015857Y001846D03*
X015857Y001850D03*
X015853Y001862D03*
X015853Y001866D03*
X015853Y001870D03*
X015853Y001874D03*
X015853Y001878D03*
X015853Y001882D03*
X015853Y001886D03*
X015849Y001902D03*
X015849Y001906D03*
X016561Y001933D03*
X016565Y001925D03*
X016565Y001921D03*
X016565Y001917D03*
X016569Y001909D03*
X016569Y001906D03*
X016569Y001772D03*
X016569Y001768D03*
X016569Y001764D03*
X016565Y001760D03*
X016565Y001756D03*
X016565Y001752D03*
D135*
X016552Y001720D03*
X016552Y001717D03*
X016548Y001713D03*
X016552Y001957D03*
X016548Y001965D03*
X015835Y001953D03*
X015835Y001949D03*
X015831Y001957D03*
X015831Y001961D03*
X015835Y001724D03*
X015831Y001720D03*
X015831Y001717D03*
X015827Y001709D03*
X015300Y001713D03*
X015300Y001717D03*
X015296Y001720D03*
X015296Y001724D03*
X015292Y001732D03*
X015296Y001953D03*
X015296Y001957D03*
X015300Y001961D03*
X015008Y001941D03*
X015008Y001937D03*
X015008Y001933D03*
X015004Y001945D03*
X015004Y001949D03*
X015004Y001732D03*
X015000Y001724D03*
X015000Y001720D03*
X014469Y001740D03*
X014469Y001744D03*
X014469Y001748D03*
X014469Y001929D03*
X014469Y001933D03*
X014158Y001992D03*
X014154Y001996D03*
X014158Y001685D03*
X014154Y001681D03*
X013670Y001988D03*
X013670Y001992D03*
X013674Y001996D03*
X013020Y001713D03*
X012705Y001949D03*
X012705Y001953D03*
X012705Y001957D03*
X012233Y001972D03*
X012233Y001976D03*
X011918Y001996D03*
X011914Y002000D03*
X011433Y001992D03*
X011430Y001984D03*
X011918Y001681D03*
X011666Y001465D03*
X010717Y002374D03*
X010587Y002528D03*
X014788Y002205D03*
D136*
X014786Y001469D03*
X013754Y001630D03*
X013388Y001996D03*
X013388Y002000D03*
X013388Y002004D03*
X013388Y002008D03*
X013388Y002012D03*
X013388Y002016D03*
X013388Y002020D03*
X013384Y002024D03*
X013384Y002028D03*
X013384Y002031D03*
X013061Y002059D03*
X013006Y001677D03*
X013006Y001673D03*
X013006Y001669D03*
X013006Y001665D03*
X013006Y001661D03*
X013010Y001657D03*
X013010Y001654D03*
X013010Y001650D03*
X011518Y001630D03*
X016117Y002031D03*
D137*
X015804Y002004D03*
X015800Y002008D03*
X015331Y002008D03*
X014981Y001996D03*
X014977Y002000D03*
X014788Y002201D03*
X014481Y001976D03*
X014481Y001972D03*
X014130Y002024D03*
X014130Y001654D03*
X014481Y001701D03*
X015327Y001669D03*
X015800Y001669D03*
X016528Y001681D03*
X013697Y002028D03*
X013693Y002024D03*
X013359Y001953D03*
X013032Y001728D03*
X012693Y001992D03*
X012252Y002020D03*
X011894Y002024D03*
X011894Y001654D03*
X011666Y001469D03*
X013205Y001469D03*
D138*
X013042Y001736D03*
X013353Y001949D03*
X013707Y002035D03*
X014120Y002031D03*
X014487Y001988D03*
X014487Y001685D03*
X014120Y001646D03*
X014967Y002012D03*
X015341Y002020D03*
X015790Y002020D03*
X015790Y001657D03*
X016286Y001472D03*
X016514Y001669D03*
X016514Y002008D03*
X016510Y002012D03*
X016286Y002205D03*
X012687Y002004D03*
X012396Y002193D03*
X011884Y002031D03*
X011884Y001646D03*
X010605Y002512D03*
D139*
X010611Y002504D03*
X010689Y002390D03*
X012681Y002012D03*
X013048Y001740D03*
X013205Y001472D03*
X014111Y002039D03*
X014493Y002004D03*
X014953Y002028D03*
X014957Y002024D03*
X014949Y001650D03*
X014493Y001673D03*
X016500Y002020D03*
D140*
X016142Y002039D03*
X015792Y002016D03*
X015339Y001657D03*
X015335Y001661D03*
X014965Y001665D03*
X014961Y001661D03*
X014788Y001480D03*
X014485Y001689D03*
X014485Y001693D03*
X014126Y001650D03*
X014485Y001984D03*
X013701Y002031D03*
X013189Y002205D03*
X013036Y001732D03*
X012689Y002000D03*
X012260Y002028D03*
X011465Y002031D03*
X016520Y001673D03*
D141*
X016473Y001642D03*
X014788Y001500D03*
X014516Y002035D03*
X014788Y002181D03*
X013902Y001480D03*
X013209Y001480D03*
X013075Y001760D03*
X013189Y002193D03*
X011666Y001480D03*
X010634Y002453D03*
X010634Y002457D03*
D142*
X011666Y001488D03*
X013213Y001488D03*
X013910Y002185D03*
X014788Y002169D03*
X016284Y002185D03*
X016288Y001492D03*
D143*
X015760Y002039D03*
X015370Y002039D03*
X014937Y002039D03*
X014788Y002189D03*
X014930Y001638D03*
X014788Y001492D03*
X012670Y002028D03*
X011855Y002047D03*
X010622Y002484D03*
D144*
X011666Y001492D03*
X013213Y001492D03*
X013902Y001492D03*
X013910Y002181D03*
X016288Y001496D03*
D145*
X016288Y001500D03*
X014792Y001528D03*
X013902Y001496D03*
X013217Y001496D03*
X013268Y001898D03*
X013910Y002177D03*
X012398Y002146D03*
X011666Y001496D03*
D146*
X011666Y001504D03*
X013146Y001807D03*
X013244Y001882D03*
X014792Y001543D03*
D147*
X014792Y001555D03*
X013902Y001512D03*
X013221Y001512D03*
X013178Y001831D03*
X013181Y001835D03*
X013197Y001846D03*
X013209Y001854D03*
X013213Y001858D03*
X011666Y001512D03*
X016280Y002161D03*
D148*
X015563Y002181D03*
X014792Y001524D03*
X013276Y001902D03*
X013115Y001783D03*
X013185Y002177D03*
X012398Y002150D03*
D149*
X012398Y002142D03*
X013126Y001791D03*
X013185Y002173D03*
X014788Y002154D03*
X015563Y002177D03*
X014792Y001531D03*
D150*
X013902Y001543D03*
X013910Y002126D03*
X015563Y002130D03*
X016280Y002130D03*
X011666Y001543D03*
D151*
X013231Y001543D03*
X015565Y001547D03*
X016286Y001551D03*
D152*
X016280Y002126D03*
X015563Y002126D03*
X013910Y002122D03*
X013902Y001547D03*
X011674Y002122D03*
D153*
X011664Y001547D03*
X013231Y001547D03*
X015565Y001551D03*
D154*
X015565Y001555D03*
X013900Y001551D03*
X011664Y001551D03*
D155*
X013233Y001551D03*
X013910Y002114D03*
X015563Y002118D03*
X016280Y002122D03*
X016288Y001559D03*
D156*
X016288Y001555D03*
X015563Y002122D03*
X013910Y002118D03*
X011674Y002118D03*
D157*
X011672Y002114D03*
X011664Y001555D03*
X013900Y001555D03*
X015565Y001559D03*
D158*
X016288Y001563D03*
X016280Y002118D03*
X015563Y002114D03*
X013910Y002110D03*
X013233Y001555D03*
X011674Y002110D03*
D159*
X012487Y002087D03*
X012487Y002083D03*
X014687Y002126D03*
X014687Y001559D03*
X015565Y001618D03*
X015565Y002055D03*
D160*
X015565Y001563D03*
X013900Y001559D03*
X013235Y001559D03*
X011664Y001559D03*
D161*
X012485Y002075D03*
X012485Y002079D03*
X014689Y002122D03*
X014689Y001563D03*
X015563Y001622D03*
D162*
X015563Y002106D03*
X016280Y002110D03*
X016288Y001571D03*
X013902Y001563D03*
X013237Y001563D03*
X013910Y002102D03*
X011674Y002102D03*
D163*
X011664Y001563D03*
X015565Y001567D03*
D164*
X016288Y001567D03*
X016280Y002114D03*
X015563Y002110D03*
X013910Y002106D03*
X011674Y002106D03*
D165*
X012483Y002071D03*
X012483Y002067D03*
X014691Y002118D03*
X014691Y001567D03*
X015565Y001626D03*
X015565Y002051D03*
D166*
X015565Y001571D03*
X013900Y001567D03*
X013215Y001610D03*
X011664Y001567D03*
D167*
X011705Y001622D03*
X011674Y002098D03*
X013217Y001606D03*
X013217Y001602D03*
X013221Y001598D03*
X013225Y001591D03*
X013237Y001567D03*
X013910Y002098D03*
X015563Y002102D03*
X016280Y002106D03*
D168*
X015563Y002047D03*
X014693Y002114D03*
X014693Y001571D03*
X012481Y002055D03*
X012481Y002059D03*
X012481Y002063D03*
D169*
X013223Y001594D03*
X013227Y001587D03*
X013231Y001583D03*
X013231Y001579D03*
X013235Y001575D03*
X013239Y001571D03*
X013900Y001571D03*
X013924Y001598D03*
X013928Y001602D03*
X013931Y001606D03*
X013935Y001614D03*
X013939Y001618D03*
X013943Y001622D03*
X015565Y001575D03*
X016286Y001575D03*
X011703Y001618D03*
X011699Y001614D03*
X011695Y001610D03*
X011683Y001594D03*
X011664Y001571D03*
D170*
X012479Y002047D03*
X012479Y002051D03*
X014695Y002110D03*
X014695Y001575D03*
X015565Y001630D03*
D171*
X015563Y002098D03*
X016280Y002102D03*
X013910Y002094D03*
X013933Y001610D03*
X013922Y001594D03*
X013918Y001591D03*
X013914Y001587D03*
X013910Y001583D03*
X013906Y001579D03*
X013902Y001575D03*
X011693Y001606D03*
X011689Y001602D03*
X011685Y001598D03*
X011681Y001591D03*
X011678Y001587D03*
X011674Y001583D03*
X011670Y001579D03*
X011666Y001575D03*
X011674Y002094D03*
D172*
X011672Y002091D03*
X015565Y001579D03*
X016286Y001579D03*
D173*
X014697Y001579D03*
X014697Y002106D03*
D174*
X015565Y002091D03*
X015565Y001583D03*
X016286Y001583D03*
X011672Y002087D03*
D175*
X014699Y002102D03*
X014699Y001587D03*
X014699Y001583D03*
D176*
X013910Y002083D03*
X015563Y001587D03*
X016284Y001587D03*
X016280Y002094D03*
X011674Y002083D03*
D177*
X011674Y002079D03*
X013910Y002079D03*
X015563Y001591D03*
X016284Y001591D03*
X016300Y002067D03*
X016296Y002071D03*
X016284Y002087D03*
D178*
X014701Y002094D03*
X014701Y002098D03*
X014701Y001591D03*
D179*
X013910Y002075D03*
X011674Y002075D03*
X016284Y001594D03*
D180*
X015565Y001594D03*
X015565Y002083D03*
D181*
X014703Y002091D03*
X014703Y001594D03*
D182*
X013910Y002067D03*
X012500Y002122D03*
X012500Y002126D03*
X011674Y002067D03*
X015563Y002075D03*
X016284Y001598D03*
X016300Y001622D03*
X016304Y001626D03*
X016307Y001634D03*
X016311Y001638D03*
D183*
X015565Y001598D03*
X015565Y002079D03*
X013912Y002071D03*
X012502Y002130D03*
X011672Y002071D03*
D184*
X014705Y002087D03*
X014705Y001602D03*
X014705Y001598D03*
D185*
X015565Y001602D03*
X016286Y001602D03*
X016290Y001610D03*
X016294Y001614D03*
X016298Y001618D03*
X016306Y001630D03*
X012498Y002118D03*
D186*
X012496Y002114D03*
X011674Y002063D03*
X011674Y002059D03*
X013910Y002063D03*
X015563Y002071D03*
X016288Y001606D03*
D187*
X015565Y001606D03*
X015565Y002067D03*
X013912Y002059D03*
X012494Y002106D03*
X012494Y002110D03*
D188*
X014707Y002083D03*
X014707Y002079D03*
X014707Y001606D03*
D189*
X013910Y002055D03*
X012493Y002102D03*
X011674Y002055D03*
X015563Y001610D03*
D190*
X014709Y001610D03*
X014709Y001614D03*
X014709Y002075D03*
D191*
X013912Y002051D03*
X012491Y002094D03*
X012491Y002098D03*
X015565Y002063D03*
X015565Y001614D03*
D192*
X015325Y001673D03*
X015321Y001677D03*
X014975Y001677D03*
X014987Y001984D03*
X014983Y001992D03*
X015325Y002004D03*
X015565Y002209D03*
X015806Y002000D03*
X015806Y001673D03*
X016530Y001685D03*
X016530Y001992D03*
X016526Y001996D03*
X014479Y001969D03*
X014479Y001709D03*
X014479Y001705D03*
X014136Y001657D03*
X013774Y001626D03*
X013353Y002059D03*
X013042Y001614D03*
X012695Y001984D03*
X012695Y001988D03*
X012396Y002197D03*
X012250Y002016D03*
X011896Y002020D03*
X011455Y002024D03*
X011451Y002020D03*
X011538Y001626D03*
X011896Y001657D03*
X010597Y002520D03*
D193*
X014711Y002071D03*
X014711Y001618D03*
D194*
X014471Y001732D03*
X014471Y001736D03*
X014471Y001937D03*
X014471Y001941D03*
X014152Y002000D03*
X014148Y002004D03*
X014152Y001677D03*
X014148Y001673D03*
X013676Y002000D03*
X013372Y001965D03*
X013365Y002055D03*
X013022Y001717D03*
X013034Y001618D03*
X012703Y001961D03*
X012703Y001965D03*
X012396Y002201D03*
X012239Y001992D03*
X012239Y001988D03*
X012235Y001984D03*
X012235Y001980D03*
X011912Y002004D03*
X011439Y002000D03*
X011435Y001996D03*
X011912Y001673D03*
X011916Y001677D03*
X010715Y002378D03*
X014998Y001961D03*
X015002Y001953D03*
X015302Y001965D03*
X015302Y001969D03*
X015306Y001972D03*
X015302Y001709D03*
X015306Y001705D03*
X014998Y001717D03*
X014994Y001713D03*
X014994Y001709D03*
X015825Y001705D03*
X015829Y001713D03*
X015829Y001965D03*
X015825Y001969D03*
X015825Y001972D03*
X016542Y001972D03*
X016546Y001969D03*
X016546Y001709D03*
D195*
X014713Y001626D03*
X014713Y001622D03*
X014713Y002063D03*
X014713Y002067D03*
D196*
X014185Y001756D03*
X014185Y001752D03*
X014185Y001748D03*
X014181Y001736D03*
X013394Y001626D03*
X013012Y001642D03*
X013012Y001646D03*
X013008Y001681D03*
X013008Y001685D03*
X013008Y001689D03*
X013386Y001988D03*
X013386Y001992D03*
X013382Y002035D03*
X011949Y001760D03*
X011949Y001756D03*
X011949Y001752D03*
X011945Y001740D03*
X010575Y002535D03*
D197*
X014715Y002059D03*
X014715Y002055D03*
X014715Y001630D03*
D198*
X014922Y001634D03*
X015378Y001634D03*
X015382Y002043D03*
X014788Y002185D03*
X014512Y002031D03*
X013323Y001929D03*
X012394Y002177D03*
X010630Y002465D03*
X016473Y002035D03*
D199*
X015563Y002189D03*
X014532Y001634D03*
X013296Y001913D03*
X010650Y002394D03*
D200*
X011510Y001634D03*
X013404Y001634D03*
X013746Y001634D03*
D201*
X013044Y002051D03*
X011504Y001638D03*
X016103Y002020D03*
D202*
X016489Y002028D03*
X014937Y001642D03*
X014500Y001661D03*
X014500Y002016D03*
X013910Y002201D03*
X013335Y001937D03*
X012674Y002024D03*
X012394Y002185D03*
X010619Y002492D03*
D203*
X010607Y002508D03*
X011469Y002035D03*
X011674Y002205D03*
X011878Y002035D03*
X012264Y002031D03*
X012685Y002008D03*
X011878Y001642D03*
X013910Y002205D03*
X014115Y002035D03*
X014489Y001996D03*
X014489Y001992D03*
X014788Y002197D03*
X014961Y002020D03*
X014965Y002016D03*
X015347Y002024D03*
X015784Y002024D03*
X015784Y001654D03*
X015343Y001654D03*
X014957Y001657D03*
X014953Y001654D03*
X014489Y001681D03*
X016512Y001665D03*
D204*
X016093Y001677D03*
X016286Y002220D03*
X013735Y001646D03*
X011498Y001646D03*
D205*
X013032Y002043D03*
X013189Y002220D03*
X013418Y001650D03*
D206*
X011494Y001650D03*
X016093Y001681D03*
X016097Y002008D03*
D207*
X016093Y002004D03*
X016093Y001685D03*
X014786Y002220D03*
X013420Y001654D03*
D208*
X013028Y002039D03*
X011493Y001654D03*
D209*
X013426Y001661D03*
X013729Y001657D03*
X016091Y001693D03*
X016091Y001996D03*
D210*
X016091Y002000D03*
X016091Y001689D03*
X013422Y001657D03*
D211*
X013725Y001661D03*
X011489Y001661D03*
X016091Y001697D03*
D212*
X016089Y001701D03*
X016089Y001992D03*
X013428Y001665D03*
D213*
X013678Y002004D03*
X013681Y002008D03*
X013189Y002209D03*
X012701Y001969D03*
X012241Y001996D03*
X011910Y001669D03*
X011441Y002004D03*
X010709Y002382D03*
X014146Y002008D03*
X014473Y001949D03*
X014473Y001945D03*
X014473Y001728D03*
X014473Y001724D03*
X014146Y001669D03*
X014989Y001701D03*
X014993Y001705D03*
X015307Y001701D03*
X015307Y001697D03*
X015311Y001693D03*
X015000Y001957D03*
X014996Y001965D03*
X014996Y001969D03*
X015307Y001976D03*
X015311Y001980D03*
X015311Y001984D03*
X015819Y001980D03*
X015823Y001976D03*
X015823Y001701D03*
X015819Y001697D03*
X016284Y002209D03*
X016540Y001976D03*
X016544Y001705D03*
X016540Y001701D03*
D214*
X016089Y001705D03*
X016089Y001988D03*
X013428Y001669D03*
D215*
X013431Y001677D03*
X013723Y001673D03*
X013014Y002020D03*
X011487Y001673D03*
X010928Y002122D03*
X015565Y002224D03*
X016085Y001980D03*
X016089Y001713D03*
D216*
X013433Y001681D03*
X011485Y001677D03*
D217*
X011485Y001681D03*
X013008Y002012D03*
X013721Y001681D03*
X014788Y002224D03*
X016083Y001969D03*
D218*
X016083Y001965D03*
X013721Y001685D03*
X013437Y001689D03*
X011485Y001685D03*
D219*
X013187Y002224D03*
X013435Y001685D03*
X016089Y001720D03*
X016085Y001972D03*
D220*
X016083Y001961D03*
X013721Y001689D03*
X013437Y001693D03*
X013004Y002004D03*
X011485Y001689D03*
D221*
X011485Y001693D03*
X013004Y002000D03*
X013721Y001693D03*
X016087Y001736D03*
X016083Y001957D03*
D222*
X013721Y001697D03*
X013441Y001701D03*
X013000Y001996D03*
X011485Y001697D03*
D223*
X013439Y001697D03*
X016089Y001740D03*
X016081Y001953D03*
D224*
X016089Y001728D03*
D225*
X016089Y001732D03*
D226*
X013916Y001764D03*
X013916Y001768D03*
X013916Y001772D03*
X013916Y001776D03*
X013916Y001780D03*
X013916Y001783D03*
X013916Y001894D03*
X013916Y001898D03*
X013916Y001902D03*
X013916Y001906D03*
X013916Y001909D03*
X013916Y001913D03*
X011680Y001913D03*
X011680Y001909D03*
X011680Y001906D03*
X011680Y001902D03*
X011680Y001898D03*
X011680Y001894D03*
X011680Y001890D03*
X011680Y001886D03*
X011680Y001791D03*
X011680Y001787D03*
X011680Y001783D03*
X011680Y001780D03*
X011680Y001776D03*
X011680Y001772D03*
X011680Y001768D03*
X011680Y001764D03*
D227*
X011681Y001795D03*
X011681Y001799D03*
X011681Y001803D03*
X011681Y001807D03*
X011681Y001811D03*
X011681Y001815D03*
X011681Y001819D03*
X011681Y001823D03*
X011681Y001827D03*
X011681Y001831D03*
X011681Y001835D03*
X011681Y001839D03*
X011681Y001843D03*
X011681Y001846D03*
X011681Y001850D03*
X011681Y001854D03*
X011681Y001858D03*
X011681Y001862D03*
X011681Y001866D03*
X011681Y001870D03*
X011681Y001874D03*
X011681Y001878D03*
X011681Y001882D03*
X013918Y001882D03*
X013918Y001886D03*
X013918Y001890D03*
X013918Y001878D03*
X013918Y001874D03*
X013918Y001870D03*
X013918Y001866D03*
X013918Y001862D03*
X013918Y001858D03*
X013918Y001854D03*
X013918Y001850D03*
X013918Y001846D03*
X013918Y001843D03*
X013918Y001839D03*
X013918Y001835D03*
X013918Y001831D03*
X013918Y001827D03*
X013918Y001823D03*
X013918Y001819D03*
X013918Y001815D03*
X013918Y001811D03*
X013918Y001807D03*
X013918Y001803D03*
X013918Y001799D03*
X013918Y001795D03*
X013918Y001791D03*
X013918Y001787D03*
D228*
X013910Y002220D03*
X016099Y002012D03*
X011674Y002220D03*
D229*
X013022Y002031D03*
D230*
X012654Y002039D03*
X010638Y002441D03*
X010638Y002445D03*
D231*
X015565Y002087D03*
X016282Y002091D03*
X016286Y002083D03*
X016290Y002079D03*
X016294Y002075D03*
X016302Y002063D03*
X016306Y002059D03*
X016309Y002055D03*
X016309Y002051D03*
X016313Y002047D03*
X016317Y002043D03*
D232*
X014717Y002051D03*
D233*
X014685Y002130D03*
X015563Y002059D03*
X012489Y002091D03*
X011674Y002051D03*
D234*
X013052Y002055D03*
X013189Y002217D03*
X016284Y002217D03*
D235*
X016280Y002098D03*
X015563Y002094D03*
X013910Y002091D03*
X013910Y002087D03*
D236*
X013185Y002181D03*
X015563Y002185D03*
D237*
X016284Y002224D03*
X013914Y002224D03*
X011674Y002224D03*
M02*
